<svg xmlns="http://www.w3.org/2000/svg" xmlns:xlink="http://www.w3.org/1999/xlink" viewBox="0 0 64 64"><defs><style>.cls-1{fill:none;}.cls-2{clip-path:url(#clip-path);}.cls-3{clip-path:url(#clip-path-2);}.cls-4{clip-path:url(#clip-path-3);}.cls-5{clip-path:url(#clip-path-4);}.cls-6{clip-path:url(#clip-path-5);}.cls-7{clip-path:url(#clip-path-6);}.cls-8{clip-path:url(#clip-path-7);}.cls-9{clip-path:url(#clip-path-8);}.cls-10{clip-path:url(#clip-path-9);}.cls-11{clip-path:url(#clip-path-10);}.cls-12{clip-path:url(#clip-path-11);}.cls-13{clip-path:url(#clip-path-12);}.cls-14{clip-path:url(#clip-path-13);}.cls-15{clip-path:url(#clip-path-14);}.cls-16{clip-path:url(#clip-path-15);}.cls-17{clip-path:url(#clip-path-16);}.cls-18{clip-path:url(#clip-path-17);}.cls-19{clip-path:url(#clip-path-18);}.cls-20{clip-path:url(#clip-path-19);}.cls-21{clip-path:url(#clip-path-20);}.cls-22{clip-path:url(#clip-path-21);}.cls-23{clip-path:url(#clip-path-22);}.cls-24{clip-path:url(#clip-path-23);}.cls-25{fill:#fff;stroke:#f2a73b;stroke-miterlimit:10;stroke-width:3px;}.cls-26{clip-path:url(#clip-path-24);}.cls-27{fill:#ebc992;}.cls-28{fill:#ff9010;}.cls-29{fill:#ee8a1e;}.cls-30{fill:#2cb2ff;}.cls-31{fill:#f8c21a;}.cls-32{fill:#ffca3e;}.cls-33{fill:#e31f0a;}.cls-34{fill:#f5392b;}.cls-35{fill:#7ccff5;}.cls-36{fill:#272324;}</style><clipPath id="clip-path"><rect class="cls-1" x="-290" y="185" width="1289" height="313"/></clipPath><clipPath id="clip-path-2"><path class="cls-1" d="M-254.92,22.75a5.18,5.18,0,0,0,.34-2.34c0-2.8,0-5.6,0-8.4a7.33,7.33,0,0,1,.42-2.18,7.6,7.6,0,0,0-.1-5.83,2.32,2.32,0,0,1-.1-1.47,5.55,5.55,0,0,0-2.76-7.13,12.05,12.05,0,0,0-10.56-.34,1.74,1.74,0,0,1-1.8-.08,5.83,5.83,0,0,0-4.86-.68,1.83,1.83,0,0,1-.9.13,10.58,10.58,0,0,0-6.37.26c-1.1-5.22-4.07-7.08-9-5.83a1.85,1.85,0,0,1-1.11-.14c-3.32-1.45-5.81-1-8.37,1.55a1.25,1.25,0,0,1-1,.38c-2.49-1-5.1-.55-7.65-.7-2.8-.16-5.33.28-6.88,2.45-.79-.66-1.52-1.31-2.3-1.9-4.43-3.37-12.88-3.47-17.4-.21a7,7,0,0,0-3.11,6q.06,15.74,0,31.48a6.79,6.79,0,0,0,2.83,5.73,13.73,13.73,0,0,0,8.26,2.58c4.21.1,8.11-.82,11.09-4.12,2.13,3.39,3.61,4.16,7.66,4,1.1,0,2.19,0,3.29,0,1.89,0,3.78.1,5.66.11s3.85,0,5.77,0c1.76,0,3.52-.19,5.27-.28.34,0,.68,0,1,0h3.65c.43,0,.85-.07,1.28,0,2.77.11,5.53.29,8.3.34,1.79,0,3.6-.34,5.36-.15a14.4,14.4,0,0,0,4.29-.38c1.34-.25,2.84.48,4.28.52a8.46,8.46,0,0,0,3-.64,4.23,4.23,0,0,0,2.88-2.93c.5-2.07.79-4.27-.23-6.24a3.27,3.27,0,0,1-.16-3.49"/></clipPath><clipPath id="clip-path-3"><path class="cls-1" d="M-305.68,19.14a1.84,1.84,0,0,1,1.3.49,1.59,1.59,0,0,1,.53,1.22c0,1.52-1.28,2.27-3.84,2.27a5.51,5.51,0,0,1-3.66-1,6.57,6.57,0,0,1-1.66-2A4.72,4.72,0,0,1-313.5,18a4.71,4.71,0,0,1,1.62-3.63,5.73,5.73,0,0,1,4-1.46,5.94,5.94,0,0,1,2.93.59,1.82,1.82,0,0,1,1.06,1.63,1.82,1.82,0,0,1-.49,1.32,1.7,1.7,0,0,1-1.28.5,2,2,0,0,1-.35,0,6.17,6.17,0,0,1-.74-.19,4.05,4.05,0,0,0-1.15-.17A1.5,1.5,0,0,0-309,17a1.3,1.3,0,0,0-.43,1,1.38,1.38,0,0,0,.45,1.07,1.69,1.69,0,0,0,1.19.42h.2l.33-.07.7-.13Z"/></clipPath><clipPath id="clip-path-4"><path class="cls-1" d="M-299.2,18a1.81,1.81,0,0,0,.41,1.22,1.28,1.28,0,0,0,1,.49,1.33,1.33,0,0,0,1.06-.47,1.76,1.76,0,0,0,.41-1.24,1.67,1.67,0,0,0-.43-1.19,1.34,1.34,0,0,0-1-.49,1.34,1.34,0,0,0-1,.48,1.7,1.7,0,0,0-.42,1.2m1.45-5.27a5.51,5.51,0,0,1,3.91,1.51,4.85,4.85,0,0,1,1.6,3.7,4.94,4.94,0,0,1-1.58,3.72,5.5,5.5,0,0,1-3.92,1.5,5.5,5.5,0,0,1-3.93-1.5,4.89,4.89,0,0,1-1.61-3.7,4.91,4.91,0,0,1,1.61-3.72,5.55,5.55,0,0,1,3.93-1.51"/></clipPath><clipPath id="clip-path-5"><path class="cls-1" d="M-287.22,13.36a4.75,4.75,0,0,1,2.29-.63,4,4,0,0,1,2.78,1A3.29,3.29,0,0,1-281,16.28v4.84a1.91,1.91,0,0,1-.56,1.39,1.79,1.79,0,0,1-1.36.58,2,2,0,0,1-1.42-.57,1.85,1.85,0,0,1-.58-1.38V17.19a4.87,4.87,0,0,0-.48-.74,1,1,0,0,0-.73-.3,1,1,0,0,0-.74.3c-.21.19-.67.75-.67.75v3.92a1.91,1.91,0,0,1-.57,1.41,1.92,1.92,0,0,1-1.41.58,1.87,1.87,0,0,1-1.37-.57,2,2,0,0,1-.57-1.42v-6.3a2,2,0,0,1,.6-1.47,2,2,0,0,1,1.46-.62,2.86,2.86,0,0,1,1.65,1Z"/></clipPath><clipPath id="clip-path-6"><path class="cls-1" d="M-270.55,17.2H-268c-.1-.73-.46-1.09-1.06-1.09s-1,.36-1.17,1.09m1,2.67a4.8,4.8,0,0,0,1.14.13,7,7,0,0,0,.8,0,5,5,0,0,0,.77-.16c.32-.08.57-.14.76-.17a2.32,2.32,0,0,1,.46-.06,1.46,1.46,0,0,1,1.06.44,1.3,1.3,0,0,1,.46,1,1.52,1.52,0,0,1-.15.66,2.05,2.05,0,0,1-.55.69,4.13,4.13,0,0,1-1.56.69,9.58,9.58,0,0,1-2.45.32A6.7,6.7,0,0,1-273,21.92a4.68,4.68,0,0,1-1.69-3.76,4.78,4.78,0,0,1,1.59-3.66A5.57,5.57,0,0,1-269.12,13a5.57,5.57,0,0,1,3.75,1.41,4.26,4.26,0,0,1,1.63,3.28,1.39,1.39,0,0,1-.4,1.11,2,2,0,0,1-1.3.34h-4.86a3.37,3.37,0,0,0,.53.47,1.65,1.65,0,0,0,.5.24"/></clipPath><clipPath id="clip-path-7"><path class="cls-1" d="M-310.65,29.21a1.07,1.07,0,0,0,.26.71.82.82,0,0,0,.62.28.82.82,0,0,0,.64-.29,1.12,1.12,0,0,0,.26-.73,1.11,1.11,0,0,0-.25-.74.81.81,0,0,0-.65-.29.8.8,0,0,0-.63.29,1.21,1.21,0,0,0-.25.78m2.86-3.37a1.25,1.25,0,0,1,.91.37,1.24,1.24,0,0,1,.38.92v3.94a1.3,1.3,0,0,1-.38.93,1.24,1.24,0,0,1-.93.38,2,2,0,0,1-1.06-.55,2.37,2.37,0,0,1-.68.45,2.62,2.62,0,0,1-.84.1,2.85,2.85,0,0,1-2.14-.92,3.14,3.14,0,0,1-.88-2.27,3.42,3.42,0,0,1,.89-2.37,2.86,2.86,0,0,1,2.18-1,2.26,2.26,0,0,1,.78.1,2.46,2.46,0,0,1,.69.44,2.09,2.09,0,0,1,1.08-.54"/></clipPath><clipPath id="clip-path-8"><path class="cls-1" d="M-299.31,26.32a3.58,3.58,0,0,1,1.6-.44,2.39,2.39,0,0,1,1.65.62,2,2,0,0,1,.67,1.53V31.1a1.28,1.28,0,0,1-.38.94,1.27,1.27,0,0,1-.92.37,1.24,1.24,0,0,1-.93-.38,1.29,1.29,0,0,1-.39-.93V28.69a5.26,5.26,0,0,0-.33-.41.54.54,0,0,0-.42-.16.51.51,0,0,0-.4.16.93.93,0,0,0-.15.41v2.42a1.26,1.26,0,0,1-.4.93,1.37,1.37,0,0,1-.94.38,1.25,1.25,0,0,1-.91-.38,1.36,1.36,0,0,1-.37-.94V28.68a1,1,0,0,0-.15-.42.52.52,0,0,0-.38-.17.67.67,0,0,0-.43.16c-.11.11-.34.42-.34.42v2.44s0,.68-.21.93a1.23,1.23,0,0,1-.92.37,1.22,1.22,0,0,1-.92-.38c-.25-.25.08-.94.08-.94V27.16a1.25,1.25,0,0,1,.37-.9,1.25,1.25,0,0,1,.91-.38,1.87,1.87,0,0,1,.95.48l.24-.15A3.41,3.41,0,0,1-302,26a3.07,3.07,0,0,1,.91-.1,2.43,2.43,0,0,1,.47.08,3.59,3.59,0,0,1,1,.53Z"/></clipPath><clipPath id="clip-path-9"><path class="cls-1" d="M-292.37,29.17a1,1,0,0,0,.26.72.85.85,0,0,0,.64.28.82.82,0,0,0,.63-.29,1.07,1.07,0,0,0,.26-.72,1.12,1.12,0,0,0-.25-.73.79.79,0,0,0-.63-.29.81.81,0,0,0-.65.29,1.05,1.05,0,0,0-.26.74m-1.09,3.2a1.19,1.19,0,0,1-.9-.38,1.24,1.24,0,0,1-.38-.93V24.37a1.29,1.29,0,0,1,.37-.91,1.22,1.22,0,0,1,.91-.38,1.29,1.29,0,0,1,.95.38,1.29,1.29,0,0,1,.39.93v1.7a4.75,4.75,0,0,1,.64-.2,3.79,3.79,0,0,1,.58-.05,2.92,2.92,0,0,1,2.19.92,3.17,3.17,0,0,1,.88,2.3,3.38,3.38,0,0,1-.89,2.36,2.76,2.76,0,0,1-2.14,1,2.37,2.37,0,0,1-.84-.1,2.74,2.74,0,0,1-.72-.5,1.86,1.86,0,0,1-1,.57"/></clipPath><clipPath id="clip-path-10"><path class="cls-1" d="M-286.24,32.38a1.26,1.26,0,0,1-.93-.38,1.24,1.24,0,0,1-.38-.93V27.19a1.25,1.25,0,0,1,.39-.92,1.3,1.3,0,0,1,.93-.38,1.27,1.27,0,0,1,.92.39,1.34,1.34,0,0,1,.38.93v3.86a1.31,1.31,0,0,1-.39.93,1.26,1.26,0,0,1-.92.38m.17-9.51a1.3,1.3,0,0,1,1,.4,1.35,1.35,0,0,1,.39,1,1.29,1.29,0,0,1-.41,1,1.29,1.29,0,0,1-1,.4,1.34,1.34,0,0,1-1-.41,1.34,1.34,0,0,1-.4-1,1.3,1.3,0,0,1,.4-1,1.34,1.34,0,0,1,1-.4"/></clipPath><clipPath id="clip-path-11"><path class="cls-1" d="M-281.67,28.31H-280c-.06-.46-.28-.69-.67-.69s-.62.23-.73.69m.62,1.75a2.43,2.43,0,0,0,.71.09l.51,0a3.38,3.38,0,0,0,.48-.11l.49-.11a1.33,1.33,0,0,1,.28,0,1,1,0,0,1,.68.27.89.89,0,0,1,.29.63,1,1,0,0,1-.1.41,1.51,1.51,0,0,1-.35.44,2.54,2.54,0,0,1-1,.43,6.14,6.14,0,0,1-1.54.2,4.25,4.25,0,0,1-2.79-.9A2.93,2.93,0,0,1-284.18,29a3,3,0,0,1,1-2.31,3.5,3.5,0,0,1,2.48-.92,3.46,3.46,0,0,1,2.37.89,2.7,2.7,0,0,1,1,2.06.91.91,0,0,1-.25.7,1.25,1.25,0,0,1-.82.21h-3.07a3.17,3.17,0,0,0,.34.3,1.48,1.48,0,0,0,.31.15"/></clipPath><clipPath id="clip-path-12"><path class="cls-1" d="M-274.44,26.25a2.91,2.91,0,0,1,1.43-.4,2.5,2.5,0,0,1,1.75.64,2.05,2.05,0,0,1,.71,1.58v3a1.28,1.28,0,0,1-.38.93,1.15,1.15,0,0,1-.9.39,1.29,1.29,0,0,1-.95-.38,1.27,1.27,0,0,1-.39-.92V28.66a.67.67,0,0,0-.17-.47.58.58,0,0,0-.46-.19.59.59,0,0,0-.47.19.61.61,0,0,0-.21.47v2.43a1.29,1.29,0,0,1-.38.95,1.24,1.24,0,0,1-.93.38,1.26,1.26,0,0,1-.93-.38,1.32,1.32,0,0,1-.37-.95V27.16a1.33,1.33,0,0,1,.37-.92,1.27,1.27,0,0,1,.92-.39,1.8,1.8,0,0,1,1,.63Z"/></clipPath><clipPath id="clip-path-13"><path class="cls-1" d="M-269.34,28.32a1.25,1.25,0,0,1-.82-.3,1,1,0,0,1-.34-.73.85.85,0,0,1,.33-.66,1.23,1.23,0,0,1,.81-.28h.77v-.48a1.09,1.09,0,0,1,.38-.85,1.32,1.32,0,0,1,.94-.35,1.27,1.27,0,0,1,.91.35,1.13,1.13,0,0,1,.38.86v.47h.15a1.12,1.12,0,0,1,.77.29.88.88,0,0,1,.33.68,1,1,0,0,1-.32.7,1.1,1.1,0,0,1-.78.29h-.8V31a1.13,1.13,0,0,1-.38.86,1.34,1.34,0,0,1-.92.35,1.38,1.38,0,0,1-.94-.36,1.16,1.16,0,0,1-.38-.85V28.31Z"/></clipPath><clipPath id="clip-path-14"><path class="cls-1" d="M-262.06,28.31H-261c-.06-.46-.28-.69-.67-.69s-.62.23-.74.69m.63,1.75a2.43,2.43,0,0,0,.71.09l.51,0A4.15,4.15,0,0,0-260,30l.48-.11.29,0a1,1,0,0,1,.67.27.86.86,0,0,1,.3.63,1,1,0,0,1-.1.41,1.51,1.51,0,0,1-.35.44,2.54,2.54,0,0,1-1,.43,6.22,6.22,0,0,1-1.55.2,4.27,4.27,0,0,1-2.79-.9A3,3,0,0,1-265.15,29a3,3,0,0,1,1-2.31,3.48,3.48,0,0,1,2.48-.92,3.46,3.46,0,0,1,2.37.89,2.66,2.66,0,0,1,1,2.06.87.87,0,0,1-.24.7,1.3,1.3,0,0,1-.83.21h-3.06a3.08,3.08,0,0,0,.33.3,1.87,1.87,0,0,0,.32.15"/></clipPath><clipPath id="clip-path-15"><path class="cls-1" d="M-307.81,1.51h2.26a1.38,1.38,0,0,0,1-.36,1.24,1.24,0,0,0,.39-.94,1.27,1.27,0,0,0-.39-.92,1.32,1.32,0,0,0-1-.39h-2.26Zm0,7a2.69,2.69,0,0,1-.86,2,3,3,0,0,1-2.13.82,2.79,2.79,0,0,1-2.06-.82,2.76,2.76,0,0,1-.83-2.06V-3.27a3.05,3.05,0,0,1,.8-2.22,2.86,2.86,0,0,1,2.14-.84h5.53a7.41,7.41,0,0,1,5,1.75,5.58,5.58,0,0,1,2,4.41,5.62,5.62,0,0,1-2,4.55,7.94,7.94,0,0,1-5.31,1.71h-2.29Z"/></clipPath><clipPath id="clip-path-16"><path class="cls-1" d="M-295.39,11.14a2.54,2.54,0,0,1-1.86-.76A2.51,2.51,0,0,1-298,8.53V.76a2.47,2.47,0,0,1,.79-1.84,2.57,2.57,0,0,1,1.85-.75,2.48,2.48,0,0,1,1.84.78A2.57,2.57,0,0,1-292.78.8V8.5a2.49,2.49,0,0,1-.76,1.86,2.53,2.53,0,0,1-1.85.77m.06-19.4a2.71,2.71,0,0,1,2,.83,2.84,2.84,0,0,1,.8,2.05,2.71,2.71,0,0,1-.83,2,2.72,2.72,0,0,1-2,.83,2.71,2.71,0,0,1-2-.85,2.76,2.76,0,0,1-.85-2,2.72,2.72,0,0,1,.84-2,2.77,2.77,0,0,1,2-.83"/></clipPath><clipPath id="clip-path-17"><path class="cls-1" d="M-288.19,11.13a2.49,2.49,0,0,1-1.85-.78,2.53,2.53,0,0,1-.78-1.87V-4.94a2.45,2.45,0,0,1,.78-1.8,2.57,2.57,0,0,1,1.87-.75,2.44,2.44,0,0,1,1.82.76,2.48,2.48,0,0,1,.76,1.84V8.48a2.54,2.54,0,0,1-.76,1.86,2.47,2.47,0,0,1-1.84.79"/></clipPath><clipPath id="clip-path-18"><path class="cls-1" d="M-279,4.91a2,2,0,0,0,.53,1.43,1.75,1.75,0,0,0,1.3.58,1.75,1.75,0,0,0,1.32-.6,2.09,2.09,0,0,0,.54-1.48,2.23,2.23,0,0,0-.51-1.51,1.7,1.7,0,0,0-1.35-.59,1.64,1.64,0,0,0-1.32.59A2.33,2.33,0,0,0-279,4.91m6.42-6.86a2.67,2.67,0,0,1,1.91.74A2.47,2.47,0,0,1-269.9.68v8a2.55,2.55,0,0,1-.78,1.88,2.58,2.58,0,0,1-1.94.79,4.26,4.26,0,0,1-2.22-1.12,5,5,0,0,1-1.41.91,5.46,5.46,0,0,1-1.75.21,6,6,0,0,1-4.48-1.88,6.38,6.38,0,0,1-1.84-4.62A6.86,6.86,0,0,1-282.45,0a6,6,0,0,1,4.55-2,5.18,5.18,0,0,1,1.62.2,5.16,5.16,0,0,1,1.44.91A4.32,4.32,0,0,1-272.59-2"/></clipPath><clipPath id="clip-path-19"><path class="cls-1" d="M-263.35,1.61c-.39,0-.58.11-.58.34s.32.45,1,.63l2,.62a5.45,5.45,0,0,1,2.39,1.55A3.43,3.43,0,0,1-257.72,7a3.86,3.86,0,0,1-1.62,3.17,6.57,6.57,0,0,1-4.13,1.25,9.44,9.44,0,0,1-4.31-.87c-1.14-.58-1.71-1.31-1.71-2.2A1.81,1.81,0,0,1-268.87,7a2.12,2.12,0,0,1,1.48-.56,3.64,3.64,0,0,1,.81.07c.21,0,.56.17,1.08.36a11.46,11.46,0,0,0,1.17.39,3.38,3.38,0,0,0,.72.1c.44,0,.67-.13.67-.37s-.39-.5-1.18-.67l-2.35-.7a4.09,4.09,0,0,1-1.91-1.31,3.28,3.28,0,0,1-.68-2,3.72,3.72,0,0,1,1.65-3.15,7.19,7.19,0,0,1,4.32-1.2,7.92,7.92,0,0,1,3.59.73c1,.48,1.45,1.09,1.45,1.81a1.77,1.77,0,0,1-.56,1.3,2,2,0,0,1-1.43.53,5.92,5.92,0,0,1-1.18-.19l-.7-.2-.93-.2a4.26,4.26,0,0,0-.5-.06"/></clipPath><clipPath id="clip-path-20"><path class="cls-1" d="M-258.9,10.26a2.06,2.06,0,0,1,.11.65v10a1.94,1.94,0,0,1-.57,1.4,1.9,1.9,0,0,1-1.38.59,2,2,0,0,1-1.39-.58,1.92,1.92,0,0,1-.58-1.41v-9.1a6,6,0,0,0,3.35-1.17,3.55,3.55,0,0,0,.46-.41"/></clipPath><clipPath id="clip-path-21"><path class="cls-1" d="M-334.61,28.31V14.36c0,2.25,3.51,4.08,7.84,4.08s7.85-1.82,7.85-4.08V28.22c0,2.25-3.51,4.07-7.85,4.07s-7.84-1.82-7.84-4.07"/></clipPath><clipPath id="clip-path-22"><path class="cls-1" d="M-326.61-.24c-3.73,0-6.75-1.58-6.75-3.51s3-3.52,6.75-3.52,6.76,1.58,6.76,3.52S-322.87-.24-326.61-.24Zm2.44,4.37a1.28,1.28,0,0,1,.95.39,1.22,1.22,0,0,1,.39.92,1.26,1.26,0,0,1-.38.92,1.26,1.26,0,0,1-.93.38h-1.32V8.07a1.28,1.28,0,0,1-.38.94,1.31,1.31,0,0,1-1,.38A1.2,1.2,0,0,1-327.7,9a1.29,1.29,0,0,1-.37-.93V6.74h-1.34a1.22,1.22,0,0,1-.92-.38,1.23,1.23,0,0,1-.39-.91,1.31,1.31,0,0,1,.37-.94,1.24,1.24,0,0,1,.93-.38h1.35V2.77a1.29,1.29,0,0,1,.38-.95,1.29,1.29,0,0,1,.95-.38,1.2,1.2,0,0,1,.9.4,1.28,1.28,0,0,1,.38.94V4.13Zm3.56,7.76c-1,1.82-3.36,3-6,3s-5-1.17-6-3a1.41,1.41,0,0,1,.54-1.91h0a1.4,1.4,0,0,1,1.9.55h0a4.1,4.1,0,0,0,3.55,1.54,4.08,4.08,0,0,0,3.55-1.54,1.41,1.41,0,0,1,1.91-.55,1.4,1.4,0,0,1,.54,1.9Zm1.69-16.08c0-2.25-3.51-4.08-7.84-4.08s-7.85,1.83-7.85,4.08V14.26c0,2.25,3.51,4.08,7.84,4.08s7.85-1.82,7.85-4.08Z"/></clipPath><clipPath id="clip-path-23"><path class="cls-1" d="M-323.29-4.73c0,1-1.49,1.72-3.31,1.72s-3.32-.77-3.32-1.72,1.48-1.73,3.32-1.73,3.31.78,3.31,1.73"/></clipPath><clipPath id="clip-path-24"><rect class="cls-1" x="10.41" y="12.07" width="19.43" height="35.43"/></clipPath></defs><title>BotonRecolecciondeAceit</title><g id="Capa_1" data-name="Capa 1"><g class="cls-2"><image width="7360" height="4912" transform="translate(-309 25) scale(0.18 0.13)" xlink:href="../../fingers-note-report-journalist-filling/1044.jpg"/></g></g><g id="TEXTOS"><circle class="cls-25" cx="32" cy="32" r="31"/><g class="cls-26"><rect class="cls-27" x="12.69" y="26.93" width="14.86" height="16"/><path class="cls-28" d="M29.42,22l-1.87-3.73V16.54a1.71,1.71,0,0,0,1.14-1.61V13.79A1.71,1.71,0,0,0,27,12.07H22.41a1.72,1.72,0,0,0-1.72,1.72v1.14a1.72,1.72,0,0,0,1.15,1.61V18l-8.92,3.57a4,4,0,0,0-2.51,3.71V43.5a4,4,0,0,0,4,4H25.84a4,4,0,0,0,4-4V23.74A4.09,4.09,0,0,0,29.42,22Zm-.73,2.69H15v1.15H28.69V43.5a3.45,3.45,0,0,1-.05.57h-17a2.62,2.62,0,0,1-.06-.57V25.81l2.29,0V24.64l-2.21,0a2.81,2.81,0,0,1,1.73-2.07L23,18.74v-2.1h3.43v1.85l2,4a2.83,2.83,0,0,1,.3,1.28Z"/><path class="cls-28" d="M25.84,46.36H14.41a2.84,2.84,0,0,1-2.27-1.15h16a2.84,2.84,0,0,1-2.27,1.15Z"/></g><path class="cls-29" d="M19.88,40.64h.49a3.75,3.75,0,0,0,3.75-3.76,3.79,3.79,0,0,0-.46-1.8l-3.54-6.49-3.54,6.49a3.76,3.76,0,0,0,3.3,5.56Z"/><rect class="cls-30" x="37.8" y="29.66" width="11.03" height="9.83"/><path class="cls-31" d="M47,25.14V20.83h-7.4v4.31c-2.2.67-1.82,4.52-1.82,4.52h11S49.22,25.81,47,25.14Z"/><path class="cls-32" d="M46.34,11.94h-6c-3.12.87-3.87,8-.76,8.89H47.1C50.21,20,49.46,12.81,46.34,11.94Z"/><rect class="cls-33" x="40.87" y="9.05" width="4.89" height="2.88"/><rect class="cls-34" x="41.62" y="9.05" width="1.64" height="2.88"/><rect class="cls-35" x="38.78" y="30.49" width="9.07" height="9.11"/><path class="cls-32" d="M44.2,32.73c0,1-.39,1.79-.88,1.79s-.88-.8-.88-1.79.39-1.78.88-1.78S44.2,31.75,44.2,32.73Z"/><path class="cls-32" d="M42.7,32.65c.58.79.73,1.67.34,2s-1.19-.13-1.77-.93-.73-1.67-.33-2S42.12,31.85,42.7,32.65Z"/><path class="cls-32" d="M41.44,33.46c.93.3,1.57.93,1.42,1.39s-1,.59-2,.29-1.58-.93-1.43-1.39S40.5,33.15,41.44,33.46Z"/><path class="cls-32" d="M40.89,34.86c.94-.31,1.82-.18,2,.29s-.49,1.08-1.42,1.39-1.82.17-2-.29S40,35.16,40.89,34.86Z"/><path class="cls-32" d="M41.27,36.31c.58-.79,1.37-1.21,1.77-.92s.24,1.16-.34,2-1.37,1.21-1.76.93S40.69,37.11,41.27,36.31Z"/><path class="cls-32" d="M42.44,37.27c0-1,.39-1.79.88-1.79s.88.8.88,1.79-.39,1.78-.88,1.78S42.44,38.25,42.44,37.27Z"/><path class="cls-32" d="M43.94,37.35c-.58-.8-.73-1.67-.34-2s1.19.13,1.77.92.73,1.68.33,2S44.52,38.15,43.94,37.35Z"/><path class="cls-32" d="M45.2,36.54c-.94-.31-1.57-.93-1.42-1.39s1-.6,2-.29,1.57.93,1.42,1.39S46.14,36.84,45.2,36.54Z"/><path class="cls-32" d="M45.75,35.14c-.94.3-1.82.17-2-.29s.48-1.09,1.42-1.39,1.82-.18,2,.29S46.69,34.83,45.75,35.14Z"/><path class="cls-32" d="M45.37,33.68c-.58.8-1.37,1.22-1.77.93s-.24-1.17.34-2,1.37-1.22,1.76-.93S45.94,32.89,45.37,33.68Z"/><path class="cls-36" d="M45.22,35a1.9,1.9,0,1,1-1.9-1.9A1.9,1.9,0,0,1,45.22,35Z"/><path class="cls-28" d="M45.23,43.4H37.59v3.91a1.34,1.34,0,0,0,1.32,1.37h.71a2.36,2.36,0,0,0,1.79-.88,2.31,2.31,0,0,0,1.79.88h.24a2.36,2.36,0,0,0,1.79-.88,2.35,2.35,0,0,0,1.79.88h.7a1.35,1.35,0,0,0,1.33-1.37V43.4Z"/><path class="cls-32" d="M49.71,44.48a.85.85,0,0,1-.8.88H37.73a.85.85,0,0,1-.81-.88v-.2a.84.84,0,0,1,.81-.88H48.91a.84.84,0,0,1,.8.88Z"/><path class="cls-31" d="M49.71,42.52a.84.84,0,0,1-.8.88H37.73a.84.84,0,0,1-.81-.88v-.2a.85.85,0,0,1,.81-.88H48.91a.85.85,0,0,1,.8.88Z"/><path class="cls-32" d="M49.71,40.56a.84.84,0,0,1-.8.88H37.73a.84.84,0,0,1-.81-.88v-.19a.84.84,0,0,1,.81-.88H48.91a.84.84,0,0,1,.8.88Z"/></g></svg>