<svg xmlns="http://www.w3.org/2000/svg" xmlns:xlink="http://www.w3.org/1999/xlink" viewBox="0 0 94 54"><defs><style>.cls-1,.cls-29{fill:none;}.cls-2{clip-path:url(#clip-path);}.cls-3{clip-path:url(#clip-path-2);}.cls-4{clip-path:url(#clip-path-3);}.cls-5{fill:#fff;}.cls-6{clip-path:url(#clip-path-4);}.cls-7{fill:#6daf57;}.cls-8{clip-path:url(#clip-path-6);}.cls-9{clip-path:url(#clip-path-8);}.cls-10{clip-path:url(#clip-path-10);}.cls-11{clip-path:url(#clip-path-12);}.cls-12{clip-path:url(#clip-path-14);}.cls-13{clip-path:url(#clip-path-16);}.cls-14{clip-path:url(#clip-path-18);}.cls-15{clip-path:url(#clip-path-20);}.cls-16{clip-path:url(#clip-path-22);}.cls-17{clip-path:url(#clip-path-24);}.cls-18{clip-path:url(#clip-path-26);}.cls-19{clip-path:url(#clip-path-28);}.cls-20{fill:#287451;}.cls-21{clip-path:url(#clip-path-30);}.cls-22{clip-path:url(#clip-path-32);}.cls-23{clip-path:url(#clip-path-34);}.cls-24{clip-path:url(#clip-path-36);}.cls-25{clip-path:url(#clip-path-38);}.cls-26{clip-path:url(#clip-path-40);}.cls-27{clip-path:url(#clip-path-42);}.cls-28{clip-path:url(#clip-path-44);}.cls-29{stroke:#949494;stroke-width:0.07px;}</style><clipPath id="clip-path"><rect class="cls-1" x="53" y="200" width="1289" height="313"/></clipPath><clipPath id="clip-path-2"><path class="cls-1" d="M88.08,37.75a5.18,5.18,0,0,0,.34-2.34c0-2.8,0-5.6,0-8.4a7.33,7.33,0,0,1,.42-2.18,7.6,7.6,0,0,0-.1-5.83,2.32,2.32,0,0,1-.1-1.47,5.55,5.55,0,0,0-2.76-7.13,12.05,12.05,0,0,0-10.56-.34,1.74,1.74,0,0,1-1.8-.08,5.83,5.83,0,0,0-4.86-.68,1.83,1.83,0,0,1-.9.13,10.58,10.58,0,0,0-6.37.26c-1.1-5.22-4.07-7.08-9-5.83a1.85,1.85,0,0,1-1.11-.14c-3.32-1.45-5.81-1-8.37,1.55a1.25,1.25,0,0,1-1,.38c-2.49-1-5.1-.55-7.65-.7-2.8-.16-5.33.28-6.88,2.45-.79-.66-1.52-1.31-2.3-1.9C20.68,2.13,12.23,2,7.71,5.29a7,7,0,0,0-3.11,6q.06,15.74,0,31.48A6.79,6.79,0,0,0,7.44,48.5a13.73,13.73,0,0,0,8.26,2.58c4.21.1,8.11-.82,11.09-4.12,2.13,3.39,3.61,4.16,7.66,4,1.1,0,2.19,0,3.29,0,1.89,0,3.78.1,5.66.11s3.85,0,5.77,0c1.76,0,3.52-.19,5.27-.28.34,0,.68,0,1,0h3.65c.43,0,.85-.07,1.28,0,2.77.11,5.53.29,8.3.34,1.79,0,3.6-.34,5.36-.15a14.4,14.4,0,0,0,4.29-.38c1.34-.25,2.84.48,4.28.52a8.46,8.46,0,0,0,3-.64,4.23,4.23,0,0,0,2.88-2.93c.5-2.07.79-4.27-.23-6.24a3.27,3.27,0,0,1-.16-3.49"/></clipPath><clipPath id="clip-path-3"><rect class="cls-1" x="-126.91" y="-6.36" width="884.35" height="1085.66"/></clipPath><clipPath id="clip-path-4"><path class="cls-1" d="M37.32,34.14a1.84,1.84,0,0,1,1.3.49,1.59,1.59,0,0,1,.53,1.22c0,1.52-1.28,2.27-3.84,2.27a5.51,5.51,0,0,1-3.66-1,6.57,6.57,0,0,1-1.66-2,4.82,4.82,0,0,1,1.13-5.72,5.73,5.73,0,0,1,4-1.46,5.94,5.94,0,0,1,2.93.59,1.87,1.87,0,0,1,.57,3,1.7,1.7,0,0,1-1.28.5,2,2,0,0,1-.35,0,6.17,6.17,0,0,1-.74-.19,4.05,4.05,0,0,0-1.15-.17A1.5,1.5,0,0,0,34,32a1.3,1.3,0,0,0-.43,1A1.38,1.38,0,0,0,34.06,34a1.69,1.69,0,0,0,1.19.42h.2l.33-.07.7-.13Z"/></clipPath><clipPath id="clip-path-6"><path class="cls-1" d="M43.8,33a1.81,1.81,0,0,0,.41,1.22,1.28,1.28,0,0,0,1,.49,1.33,1.33,0,0,0,1.06-.47A1.76,1.76,0,0,0,46.72,33a1.67,1.67,0,0,0-.43-1.19,1.35,1.35,0,0,0-2.07,0A1.7,1.7,0,0,0,43.8,33m1.45-5.27a5.51,5.51,0,0,1,3.91,1.51,4.85,4.85,0,0,1,1.6,3.7,4.94,4.94,0,0,1-1.58,3.72,5.89,5.89,0,0,1-7.85,0,5.08,5.08,0,0,1,0-7.42,5.55,5.55,0,0,1,3.93-1.51"/></clipPath><clipPath id="clip-path-8"><path class="cls-1" d="M55.78,28.36a4.75,4.75,0,0,1,2.29-.63,4,4,0,0,1,2.78,1A3.29,3.29,0,0,1,62,31.28v4.84a1.91,1.91,0,0,1-.56,1.39,1.79,1.79,0,0,1-1.36.58,2,2,0,0,1-1.42-.57,1.85,1.85,0,0,1-.58-1.38v-4a4.87,4.87,0,0,0-.48-.74,1,1,0,0,0-.73-.3,1,1,0,0,0-.74.3c-.21.19-.67.75-.67.75v3.92a2,2,0,0,1-2,2,1.87,1.87,0,0,1-1.37-.57,2,2,0,0,1-.57-1.42v-6.3a2,2,0,0,1,.6-1.47,2,2,0,0,1,1.46-.62,2.86,2.86,0,0,1,1.65,1Z"/></clipPath><clipPath id="clip-path-10"><path class="cls-1" d="M72.45,32.2H75c-.1-.73-.46-1.09-1.06-1.09s-1,.36-1.17,1.09m1,2.67a4.8,4.8,0,0,0,1.14.13,7,7,0,0,0,.8,0,5,5,0,0,0,.77-.16c.32-.08.57-.14.76-.17a2.32,2.32,0,0,1,.46-.06,1.46,1.46,0,0,1,1.06.44,1.3,1.3,0,0,1,.46,1,1.52,1.52,0,0,1-.15.66,2.05,2.05,0,0,1-.55.69,4.13,4.13,0,0,1-1.56.69,9.58,9.58,0,0,1-2.45.32A6.7,6.7,0,0,1,70,36.92a4.68,4.68,0,0,1-1.69-3.76,4.78,4.78,0,0,1,1.59-3.66,5.84,5.84,0,0,1,7.69-.07,4.26,4.26,0,0,1,1.63,3.28,1.39,1.39,0,0,1-.4,1.11,2,2,0,0,1-1.3.34H72.7a3.37,3.37,0,0,0,.53.47,1.65,1.65,0,0,0,.5.24"/></clipPath><clipPath id="clip-path-12"><path class="cls-1" d="M32.35,44.21a1.07,1.07,0,0,0,.26.71.84.84,0,0,0,1.26,0,1.12,1.12,0,0,0,.26-.73,1.11,1.11,0,0,0-.25-.74.81.81,0,0,0-.65-.29.8.8,0,0,0-.63.29,1.21,1.21,0,0,0-.25.78m2.86-3.37a1.28,1.28,0,0,1,1.29,1.29v3.94a1.3,1.3,0,0,1-.38.93,1.24,1.24,0,0,1-.93.38,2,2,0,0,1-1.06-.55,2.37,2.37,0,0,1-.68.45,2.62,2.62,0,0,1-.84.1,2.85,2.85,0,0,1-2.14-.92,3.14,3.14,0,0,1-.88-2.27,3.42,3.42,0,0,1,.89-2.37,2.86,2.86,0,0,1,2.18-1,2.26,2.26,0,0,1,.78.1,2.46,2.46,0,0,1,.69.44,2.09,2.09,0,0,1,1.08-.54"/></clipPath><clipPath id="clip-path-14"><path class="cls-1" d="M43.69,41.32a3.58,3.58,0,0,1,1.6-.44,2.39,2.39,0,0,1,1.65.62A2,2,0,0,1,47.61,43V46.1a1.28,1.28,0,0,1-.38.94,1.27,1.27,0,0,1-.92.37,1.24,1.24,0,0,1-.93-.38A1.29,1.29,0,0,1,45,46.1V43.69a5.26,5.26,0,0,0-.33-.41.54.54,0,0,0-.42-.16.51.51,0,0,0-.4.16.93.93,0,0,0-.15.41v2.42a1.26,1.26,0,0,1-.4.93,1.37,1.37,0,0,1-.94.38,1.25,1.25,0,0,1-.91-.38,1.36,1.36,0,0,1-.37-.94V43.68a1,1,0,0,0-.15-.42.52.52,0,0,0-.38-.17.67.67,0,0,0-.43.16c-.11.11-.34.42-.34.42v2.44s0,.68-.21.93a1.32,1.32,0,0,1-1.84,0c-.25-.25.08-.94.08-.94V42.16a1.28,1.28,0,0,1,1.28-1.28,1.87,1.87,0,0,1,1,.48l.24-.15A3.41,3.41,0,0,1,41,41a3.07,3.07,0,0,1,.91-.1,2.43,2.43,0,0,1,.47.08,3.59,3.59,0,0,1,1,.53Z"/></clipPath><clipPath id="clip-path-16"><path class="cls-1" d="M50.63,44.17a1,1,0,0,0,.26.72.85.85,0,0,0,.64.28.82.82,0,0,0,.63-.29,1.07,1.07,0,0,0,.26-.72,1.12,1.12,0,0,0-.25-.73.79.79,0,0,0-.63-.29.81.81,0,0,0-.65.29,1.05,1.05,0,0,0-.26.74m-1.09,3.2a1.19,1.19,0,0,1-.9-.38,1.24,1.24,0,0,1-.38-.93V39.37a1.29,1.29,0,0,1,.37-.91,1.22,1.22,0,0,1,.91-.38,1.31,1.31,0,0,1,1.34,1.31v1.7a4.75,4.75,0,0,1,.64-.2,3.79,3.79,0,0,1,.58,0,2.92,2.92,0,0,1,2.19.92,3.17,3.17,0,0,1,.88,2.3,3.38,3.38,0,0,1-.89,2.36,2.76,2.76,0,0,1-2.14,1,2.37,2.37,0,0,1-.84-.1,2.74,2.74,0,0,1-.72-.5,1.86,1.86,0,0,1-1,.57"/></clipPath><clipPath id="clip-path-18"><path class="cls-1" d="M56.76,47.38a1.26,1.26,0,0,1-.93-.38,1.24,1.24,0,0,1-.38-.93V42.19a1.25,1.25,0,0,1,.39-.92,1.3,1.3,0,0,1,.93-.38,1.27,1.27,0,0,1,.92.39,1.34,1.34,0,0,1,.38.93v3.86a1.31,1.31,0,0,1-.39.93,1.26,1.26,0,0,1-.92.38m.17-9.51a1.3,1.3,0,0,1,1,.4,1.35,1.35,0,0,1,.39,1,1.38,1.38,0,0,1-1.37,1.37,1.38,1.38,0,0,1-1.38-1.39,1.3,1.3,0,0,1,.4-1,1.34,1.34,0,0,1,1-.4"/></clipPath><clipPath id="clip-path-20"><path class="cls-1" d="M61.33,43.31H63c-.06-.46-.28-.69-.67-.69s-.62.23-.73.69m.62,1.75a2.43,2.43,0,0,0,.71.09l.51,0a3.38,3.38,0,0,0,.48-.11l.49-.11a1.33,1.33,0,0,1,.28,0,1,1,0,0,1,.68.27.89.89,0,0,1,.29.63,1,1,0,0,1-.1.41,1.51,1.51,0,0,1-.35.44,2.54,2.54,0,0,1-1,.43,6.14,6.14,0,0,1-1.54.2,4.25,4.25,0,0,1-2.79-.9A2.93,2.93,0,0,1,58.82,44a3,3,0,0,1,1-2.31,3.7,3.7,0,0,1,4.85,0,2.7,2.7,0,0,1,1,2.06.91.91,0,0,1-.25.7,1.25,1.25,0,0,1-.82.21H61.56a3.17,3.17,0,0,0,.34.3,1.48,1.48,0,0,0,.31.15"/></clipPath><clipPath id="clip-path-22"><path class="cls-1" d="M68.56,41.25a2.91,2.91,0,0,1,1.43-.4,2.5,2.5,0,0,1,1.75.64,2.05,2.05,0,0,1,.71,1.58v3a1.28,1.28,0,0,1-.38.93,1.15,1.15,0,0,1-.9.39,1.29,1.29,0,0,1-1-.38,1.27,1.27,0,0,1-.39-.92V43.66a.67.67,0,0,0-.17-.47A.58.58,0,0,0,69.2,43a.59.59,0,0,0-.47.19.61.61,0,0,0-.21.47v2.43a1.29,1.29,0,0,1-.38.95,1.24,1.24,0,0,1-.93.38,1.26,1.26,0,0,1-.93-.38,1.32,1.32,0,0,1-.37-.95V42.16a1.33,1.33,0,0,1,.37-.92,1.27,1.27,0,0,1,.92-.39,1.8,1.8,0,0,1,1,.63Z"/></clipPath><clipPath id="clip-path-24"><path class="cls-1" d="M73.66,43.32a1.25,1.25,0,0,1-.82-.3,1,1,0,0,1-.34-.73.85.85,0,0,1,.33-.66,1.23,1.23,0,0,1,.81-.28h.77v-.48a1.09,1.09,0,0,1,.38-.85,1.32,1.32,0,0,1,.94-.35,1.27,1.27,0,0,1,.91.35,1.13,1.13,0,0,1,.38.86v.47h.15a1.12,1.12,0,0,1,.77.29.88.88,0,0,1,.33.68A1,1,0,0,1,78,43a1.1,1.1,0,0,1-.78.29h-.8V46a1.13,1.13,0,0,1-.38.86,1.34,1.34,0,0,1-.92.35,1.38,1.38,0,0,1-.94-.36,1.16,1.16,0,0,1-.38-.85V43.31Z"/></clipPath><clipPath id="clip-path-26"><path class="cls-1" d="M80.94,43.31H82c-.06-.46-.28-.69-.67-.69s-.62.23-.74.69m.63,1.75a2.43,2.43,0,0,0,.71.09l.51,0A4.15,4.15,0,0,0,83,45l.48-.11.29,0a1,1,0,0,1,.67.27.86.86,0,0,1,.3.63,1,1,0,0,1-.1.41,1.51,1.51,0,0,1-.35.44,2.54,2.54,0,0,1-1,.43,6.22,6.22,0,0,1-1.55.2,4.27,4.27,0,0,1-2.79-.9A3,3,0,0,1,77.85,44a3,3,0,0,1,1-2.31,3.7,3.7,0,0,1,4.85,0,2.66,2.66,0,0,1,1,2.06.87.87,0,0,1-.24.7,1.3,1.3,0,0,1-.83.21H80.6a3.08,3.08,0,0,0,.33.3,1.87,1.87,0,0,0,.32.15"/></clipPath><clipPath id="clip-path-28"><path class="cls-1" d="M35.19,16.51h2.26a1.38,1.38,0,0,0,1-.36,1.24,1.24,0,0,0,.39-.94,1.27,1.27,0,0,0-.39-.92,1.32,1.32,0,0,0-1-.39H35.19Zm0,7a2.69,2.69,0,0,1-.86,2,3,3,0,0,1-2.13.82,2.79,2.79,0,0,1-2.06-.82,2.76,2.76,0,0,1-.83-2.06V11.73a3.05,3.05,0,0,1,.8-2.22,2.86,2.86,0,0,1,2.14-.84h5.53a7.41,7.41,0,0,1,5,1.75,5.58,5.58,0,0,1,2,4.41,5.62,5.62,0,0,1-2,4.55,7.94,7.94,0,0,1-5.31,1.71H35.19Z"/></clipPath><clipPath id="clip-path-30"><path class="cls-1" d="M47.61,26.14a2.54,2.54,0,0,1-1.86-.76A2.51,2.51,0,0,1,45,23.53V15.76a2.47,2.47,0,0,1,.79-1.84,2.57,2.57,0,0,1,1.85-.75,2.48,2.48,0,0,1,1.84.78,2.57,2.57,0,0,1,.75,1.85v7.7a2.49,2.49,0,0,1-.76,1.86,2.53,2.53,0,0,1-1.85.77m.06-19.4a2.71,2.71,0,0,1,2,.83,2.84,2.84,0,0,1,.8,2.05,2.81,2.81,0,0,1-4.83,2,2.76,2.76,0,0,1-.85-2,2.72,2.72,0,0,1,.84-2,2.77,2.77,0,0,1,2-.83"/></clipPath><clipPath id="clip-path-32"><path class="cls-1" d="M54.81,26.13A2.49,2.49,0,0,1,53,25.35a2.53,2.53,0,0,1-.78-1.87V10.06A2.45,2.45,0,0,1,53,8.26a2.57,2.57,0,0,1,1.87-.75,2.44,2.44,0,0,1,1.82.76,2.48,2.48,0,0,1,.76,1.84V23.48a2.54,2.54,0,0,1-.76,1.86,2.47,2.47,0,0,1-1.84.79"/></clipPath><clipPath id="clip-path-34"><path class="cls-1" d="M64,19.91a2,2,0,0,0,.53,1.43,1.75,1.75,0,0,0,2.62,0,2.09,2.09,0,0,0,.54-1.48,2.23,2.23,0,0,0-.51-1.51,1.7,1.7,0,0,0-1.35-.59,1.64,1.64,0,0,0-1.32.59A2.33,2.33,0,0,0,64,19.91m6.42-6.86a2.67,2.67,0,0,1,1.91.74,2.47,2.47,0,0,1,.78,1.89v8a2.55,2.55,0,0,1-.78,1.88,2.58,2.58,0,0,1-1.94.79,4.26,4.26,0,0,1-2.22-1.12,5,5,0,0,1-1.41.91,5.46,5.46,0,0,1-1.75.21,6,6,0,0,1-4.48-1.88,6.38,6.38,0,0,1-1.84-4.62A6.86,6.86,0,0,1,60.55,15a6,6,0,0,1,4.55-2,5.18,5.18,0,0,1,1.62.2,5.16,5.16,0,0,1,1.44.91A4.32,4.32,0,0,1,70.41,13"/></clipPath><clipPath id="clip-path-36"><path class="cls-1" d="M79.65,16.61c-.39,0-.58.11-.58.34s.32.45,1,.63l2,.62a5.45,5.45,0,0,1,2.39,1.55A3.43,3.43,0,0,1,85.28,22a3.86,3.86,0,0,1-1.62,3.17,6.57,6.57,0,0,1-4.13,1.25,9.44,9.44,0,0,1-4.31-.87c-1.14-.58-1.71-1.31-1.71-2.2A1.81,1.81,0,0,1,74.13,22a2.12,2.12,0,0,1,1.48-.56,3.64,3.64,0,0,1,.81.07c.21.05.56.17,1.08.36a11.46,11.46,0,0,0,1.17.39,3.38,3.38,0,0,0,.72.1c.44,0,.67-.13.67-.37s-.39-.5-1.18-.67l-2.35-.7a4.09,4.09,0,0,1-1.91-1.31,3.28,3.28,0,0,1-.68-2.05,3.72,3.72,0,0,1,1.65-3.15,7.19,7.19,0,0,1,4.32-1.2,7.92,7.92,0,0,1,3.59.73c1,.48,1.45,1.09,1.45,1.81a1.77,1.77,0,0,1-.56,1.3,2,2,0,0,1-1.43.53,5.92,5.92,0,0,1-1.18-.19l-.7-.2-.93-.2a4.26,4.26,0,0,0-.5-.06"/></clipPath><clipPath id="clip-path-38"><path class="cls-1" d="M84.1,25.26a2.06,2.06,0,0,1,.11.65v10a1.94,1.94,0,0,1-.57,1.4,1.9,1.9,0,0,1-1.38.59,2,2,0,0,1-1.39-.58,1.92,1.92,0,0,1-.58-1.41v-9.1a6,6,0,0,0,3.35-1.17,3.55,3.55,0,0,0,.46-.41"/></clipPath><clipPath id="clip-path-40"><path class="cls-1" d="M8.39,43.31v-14c0,2.25,3.51,4.08,7.84,4.08s7.85-1.82,7.85-4.08V43.22c0,2.25-3.51,4.07-7.85,4.07s-7.84-1.82-7.84-4.07"/></clipPath><clipPath id="clip-path-42"><path class="cls-1" d="M16.39,14.76c-3.73,0-6.75-1.58-6.75-3.51s3-3.52,6.75-3.52,6.76,1.58,6.76,3.52S20.13,14.76,16.39,14.76Zm2.44,4.37a1.28,1.28,0,0,1,1,.39,1.22,1.22,0,0,1,.39.92,1.3,1.3,0,0,1-1.31,1.3H17.54v1.33a1.28,1.28,0,0,1-.38.94,1.31,1.31,0,0,1-.95.38A1.2,1.2,0,0,1,15.3,24a1.29,1.29,0,0,1-.37-.93V21.74H13.59a1.31,1.31,0,0,1-1.31-1.29,1.31,1.31,0,0,1,.37-.94,1.24,1.24,0,0,1,.93-.38h1.35V17.77a1.3,1.3,0,0,1,1.33-1.33,1.2,1.2,0,0,1,.9.4,1.28,1.28,0,0,1,.38.94v1.35Zm3.56,7.76c-1,1.82-3.36,3-6,3s-5-1.17-6-3A1.41,1.41,0,0,1,10.94,25h0a1.4,1.4,0,0,1,1.9.55h0a4.1,4.1,0,0,0,3.55,1.54,4.08,4.08,0,0,0,3.55-1.54,1.4,1.4,0,1,1,2.45,1.35Zm1.69-16.08c0-2.25-3.51-4.08-7.84-4.08S8.39,8.56,8.39,10.81V29.26c0,2.25,3.51,4.08,7.84,4.08s7.85-1.82,7.85-4.08Z"/></clipPath><clipPath id="clip-path-44"><path class="cls-1" d="M19.71,10.27c0,1-1.49,1.72-3.31,1.72s-3.32-.77-3.32-1.72,1.48-1.73,3.32-1.73,3.31.78,3.31,1.73"/></clipPath></defs><title>BotonPilas</title><g id="Capa_1" data-name="Capa 1"><g class="cls-2"><image width="7360" height="4912" transform="translate(34 40) scale(0.18 0.13)" xlink:href="../../fingers-note-report-journalist-filling/1044.jpg"/></g></g><g id="TEXTOS"><g class="cls-3"><g class="cls-4"><path class="cls-5" d="M1.2,54.42H92.71V-.48H1.2Z"/></g></g><g class="cls-6"><g class="cls-4"><path class="cls-7" d="M26,41.35H42.38v-17H26Z"/></g></g><g class="cls-8"><g class="cls-4"><path class="cls-7" d="M36.5,41.35H54.15v-17H36.5Z"/></g></g><g class="cls-9"><g class="cls-4"><path class="cls-7" d="M48.26,41.35h17v-17h-17Z"/></g></g><g class="cls-10"><g class="cls-4"><path class="cls-7" d="M65.26,41.35H82.9v-17H65.26Z"/></g></g><g class="cls-11"><g class="cls-4"><path class="cls-7" d="M26.69,50.5H39.77V37.43H26.69Z"/></g></g><g class="cls-12"><g class="cls-4"><path class="cls-7" d="M34.54,50.5H50.88V37.43H34.54Z"/></g></g><g class="cls-13"><g class="cls-4"><path class="cls-7" d="M45,50.5H58.07V34.82H45Z"/></g></g><g class="cls-14"><g class="cls-4"><path class="cls-7" d="M52.18,50.5h9.15V34.82H52.18Z"/></g></g><g class="cls-15"><g class="cls-4"><path class="cls-7" d="M55.45,50.5H68.52V37.43H55.45Z"/></g></g><g class="cls-16"><g class="cls-4"><path class="cls-7" d="M63.3,50.5H76.37V37.43H63.3Z"/></g></g><g class="cls-17"><g class="cls-4"><path class="cls-7" d="M69.83,50.5H81.6v-15H69.83Z"/></g></g><g class="cls-18"><g class="cls-4"><path class="cls-7" d="M75.06,50.5H88.13V37.43H75.06Z"/></g></g><g class="cls-19"><g class="cls-4"><path class="cls-20" d="M26,29.59H47V5.4H26Z"/></g></g><g class="cls-21"><g class="cls-4"><path class="cls-20" d="M41.73,29.59H54.15V3.44H41.73Z"/></g></g><g class="cls-22"><g class="cls-4"><path class="cls-20" d="M48.92,29.59H60.68V4.1H48.92Z"/></g></g><g class="cls-23"><g class="cls-4"><path class="cls-20" d="M55.45,29.59H76.37V10H55.45Z"/></g></g><g class="cls-24"><g class="cls-4"><path class="cls-20" d="M70.49,29.59h18.3V9.33H70.49Z"/></g></g><g class="cls-25"><g class="cls-4"><path class="cls-7" d="M77,41.35H87.48V21.74H77Z"/></g></g><g class="cls-26"><g class="cls-4"><path class="cls-20" d="M5.12,50.5H27.35V26.32H5.12Z"/></g></g><g class="cls-27"><g class="cls-4"><path class="cls-7" d="M5.12,36.78H27.35V3.44H5.12Z"/></g></g><g class="cls-28"><g class="cls-4"><path class="cls-20" d="M9.7,15.21H22.77V5.4H9.7Z"/></g></g><path class="cls-29" d="M88.08,37.75a5.2,5.2,0,0,0,.34-2.34c0-2.8,0-5.6,0-8.4a7.33,7.33,0,0,1,.42-2.18,7.6,7.6,0,0,0-.1-5.83,2.32,2.32,0,0,1-.1-1.47,5.55,5.55,0,0,0-2.76-7.13,12.05,12.05,0,0,0-10.56-.34,1.74,1.74,0,0,1-1.8-.08,5.83,5.83,0,0,0-4.86-.68,2,2,0,0,1-.9.13,10.66,10.66,0,0,0-6.37.25c-1.1-5.2-4.07-7.07-9-5.82a1.93,1.93,0,0,1-1.11-.13c-3.32-1.46-5.82-1-8.37,1.54-.24.23-.73.48-1,.38-2.49-1-5.1-.55-7.66-.7C31.49,4.79,29,5.23,27.4,7.4c-.79-.65-1.52-1.3-2.29-1.9C20.67,2.13,12.23,2,7.71,5.3a7,7,0,0,0-3.11,6q.06,15.73,0,31.47A6.77,6.77,0,0,0,7.44,48.5a13.79,13.79,0,0,0,8.25,2.59c4.22.1,8.11-.83,11.1-4.13,2.13,3.39,3.61,4.16,7.66,4.06,1.09,0,2.19-.06,3.29,0,1.89,0,3.77.1,5.66.11s3.84,0,5.76-.05c1.76,0,3.52-.18,5.28-.27.34,0,.68,0,1,0l3.65,0c.43,0,.86-.06,1.29,0,2.76.11,5.53.29,8.3.34,1.79,0,3.6-.34,5.36-.15a14,14,0,0,0,4.28-.38c1.35-.25,2.85.49,4.28.52a8.41,8.41,0,0,0,3-.64,4.22,4.22,0,0,0,2.89-2.93c.5-2.07.79-4.27-.23-6.24a3.27,3.27,0,0,1-.16-3.49"/></g></svg>