<svg xmlns="http://www.w3.org/2000/svg" xmlns:xlink="http://www.w3.org/1999/xlink" viewBox="0 0 69 46"><defs><style>.cls-1{fill:none;}.cls-2{clip-path:url(#clip-path);}.cls-3{clip-path:url(#clip-path-2);}.cls-4{clip-path:url(#clip-path-3);}.cls-5{clip-path:url(#clip-path-4);}.cls-6{clip-path:url(#clip-path-5);}.cls-7{clip-path:url(#clip-path-6);}.cls-8{clip-path:url(#clip-path-7);}.cls-9{clip-path:url(#clip-path-8);}.cls-10{clip-path:url(#clip-path-9);}.cls-11{clip-path:url(#clip-path-10);}.cls-12{clip-path:url(#clip-path-11);}.cls-13{clip-path:url(#clip-path-12);}.cls-14{clip-path:url(#clip-path-13);}.cls-15{clip-path:url(#clip-path-14);}.cls-16{clip-path:url(#clip-path-15);}.cls-17{clip-path:url(#clip-path-16);}.cls-18{clip-path:url(#clip-path-17);}.cls-19{clip-path:url(#clip-path-18);}.cls-20{clip-path:url(#clip-path-19);}.cls-21{clip-path:url(#clip-path-20);}.cls-22{clip-path:url(#clip-path-21);}.cls-23{clip-path:url(#clip-path-22);}.cls-24{fill:#003e66;}</style><clipPath id="clip-path"><path class="cls-1" d="M235.08,72.75a5.18,5.18,0,0,0,.34-2.34c0-2.8,0-5.6,0-8.4a7.33,7.33,0,0,1,.42-2.18,7.6,7.6,0,0,0-.1-5.83,2.32,2.32,0,0,1-.1-1.47,5.55,5.55,0,0,0-2.76-7.13,12.05,12.05,0,0,0-10.56-.34,1.74,1.74,0,0,1-1.8-.08,5.83,5.83,0,0,0-4.86-.68,1.83,1.83,0,0,1-.9.13,10.58,10.58,0,0,0-6.37.26c-1.1-5.22-4.07-7.08-9-5.83a1.85,1.85,0,0,1-1.11-.14c-3.32-1.45-5.81-1-8.37,1.55a1.25,1.25,0,0,1-1,.38c-2.49-1-5.1-.55-7.65-.7-2.8-.16-5.33.28-6.88,2.45-.79-.66-1.52-1.31-2.3-1.9-4.43-3.37-12.88-3.47-17.4-.21a7,7,0,0,0-3.11,6q.06,15.74,0,31.48a6.79,6.79,0,0,0,2.83,5.73,13.73,13.73,0,0,0,8.26,2.58c4.21.1,8.11-.82,11.09-4.12,2.13,3.39,3.61,4.16,7.66,4.05,1.1,0,2.19-.05,3.29,0,1.89,0,3.78.1,5.66.11s3.85,0,5.77,0c1.76-.05,3.52-.19,5.27-.28.34,0,.68,0,1,0h3.65c.43,0,.85-.07,1.28,0,2.77.11,5.53.29,8.3.34,1.79,0,3.6-.34,5.36-.15a14.4,14.4,0,0,0,4.29-.38c1.34-.25,2.84.48,4.28.52a8.46,8.46,0,0,0,3-.64,4.23,4.23,0,0,0,2.88-2.93c.5-2.07.79-4.27-.23-6.24a3.27,3.27,0,0,1-.16-3.49"/></clipPath><clipPath id="clip-path-2"><path class="cls-1" d="M184.32,69.14a1.84,1.84,0,0,1,1.3.49,1.59,1.59,0,0,1,.53,1.22c0,1.52-1.28,2.27-3.84,2.27a5.51,5.51,0,0,1-3.66-1,6.57,6.57,0,0,1-1.66-2,4.82,4.82,0,0,1,1.13-5.72,5.73,5.73,0,0,1,4-1.46,5.94,5.94,0,0,1,2.93.59,1.87,1.87,0,0,1,.57,3,1.7,1.7,0,0,1-1.28.5,2,2,0,0,1-.35,0,6.17,6.17,0,0,1-.74-.19,4.05,4.05,0,0,0-1.15-.17A1.5,1.5,0,0,0,181,67a1.3,1.3,0,0,0-.43,1,1.38,1.38,0,0,0,.45,1.07,1.69,1.69,0,0,0,1.19.42h.2l.33-.07.7-.13Z"/></clipPath><clipPath id="clip-path-3"><path class="cls-1" d="M190.8,68a1.81,1.81,0,0,0,.41,1.22,1.28,1.28,0,0,0,1,.49,1.33,1.33,0,0,0,1.06-.47,1.76,1.76,0,0,0,.41-1.24,1.67,1.67,0,0,0-.43-1.19,1.35,1.35,0,0,0-2.07,0,1.7,1.7,0,0,0-.42,1.2m1.45-5.27a5.51,5.51,0,0,1,3.91,1.51,4.85,4.85,0,0,1,1.6,3.7,4.94,4.94,0,0,1-1.58,3.72,5.89,5.89,0,0,1-7.85,0,5.08,5.08,0,0,1,0-7.42,5.55,5.55,0,0,1,3.93-1.51"/></clipPath><clipPath id="clip-path-4"><path class="cls-1" d="M202.78,63.36a4.75,4.75,0,0,1,2.29-.63,4,4,0,0,1,2.78,1A3.29,3.29,0,0,1,209,66.28v4.84a1.91,1.91,0,0,1-.56,1.39,1.79,1.79,0,0,1-1.36.58,2,2,0,0,1-1.42-.57,1.85,1.85,0,0,1-.58-1.38v-4a4.87,4.87,0,0,0-.48-.74,1,1,0,0,0-.73-.3,1,1,0,0,0-.74.3c-.21.19-.67.75-.67.75v3.92a2,2,0,0,1-2,2,1.87,1.87,0,0,1-1.37-.57,2,2,0,0,1-.57-1.42v-6.3a2,2,0,0,1,.6-1.47,2,2,0,0,1,1.46-.62,2.86,2.86,0,0,1,1.65,1Z"/></clipPath><clipPath id="clip-path-5"><path class="cls-1" d="M219.45,67.2H222c-.1-.73-.46-1.09-1.06-1.09s-1,.36-1.17,1.09m1,2.67a4.8,4.8,0,0,0,1.14.13,7,7,0,0,0,.8,0,5,5,0,0,0,.77-.16c.32-.08.57-.14.76-.17a2.32,2.32,0,0,1,.46-.06,1.46,1.46,0,0,1,1.06.44,1.3,1.3,0,0,1,.46,1,1.52,1.52,0,0,1-.15.66,2.05,2.05,0,0,1-.55.69,4.13,4.13,0,0,1-1.56.69,9.58,9.58,0,0,1-2.45.32A6.7,6.7,0,0,1,217,71.92a4.68,4.68,0,0,1-1.69-3.76,4.78,4.78,0,0,1,1.59-3.66,5.84,5.84,0,0,1,7.69-.07,4.26,4.26,0,0,1,1.63,3.28,1.39,1.39,0,0,1-.4,1.11,2,2,0,0,1-1.3.34H219.7a3.37,3.37,0,0,0,.53.47,1.65,1.65,0,0,0,.5.24"/></clipPath><clipPath id="clip-path-6"><path class="cls-1" d="M179.35,79.21a1.07,1.07,0,0,0,.26.71.84.84,0,0,0,1.26,0,1.12,1.12,0,0,0,.26-.73,1.11,1.11,0,0,0-.25-.74.81.81,0,0,0-.65-.29.8.8,0,0,0-.63.29,1.21,1.21,0,0,0-.25.78m2.86-3.37a1.28,1.28,0,0,1,1.29,1.29v3.94a1.3,1.3,0,0,1-.38.93,1.24,1.24,0,0,1-.93.38,2,2,0,0,1-1.06-.55,2.37,2.37,0,0,1-.68.45,2.62,2.62,0,0,1-.84.1,2.85,2.85,0,0,1-2.14-.92,3.14,3.14,0,0,1-.88-2.27,3.42,3.42,0,0,1,.89-2.37,2.86,2.86,0,0,1,2.18-1,2.26,2.26,0,0,1,.78.1,2.46,2.46,0,0,1,.69.44,2.09,2.09,0,0,1,1.08-.54"/></clipPath><clipPath id="clip-path-7"><path class="cls-1" d="M190.69,76.32a3.58,3.58,0,0,1,1.6-.44,2.39,2.39,0,0,1,1.65.62,2,2,0,0,1,.67,1.53V81.1a1.28,1.28,0,0,1-.38.94,1.27,1.27,0,0,1-.92.37,1.24,1.24,0,0,1-.93-.38,1.29,1.29,0,0,1-.39-.93V78.69a5.26,5.26,0,0,0-.33-.41.54.54,0,0,0-.42-.16.51.51,0,0,0-.4.16.93.93,0,0,0-.15.41v2.42a1.26,1.26,0,0,1-.4.93,1.37,1.37,0,0,1-.94.38,1.25,1.25,0,0,1-.91-.38,1.36,1.36,0,0,1-.37-.94V78.68a1,1,0,0,0-.15-.42.52.52,0,0,0-.38-.17.67.67,0,0,0-.43.16c-.11.11-.34.42-.34.42v2.44s0,.68-.21.93a1.32,1.32,0,0,1-1.84,0c-.25-.25.08-.94.08-.94V77.16a1.28,1.28,0,0,1,1.28-1.28,1.87,1.87,0,0,1,.95.48l.24-.15A3.41,3.41,0,0,1,188,76a3.07,3.07,0,0,1,.91-.1,2.43,2.43,0,0,1,.47.08,3.59,3.59,0,0,1,1,.53Z"/></clipPath><clipPath id="clip-path-8"><path class="cls-1" d="M197.63,79.17a1,1,0,0,0,.26.72.85.85,0,0,0,.64.28.82.82,0,0,0,.63-.29,1.07,1.07,0,0,0,.26-.72,1.12,1.12,0,0,0-.25-.73.79.79,0,0,0-.63-.29.81.81,0,0,0-.65.29,1.05,1.05,0,0,0-.26.74m-1.09,3.2a1.19,1.19,0,0,1-.9-.38,1.24,1.24,0,0,1-.38-.93V74.37a1.29,1.29,0,0,1,.37-.91,1.22,1.22,0,0,1,.91-.38,1.31,1.31,0,0,1,1.34,1.31v1.7a4.75,4.75,0,0,1,.64-.2,3.79,3.79,0,0,1,.58,0,2.92,2.92,0,0,1,2.19.92,3.17,3.17,0,0,1,.88,2.3,3.38,3.38,0,0,1-.89,2.36,2.76,2.76,0,0,1-2.14,1,2.37,2.37,0,0,1-.84-.1,2.74,2.74,0,0,1-.72-.5,1.86,1.86,0,0,1-1,.57"/></clipPath><clipPath id="clip-path-9"><path class="cls-1" d="M203.76,82.38a1.26,1.26,0,0,1-.93-.38,1.24,1.24,0,0,1-.38-.93V77.19a1.25,1.25,0,0,1,.39-.92,1.3,1.3,0,0,1,.93-.38,1.27,1.27,0,0,1,.92.39,1.34,1.34,0,0,1,.38.93v3.86a1.31,1.31,0,0,1-.39.93,1.26,1.26,0,0,1-.92.38m.17-9.51a1.3,1.3,0,0,1,1,.4,1.35,1.35,0,0,1,.39,1,1.38,1.38,0,0,1-1.37,1.37,1.38,1.38,0,0,1-1.38-1.39,1.3,1.3,0,0,1,.4-1,1.34,1.34,0,0,1,1-.4"/></clipPath><clipPath id="clip-path-10"><path class="cls-1" d="M208.33,78.31H210c-.06-.46-.28-.69-.67-.69s-.62.23-.73.69m.62,1.75a2.43,2.43,0,0,0,.71.09l.51,0a3.38,3.38,0,0,0,.48-.11l.49-.11a1.33,1.33,0,0,1,.28,0,1,1,0,0,1,.68.27.89.89,0,0,1,.29.63,1,1,0,0,1-.1.41,1.51,1.51,0,0,1-.35.44,2.54,2.54,0,0,1-1,.43,6.14,6.14,0,0,1-1.54.2,4.25,4.25,0,0,1-2.79-.9A2.93,2.93,0,0,1,205.82,79a3,3,0,0,1,1-2.31,3.7,3.7,0,0,1,4.85,0,2.7,2.7,0,0,1,1,2.06.91.91,0,0,1-.25.7,1.25,1.25,0,0,1-.82.21h-3.07a3.17,3.17,0,0,0,.34.3,1.48,1.48,0,0,0,.31.15"/></clipPath><clipPath id="clip-path-11"><path class="cls-1" d="M215.56,76.25a2.91,2.91,0,0,1,1.43-.4,2.5,2.5,0,0,1,1.75.64,2.05,2.05,0,0,1,.71,1.58v3a1.28,1.28,0,0,1-.38.93,1.15,1.15,0,0,1-.9.39,1.29,1.29,0,0,1-.95-.38,1.27,1.27,0,0,1-.39-.92V78.66a.67.67,0,0,0-.17-.47.58.58,0,0,0-.46-.19.59.59,0,0,0-.47.19.61.61,0,0,0-.21.47v2.43a1.29,1.29,0,0,1-.38,1,1.24,1.24,0,0,1-.93.38,1.26,1.26,0,0,1-.93-.38,1.32,1.32,0,0,1-.37-1V77.16a1.33,1.33,0,0,1,.37-.92,1.27,1.27,0,0,1,.92-.39,1.8,1.8,0,0,1,1,.63Z"/></clipPath><clipPath id="clip-path-12"><path class="cls-1" d="M220.66,78.32a1.25,1.25,0,0,1-.82-.3,1,1,0,0,1-.34-.73.85.85,0,0,1,.33-.66,1.23,1.23,0,0,1,.81-.28h.77v-.48a1.09,1.09,0,0,1,.38-.85,1.32,1.32,0,0,1,.94-.35,1.27,1.27,0,0,1,.91.35,1.13,1.13,0,0,1,.38.86v.47h.15a1.12,1.12,0,0,1,.77.29.88.88,0,0,1,.33.68,1,1,0,0,1-.32.7,1.1,1.1,0,0,1-.78.29h-.8V81a1.13,1.13,0,0,1-.38.86,1.34,1.34,0,0,1-.92.35,1.38,1.38,0,0,1-.94-.36,1.16,1.16,0,0,1-.38-.85V78.31Z"/></clipPath><clipPath id="clip-path-13"><path class="cls-1" d="M227.94,78.31H229c-.06-.46-.28-.69-.67-.69s-.62.23-.74.69m.63,1.75a2.43,2.43,0,0,0,.71.09l.51,0A4.15,4.15,0,0,0,230,80l.48-.11.29,0a1,1,0,0,1,.67.27.86.86,0,0,1,.3.63,1,1,0,0,1-.1.41,1.51,1.51,0,0,1-.35.44,2.54,2.54,0,0,1-1,.43,6.22,6.22,0,0,1-1.55.2,4.27,4.27,0,0,1-2.79-.9A3,3,0,0,1,224.85,79a3,3,0,0,1,1-2.31,3.7,3.7,0,0,1,4.85,0,2.66,2.66,0,0,1,1,2.06.87.87,0,0,1-.24.7,1.3,1.3,0,0,1-.83.21H227.6a3.08,3.08,0,0,0,.33.3,1.87,1.87,0,0,0,.32.15"/></clipPath><clipPath id="clip-path-14"><path class="cls-1" d="M182.19,51.51h2.26a1.38,1.38,0,0,0,1-.36,1.24,1.24,0,0,0,.39-.94,1.27,1.27,0,0,0-.39-.92,1.32,1.32,0,0,0-1-.39h-2.26Zm0,7a2.69,2.69,0,0,1-.86,2,3,3,0,0,1-2.13.82,2.79,2.79,0,0,1-2.06-.82,2.76,2.76,0,0,1-.83-2.06V46.73a3.05,3.05,0,0,1,.8-2.22,2.86,2.86,0,0,1,2.14-.84h5.53a7.41,7.41,0,0,1,5,1.75,6,6,0,0,1,0,9,7.94,7.94,0,0,1-5.31,1.71h-2.29Z"/></clipPath><clipPath id="clip-path-15"><path class="cls-1" d="M194.61,61.14a2.54,2.54,0,0,1-1.86-.76,2.51,2.51,0,0,1-.76-1.85V50.76a2.47,2.47,0,0,1,.79-1.84,2.57,2.57,0,0,1,1.85-.75,2.48,2.48,0,0,1,1.84.78,2.57,2.57,0,0,1,.75,1.85v7.7a2.49,2.49,0,0,1-.76,1.86,2.53,2.53,0,0,1-1.85.77m.06-19.4a2.71,2.71,0,0,1,2,.83,2.84,2.84,0,0,1,.8,2,2.81,2.81,0,0,1-4.83,2,2.76,2.76,0,0,1-.85-2,2.72,2.72,0,0,1,.84-2,2.77,2.77,0,0,1,2-.83"/></clipPath><clipPath id="clip-path-16"><path class="cls-1" d="M201.81,61.13a2.49,2.49,0,0,1-1.85-.78,2.53,2.53,0,0,1-.78-1.87V45.06a2.45,2.45,0,0,1,.78-1.8,2.57,2.57,0,0,1,1.87-.75,2.44,2.44,0,0,1,1.82.76,2.48,2.48,0,0,1,.76,1.84V58.48a2.54,2.54,0,0,1-.76,1.86,2.47,2.47,0,0,1-1.84.79"/></clipPath><clipPath id="clip-path-17"><path class="cls-1" d="M211,54.91a2,2,0,0,0,.53,1.43,1.75,1.75,0,0,0,2.62,0,2.09,2.09,0,0,0,.54-1.48,2.23,2.23,0,0,0-.51-1.51,1.7,1.7,0,0,0-1.35-.59,1.64,1.64,0,0,0-1.32.59,2.33,2.33,0,0,0-.51,1.58m6.42-6.86a2.67,2.67,0,0,1,1.91.74,2.47,2.47,0,0,1,.78,1.89v8a2.55,2.55,0,0,1-.78,1.88,2.58,2.58,0,0,1-1.94.79,4.26,4.26,0,0,1-2.22-1.12,5,5,0,0,1-1.41.91,5.46,5.46,0,0,1-1.75.21,6,6,0,0,1-4.48-1.88,6.38,6.38,0,0,1-1.84-4.62A6.86,6.86,0,0,1,207.55,50a6,6,0,0,1,4.55-2,3.82,3.82,0,0,1,3.06,1.11A4.32,4.32,0,0,1,217.41,48"/></clipPath><clipPath id="clip-path-18"><path class="cls-1" d="M226.65,51.61c-.39,0-.58.11-.58.34s.32.45,1,.63l2,.62a5.45,5.45,0,0,1,2.39,1.55,3.43,3.43,0,0,1,.87,2.27,3.86,3.86,0,0,1-1.62,3.17,6.57,6.57,0,0,1-4.13,1.25,9.44,9.44,0,0,1-4.31-.87c-1.14-.58-1.71-1.31-1.71-2.2a1.81,1.81,0,0,1,.62-1.39,2.12,2.12,0,0,1,1.48-.56,3.64,3.64,0,0,1,.81.07c.21,0,.56.17,1.08.36a11.46,11.46,0,0,0,1.17.39,3.38,3.38,0,0,0,.72.1c.44,0,.67-.13.67-.37s-.39-.5-1.18-.67l-2.35-.7a4.09,4.09,0,0,1-1.91-1.31,3.28,3.28,0,0,1-.68-2,3.72,3.72,0,0,1,1.65-3.15,7.19,7.19,0,0,1,4.32-1.2,7.92,7.92,0,0,1,3.59.73c1,.48,1.45,1.09,1.45,1.81a1.77,1.77,0,0,1-.56,1.3,2,2,0,0,1-1.43.53,5.92,5.92,0,0,1-1.18-.19l-.7-.2-.93-.2a4.26,4.26,0,0,0-.5-.06"/></clipPath><clipPath id="clip-path-19"><path class="cls-1" d="M231.1,60.26a2.06,2.06,0,0,1,.11.65v10a1.94,1.94,0,0,1-.57,1.4,1.9,1.9,0,0,1-1.38.59,2,2,0,0,1-1.39-.58,1.92,1.92,0,0,1-.58-1.41v-9.1a6,6,0,0,0,3.35-1.17,3.55,3.55,0,0,0,.46-.41"/></clipPath><clipPath id="clip-path-20"><path class="cls-1" d="M155.39,78.31v-14c0,2.25,3.51,4.08,7.84,4.08s7.85-1.82,7.85-4.08V78.22c0,2.25-3.51,4.07-7.85,4.07s-7.84-1.82-7.84-4.07"/></clipPath><clipPath id="clip-path-21"><path class="cls-1" d="M163.39,49.76c-3.73,0-6.75-1.58-6.75-3.51s3-3.52,6.75-3.52,6.76,1.58,6.76,3.52S167.13,49.76,163.39,49.76Zm2.44,4.37a1.28,1.28,0,0,1,.95.39,1.22,1.22,0,0,1,.39.92,1.3,1.3,0,0,1-1.31,1.3h-1.32v1.33a1.28,1.28,0,0,1-.38.94,1.31,1.31,0,0,1-.95.38,1.2,1.2,0,0,1-.91-.38,1.29,1.29,0,0,1-.37-.93V56.74h-1.34a1.31,1.31,0,0,1-1.31-1.29,1.31,1.31,0,0,1,.37-.94,1.24,1.24,0,0,1,.93-.38h1.35V52.77a1.3,1.3,0,0,1,1.33-1.33,1.2,1.2,0,0,1,.9.4,1.28,1.28,0,0,1,.38.94v1.35Zm3.56,7.76c-1,1.82-3.36,3-6,3s-5-1.17-6-3a1.41,1.41,0,0,1,.54-1.91h0a1.4,1.4,0,0,1,1.9.55h0a4.86,4.86,0,0,0,7.1,0,1.4,1.4,0,1,1,2.45,1.35Zm1.69-16.08c0-2.25-3.51-4.08-7.84-4.08s-7.85,1.83-7.85,4.08V64.26c0,2.25,3.51,4.08,7.84,4.08s7.85-1.82,7.85-4.08Z"/></clipPath><clipPath id="clip-path-22"><path class="cls-1" d="M166.71,45.27c0,.95-1.49,1.72-3.31,1.72s-3.32-.77-3.32-1.72,1.48-1.73,3.32-1.73,3.31.78,3.31,1.73"/></clipPath></defs><title>IconoContactenos</title><g id="TEXTOS"><path class="cls-24" d="M40.11,30.21H39a1,1,0,0,1-1.07-1,.75.75,0,0,1,.24-.53,6.84,6.84,0,0,0,1.62-2.21.51.51,0,0,0,.26.09c.65,0,1.39-1.28,1.39-2.16s-.08-1.57-.73-1.57l-.23,0c-.05-2.36-.7-5.32-4.68-5.32-4.14,0-4.63,2.95-4.68,5.31l-.16,0c-.64,0-.73.7-.73,1.57s.76,2.16,1.39,2.16a.5.5,0,0,0,.21-.05,7,7,0,0,0,1.61,2.17.75.75,0,0,1,.24.53,1,1,0,0,1-1.06,1H31.46a4.2,4.2,0,0,0-4.39,4v1.11a1.33,1.33,0,0,0,1.39,1.26H43.12a1.33,1.33,0,0,0,1.39-1.26V34.21a4.23,4.23,0,0,0-4.4-4Zm0,0"/><path class="cls-24" d="M53.26,19.25H41a7.78,7.78,0,0,1,.72,2.68,1.66,1.66,0,0,1,.61.67h11a1,1,0,0,0,1-.93V20.18a1,1,0,0,0-1-.93Zm0,0"/><path class="cls-24" d="M53.26,25.36H42.55a3.29,3.29,0,0,1-2,2.32,1.1,1.1,0,0,1-.09.14v.89h12.8a1,1,0,0,0,1-.94V26.3a1,1,0,0,0-1-.94Zm0,0"/><path class="cls-24" d="M53.26,31.47H44.9a4.71,4.71,0,0,1,.88,2.74v.61h7.48a1,1,0,0,0,1-.94V32.41a1,1,0,0,0-1-.94Zm0,0"/><path class="cls-24" d="M57.68,9.92h-34a6.06,6.06,0,0,0-6.31,5.75V38.48a6,6,0,0,0,6.31,5.74h34A6.05,6.05,0,0,0,64,38.48V15.67a6.06,6.06,0,0,0-6.32-5.75ZM61,38.48a3.2,3.2,0,0,1-3.34,3h-34a3.2,3.2,0,0,1-3.34-3V15.67a3.2,3.2,0,0,1,3.34-3h34a3.2,3.2,0,0,1,3.34,3Zm0,0"/><path class="cls-24" d="M16.22,6.48h34a3.36,3.36,0,0,1,3.08,1.89h3.11a6.21,6.21,0,0,0-6.19-4.59h-34A6.05,6.05,0,0,0,9.9,9.52V32.33A6,6,0,0,0,15.64,38V35.31a3.15,3.15,0,0,1-2.76-3V9.52a3.22,3.22,0,0,1,3.34-3Zm0,0"/></g></svg>