<svg xmlns="http://www.w3.org/2000/svg" xmlns:xlink="http://www.w3.org/1999/xlink" viewBox="0 0 67 63"><defs><style>.cls-1{fill:none;}.cls-2{clip-path:url(#clip-path);}.cls-3{fill:#fff;}.cls-4{clip-path:url(#clip-path-2);}</style><clipPath id="clip-path"><rect class="cls-1" x="-1279" y="184" width="1289" height="313"/></clipPath><clipPath id="clip-path-2"><rect class="cls-1" x="10" y="-69.03" width="58.92" height="44"/></clipPath></defs><title>IconoOficinasdeAtencion</title><g id="Capa_1" data-name="Capa 1"><g class="cls-2"><image width="7360" height="4912" transform="translate(-1298 24) scale(0.18 0.13)" xlink:href="../../fingers-note-report-journalist-filling/1044.jpg"/></g></g><g id="TEXTOS"><path class="cls-3" d="M61.19,49.75c0,6.21-13.93,9.48-27.69,9.48S5.81,56,5.81,49.75c0-5.12,9-7.55,14.26-8.56l.68,3.52c-8.65,1.6-11.42,4.12-11.42,5,0,2.09,9.15,6,24.17,6s24.16-3.87,24.16-6c0-1-2.35-3.44-11.41-5l.59-3.52c9.48,1.76,14.35,4.62,14.35,8.56Z"/><path class="cls-3" d="M33.5,3.77a14,14,0,0,0-14,14c0,12.09,14,34.07,14,34.07s14-22.15,14-34.07A14,14,0,0,0,33.5,3.77Zm0,18.71a4.8,4.8,0,0,1-4.7-4.7,4.75,4.75,0,0,1,4.7-4.7,4.62,4.62,0,0,1,4.61,4.7A4.67,4.67,0,0,1,33.5,22.48Z"/><g class="cls-4"><path class="cls-3" d="M54.61-42.13A20.57,20.57,0,0,0,49-50a3.47,3.47,0,0,0-.86-.47.56.56,0,0,0-.05-.08c-3.88-2-11.88-1.47-15.94-.89a3.41,3.41,0,0,0-.8.11,4.1,4.1,0,0,1-.48.1l-.32.07h0a13.42,13.42,0,0,1-6.75-.66,31.66,31.66,0,0,1-2.48-7.82,3.44,3.44,0,0,0-.11-.38L20-65.24a.88.88,0,0,0-1-.67.88.88,0,0,0-.66,1L19-62a2.92,2.92,0,0,0-3.57,3.34,36.85,36.85,0,0,0,2.38,8.11c.61,1.44,1.18,3.39,2.76,4A21,21,0,0,0,30.18-45l-.12,2.27c0,4.67,0,22.21,0,22.45L30.19,6A3.71,3.71,0,0,0,37.6,6V-19.46a1.19,1.19,0,0,1,1.27-1.24,1.43,1.43,0,0,1,1.42,1.3V6.1A3.67,3.67,0,0,0,44,9.74a3.51,3.51,0,0,0,3.5-3.64V-22.24a20.29,20.29,0,0,0,6.76-7.65c.89-1.68,2.43-4,2.43-6S55.42-40.35,54.61-42.13Zm-4.22,6.56c-.4.89-.81,1.79-1.29,2.64a25.4,25.4,0,0,1-1.63,2.53l0-12.39A22.34,22.34,0,0,1,50.56-36,2.69,2.69,0,0,1,50.39-35.57Zm.24-.72c0-.31.07-.31,0,0Z"/></g></g></svg>