<svg id="Capa_1" data-name="Capa 1" xmlns="http://www.w3.org/2000/svg" viewBox="0 0 85 75"><defs><style>.cls-1{fill:#003e66;}.cls-2{fill:#fff;}.cls-3{fill:#f1e321;}</style></defs><title>IconosBogotaHoy MODIFCIADO</title><path class="cls-1" d="M11.45,9.89v0a3.82,3.82,0,0,1,3.84-3.93,3.92,3.92,0,0,1,2.71,1,.43.43,0,0,1-.26.77.51.51,0,0,1-.28-.1,3.13,3.13,0,0,0-2.18-.87,3,3,0,0,0-2.94,3.12v0A3,3,0,0,0,15.28,13a3.13,3.13,0,0,0,2.25-.92A.38.38,0,0,1,17.8,12a.43.43,0,0,1,.42.41.38.38,0,0,1-.15.3,3.84,3.84,0,0,1-2.81,1.12A3.79,3.79,0,0,1,11.45,9.89Z"/><path class="cls-1" d="M19.51,6.12a.42.42,0,1,1,.83,0v7.17a.41.41,0,0,1-.41.43.42.42,0,0,1-.42-.43Z"/><path class="cls-1" d="M22.07,6.3a.5.5,0,0,1,1,0v.14a.5.5,0,0,1-1,0Zm.08,2.13A.42.42,0,0,1,22.56,8a.42.42,0,0,1,.42.43v4.86a.41.41,0,0,1-.41.43.42.42,0,0,1-.42-.43Z"/><path class="cls-1" d="M24.71,8.43A.42.42,0,0,1,25.12,8a.42.42,0,0,1,.42.43V9a2.06,2.06,0,0,1,1.81-1.06,1.91,1.91,0,0,1,1.8,1.11,2.25,2.25,0,0,1,2-1.11,2,2,0,0,1,2.09,2.25v3.1a.42.42,0,0,1-.42.43.42.42,0,0,1-.42-.43v-2.9c0-1.09-.54-1.69-1.45-1.69a1.55,1.55,0,0,0-1.54,1.73v2.86a.42.42,0,1,1-.84,0V10.37c0-1.06-.55-1.67-1.44-1.67a1.62,1.62,0,0,0-1.56,1.76v2.83a.41.41,0,0,1-.41.43.42.42,0,0,1-.42-.43Z"/><path class="cls-1" d="M34.38,12v0c0-1.18,1-1.81,2.4-1.81a6,6,0,0,1,1.72.24v-.19c0-1-.62-1.53-1.67-1.53A3.56,3.56,0,0,0,35.38,9l-.15,0a.37.37,0,0,1-.37-.35.38.38,0,0,1,.23-.35A4.36,4.36,0,0,1,36.92,8a2.47,2.47,0,0,1,1.81.62,2.21,2.21,0,0,1,.57,1.64V13.3a.4.4,0,0,1-.4.42.39.39,0,0,1-.4-.39v-.51a2.45,2.45,0,0,1-2,1A1.89,1.89,0,0,1,34.38,12Zm4.13-.44v-.54a5.78,5.78,0,0,0-1.65-.24c-1,0-1.63.46-1.63,1.16v0c0,.71.65,1.12,1.41,1.12A1.69,1.69,0,0,0,38.51,11.6Z"/><path class="cls-1" d="M43.48,12v0c0-1.18,1-1.81,2.4-1.81a6,6,0,0,1,1.72.24v-.19c0-1-.62-1.53-1.67-1.53A3.56,3.56,0,0,0,44.48,9a.44.44,0,0,1-.15,0A.37.37,0,0,1,44,8.71a.38.38,0,0,1,.23-.35A4.36,4.36,0,0,1,46,8a2.47,2.47,0,0,1,1.81.62,2.21,2.21,0,0,1,.57,1.64V13.3a.4.4,0,0,1-.4.42.39.39,0,0,1-.4-.39v-.51a2.45,2.45,0,0,1-2,1A1.89,1.89,0,0,1,43.48,12Zm4.13-.44v-.54A5.78,5.78,0,0,0,46,10.82c-1.05,0-1.63.46-1.63,1.16v0c0,.71.65,1.12,1.41,1.12A1.69,1.69,0,0,0,47.61,11.6Z"/><path class="cls-1" d="M49.62,10.89v0a2.91,2.91,0,0,1,4.93-2.11.36.36,0,0,1,.13.29.39.39,0,0,1-.4.4A.46.46,0,0,1,54,9.35a2.15,2.15,0,0,0-1.53-.68,2.07,2.07,0,0,0-2,2.17v0A2.09,2.09,0,0,0,52.54,13a2.23,2.23,0,0,0,1.56-.68.34.34,0,0,1,.24-.11.4.4,0,0,1,.38.38.39.39,0,0,1-.11.26,2.83,2.83,0,0,1-2.12.9A2.88,2.88,0,0,1,49.62,10.89Z"/><path class="cls-1" d="M56.24,12.18V8.79h-.46a.38.38,0,0,1-.37-.36.38.38,0,0,1,.37-.37h.46V6.73a.41.41,0,0,1,.41-.42.43.43,0,0,1,.42.42V8.06h1.46a.38.38,0,0,1,.38.37.38.38,0,0,1-.38.36H57.07v3.28A.83.83,0,0,0,58,13a2.35,2.35,0,0,0,.51-.08.36.36,0,0,1,.35.36.35.35,0,0,1-.24.33,2.18,2.18,0,0,1-.82.15A1.43,1.43,0,0,1,56.24,12.18Z"/><path class="cls-1" d="M64.91,13.29a.41.41,0,1,1-.82,0v-.6a2.14,2.14,0,0,1-1.92,1.09A2.05,2.05,0,0,1,60,11.54V8.43A.42.42,0,0,1,60.44,8a.43.43,0,0,1,.42.43v2.9A1.49,1.49,0,0,0,62.41,13a1.65,1.65,0,0,0,1.68-1.75V8.43A.41.41,0,0,1,64.5,8a.42.42,0,0,1,.41.43Z"/><path class="cls-1" d="M66.15,12v0c0-1.18,1-1.81,2.4-1.81a6,6,0,0,1,1.72.24v-.19c0-1-.61-1.53-1.67-1.53A3.56,3.56,0,0,0,67.15,9l-.15,0a.37.37,0,0,1-.37-.35.38.38,0,0,1,.23-.35A4.36,4.36,0,0,1,68.69,8a2.47,2.47,0,0,1,1.81.62,2.21,2.21,0,0,1,.58,1.64V13.3a.41.41,0,0,1-.41.42.39.39,0,0,1-.4-.39v-.51a2.45,2.45,0,0,1-2,1A1.89,1.89,0,0,1,66.15,12Zm4.13-.44v-.54a5.76,5.76,0,0,0-1.64-.24c-1.06,0-1.64.46-1.64,1.16v0c0,.71.65,1.12,1.41,1.12A1.69,1.69,0,0,0,70.28,11.6Z"/><path class="cls-1" d="M72.72,6.12a.42.42,0,1,1,.83,0v7.17a.41.41,0,0,1-.41.43.42.42,0,0,1-.42-.43Z"/><g id="_5" data-name="5"><path class="cls-2" d="M49.12,51.27a.68.68,0,1,0,0-1.35H28.4a7.28,7.28,0,1,1,0-14.55h2.5a.66.66,0,0,0,.58-.34.69.69,0,0,0,.13-.2,10.34,10.34,0,0,1,.81-1.59.68.68,0,0,0-.22-.93.67.67,0,0,0-.93.22A11.08,11.08,0,0,0,30.49,34H28.4a8.63,8.63,0,1,0,0,17.25Z"/><path class="cls-2" d="M51.05,49.92a.68.68,0,0,0,0,1.35h.23a.68.68,0,0,0,0-1.35Z"/><path class="cls-2" d="M54.91,34H52.64a12.61,12.61,0,0,0-11-7.29,12.19,12.19,0,0,0-9.19,4.18.67.67,0,0,0,.06.95.68.68,0,0,0,1-.06,10.82,10.82,0,0,1,8.17-3.72A11.29,11.29,0,0,1,51.59,35a.68.68,0,0,0,.62.4h2.7a7.28,7.28,0,0,1,0,14.55H53.29a.68.68,0,0,0,0,1.35h1.62a8.63,8.63,0,0,0,0-17.25Z"/><path class="cls-2" d="M52.91,37.08H50.75a11.73,11.73,0,0,0-5.88-5.74.51.51,0,0,0-.4.93A10.77,10.77,0,0,1,50,37.79a.5.5,0,0,0,.46.3h2.48a6.69,6.69,0,0,1,6,3.76.5.5,0,0,0,.45.28.42.42,0,0,0,.22-.05.5.5,0,0,0,.24-.67A7.69,7.69,0,0,0,52.91,37.08Z"/><path class="cls-2" d="M59.28,42.9a6.35,6.35,0,0,1,.25,1.56A.52.52,0,0,0,60,45h0a.5.5,0,0,0,.48-.53,7.85,7.85,0,0,0-.28-1.8.52.52,0,0,0-.63-.35A.51.51,0,0,0,59.28,42.9Z"/><path class="cls-3" d="M48.77,28.57a.66.66,0,0,0,.93-.19,5.12,5.12,0,0,1,9.4,2.82,3.36,3.36,0,0,1-.43,2.06.68.68,0,0,0,.26.92.66.66,0,0,0,.33.09.7.7,0,0,0,.59-.34,4.76,4.76,0,0,0,.6-2.73,6.47,6.47,0,0,0-11.88-3.57A.68.68,0,0,0,48.77,28.57Z"/><path class="cls-3" d="M54,24.09a.68.68,0,0,0,.68-.67V19a.68.68,0,0,0-1.36,0v4.45A.68.68,0,0,0,54,24.09Z"/><path class="cls-3" d="M66.31,30.45H61.86a.68.68,0,0,0,0,1.36h4.45a.68.68,0,0,0,0-1.36Z"/><path class="cls-3" d="M47.45,25.32a.51.51,0,0,0,.72-.72l-2-2a.5.5,0,1,0-.71.71Z"/><path class="cls-3" d="M60.05,25.47a.51.51,0,0,0,.36-.15l2-2a.51.51,0,0,0,0-.71.51.51,0,0,0-.72,0l-2,2a.53.53,0,0,0,0,.72A.51.51,0,0,0,60.05,25.47Z"/><path class="cls-2" d="M29.86,63.6a.68.68,0,0,0-.94.22l-1.16,1.9a.68.68,0,1,0,1.16.71l1.17-1.89A.69.69,0,0,0,29.86,63.6Z"/><path class="cls-2" d="M36.17,53.3a.69.69,0,0,0-.94.23l-5.15,8.41a.68.68,0,1,0,1.16.71l5.16-8.41A.69.69,0,0,0,36.17,53.3Z"/><path class="cls-2" d="M42.45,58.68a.69.69,0,0,0-.94.23l-4.17,6.81a.68.68,0,1,0,1.16.71l4.18-6.81A.69.69,0,0,0,42.45,58.68Z"/><path class="cls-2" d="M43.65,56.73a.68.68,0,0,0-.94.22l-.15.26a.67.67,0,0,0,.22.93.66.66,0,0,0,.94-.22l.15-.25A.68.68,0,0,0,43.65,56.73Z"/><path class="cls-2" d="M45.75,53.3a.69.69,0,0,0-.94.23l-1.07,1.74a.69.69,0,0,0,.23.94.64.64,0,0,0,.35.1.7.7,0,0,0,.59-.33L46,54.24A.68.68,0,0,0,45.75,53.3Z"/><path class="cls-2" d="M49.59,62.66a.67.67,0,0,0-.93.22l-1.74,2.84a.68.68,0,1,0,1.16.71l1.74-2.83A.67.67,0,0,0,49.59,62.66Z"/><path class="cls-2" d="M55.33,53.3a.69.69,0,0,0-.94.23l-4.84,7.89a.69.69,0,0,0,.23.94.64.64,0,0,0,.35.1.7.7,0,0,0,.59-.33l4.83-7.89A.68.68,0,0,0,55.33,53.3Z"/></g></svg>