<svg xmlns="http://www.w3.org/2000/svg" xmlns:xlink="http://www.w3.org/1999/xlink" viewBox="0 0 10.46 32.56"><defs><style>.cls-1{fill:none;}.cls-2{clip-path:url(#clip-path);}.cls-3,.cls-4{fill:#fff;}.cls-3{fill-rule:evenodd;}</style><clipPath id="clip-path"><rect class="cls-1" x="-1527.35" y="2.96" width="1300" height="357"/></clipPath></defs><title>IconoMenuAlimentosSanos</title><g id="TEXTOS"><path class="cls-3" d="M6.79,1v0h0s0,0,0,0ZM6.27,1v0h0s0,0,0,0ZM5.75,1v0h0s0,0,0,0ZM5.23,1v0h0s0,0,0,0ZM4.71,1v0h0s0,0,0,0ZM4.19,1v0h0V1ZM3.67,1v0h0V1ZM3.15,1h0V.38A.39.39,0,0,1,3.55,0H6.91a.39.39,0,0,1,.4.38V1h0A.26.26,0,0,0,7.05.77.25.25,0,0,0,6.79,1,.26.26,0,0,0,6.53.77.25.25,0,0,0,6.27,1,.26.26,0,0,0,6,.77.25.25,0,0,0,5.75,1,.26.26,0,0,0,5.49.77.25.25,0,0,0,5.23,1,.26.26,0,0,0,5,.77.25.25,0,0,0,4.71,1,.26.26,0,0,0,4.45.77.25.25,0,0,0,4.19,1a.26.26,0,0,0-.52,0,.26.26,0,0,0-.52,0Z"/><path class="cls-4" d="M6,2.71a1.11,1.11,0,0,1,0,.17,18.56,18.56,0,0,0,1.36,7.61l0,.08c.44,1.14.85,2.23,1,3A26.78,26.78,0,0,1,9,16.17c.08.56.16,5.27.21,8.38,0,1.43.05,2.74.07,3.64l0,.89h0a1.48,1.48,0,0,1,0,.21v0h0A3.9,3.9,0,0,1,9,30.94a.88.88,0,0,1-.2.24,2.32,2.32,0,0,1-.26.21H1.88a2.16,2.16,0,0,1-.25-.2,1.16,1.16,0,0,1-.21-.25,2.56,2.56,0,0,1-.24-1.54c0-.08,0-.25,0-1.37v-.3c0-4.15.3-10.95.39-11.56a26.78,26.78,0,0,1,.56-2.64c.19-.74.6-1.81,1.07-3A18.25,18.25,0,0,0,4.58,2.87c0-.06,0-.11,0-.16H6M7.27,1.54h-4v.1a3.46,3.46,0,0,0,.08,1.09,1.92,1.92,0,0,1,.06.3,17.47,17.47,0,0,1-1.3,7C1.65,11.3,1.23,12.42,1,13.23S.58,15.07.43,16c-.11.67-.37,7.83-.4,11.74V28c0,.44,0,1.19,0,1.3a3.74,3.74,0,0,0,.4,2.21,2.53,2.53,0,0,0,.42.51,4.7,4.7,0,0,0,.66.49l0,0H8.93l0,0a4.7,4.7,0,0,0,.66-.49,2,2,0,0,0,.42-.51,5.39,5.39,0,0,0,.41-2.18h0v0c0-.45,0-.87,0-1.15l0,0C10.34,25,10.25,16.75,10.12,16s-.34-1.82-.58-2.75S8.9,11.3,8.43,10.07A17.43,17.43,0,0,1,7.14,3a1.3,1.3,0,0,1,.05-.3,3.46,3.46,0,0,0,.08-1.09v-.1Z"/></g></svg>