<svg xmlns="http://www.w3.org/2000/svg" viewBox="0 0 125 76.39"><title>IconoEstablecimientoFavorables</title><g id="Capa_1" data-name="Capa 1"><rect width="125" height="76.39" style="fill:#89b450"/></g><g id="TEXTOS"><path d="M58,44.64c.13,1.09,1.14,2.64,1.84,2.64a.41.41,0,0,0,.23-.06,9.66,9.66,0,0,0,1.86,2.41H67.2a7.87,7.87,0,0,0,1.6-2.46.55.55,0,0,0,.29.11c.7,0,1.54-1.55,1.54-2.64s-.08-2-.82-2l-.28,0c-.06-3.21-.9-7.52-5.82-7.52-4.59,0-5.25,4.3-4.94,7.51l-.2,0c-.73,0-.72.92-.58,2Zm0,0" style="fill:#fff"/><path d="M87.87,40.7l.33-2.05a1.09,1.09,0,0,0-1-1.34H72.28a12,12,0,0,1,.83,3.75,2,2,0,0,1,.71.9H86.48a1.49,1.49,0,0,0,1.39-1.26Zm0,0" style="fill:#fff"/><path d="M85.41,49.44a1.32,1.32,0,0,0,1.27-1.07L87,46.62a1,1,0,0,0-1-1.14H74a4,4,0,0,1-2.22,2.78l-.1.17v1Zm0,0" style="fill:#fff"/><path d="M50.11,49.11,47.67,32.84a3.63,3.63,0,0,1,3.63-3.62h37A3.63,3.63,0,0,1,92,32.84L89.79,48.93H93l2.17-16.09A6.88,6.88,0,0,0,88.33,26h-37a6.88,6.88,0,0,0-6.87,6.87l2.44,16.27Zm0,0" style="fill:#fff"/><path d="M46.31,51.24A2.33,2.33,0,0,0,44,53.89l1.9,13h48l1.89-13a2.33,2.33,0,0,0-2.29-2.65Zm0,0" style="fill:#fff"/><path d="M86.06,23.38l.59-2.54a.89.89,0,0,0-.17-.74.87.87,0,0,0-.68-.32H52.53a.88.88,0,0,0-.85,1.09l.62,2.51Zm0,0" style="fill:#fff"/><path d="M82.73,17.78l.47-2.57a.85.85,0,0,0-.85-1H56a.9.9,0,0,0-.67.31.89.89,0,0,0-.18.72l.51,2.56Zm0,0" style="fill:#fff"/></g></svg>