<svg xmlns="http://www.w3.org/2000/svg" xmlns:xlink="http://www.w3.org/1999/xlink" viewBox="0 0 69 60"><defs><style>.cls-1{fill:none;}.cls-2{clip-path:url(#clip-path);}.cls-3{fill:#fff;}</style><clipPath id="clip-path"><rect class="cls-1" x="10" y="15.97" width="58.92" height="44"/></clipPath></defs><title>IconoPreguntasFrecuentes</title><g id="TEXTOS"><g class="cls-2"><path class="cls-3" d="M38.93,19.32a6.37,6.37,0,1,1-6.3,6.37A6.34,6.34,0,0,1,38.93,19.32Z"/><path class="cls-3" d="M54.61,42.87A20.57,20.57,0,0,0,49,35a3.47,3.47,0,0,0-.86-.47.56.56,0,0,0-.05-.08c-3.88-2-11.88-1.47-15.94-.89a3.41,3.41,0,0,0-.8.11,4.1,4.1,0,0,1-.48.1l-.32.07h0a13.42,13.42,0,0,1-6.75-.66,31.66,31.66,0,0,1-2.48-7.82,3.44,3.44,0,0,0-.11-.38L20,19.76a.87.87,0,1,0-1.69.37L19,23a2.92,2.92,0,0,0-3.57,3.34,36.85,36.85,0,0,0,2.38,8.11c.61,1.44,1.18,3.39,2.76,4A21,21,0,0,0,30.18,40l-.12,2.27c0,4.67,0,22.21,0,22.45L30.19,91a3.71,3.71,0,0,0,7.41,0V65.54a1.19,1.19,0,0,1,1.27-1.24,1.43,1.43,0,0,1,1.42,1.3V91.1A3.67,3.67,0,0,0,44,94.74a3.51,3.51,0,0,0,3.5-3.64V62.76a20.29,20.29,0,0,0,6.76-7.65c.89-1.68,2.43-4,2.43-6S55.42,44.65,54.61,42.87Zm-4.22,6.56c-.4.89-.81,1.79-1.29,2.64a25.4,25.4,0,0,1-1.63,2.53l0-12.39A22.34,22.34,0,0,1,50.56,49,2.69,2.69,0,0,1,50.39,49.43Zm.24-.72c0-.31.07-.31,0,0Z"/></g></g></svg>