<svg id="Capa_1" data-name="Capa 1" xmlns="http://www.w3.org/2000/svg" xmlns:xlink="http://www.w3.org/1999/xlink" viewBox="0 0 85 75"><defs><style>.cls-1{fill:none;}.cls-2{fill:#003e66;}.cls-3{clip-path:url(#clip-path);}.cls-4{font-size:3.03px;font-family:LucidaSans, Lucida Sans;}.cls-4,.cls-5,.cls-6{fill:#fff;}.cls-5{font-size:8.03px;font-family:AtlanticCruise;}.cls-7{fill:#6a2f83;}.cls-8{fill:#e01d26;}.cls-9{fill:#e05d16;}.cls-10{fill:#e7de00;}.cls-11{fill:#00963e;}.cls-12{fill:#00a2d8;}</style><clipPath id="clip-path"><rect class="cls-1" x="3.25" y="18.23" width="76.23" height="50.15"/></clipPath></defs><title>IconosBogotaHoy MODIFCIADO</title><path class="cls-2" d="M2.7,9.65v0A3.76,3.76,0,0,1,6.48,5.76a3.88,3.88,0,0,1,2.66,1,.47.47,0,0,1,.17.35.43.43,0,0,1-.42.41.52.52,0,0,1-.28-.09,3,3,0,0,0-2.14-.86A2.93,2.93,0,0,0,3.58,9.6v0a3,3,0,0,0,2.89,3.09,3,3,0,0,0,2.21-.91.4.4,0,0,1,.68.29.43.43,0,0,1-.14.3,3.84,3.84,0,0,1-2.78,1.09A3.72,3.72,0,0,1,2.7,9.65Z"/><path class="cls-2" d="M10.14,11.76v0c0-1.17,1-1.78,2.36-1.78a5.8,5.8,0,0,1,1.69.23V10c0-1-.61-1.51-1.64-1.51a3.46,3.46,0,0,0-1.43.31.48.48,0,0,1-.15,0,.36.36,0,0,1-.36-.36.39.39,0,0,1,.22-.34,4.45,4.45,0,0,1,1.8-.37,2.43,2.43,0,0,1,1.79.61A2.17,2.17,0,0,1,15,10v3a.39.39,0,0,1-.39.4.38.38,0,0,1-.4-.38v-.5a2.4,2.4,0,0,1-2,.94A1.85,1.85,0,0,1,10.14,11.76Zm4.06-.43V10.8a5.61,5.61,0,0,0-1.62-.24c-1,0-1.61.45-1.61,1.14v0c0,.69.64,1.09,1.39,1.09A1.66,1.66,0,0,0,14.2,11.33Z"/><path class="cls-2" d="M16.59,5.93a.41.41,0,1,1,.82,0V13a.4.4,0,0,1-.4.42.41.41,0,0,1-.42-.42Z"/><path class="cls-2" d="M19.11,6.12a.49.49,0,0,1,1,0v.13a.49.49,0,0,1-1,0Zm.08,2.09a.41.41,0,1,1,.82,0V13a.4.4,0,0,1-.41.42.41.41,0,0,1-.41-.42Z"/><path class="cls-2" d="M27,13a.41.41,0,0,1-.4.42.41.41,0,0,1-.42-.42v-.74A2.48,2.48,0,0,1,24,13.47a2.69,2.69,0,0,1-2.64-2.85v0A2.71,2.71,0,0,1,24,7.73,2.49,2.49,0,0,1,26.13,8.9v-3a.4.4,0,0,1,.41-.41.41.41,0,0,1,.41.41Zm-4.72-2.41v0a2,2,0,0,0,1.94,2.13,2.06,2.06,0,0,0,2-2.13v0a2.05,2.05,0,0,0-2-2.12A1.94,1.94,0,0,0,22.23,10.58Z"/><path class="cls-2" d="M28.16,11.76v0c0-1.17,1-1.78,2.36-1.78a5.8,5.8,0,0,1,1.69.23V10c0-1-.61-1.51-1.64-1.51a3.5,3.5,0,0,0-1.43.31.48.48,0,0,1-.15,0,.36.36,0,0,1-.36-.36.39.39,0,0,1,.22-.34,4.46,4.46,0,0,1,1.81-.37,2.42,2.42,0,0,1,1.78.61A2.17,2.17,0,0,1,33,10v3a.39.39,0,0,1-.39.4.38.38,0,0,1-.4-.38v-.5a2.4,2.4,0,0,1-2,.94A1.85,1.85,0,0,1,28.16,11.76Zm4.06-.43V10.8a5.61,5.61,0,0,0-1.62-.24c-1,0-1.61.45-1.61,1.14v0c0,.69.64,1.09,1.39,1.09A1.66,1.66,0,0,0,32.22,11.33Z"/><path class="cls-2" d="M39.79,13A.41.41,0,1,1,39,13v-.74a2.48,2.48,0,0,1-2.12,1.22,2.68,2.68,0,0,1-2.63-2.85v0a2.7,2.7,0,0,1,2.63-2.87A2.49,2.49,0,0,1,39,8.9v-3a.4.4,0,0,1,.4-.41.41.41,0,0,1,.42.41Zm-4.73-2.41v0A2,2,0,0,0,37,12.74a2.06,2.06,0,0,0,2-2.13v0a2.05,2.05,0,0,0-2-2.12A2,2,0,0,0,35.06,10.58Z"/><path class="cls-2" d="M49.65,13a.42.42,0,1,1-.83,0v-.74a2.45,2.45,0,0,1-2.11,1.22,2.68,2.68,0,0,1-2.63-2.85v0a2.7,2.7,0,0,1,2.63-2.87A2.46,2.46,0,0,1,48.82,8.9v-3a.4.4,0,0,1,.41-.41.41.41,0,0,1,.42.41Zm-4.73-2.41v0a2,2,0,0,0,1.94,2.13,2.06,2.06,0,0,0,2-2.13v0a2.05,2.05,0,0,0-2-2.12A2,2,0,0,0,44.92,10.58Z"/><path class="cls-2" d="M53.68,13.48a2.74,2.74,0,0,1-2.75-2.86v0a2.72,2.72,0,0,1,2.64-2.87,2.59,2.59,0,0,1,2.56,2.79.38.38,0,0,1-.38.38h-4a1.93,1.93,0,0,0,1.94,1.87,2.27,2.27,0,0,0,1.59-.64.38.38,0,0,1,.24-.1.36.36,0,0,1,.36.36.33.33,0,0,1-.13.26A2.8,2.8,0,0,1,53.68,13.48Zm1.63-3.18a1.81,1.81,0,0,0-1.76-1.88,1.9,1.9,0,0,0-1.79,1.88Z"/><path class="cls-2" d="M57.45,5.93a.41.41,0,0,1,.4-.41.41.41,0,0,1,.42.41V13a.4.4,0,0,1-.41.42.41.41,0,0,1-.41-.42Z"/><path class="cls-2" d="M62.54,11.76v0c0-1.17,1-1.78,2.35-1.78a5.82,5.82,0,0,1,1.7.23V10c0-1-.61-1.51-1.64-1.51a3.43,3.43,0,0,0-1.43.31.48.48,0,0,1-.15,0A.36.36,0,0,1,63,8.48a.37.37,0,0,1,.22-.34A4.41,4.41,0,0,1,65,7.77a2.39,2.39,0,0,1,1.78.61A2.14,2.14,0,0,1,67.38,10v3a.39.39,0,0,1-.39.4.38.38,0,0,1-.4-.38v-.5a2.4,2.4,0,0,1-2,.94A1.85,1.85,0,0,1,62.54,11.76Zm4.06-.43V10.8A5.61,5.61,0,0,0,65,10.56c-1,0-1.61.45-1.61,1.14v0c0,.69.64,1.09,1.39,1.09A1.66,1.66,0,0,0,66.6,11.33Z"/><path class="cls-2" d="M68.92,6.12a.49.49,0,0,1,1,0v.13a.49.49,0,0,1-1,0ZM69,8.21a.41.41,0,0,1,.41-.42.41.41,0,0,1,.41.42V13a.4.4,0,0,1-.4.42A.41.41,0,0,1,69,13Z"/><path class="cls-2" d="M71.51,8.21a.41.41,0,0,1,.41-.42.41.41,0,0,1,.41.42v1a2.29,2.29,0,0,1,1.9-1.47.4.4,0,0,1,.41.42.4.4,0,0,1-.37.41,2.25,2.25,0,0,0-1.94,2.52V13a.41.41,0,0,1-.4.42.41.41,0,0,1-.42-.42Z"/><path class="cls-2" d="M77.79,13.48A2.74,2.74,0,0,1,75,10.62v0a2.72,2.72,0,0,1,2.65-2.87,2.59,2.59,0,0,1,2.56,2.79.38.38,0,0,1-.39.38h-4a1.93,1.93,0,0,0,1.95,1.87,2.24,2.24,0,0,0,1.58-.64.4.4,0,0,1,.24-.1.36.36,0,0,1,.36.36.33.33,0,0,1-.13.26A2.8,2.8,0,0,1,77.79,13.48Zm1.64-3.18a1.82,1.82,0,0,0-1.76-1.88,1.91,1.91,0,0,0-1.8,1.88Z"/><g class="cls-3"><text class="cls-4" transform="translate(6.36 64.88) scale(1.19 1)">INDICE BOGOTANO DE CALIDAD DEL AIRE</text><text class="cls-5" transform="translate(5.94 67.1)">´</text><path class="cls-6" d="M46.2,49.27l-1.59.17a46.43,46.43,0,0,1-5.63.12l.31,3.55,3.72.94v.41l.54,0,.12-.75L43,53.58l.7,0s0-.44.23-.45.29.47.29.47h.63l-.56.19.11.76s-1,.13.67.24a3.91,3.91,0,0,1,.88.19,9.21,9.21,0,0,0,.16-1,16.81,16.81,0,0,0,0-4.62Z"/><path class="cls-6" d="M64.36,53.12c-3.07.39-8.51,2.1-12.27,2v1.26l1.14-1.12,1.62.56.62,2.55c.8-.06,1-.54,2.87-.27,6.85-1.9,14-2.54,16.56,1.16-1.38-4.84-6-6.76-10.54-6.18"/><path class="cls-6" d="M28.58,28.55a6,6,0,0,0-5.69,5.95A5.9,5.9,0,0,0,29,40.39c3.51,0,5.72-3.38,5.72-5.87a6,6,0,0,0-6.16-6"/><path class="cls-6" d="M17.2,31.7a1.5,1.5,0,0,0,.41-1.21A1.88,1.88,0,0,0,17,29.11a1.63,1.63,0,0,0-1-.39v3.62a2.15,2.15,0,0,0,1.27-.64"/><path class="cls-6" d="M17.75,34.5a3.63,3.63,0,0,0-1.82-.6v6.4a3.64,3.64,0,0,0,2.31-1A3.56,3.56,0,0,0,19,36.52a3.71,3.71,0,0,0-1.26-2"/><polygon class="cls-6" points="47.78 38.26 50.66 38.26 49.25 32.53 47.78 38.26"/><path class="cls-6" d="M71.12,42.9c6-7.1-8-9.65-11.08-9.65.57-2.84-1.7-4.55-4-3.41C57.2,12.23,28.8,17.06,23.4,28.42a1.49,1.49,0,0,0-2.84-.85c-.85-3.7-5.11-4.55-8.23-4C-.46,26.15.4,44.61,14,44.89c-1.84,3.46,2.51,6.65,6,5.12-2.28,1.08-2.68,2.77-2.11,4.47.81-.43,2.25-1,2.88-1.44s1.4-1,1.4-1v-1l.64-.1.1-1v-.32l.17-.22.15.24v.26l.07.6.12-.31.27.06.44-.29.49.29.23-.07V51l.88,0s0,.65,0,.65l.44.34v-.36h5.18V53.6l.58,0a4.87,4.87,0,0,1,1.53.36V49.08C25.63,48,20,45.37,20,44.39a46.57,46.57,0,0,0,13.45,3.4V42.35l3.41-2.56,1.41,1.72.59,6.69A42.12,42.12,0,0,0,48,47.66C56.41,46,59.48,44,67.45,44.76c5.81.54,10.92,6.82,11.17,10.5.64-4.54-3.24-12.64-7.5-12.36m-59-.78H10.34V27L12.1,27Zm7.78-2.23a5.7,5.7,0,0,1-2.41,1.89,8.09,8.09,0,0,1-2.21.27h-1.1V27h1.53a4.3,4.3,0,0,1,1,.21A3.74,3.74,0,0,1,19,29a3.48,3.48,0,0,1,0,3.05,2.51,2.51,0,0,1-.56.84A3.43,3.43,0,0,1,19.69,34a4.84,4.84,0,0,1,1.06,2.64,4.75,4.75,0,0,1-.87,3.24m8.9,2.29a7.66,7.66,0,1,1,7.63-7.65,7.71,7.71,0,0,1-7.63,7.65m22.86-.12L51.12,40H47.38l-.53,2.06H45.21c-.08.11-.28.11-.62.11a7.66,7.66,0,1,1,0-15.32c.25,0,.61,0,.66.24l0,1.82-.32-.31a2.75,2.75,0,0,0-.35,0,6,6,0,0,0-5.9,5.92,5.94,5.94,0,0,0,6.16,5.91c.17,0,.26,0,.42,0v.86L48.8,27h.87l3.78,15.1Z"/><path class="cls-6" d="M49.34,48.79l1.56,2.76h1.19V54.6c4.24-.15,10.1-2.66,14.27-2.39,3,.19,6.72.91,10.79,5.43-4-15.47-16.27-10.91-27.81-8.85"/><path class="cls-6" d="M45.25,41.28l-.19.77h.15a.3.3,0,0,0,0-.1Z"/><rect class="cls-7" x="6.61" y="55.58" width="1.8" height="4.21"/><rect class="cls-8" x="6.61" y="50.09" width="1.8" height="4.11"/><rect class="cls-9" x="6.61" y="44.12" width="1.8" height="4.12"/><rect class="cls-10" x="6.61" y="38.69" width="1.8" height="3.64"/><rect class="cls-11" x="6.61" y="32.9" width="1.8" height="4.3"/><rect class="cls-12" x="6.61" y="26.73" width="1.8" height="4.21"/></g></svg>