<svg id="Capa_1" data-name="Capa 1" xmlns="http://www.w3.org/2000/svg" viewBox="0 0 85 75"><defs><style>.cls-1{fill:#003e66;}.cls-2{fill:none;stroke:#f1e321;stroke-miterlimit:10;}.cls-3{fill:#fff;}</style></defs><title>IconosBogotaHoy MODIFCIADO</title><path class="cls-1" d="M19.23,6.45a.43.43,0,1,1,.86,0v6.83a.43.43,0,1,1-.86,0Zm.21-1.16a.3.3,0,0,1,0-.16l.65-1a.47.47,0,0,1,.39-.25c.26,0,.59.18.59.33s-.07.16-.15.25l-.82.77a.61.61,0,0,1-.51.2C19.52,5.44,19.44,5.38,19.44,5.29Z"/><path class="cls-1" d="M22,8.43A.43.43,0,0,1,22.37,8a.42.42,0,0,1,.42.43V9a2.13,2.13,0,0,1,1.92-1.09,2,2,0,0,1,2.14,2.24v3.11a.42.42,0,1,1-.83,0v-2.9A1.49,1.49,0,0,0,24.47,8.7a1.64,1.64,0,0,0-1.68,1.75v2.84a.41.41,0,0,1-.41.43.43.43,0,0,1-.43-.43Z"/><path class="cls-1" d="M33.75,13.29a.42.42,0,1,1-.83,0v-.76a2.52,2.52,0,0,1-2.15,1.25,2.73,2.73,0,0,1-2.68-2.9v0a2.75,2.75,0,0,1,2.68-2.91,2.54,2.54,0,0,1,2.15,1.19v-3a.41.41,0,0,1,.41-.43.42.42,0,0,1,.42.43ZM29,10.84v0a2,2,0,0,0,2,2.16,2.09,2.09,0,0,0,2-2.16v0a2.08,2.08,0,0,0-2-2.15A2,2,0,0,0,29,10.84Z"/><path class="cls-1" d="M35.4,6.3a.5.5,0,0,1,1,0v.14a.5.5,0,0,1-1,0Zm.08,2.13a.42.42,0,1,1,.84,0v4.86a.42.42,0,1,1-.84,0Z"/><path class="cls-1" d="M37.69,10.89v0a2.89,2.89,0,0,1,2.88-2.93,2.93,2.93,0,0,1,2.06.81.42.42,0,0,1,.13.29.4.4,0,0,1-.4.4.49.49,0,0,1-.28-.09,2.14,2.14,0,0,0-1.52-.68,2.07,2.07,0,0,0-2,2.17v0A2.09,2.09,0,0,0,40.61,13a2.23,2.23,0,0,0,1.56-.68.36.36,0,0,1,.24-.11.39.39,0,0,1,.38.38.35.35,0,0,1-.11.26,2.82,2.82,0,0,1-2.11.9A2.88,2.88,0,0,1,37.69,10.89Z"/><path class="cls-1" d="M46.3,13.79a2.78,2.78,0,0,1-2.79-2.91v0A2.76,2.76,0,0,1,46.2,7.94a2.63,2.63,0,0,1,2.6,2.84.39.39,0,0,1-.39.39H44.35a2,2,0,0,0,2,1.9,2.32,2.32,0,0,0,1.61-.65.35.35,0,0,1,.24-.1.36.36,0,0,1,.37.36.36.36,0,0,1-.13.27A2.85,2.85,0,0,1,46.3,13.79ZM48,10.55a1.84,1.84,0,0,0-1.79-1.91,1.94,1.94,0,0,0-1.82,1.91Z"/><path class="cls-1" d="M53.12,10.49v-4a.43.43,0,1,1,.85,0v4c0,1.64.88,2.56,2.32,2.56a2.18,2.18,0,0,0,2.29-2.5v-4a.43.43,0,1,1,.86,0v4c0,2.21-1.27,3.36-3.17,3.36A3,3,0,0,1,53.12,10.49Z"/><path class="cls-1" d="M63.69,13.39,60.77,6.64a.35.35,0,0,1-.05-.2A.44.44,0,0,1,61.16,6a.49.49,0,0,1,.44.32l2.62,6.29,2.64-6.31a.5.5,0,0,1,.42-.3.41.41,0,0,1,.42.41.43.43,0,0,1,0,.17l-2.94,6.79a.52.52,0,0,1-.5.36h0A.52.52,0,0,1,63.69,13.39Z"/><path class="cls-2" d="M53.78,53.35l9.75,1.57a.07.07,0,0,0,.07-.12l-6.22-7.66a.07.07,0,0,0-.12,0,15.91,15.91,0,0,1-3.52,6.08A.06.06,0,0,0,53.78,53.35Z"/><path class="cls-2" d="M31.34,30.84a15.91,15.91,0,0,1,6.08-3.52.08.08,0,0,0,0-.13L29.78,21a.07.07,0,0,0-.12.07l1.56,9.75A.07.07,0,0,0,31.34,30.84Z"/><path class="cls-2" d="M54.45,21l-7.67,6.21a.08.08,0,0,0,0,.13,15.79,15.79,0,0,1,6.07,3.52.07.07,0,0,0,.12,0l1.56-9.75A.07.07,0,0,0,54.45,21Z"/><path class="cls-2" d="M46.78,57.74,54.44,64a.07.07,0,0,0,.12-.07L53,54.13a.07.07,0,0,0-.12,0,15.67,15.67,0,0,1-6.07,3.52A.08.08,0,0,0,46.78,57.74Z"/><path class="cls-2" d="M29.78,64l7.66-6.21a.08.08,0,0,0,0-.13,15.78,15.78,0,0,1-6.08-3.52.07.07,0,0,0-.12,0l-1.56,9.75A.07.07,0,0,0,29.78,64Z"/><path class="cls-2" d="M26.84,47.14,20.63,54.8a.07.07,0,0,0,.07.12l9.75-1.57a.06.06,0,0,0,0-.11A15.78,15.78,0,0,1,27,47.16.07.07,0,0,0,26.84,47.14Z"/><path class="cls-2" d="M26.25,42.47a15.7,15.7,0,0,1,.4-3.52.07.07,0,0,0-.09-.08L17.34,42.4a.07.07,0,0,0,0,.13l9.22,3.53a.07.07,0,0,0,.09-.08A15.67,15.67,0,0,1,26.25,42.47Z"/><path class="cls-2" d="M57.38,37.8l6.22-7.67a.07.07,0,0,0-.07-.11l-9.75,1.56a.07.07,0,0,0,0,.12,15.79,15.79,0,0,1,3.52,6.07A.07.07,0,0,0,57.38,37.8Z"/><path class="cls-2" d="M38.52,58l3.53,9.22a.07.07,0,0,0,.13,0L45.71,58a.07.07,0,0,0-.08-.09,15.64,15.64,0,0,1-7,0A.07.07,0,0,0,38.52,58Z"/><path class="cls-2" d="M38.52,26.91a.07.07,0,0,0,.08.09,15.64,15.64,0,0,1,7,0,.07.07,0,0,0,.08-.09l-3.53-9.22a.07.07,0,0,0-.13,0Z"/><path class="cls-2" d="M66.88,42.4l-9.21-3.53a.07.07,0,0,0-.09.08,16,16,0,0,1,0,7,.07.07,0,0,0,.09.08l9.21-3.53A.07.07,0,0,0,66.88,42.4Z"/><path class="cls-2" d="M30.45,31.58,20.7,30c-.07,0-.12.06-.07.11l6.21,7.67a.08.08,0,0,0,.13,0,15.67,15.67,0,0,1,3.52-6.07A.07.07,0,0,0,30.45,31.58Z"/><path class="cls-3" d="M58,42.47a16.21,16.21,0,0,0-.42-3.65c-.08-.31-.16-.62-.25-.92a15.81,15.81,0,0,0-3.65-6.3c-.22-.23-.44-.45-.67-.67a15.81,15.81,0,0,0-6.3-3.65L45.76,27a15.66,15.66,0,0,0-7.29,0l-.92.25a15.74,15.74,0,0,0-6.3,3.65c-.23.22-.46.44-.67.67a15.69,15.69,0,0,0-3.65,6.3c-.1.3-.18.61-.25.92a15.66,15.66,0,0,0,0,7.29c.07.31.15.62.25.92a15.63,15.63,0,0,0,3.65,6.3c.21.23.44.46.67.67a15.74,15.74,0,0,0,6.3,3.65c.3.09.61.18.92.25a15.66,15.66,0,0,0,7.29,0c.31-.07.62-.16.92-.25A15.81,15.81,0,0,0,53,54c.23-.21.45-.44.67-.67A15.74,15.74,0,0,0,57.3,47c.09-.3.17-.61.25-.92A16.18,16.18,0,0,0,58,42.47ZM42.11,57.11A14.64,14.64,0,1,1,56.75,42.47,14.65,14.65,0,0,1,42.11,57.11Z"/><path class="cls-3" d="M42.11,29.66a12.82,12.82,0,0,0-12.8,12.81.49.49,0,0,0,1,0A11.83,11.83,0,0,1,42.11,30.64a.49.49,0,0,0,0-1Z"/></svg>