<?xml version="1.0" encoding="utf-8"?>
<!-- Generator: Adobe Illustrator 21.0.0, SVG Export Plug-In . SVG Version: 6.00 Build 0)  -->
<svg version="1.1" xmlns="http://www.w3.org/2000/svg" xmlns:xlink="http://www.w3.org/1999/xlink" x="0px" y="0px"
	 viewBox="0 0 420 336" style="enable-background:new 0 0 420 336;" xml:space="preserve">
<style type="text/css">
	.st0{fill-rule:evenodd;clip-rule:evenodd;fill:#BD0025;}
	.st1{fill-rule:evenodd;clip-rule:evenodd;fill:#F6F303;}
</style>
<g id="Capa_2">
</g>
<g id="Capa_1">
	<g>
		<path class="st0" d="M176.2,220.8h-12.6v2.4h11.8v3.4h-11.8v2.4h12.8v3.9h-17.7v-16h17.4V220.8L176.2,220.8z M184,232.9h-4.7v-16
			h7.2l5.7,10l5.8-10h7.1v16h-4.7v-11.4l-6.6,11.4h-3.2l-6.5-11.4V232.9L184,232.9z M225.8,220.8h-12.6v2.4h11.9v3.4h-11.9v2.4H226
			v3.9h-17.6v-16h17.5V220.8L225.8,220.8z M241.6,220.9h-7.8v3.9h7.8c0.6,0,1.1-0.2,1.4-0.5c0.3-0.3,0.4-0.9,0.4-1.7
			c0-0.6-0.1-1.1-0.4-1.4C242.6,221.1,242.2,220.9,241.6,220.9L241.6,220.9z M241.7,216.9c2.5,0,4.3,0.4,5.2,1.1
			c0.9,0.7,1.4,2.1,1.4,4.1c0,1.4-0.2,2.4-0.6,3.1c-0.4,0.7-1.1,1.1-2,1.3c0.8,0.2,1.5,0.6,1.9,1.1c0.4,0.5,0.6,1.2,0.6,2v3.3h-4.9
			v-2.4c0-0.6-0.1-1.1-0.4-1.3c-0.3-0.2-0.9-0.4-1.8-0.4h-7.3v4.1h-4.9v-16H241.7L241.7,216.9z M266.5,222.7L266.5,222.7
			c0-0.8-0.2-1.3-0.7-1.5c-0.5-0.3-1.5-0.4-3-0.4H260c-1.7,0-2.7,0.2-3.2,0.6c-0.5,0.4-0.7,1.2-0.7,2.5v2.2c0,1.2,0.3,1.9,0.8,2.4
			c0.5,0.4,1.6,0.7,3.1,0.7h2.8c1.4,0,2.4-0.1,2.9-0.4c0.5-0.3,0.8-0.7,0.8-1.3c0-0.1,0-0.2,0-0.4c0,0,0-0.1,0-0.1h-5.8v-3.2h10.8
			v5.3c0,1.5-0.5,2.6-1.7,3.2c-1.1,0.6-3,1-5.8,1h-5.4c-1.7,0-2.9-0.1-3.7-0.3c-0.8-0.2-1.5-0.5-2-0.9c-0.7-0.5-1.1-1.1-1.4-1.9
			c-0.3-0.7-0.5-1.7-0.5-2.8v-4.4c0-2.3,0.5-3.9,1.6-4.8c1.1-0.9,3-1.3,5.9-1.3h5.5c1.8,0,3.1,0.1,3.9,0.2c0.8,0.1,1.5,0.4,2,0.8
			c0.5,0.4,0.9,0.9,1.1,1.6c0.2,0.7,0.3,1.5,0.3,2.5c0,0.2,0,0.4,0,0.5c0,0.1,0,0.2,0,0.4H266.5L266.5,222.7z M291.9,220.8h-12.6
			v2.4h11.8v3.4h-11.8v2.4h12.8v3.9h-17.6v-16h17.5V220.8L291.9,220.8z M316.6,232.9h-7.1l-9.6-11.6v11.6H295v-16h7.2l9.5,11.7
			v-11.7h4.9V232.9L316.6,232.9z M335,222.7v-0.1c0-0.6-0.2-1.1-0.6-1.4c-0.4-0.3-1.1-0.4-2-0.4h-3.9c-1.7,0-2.7,0.2-3.2,0.6
			c-0.5,0.4-0.7,1.2-0.7,2.5v2.2c0,1.2,0.3,1.9,0.8,2.4c0.5,0.4,1.6,0.7,3.1,0.7h2.8c1.5,0,2.6-0.2,3-0.5c0.5-0.3,0.7-0.9,0.7-1.7
			v-0.2h5c0,0,0,0.1,0,0.1c0,0.5,0,0.8,0,1c0,1-0.1,1.9-0.4,2.5c-0.2,0.7-0.7,1.2-1.2,1.6c-0.5,0.4-1.2,0.7-2.1,0.8
			c-0.9,0.2-2.1,0.2-3.8,0.2h-5.5c-1.7,0-2.9-0.1-3.7-0.3c-0.8-0.2-1.5-0.5-2-0.9c-0.6-0.5-1.1-1.1-1.4-1.9
			c-0.3-0.7-0.4-1.7-0.4-2.8v-4.3c0-2.3,0.5-3.9,1.6-4.8c1.1-0.9,3.1-1.3,5.9-1.3h5.5c1.7,0,3,0.1,3.9,0.2c0.8,0.1,1.5,0.4,2,0.8
			c0.5,0.4,0.9,0.9,1.1,1.6c0.2,0.7,0.4,1.5,0.4,2.5c0,0.2,0,0.4,0,0.5c0,0.1,0,0.2,0,0.4H335L335,222.7z M347.9,232.9H343v-16h4.9
			V232.9L347.9,232.9z M358.5,226.4h6.1l-3.1-5.7L358.5,226.4L358.5,226.4z M355.1,232.9h-5.3l8.7-16h6.2l8.6,16h-5.3l-1.5-2.7h-9.7
			L355.1,232.9L355.1,232.9z M374.3,227.6h4.8v0.3c0,0.6,0.1,1,0.4,1.2c0.3,0.2,0.9,0.3,1.9,0.3h6.1c0.6,0,1-0.1,1.3-0.3
			c0.3-0.2,0.4-0.5,0.4-1c0-0.5-0.2-0.8-0.5-1c-0.3-0.2-0.9-0.3-1.9-0.4l-7.6-0.2c-1.9-0.1-3.2-0.4-3.9-1.1c-0.7-0.7-1-1.9-1-3.7
			c0-0.9,0.1-1.7,0.3-2.3c0.2-0.6,0.5-1.1,0.9-1.5c0.5-0.4,1.1-0.8,1.8-0.9c0.8-0.2,2-0.3,3.7-0.3h7.4c1.8,0,3.2,0.3,4,1
			c0.8,0.7,1.2,1.8,1.2,3.3c0,0.1,0,0.2,0,0.3c0,0.1,0,0.3,0,0.6h-4.7v-0.1c0-0.5-0.1-0.9-0.4-1.2c-0.3-0.3-0.7-0.4-1.2-0.4h-5.6
			c-0.9,0-1.6,0.1-1.9,0.3c-0.3,0.2-0.4,0.5-0.4,1c0,0.4,0.1,0.8,0.4,1c0.3,0.2,0.8,0.3,1.5,0.4l8,0.1c1.8,0.1,3.1,0.5,3.9,1.2
			c0.8,0.8,1.1,2.1,1.1,4c0,1.1-0.1,2-0.4,2.6c-0.3,0.6-0.8,1.1-1.4,1.6c-0.4,0.3-1,0.5-1.7,0.6c-0.7,0.1-1.8,0.2-3.2,0.2H381
			c-2.7,0-4.5-0.3-5.4-0.9c-0.9-0.6-1.4-1.7-1.4-3.4c0-0.1,0-0.2,0-0.5C374.3,228.2,374.3,227.9,374.3,227.6z"/>
		<path class="st0" d="M159.9,207.2l9.1-65.4h-15.2l3.3-23.3c6.3-0.6,11.6-2.1,16-4.4c4.4-2.3,7.9-5.3,10.6-9.2h31l-14.2,102.3
			H159.9L159.9,207.2z M206.2,207.2h91.1l3.3-23.4h-34.5l31.4-25.4c2.6-2.1,4.6-4.5,6.1-7.4c1.4-2.8,2.4-6.5,3.1-11l2.3-16.7
			c0.9-6.3-0.6-11.1-4.4-14.4c-3.8-3.3-9.8-5-17.9-5h-41.2c-8.1,0-14.5,1.7-19.3,5c-4.7,3.3-7.5,8.1-8.4,14.4l-2.3,16.4h40.6
			l0.9-6.2c0.2-1.9,0.9-3.4,2-4.6c1.1-1.2,2.4-1.7,4-1.7c1.7,0,2.8,0.6,3.4,1.7c0.6,1.2,0.7,2.9,0.4,5.4c-0.2,1.4-0.7,2.9-1.5,4.2
			c-0.8,1.3-1.8,2.6-3.1,3.6L209.3,185L206.2,207.2L206.2,207.2z M395.7,186c-1.1,7.5-3.9,13.1-8.4,16.7c-4.6,3.6-11.1,5.4-19.7,5.4
			h-41.2c-8.1,0-14.1-1.6-17.9-5c-3.8-3.3-5.2-8.1-4.4-14.4l2.5-17.8h41l-0.9,6.5c-0.4,2.5-0.2,4.4,0.4,5.5c0.6,1.2,1.8,1.7,3.5,1.7
			c1.8,0,3.1-0.6,4-1.7c0.9-1.1,1.5-3,1.9-5.6l0.8-6.1c0.4-2.5,0.1-4.4-0.9-5.6c-0.9-1.2-2.6-1.8-4.9-1.8h-8.9l3.2-23.2h8.2
			c2.5,0,4.4-0.6,5.8-1.8c1.4-1.2,2.3-2.9,2.6-5.3c0.3-1.9,0-3.4-0.8-4.6c-0.8-1.2-1.9-1.8-3.4-1.8c-1.5,0-2.9,0.6-4,1.7
			c-1.1,1.2-1.8,2.7-2,4.5l-0.3,1.9h-40.6l1.7-12.1c0.9-6.3,3.7-11.1,8.4-14.4c4.7-3.3,11.1-5,19.2-5h41.2c8.1,0,14.1,1.7,17.9,5
			c3.8,3.3,5.3,8.1,4.5,14.4l-1.2,8.5c-0.7,5.3-2.6,9.7-5.7,12.9c-3,3.3-7.6,5.9-13.6,7.9c5.8,1.5,9.8,3.9,11.7,7.3
			c2,3.5,2.4,8.8,1.4,16.1L395.7,186z"/>
		<path class="st0" d="M29.2,207.5c8.1,0,15-6.6,15.4-14.6c0.4-8.1-5.8-14.6-13.9-14.6c-8.1,0-15,6.6-15.4,14.6
			C14.9,201,21.1,207.5,29.2,207.5z"/>
		<path class="st1" d="M45.7,132.2c8.1,0,15-6.5,15.4-14.6c0.4-8.1-5.8-14.6-13.9-14.6c-8.1,0-15,6.6-15.4,14.6
			C31.4,125.6,37.6,132.2,45.7,132.2z"/>
		<path class="st0" d="M37.6,169.8c8.1,0,15-6.6,15.4-14.6c0.4-8.1-5.8-14.6-13.9-14.6c-8.1,0-15,6.5-15.4,14.6
			C23.3,163.2,29.5,169.8,37.6,169.8z"/>
		<path class="st0" d="M65,207.5c8.1,0,15-6.6,15.4-14.6c0.4-8.1-5.8-14.6-13.9-14.6c-8.1,0-15,6.6-15.4,14.6
			C50.7,201,56.9,207.5,65,207.5z"/>
		<path class="st0" d="M100.7,207.5c8.1,0,15-6.6,15.4-14.6c0.4-8.1-5.8-14.6-13.9-14.6c-8.1,0-15,6.6-15.4,14.6
			C86.4,201,92.7,207.5,100.7,207.5z"/>
		<path class="st1" d="M81.5,132.2c8.1,0,15-6.6,15.4-14.6c0.4-8.1-5.8-14.6-13.9-14.6c-8.1,0-15,6.6-15.4,14.6
			C67.2,125.6,73.4,132.2,81.5,132.2z"/>
		<path class="st1" d="M117.2,132.2c8.1,0,14.9-6.5,15.4-14.6c0.4-8.1-5.8-14.6-13.9-14.6c-8.1,0-15,6.6-15.4,14.6
			C102.9,125.6,109.2,132.2,117.2,132.2z"/>
		<path class="st0" d="M73.4,169.8c8.1,0,15-6.6,15.4-14.6c0.4-8.1-5.8-14.6-13.9-14.6c-8.1,0-15,6.5-15.4,14.6
			C59.1,163.2,65.3,169.8,73.4,169.8z"/>
		<path class="st0" d="M109.1,169.8c8.1,0,15-6.6,15.4-14.6c0.4-8.1-5.8-14.6-13.9-14.6c-8.1,0-15,6.5-15.4,14.6
			C94.8,163.2,101,169.8,109.1,169.8z"/>
	</g>
</g>
</svg>
