<?xml version="1.0" encoding="utf-8"?>
<!-- Generator: Adobe Illustrator 21.0.0, SVG Export Plug-In . SVG Version: 6.00 Build 0)  -->
<svg version="1.1" xmlns="http://www.w3.org/2000/svg" xmlns:xlink="http://www.w3.org/1999/xlink" x="0px" y="0px"
	 viewBox="0 0 1920 1080" style="enable-background:new 0 0 1920 1080;" xml:space="preserve">
<style type="text/css">
	.st0{display:none;}
	.st1{display:inline;}
	.st2{font-family:'VistaSansAltBlack';}
	.st3{font-size:61.7748px;}
	.st4{font-family:'Taz-Bold';}
	.st5{font-family:'Seravek-Bold';}
	.st6{font-family:'NoaLTStd-Bold';}
	.st7{font-family:'Humanist777BT-BlackB';}
	.st8{font-family:'Frutiger-UltraBlack';}
	.st9{font-family:'Aller-Bold';}
	.st10{font-family:'Arista2.0';}
	.st11{font-size:81.985px;}
	.st12{fill:#ED9200;}
	.st13{fill:#0091C8;}
	.st14{fill:#EB8708;}
	.st15{fill:#F1AF00;}
	.st16{fill:#85C219;}
</style>
<g id="elementos" class="st0">
	<text transform="matrix(1 0 0 1 653.2013 302.4535)" class="st1 st2 st3">106</text>
	<text transform="matrix(1 0 0 1 778.7453 302.4535)" class="st1 st4 st3">106</text>
	<text transform="matrix(1 0 0 1 899.4923 302.4535)" class="st1 st5 st3">106</text>
	<text transform="matrix(1 0 0 1 1014.1462 302.4535)" class="st1 st6 st3">106</text>
	<text transform="matrix(1 0 0 1 1148.1858 302.4535)" class="st1 st6 st3">106</text>
	<text transform="matrix(1 0 0 1 659.1066 376.4053)" class="st1 st7 st3">106</text>
	<text transform="matrix(1 0 0 1 819.7326 376.4053)" class="st1 st8 st3">106</text>
	<text transform="matrix(1 0 0 1 975.9279 376.4053)" class="st1 st9 st3">106</text>
	<text transform="matrix(1 0 0 1 1114.9542 377.0327)" class="st1 st10 st11">106</text>
</g>
<g id="Capa_1">
	<g>
		<g>
			<path class="st12" d="M293.7,930.8h54.8v14.5h-38.1v22.8H343v14.5h-32.7v24.6h39.1v14.5h-55.8V930.8z"/>
			<path class="st12" d="M378.6,926.8v72.5c0,8.5,1.8,11.6,7.4,11.6c2.7,0,5.7-1,8.6-2.2l3.6,10.9c-3.7,2.3-10.4,4.1-16.3,4.1
				c-18.5,0-19.6-10.8-19.6-21.1v-75.9H378.6z"/>
			<path class="st12" d="M444.2,1050.4h-16.3v-95c10.3-3.1,20.4-4.5,27.3-4.5c21.9,0,32.1,12.2,32.1,35.8c0,24.1-11.1,37.1-29,37.1
				c-5.3,0-10.7-1.8-14.2-4V1050.4z M452.2,963.9c-2.5,0-5.2,0.3-8.1,1v42.1c3.6,2.3,8.1,3.4,11.6,3.4c11.6,0,15.2-11.5,15.2-22.4
				C471,971.9,464.8,963.9,452.2,963.9z"/>
			<path class="st12" d="M529.2,950.9c10.1,0,29.8,3.1,29.8,34.6c0,26.3-13.9,38.3-32,38.3c-18.3,0-29.7-11.8-29.7-36.5
				C497.4,958.8,515.1,950.9,529.2,950.9z M542.3,987.7c0-15.3-3.6-24.7-13.9-24.7c-10,0-14.5,9.3-14.5,22.4
				c0,12.7,2,26.4,14.2,26.4C538.1,1011.7,542.3,1001.9,542.3,987.7z"/>
			<path class="st12" d="M612.4,952.5v-25.8h16.1v81.6l1.2,13.4h-13.9l-1.1-7.4l-0.5-0.1c-4.2,6.3-11.1,9.6-18.6,9.6
				c-21.3,0-26.9-16.7-26.9-33.8c0-23.4,12-39.1,33.1-39.1C606.1,950.9,609.2,951.6,612.4,952.5z M612.4,965
				c-2.5-1.1-6-2.2-10.3-2.2c-13,0-17.4,12.3-17.4,25.7c0,12.4,3,23.2,14.1,23.2c8.3,0,13.5-6,13.5-11.3V965z"/>
			<path class="st12" d="M697.1,969.9c0,21.1-26.1,23.8-38.7,23.9c0.5,8.9,5.6,17.5,17.2,17.5c8.1,0,13.9-3.7,17.2-6l5.1,10.8
				c-2.2,1.9-11.2,7.7-24.1,7.7c-22.6,0-31.9-14.5-31.9-35c0-20.1,11.6-37.9,33.4-37.9C688.8,950.9,697.1,957.7,697.1,969.9z
				 M674.4,962.5c-10.9,0-16.1,10.7-16.5,20.8c7.4,0.1,24.7-2.2,24.7-12.7C682.6,965.5,679.4,962.5,674.4,962.5z"/>
			<path class="st12" d="M725.3,1021.7H709V964l-1.2-11.1h13.4l1.6,10c3-7.8,9.7-12,16.5-12c4.1,0,7.9,1,10.9,2.7l-2.9,13.8
				c-3-1.6-6.2-2.7-9.7-2.7c-7.4,0-12.2,5.9-12.4,13.8V1021.7z"/>
			<path class="st12" d="M820.5,952.5v-25.8h16.1v81.6l1.2,13.4H824l-1.1-7.4l-0.5-0.1c-4.2,6.3-11.1,9.6-18.6,9.6
				c-21.3,0-26.9-16.7-26.9-33.8c0-23.4,12-39.1,33.1-39.1C814.3,950.9,817.4,951.6,820.5,952.5z M820.5,965
				c-2.5-1.1-6-2.2-10.3-2.2c-13,0-17.4,12.3-17.4,25.7c0,12.4,3,23.2,14.1,23.2c8.3,0,13.5-6,13.5-11.3V965z"/>
			<path class="st12" d="M905.3,969.9c0,21.1-26.1,23.8-38.7,23.9c0.5,8.9,5.6,17.5,17.2,17.5c8.1,0,13.9-3.7,17.2-6l5.1,10.8
				c-2.2,1.9-11.2,7.7-24.1,7.7c-22.6,0-31.9-14.5-31.9-35c0-20.1,11.6-37.9,33.4-37.9C897,950.9,905.3,957.7,905.3,969.9z
				 M882.6,962.5c-10.9,0-16.1,10.7-16.5,20.8c7.4,0.1,24.7-2.2,24.7-12.7C890.8,965.5,887.5,962.5,882.6,962.5z"/>
			<path class="st12" d="M937.4,1005.2c4.5,2.9,12.6,6.6,19.6,6.6c5.7,0,10.4-2.6,10.4-8.8c0-6.2-5.2-8.1-11.6-10
				c-10-2.9-21.2-6.2-21.2-20.4c0-14.2,11.8-21.7,25-21.7c10.3,0,19.1,4.1,24.7,9.7l-7.8,9.6c-5.2-4.5-10.9-7.4-16.7-7.4
				c-4.9,0-9.6,2.5-9.6,7.9c0,6.3,5.7,8.1,12.2,10c10,3.1,21.1,7.1,21.1,21.2c0,14.2-10.5,21.9-25.8,21.9c-11.8,0-21.5-4.2-25-7
				L937.4,1005.2z"/>
			<path class="st12" d="M1046.7,969.9c0,21.1-26.1,23.8-38.7,23.9c0.5,8.9,5.6,17.5,17.2,17.5c8.1,0,13.9-3.7,17.2-6l5.1,10.8
				c-2.2,1.9-11.2,7.7-24.1,7.7c-22.6,0-31.9-14.5-31.9-35c0-20.1,11.6-37.9,33.4-37.9C1038.3,950.9,1046.7,957.7,1046.7,969.9z
				 M1024,962.5c-10.9,0-16.1,10.7-16.5,20.8c7.4,0.1,24.7-2.2,24.7-12.7C1032.2,965.5,1028.9,962.5,1024,962.5z"/>
			<path class="st12" d="M1074.8,1021.7h-16.3V964l-1.2-11.1h13.4l1.6,10c3-7.8,9.7-12,16.5-12c4.1,0,7.9,1,10.9,2.7l-2.9,13.8
				c-3-1.6-6.2-2.7-9.7-2.7c-7.4,0-12.2,5.9-12.4,13.8V1021.7z"/>
			<path class="st12" d="M1181.4,969.9c0,21.1-26.1,23.8-38.7,23.9c0.5,8.9,5.6,17.5,17.2,17.5c8.1,0,13.9-3.7,17.2-6l5.1,10.8
				c-2.2,1.9-11.2,7.7-24.1,7.7c-22.6,0-31.9-14.5-31.9-35c0-20.1,11.6-37.9,33.4-37.9C1173.1,950.9,1181.4,957.7,1181.4,969.9z
				 M1158.7,962.5c-10.9,0-16.1,10.7-16.5,20.8c7.4,0.1,24.7-2.2,24.7-12.7C1166.9,965.5,1163.6,962.5,1158.7,962.5z"/>
			<path class="st12" d="M1191.9,1005.2c4.5,2.9,12.6,6.6,19.6,6.6c5.7,0,10.4-2.6,10.4-8.8c0-6.2-5.2-8.1-11.6-10
				c-10-2.9-21.2-6.2-21.2-20.4c0-14.2,11.8-21.7,25-21.7c10.3,0,19.1,4.1,24.7,9.7l-7.8,9.6c-5.2-4.5-10.9-7.4-16.7-7.4
				c-4.9,0-9.6,2.5-9.6,7.9c0,6.3,5.7,8.1,12.2,10c10,3.1,21.1,7.1,21.1,21.2c0,14.2-10.5,21.9-25.8,21.9c-11.8,0-21.5-4.2-25-7
				L1191.9,1005.2z"/>
			<path class="st12" d="M1295.5,1004.7l6.2,10.9c-5.3,4.4-13.7,7.9-23.8,7.9c-20.1,0-31.7-12.7-31.7-36c0-27.5,17.1-36.8,31.6-36.8
				c8.9,0,18.7,3.6,25.2,13l-10.3,8.5c-3.6-4.4-8.5-8.5-14.6-8.5c-9.2,0-15.6,7.5-15.6,23.1c0,14.2,5.2,23.7,17.4,23.7
				C1285.1,1010.6,1289.8,1008.8,1295.5,1004.7z"/>
			<path class="st12" d="M1368.5,952.9v57.3l1.1,11.5h-13.9l-1-8.1h-0.5c-4.6,6.8-12,10-19.8,10c-15,0-22.6-7.9-22.6-24.1v-46.6
				h16.3v43.6c0,8.3,1.5,14.5,10.7,14.5c7.4,0,13.5-6.6,13.5-13.1v-45H1368.5z"/>
			<path class="st12" d="M1431.5,1004.7l6.2,10.9c-5.3,4.4-13.7,7.9-23.8,7.9c-20.1,0-31.7-12.7-31.7-36c0-27.5,17.1-36.8,31.6-36.8
				c8.9,0,18.7,3.6,25.2,13l-10.3,8.5c-3.6-4.4-8.5-8.5-14.6-8.5c-9.2,0-15.6,7.5-15.6,23.1c0,14.2,5.2,23.7,17.4,23.7
				C1421.1,1010.6,1425.9,1008.8,1431.5,1004.7z"/>
			<path class="st12" d="M1447.5,1021.7v-95h16.3v32c4.6-5.3,11.5-7.8,18.5-7.8c14.4,0,22,7.9,22,24.1v46.8H1488v-43.9
				c0-7.9-1.6-14.4-10.5-14.4c-7.8,0-13.7,6.6-13.7,13.5v44.7H1447.5z"/>
			<path class="st12" d="M1577.3,1008.6l1.2,13.1h-14.1l-1-7.2l-0.5-0.1c-4.2,6.2-11.2,9.2-18.7,9.2c-19.3,0-26.8-13.7-26.8-33.2
				c0-24.1,12-39.4,35.6-39.4c4.5,0,14.5,1.1,24.3,4.8V1008.6z M1561.1,964.5c-2-1-6-1.8-10.3-1.8c-13,0-17.4,12.2-17.4,26.9
				c0,11.3,2.7,22.1,14.2,22.1c8.5,0,13.4-6,13.4-11.9V964.5z"/>
			<path class="st12" d="M1634.6,952.5v-25.8h16.1v81.6l1.2,13.4H1638l-1.1-7.4l-0.5-0.1c-4.2,6.3-11.1,9.6-18.6,9.6
				c-21.3,0-26.9-16.7-26.9-33.8c0-23.4,12-39.1,33.1-39.1C1628.3,950.9,1631.4,951.6,1634.6,952.5z M1634.6,965
				c-2.5-1.1-6-2.2-10.3-2.2c-13,0-17.4,12.3-17.4,25.7c0,12.4,3,23.2,14.1,23.2c8.3,0,13.5-6,13.5-11.3V965z"/>
			<path class="st12" d="M1696,950.9c10.1,0,29.8,3.1,29.8,34.6c0,26.3-13.9,38.3-32,38.3c-18.3,0-29.7-11.8-29.7-36.5
				C1664.1,958.8,1681.9,950.9,1696,950.9z M1709.1,987.7c0-15.3-3.6-24.7-13.9-24.7c-10,0-14.5,9.3-14.5,22.4
				c0,12.7,2.1,26.4,14.2,26.4C1704.9,1011.7,1709.1,1001.9,1709.1,987.7z"/>
		</g>
		<g>
			<g>
				<path class="st13" d="M709.9,164.5l14.2,25.1l-86.8,49l-73.4-129.9l29.2-16.5L652.4,197L709.9,164.5z"/>
				<path class="st13" d="M733.3,29.5L708,68.3L690.1,60l19.1-42.2L733.3,29.5z M766.3,180.3l-30.7,9.2L702.9,81.1l30.7-9.2
					L766.3,180.3z"/>
				<path class="st13" d="M779.4,63.8c5.3-1.9,12.3-3.8,20.8-5.8c8.5-1.9,17.5-3.2,26.9-3.8c9.6-0.6,17.7,0.1,24.2,2.2
					c6.5,2.1,11.8,5.3,15.8,9.7c4,4.3,7,9.6,9,15.8c2,6.2,3.2,13.2,3.7,20.9l4.1,63.8l-32,2.1l-3.8-60c-0.7-10.3-2.5-17.5-5.5-21.7
					c-3-4.1-8.2-5.9-15.7-5.5c-2.3,0.1-4.7,0.4-7.3,0.8c-2.6,0.4-4.8,0.8-6.8,1.2l5.6,87.2l-32,2.1L779.4,63.8z"/>
				<path class="st13" d="M909.5,113c2.4-9.8,6-17.9,10.7-24.5c4.8-6.6,10.2-11.7,16.3-15.4c6.1-3.7,12.6-6,19.5-7
					c7-1,13.8-0.6,20.5,1c15.6,3.8,26.8,11.6,33.5,23.4c6.7,11.8,7.8,26.9,3.3,45.5c-0.4,1.8-1,3.8-1.7,5.9c-0.7,2.1-1.3,4-1.8,5.7
					l-70.7-17.2c-0.9,6.6,0.9,12.4,5.3,17.5c4.4,5.1,11,8.7,20,10.8c5.7,1.4,11.5,2.2,17.2,2.5c5.8,0.3,10.6,0.1,14.4-0.6l-2,26.3
					c-1.9,0.4-4.3,0.7-7.3,0.9c-3,0.2-6.3,0.1-9.8-0.1c-3.6-0.2-7.4-0.6-11.4-1.1c-4-0.5-8-1.3-11.9-2.2c-9.9-2.4-18.2-6-24.8-10.7
					c-6.6-4.7-11.7-10.2-15.3-16.5c-3.6-6.3-5.7-13.2-6.3-20.7C906.8,128.9,907.5,121,909.5,113z M985.6,118.9
					c0.5-2.7,0.7-5.4,0.5-8.1c-0.2-2.7-0.8-5.2-1.9-7.6c-1.1-2.3-2.8-4.4-4.9-6.3c-2.1-1.8-5-3.2-8.6-4.1c-3.5-0.9-6.6-1-9.4-0.4
					c-2.8,0.6-5.3,1.6-7.4,3.2c-2.2,1.5-4,3.5-5.5,5.9c-1.5,2.4-2.8,4.8-3.9,7.4L985.6,118.9z"/>
				<path class="st13" d="M1106.2,119.5c8.1,4.8,14.4,9.8,18.7,14.9c4.3,5.1,7.1,10.3,8.3,15.7c1.2,5.4,1,11-0.5,16.7
					c-1.6,5.7-4.2,11.6-7.8,17.7l-34.1,57.4c-4.5-1.5-10.6-3.7-18.3-6.7c-7.7-3-16.6-7.5-26.6-13.4c-6.3-3.7-11.7-7.7-16.1-11.8
					c-4.5-4.2-7.8-8.6-10-13.3c-2.2-4.7-3.1-9.7-2.6-15c0.4-5.2,2.4-10.8,5.9-16.8c3.4-5.7,7.4-9.8,12-12.4c4.6-2.6,9.5-3.9,14.8-4
					c5.2-0.1,10.6,0.8,16.2,2.7c5.6,1.9,11,4.4,16.3,7.6c3.6,2.1,6.7,4.2,9.3,6.1c2.6,2,4.6,3.7,6,5.2l1.5-2.6
					c2.8-4.7,3.6-9.3,2.5-13.8c-1.2-4.5-5.2-8.9-12.3-13.1c-4.7-2.8-9.5-5.2-14.5-7.2c-5-2-9.5-3.4-13.6-4.2l9.7-24.3
					c1.9,0.5,4.2,1.1,7,2c2.7,0.9,5.6,1.9,8.7,3.2c3.1,1.3,6.3,2.7,9.6,4.2C1099.7,115.9,1103,117.6,1106.2,119.5z M1060.5,201.6
					c2.7,1.6,5.3,3.1,7.9,4.4c2.5,1.3,4.6,2.3,6.3,3L1087,188c-1-0.9-2.5-2.1-4.6-3.7c-2.1-1.6-4-2.9-5.9-4
					c-2.6-1.5-5.1-2.8-7.6-3.9s-4.8-1.7-7.1-1.8c-2.2-0.2-4.3,0.2-6.2,1.1c-1.9,0.9-3.5,2.5-4.8,4.7c-2.6,4.3-2.9,8.2-1,11.6
					C1051.9,195.4,1055.4,198.6,1060.5,201.6z"/>
			</g>
			<g>
				<path class="st14" d="M1190.9,64.6c0,1.9-0.4,3.7-1.1,5.5c-0.7,1.7-1.7,3.4-2.9,5c-1.2,1.6-2.5,3.2-4,4.7
					c-1.5,1.5-3,2.9-4.4,4.3c-0.7,0.7-1.6,1.5-2.4,2.4c-0.9,0.9-1.7,1.8-2.5,2.7c-0.8,0.9-1.5,1.7-2.1,2.5c-0.6,0.8-1,1.4-1.2,1.9
					h22.3v9.4h-34.6c-0.1-0.5-0.2-1.2-0.2-2.1c0-0.8,0-1.4,0-1.8c0-2.4,0.4-4.6,1.2-6.6c0.8-2,1.8-3.9,3-5.6
					c1.2-1.7,2.7-3.3,4.2-4.8c1.6-1.5,3.1-3,4.7-4.5c1.2-1.1,2.3-2.2,3.4-3.3c1-1,2-2,2.8-3c0.8-1,1.4-1.9,1.9-2.9
					c0.4-1,0.7-2,0.7-3c0-2.2-0.6-3.7-1.9-4.6c-1.2-0.9-2.8-1.3-4.6-1.3c-1.3,0-2.6,0.2-3.8,0.6s-2.2,0.9-3.2,1.5
					c-1,0.6-1.8,1.1-2.5,1.7c-0.7,0.6-1.2,1-1.6,1.4l-5.5-7.8c2.2-2,4.8-3.7,7.7-5c2.9-1.3,6-2,9.4-2c3,0,5.7,0.3,7.9,1
					c2.2,0.7,4,1.7,5.4,3c1.4,1.3,2.5,2.8,3.1,4.6C1190.6,60.2,1190.9,62.3,1190.9,64.6z"/>
				<path class="st14" d="M1231.1,50.9v31.1h5.5v9.1h-5.5v11.6h-10.9V91.2h-22.4V83c1.1-2.2,2.5-4.7,4.1-7.4
					c1.6-2.8,3.5-5.6,5.5-8.5c2-2.9,4.2-5.8,6.4-8.6c2.2-2.8,4.5-5.3,6.7-7.6H1231.1z M1220.2,64.6c-1.9,2.5-4,5.3-6.2,8.3
					c-2.2,3-4,6.1-5.5,9.2h11.7V64.6z"/>
				<path class="st14" d="M1248.4,116.6h-11.4l25.1-72.4h11.3L1248.4,116.6z"/>
				<path class="st14" d="M1282.1,102.8c0.3-3.6,0.9-7.4,1.9-11.4c0.9-3.9,2.1-7.8,3.5-11.6c1.4-3.8,2.9-7.4,4.6-10.7
					c1.7-3.4,3.4-6.3,5.2-8.7h-22.5v-9.5h36.3V59c-1.6,1.7-3.4,4.2-5.3,7.3c-1.9,3.1-3.7,6.6-5.5,10.5c-1.7,3.9-3.2,8.1-4.5,12.6
					c-1.3,4.5-2.1,9-2.4,13.5H1282.1z"/>
			</g>
			<circle class="st15" cx="860.4" cy="528.2" r="259.1"/>
			<path class="st16" d="M521.4,508.5c0-29.6,20.6-54.4,48.3-60.9V326.9c0-23.4-8.5-43.5-25.4-60.5c-16.9-16.9-37.1-25.4-60.5-25.4
				c-21.8,0-75,27.4-159.7,82.3c-20.2,11.3-32.9,27.6-38.1,49c-5.2,21.4-2.2,41.3,9.1,59.9c10.5,19.4,26.2,31.9,47.2,37.5
				c19.3,5.6,37.5,4,54.4-4.8v289.1c0,21.8,7.7,40.5,23,56.2c15.3,15.7,34.3,23.6,56.9,23.6H491c21.8,0,40.3-7.9,55.6-23.6
				c15.3-15.7,23-34.5,23-56.2V569.5C542,563,521.4,538.2,521.4,508.5z"/>
			<path class="st13" d="M914.8,848.8c0,14.2-11.6,25.8-25.8,25.8h-57.3c-14.2,0-25.8-11.6-25.8-25.8v-11.2
				c0-14.2,11.6-25.8,25.8-25.8H889c14.2,0,25.8,11.6,25.8,25.8V848.8z"/>
			<g>
				<circle cx="803.1" cy="453.7" r="24.1"/>
				<circle cx="917.7" cy="453.7" r="24.1"/>
			</g>
			<g>
				<path d="M860.4,711.9c-98.6,0-178.8-80.2-178.8-178.8h22.8c0,86,70,156,156,156s156-70,156-156h22.8
					C1039.2,631.7,959,711.9,860.4,711.9z"/>
				<path d="M667.3,552.3c-1.4,0-2.9-0.4-4.1-1.2c-3.5-2.3-4.5-7-2.2-10.5c7.1-11,18.7-18.3,31.6-20.2c10.4-1.5,21,0.7,30,6.1
					c3.6,2.2,4.7,6.8,2.6,10.4c-2.2,3.6-6.8,4.7-10.4,2.6c-6-3.6-13-5-19.9-4c-8.6,1.2-16.3,6.1-21.1,13.5
					C672.2,551.1,669.8,552.3,667.3,552.3z"/>
				<path d="M1053.8,552.3c-2.5,0-4.9-1.2-6.4-3.5c-4.8-7.3-12.4-12.2-21.1-13.5c-6.9-1-14,0.4-19.9,4c-3.6,2.2-8.2,1-10.4-2.6
					c-2.2-3.6-1-8.2,2.6-10.4c8.9-5.4,19.6-7.6,30-6.1c13,1.9,24.5,9.2,31.6,20.2c2.3,3.5,1.3,8.2-2.2,10.5
					C1056.6,551.9,1055.2,552.3,1053.8,552.3z"/>
			</g>
			<path class="st16" d="M1166.7,454c-33.4-138.1-158-240.9-306.2-240.9c-148,0-272.4,102.5-306.1,240.2c8.8-4.7,18.8-7.4,29.5-7.5
				c35.5-119.1,146-206.2,276.5-206.2c130.5,0,241.1,87.1,276.6,206.3C1147.8,446.2,1157.9,449.1,1166.7,454z"/>
			<path class="st13" d="M1721.7,465.3c-9.3-35.9-25.6-69.6-49-101c-23.4-31.5-53.2-57.2-89.5-77.4c-42.7-25-86.7-39.1-131.8-42.3
				l44.8-78.6c10.5-17.7,12.9-37.1,7.3-58.1c-5.6-21-18.1-37.1-37.5-48.4c-16.9-9.7-35.9-12.5-56.8-8.5c-21,4-37.1,14.9-48.4,32.7
				l-177.8,309.7c-10.4,18.2-18.6,37.1-24.7,56.7c23.5,9,40.3,31.7,40.3,58.4c0,30.8-22.2,56.3-51.4,61.6
				c1.7,15.1,4.5,29.9,8.6,44.6c10.1,36.3,26.6,70.4,49.6,102.2c23,31.9,51.8,57.5,86.5,76.8c34.7,20.2,71.2,32.5,109.5,36.9
				c38.3,4.4,75.6,1.8,111.9-7.9c36.3-9.7,69.9-26,101-49c31-23,56.6-52.2,76.8-87.7c20.1-34.7,32.6-71.2,37.5-109.5
				C1733.2,538.3,1731,501.2,1721.7,465.3z M1555.5,554.6c-2.1,15.7-7.1,30.6-15,44.9c-8.6,14.3-19.2,26-32.1,35.3
				c-12.8,9.3-26.5,15.9-41.1,19.8c-14.6,3.9-29.6,5-44.9,3.2c-15.3-1.8-30.1-6.6-44.3-14.4c-15-8.5-27.1-19.4-36.3-32.6
				c-9.3-13.2-15.9-27.1-19.8-41.7c-3.9-14.6-5-29.5-3.2-44.9c1.8-15.3,6.9-30.1,15.5-44.3c8.6-15,19.2-27.2,32.1-36.9
				c12.8-9.6,26.7-16.2,41.7-19.8c15-3.6,30.3-4.4,45.9-2.7c15.7,1.8,30.3,6.6,43.8,14.4c15,8.6,26.9,19.2,35.8,32.1
				c8.9,12.8,15.3,26.7,19.2,41.7C1556.8,523.6,1557.7,539,1555.5,554.6z"/>
			<path class="st13" d="M1146,570.3c-20.3,143.8-142.8,258.3-285.6,258.3v26.5c161.1,0,298.6-133.2,313.7-297.1
				C1166.1,564.3,1156.5,568.6,1146,570.3z"/>
		</g>
	</g>
</g>
</svg>
