<?xml version="1.0" encoding="utf-8"?>
<!-- Generator: Adobe Illustrator 24.0.0, SVG Export Plug-In . SVG Version: 6.00 Build 0)  -->
<svg version="1.1" id="Capa_1" xmlns="http://www.w3.org/2000/svg" xmlns:xlink="http://www.w3.org/1999/xlink" x="0px" y="0px"
	 viewBox="0 0 300 65" style="enable-background:new 0 0 300 65;" xml:space="preserve">
<style type="text/css">
	.st0{fill:#FFFFFF;}
	.st1{fill:#003E67;}
	.st2{fill:#F8B407;}
	.st3{fill:none;stroke:#F8B407;stroke-width:0.3902;stroke-miterlimit:10;}
	.st4{fill-rule:evenodd;clip-rule:evenodd;fill:#F6A713;}
	.st5{fill:#F6A713;}
	.st6{fill:none;}
	.st7{fill-rule:evenodd;clip-rule:evenodd;fill:#003E67;}
	.st8{clip-path:url(#XMLID_346_);fill:#003E67;}
</style>
<path class="st0" d="M280.83,65H19.17C8.86,65,0.5,56.64,0.5,46.33V18.67C0.5,8.36,8.86,0,19.17,0h261.66
	c10.31,0,18.67,8.36,18.67,18.67v27.66C299.5,56.64,291.14,65,280.83,65z"/>
<g id="XMLID_251_">
	<path class="st1" d="M70.26,26.78V16.24c0-0.37,0.31-0.68,0.66-0.68h7.39c0.34,0,0.61,0.27,0.61,0.61c0,0.34-0.27,0.61-0.61,0.61
		H71.6v4.06h5.95c0.34,0,0.61,0.29,0.61,0.61c0,0.34-0.27,0.61-0.61,0.61H71.6v4.17h6.8c0.34,0,0.61,0.27,0.61,0.61
		c0,0.34-0.27,0.61-0.61,0.61h-7.48C70.56,27.46,70.26,27.15,70.26,26.78z"/>
	<path class="st1" d="M81.43,19.25c0-0.36,0.29-0.66,0.65-0.66c0.37,0,0.66,0.29,0.66,0.66v0.95c0.58-0.95,1.5-1.72,3.01-1.72
		c2.13,0,3.37,1.43,3.37,3.52v4.88c0,0.37-0.29,0.66-0.65,0.66c-0.37,0-0.66-0.29-0.66-0.66v-4.56c0-1.63-0.88-2.65-2.43-2.65
		c-1.51,0-2.63,1.1-2.63,2.75v4.45c0,0.37-0.27,0.66-0.65,0.66s-0.66-0.29-0.66-0.66V19.25z"/>
	<path class="st1" d="M92.36,25.13v-5.3h-0.71c-0.31,0-0.58-0.27-0.58-0.58c0-0.32,0.27-0.58,0.58-0.58h0.71V16.6
		c0-0.36,0.27-0.66,0.65-0.66c0.36,0,0.66,0.31,0.66,0.66v2.07h2.28c0.32,0,0.59,0.27,0.59,0.58c0,0.32-0.27,0.58-0.59,0.58h-2.28
		v5.13c0,1.07,0.59,1.46,1.48,1.46c0.46,0,0.7-0.12,0.8-0.12c0.31,0,0.56,0.25,0.56,0.56c0,0.24-0.15,0.42-0.37,0.51
		c-0.37,0.15-0.78,0.24-1.29,0.24C93.43,27.61,92.36,26.92,92.36,25.13z"/>
	<path class="st1" d="M97.97,23.11v-0.03c0-2.48,1.94-4.59,4.59-4.59c2.63,0,4.57,2.07,4.57,4.56v0.03c0,2.48-1.96,4.59-4.61,4.59
		C99.89,27.66,97.97,25.59,97.97,23.11z M105.79,23.11v-0.03c0-1.89-1.41-3.43-3.26-3.43c-1.9,0-3.21,1.55-3.21,3.4v0.03
		c0,1.89,1.39,3.42,3.25,3.42C104.46,26.49,105.79,24.96,105.79,23.11z"/>
	<path class="st1" d="M109.49,19.25c0-0.36,0.29-0.66,0.65-0.66c0.37,0,0.66,0.29,0.66,0.66v1.65c0.65-1.46,1.92-2.35,3.03-2.35
		c0.39,0,0.65,0.29,0.65,0.66c0,0.36-0.24,0.61-0.58,0.66c-1.7,0.2-3.09,1.48-3.09,4.01v2.99c0,0.36-0.27,0.66-0.65,0.66
		s-0.66-0.29-0.66-0.66V19.25z"/>
	<path class="st1" d="M116.38,19.25c0-0.36,0.29-0.66,0.65-0.66c0.37,0,0.66,0.29,0.66,0.66v0.95c0.58-0.95,1.5-1.72,3.01-1.72
		c2.13,0,3.37,1.43,3.37,3.52v4.88c0,0.37-0.29,0.66-0.65,0.66c-0.37,0-0.66-0.29-0.66-0.66v-4.56c0-1.63-0.88-2.65-2.43-2.65
		c-1.51,0-2.63,1.1-2.63,2.75v4.45c0,0.37-0.27,0.66-0.65,0.66s-0.66-0.29-0.66-0.66V19.25z"/>
	<path class="st1" d="M126.31,23.11v-0.03c0-2.48,1.94-4.59,4.59-4.59c2.63,0,4.57,2.07,4.57,4.56v0.03c0,2.48-1.96,4.59-4.61,4.59
		C128.23,27.66,126.31,25.59,126.31,23.11z M134.13,23.11v-0.03c0-1.89-1.41-3.43-3.26-3.43c-1.9,0-3.21,1.55-3.21,3.4v0.03
		c0,1.89,1.39,3.42,3.25,3.42C132.8,26.49,134.13,24.96,134.13,23.11z"/>
	<path class="st1" d="M137.36,26.52c-0.12-0.08-0.24-0.25-0.24-0.48c0-0.31,0.25-0.56,0.58-0.56c0.12,0,0.24,0.03,0.32,0.1
		c0.9,0.61,1.84,0.93,2.79,0.93c1.05,0,1.82-0.54,1.82-1.39V25.1c0-0.88-1.04-1.22-2.19-1.55c-1.38-0.39-2.91-0.87-2.91-2.48v-0.03
		c0-1.51,1.26-2.52,2.99-2.52c0.93,0,1.96,0.29,2.8,0.75c0.17,0.1,0.32,0.29,0.32,0.54c0,0.31-0.25,0.56-0.58,0.56
		c-0.12,0-0.22-0.03-0.29-0.07c-0.75-0.42-1.55-0.68-2.29-0.68c-1.04,0-1.7,0.54-1.7,1.27v0.03c0,0.83,1.09,1.16,2.26,1.51
		c1.36,0.41,2.82,0.94,2.82,2.52v0.03c0,1.67-1.38,2.63-3.13,2.63C139.58,27.63,138.31,27.2,137.36,26.52z"/>
	<path class="st1" d="M150.89,26.58l4.83-10.56c0.17-0.37,0.43-0.59,0.85-0.59h0.07c0.41,0,0.68,0.22,0.83,0.59l4.83,10.54
		c0.05,0.12,0.09,0.24,0.09,0.34c0,0.36-0.29,0.65-0.65,0.65c-0.32,0-0.54-0.22-0.66-0.49l-1.24-2.74h-6.53l-1.24,2.77
		c-0.12,0.29-0.34,0.46-0.65,0.46c-0.34,0-0.61-0.27-0.61-0.61C150.8,26.83,150.82,26.71,150.89,26.58z M159.3,23.09l-2.74-6.09
		l-2.74,6.09H159.3z"/>
	<path class="st1" d="M164.73,19.25c0-0.36,0.29-0.66,0.64-0.66c0.38,0,0.66,0.29,0.66,0.66v0.9c0.58-0.87,1.36-1.67,2.84-1.67
		c1.43,0,2.35,0.77,2.82,1.75c0.63-0.97,1.56-1.75,3.09-1.75c2.02,0,3.26,1.36,3.26,3.54v4.86c0,0.37-0.29,0.66-0.65,0.66
		c-0.37,0-0.66-0.29-0.66-0.66v-4.56c0-1.7-0.85-2.65-2.28-2.65c-1.33,0-2.41,0.99-2.41,2.72v4.49c0,0.37-0.29,0.66-0.66,0.66
		c-0.36,0-0.64-0.29-0.64-0.66v-4.59c0-1.65-0.87-2.62-2.26-2.62s-2.45,1.16-2.45,2.77v4.44c0,0.37-0.27,0.66-0.65,0.66
		c-0.37,0-0.66-0.29-0.66-0.66V19.25z"/>
	<path class="st1" d="M180.89,15.63c0-0.37,0.29-0.66,0.64-0.66c0.38,0,0.66,0.29,0.66,0.66v4.81c0.71-1.05,1.75-1.95,3.37-1.95
		c2.11,0,4.2,1.67,4.2,4.56v0.03c0,2.87-2.07,4.57-4.2,4.57c-1.63,0-2.69-0.88-3.37-1.87v1.1c0,0.36-0.27,0.66-0.65,0.66
		c-0.37,0-0.66-0.31-0.66-0.66V15.63z M188.42,23.09v-0.03c0-2.07-1.43-3.4-3.09-3.4c-1.63,0-3.18,1.38-3.18,3.38v0.03
		c0,2.04,1.55,3.4,3.18,3.4C187.03,26.47,188.42,25.22,188.42,23.09z"/>
	<path class="st1" d="M192.18,15.92c0-0.42,0.34-0.7,0.77-0.7c0.44,0,0.78,0.27,0.78,0.7v0.22c0,0.41-0.34,0.7-0.78,0.7
		c-0.43,0-0.77-0.29-0.77-0.7V15.92z M192.3,19.25c0-0.36,0.29-0.66,0.65-0.66c0.37,0,0.66,0.29,0.66,0.66v7.63
		c0,0.37-0.27,0.66-0.64,0.66c-0.38,0-0.66-0.29-0.66-0.66V19.25z"/>
	<path class="st1" d="M200.49,27.66c-2.41,0-4.38-1.85-4.38-4.57v-0.03c0-2.53,1.79-4.57,4.21-4.57c2.6,0,4.08,2.13,4.08,4.45
		c0,0.36-0.29,0.61-0.61,0.61h-6.36c0.19,1.9,1.53,2.97,3.09,2.97c1.09,0,1.89-0.42,2.53-1.02c0.1-0.09,0.22-0.15,0.38-0.15
		c0.32,0,0.58,0.25,0.58,0.56c0,0.15-0.07,0.31-0.21,0.42C202.97,27.14,201.99,27.66,200.49,27.66z M203.09,22.58
		c-0.14-1.6-1.05-2.99-2.8-2.99c-1.53,0-2.69,1.27-2.86,2.99H203.09z"/>
	<path class="st1" d="M206.71,19.25c0-0.36,0.29-0.66,0.65-0.66c0.37,0,0.66,0.29,0.66,0.66v0.95c0.58-0.95,1.5-1.72,3.01-1.72
		c2.13,0,3.37,1.43,3.37,3.52v4.88c0,0.37-0.29,0.66-0.65,0.66c-0.37,0-0.66-0.29-0.66-0.66v-4.56c0-1.63-0.88-2.65-2.43-2.65
		c-1.51,0-2.63,1.1-2.63,2.75v4.45c0,0.37-0.27,0.66-0.64,0.66c-0.38,0-0.66-0.29-0.66-0.66V19.25z"/>
	<path class="st1" d="M217.65,25.13v-5.3h-0.71c-0.3,0-0.58-0.27-0.58-0.58c0-0.32,0.27-0.58,0.58-0.58h0.71V16.6
		c0-0.36,0.27-0.66,0.64-0.66c0.36,0,0.66,0.31,0.66,0.66v2.07h2.28c0.32,0,0.6,0.27,0.6,0.58c0,0.32-0.27,0.58-0.6,0.58h-2.28v5.13
		c0,1.07,0.59,1.46,1.48,1.46c0.46,0,0.7-0.12,0.8-0.12c0.31,0,0.56,0.25,0.56,0.56c0,0.24-0.15,0.42-0.37,0.51
		c-0.38,0.15-0.78,0.24-1.29,0.24C218.72,27.61,217.65,26.92,217.65,25.13z"/>
	<path class="st1" d="M223.39,24.91v-0.03c0-1.85,1.53-2.84,3.76-2.84c1.12,0,1.92,0.15,2.7,0.37V22.1c0-1.58-0.97-2.4-2.62-2.4
		c-0.88,0-1.63,0.2-2.28,0.49c-0.08,0.03-0.17,0.05-0.24,0.05c-0.31,0-0.58-0.26-0.58-0.56c0-0.27,0.19-0.48,0.36-0.54
		c0.87-0.37,1.75-0.6,2.87-0.6c1.24,0,2.19,0.32,2.84,0.97c0.59,0.59,0.9,1.44,0.9,2.57v4.81c0,0.37-0.27,0.65-0.63,0.65
		c-0.37,0-0.63-0.27-0.63-0.61v-0.8c-0.61,0.8-1.63,1.51-3.18,1.51C225.04,27.65,223.39,26.71,223.39,24.91z M229.87,24.23v-0.85
		c-0.65-0.19-1.51-0.37-2.58-0.37c-1.65,0-2.57,0.71-2.57,1.82v0.03c0,1.1,1.02,1.75,2.21,1.75
		C228.54,26.61,229.87,25.62,229.87,24.23z"/>
	<path class="st1" d="M234.02,15.63c0-0.36,0.29-0.66,0.64-0.66c0.38,0,0.66,0.31,0.66,0.66v11.25c0,0.37-0.27,0.66-0.65,0.66
		c-0.37,0-0.66-0.29-0.66-0.66V15.63z"/>
	<path class="st1" d="M238.37,19.25c0-0.36,0.29-0.66,0.64-0.66c0.38,0,0.66,0.29,0.66,0.66v0.9c0.58-0.87,1.36-1.67,2.84-1.67
		c1.43,0,2.35,0.77,2.82,1.75c0.63-0.97,1.56-1.75,3.09-1.75c2.02,0,3.26,1.36,3.26,3.54v4.86c0,0.37-0.29,0.66-0.65,0.66
		c-0.37,0-0.66-0.29-0.66-0.66v-4.56c0-1.7-0.85-2.65-2.28-2.65c-1.33,0-2.41,0.99-2.41,2.72v4.49c0,0.37-0.29,0.66-0.66,0.66
		c-0.36,0-0.64-0.29-0.64-0.66v-4.59c0-1.65-0.87-2.62-2.26-2.62s-2.45,1.16-2.45,2.77v4.44c0,0.37-0.27,0.66-0.65,0.66
		c-0.37,0-0.66-0.29-0.66-0.66V19.25z"/>
	<path class="st1" d="M258.38,27.66c-2.41,0-4.38-1.85-4.38-4.57v-0.03c0-2.53,1.79-4.57,4.21-4.57c2.6,0,4.08,2.13,4.08,4.45
		c0,0.36-0.29,0.61-0.61,0.61h-6.36c0.19,1.9,1.53,2.97,3.09,2.97c1.09,0,1.89-0.42,2.53-1.02c0.1-0.09,0.22-0.15,0.38-0.15
		c0.32,0,0.58,0.25,0.58,0.56c0,0.15-0.07,0.31-0.21,0.42C260.86,27.14,259.87,27.66,258.38,27.66z M260.98,22.58
		c-0.14-1.6-1.05-2.99-2.8-2.99c-1.53,0-2.69,1.27-2.86,2.99H260.98z"/>
	<path class="st1" d="M264.6,19.25c0-0.36,0.29-0.66,0.64-0.66c0.38,0,0.66,0.29,0.66,0.66v0.95c0.58-0.95,1.5-1.72,3.01-1.72
		c2.13,0,3.37,1.43,3.37,3.52v4.88c0,0.37-0.29,0.66-0.65,0.66c-0.38,0-0.66-0.29-0.66-0.66v-4.56c0-1.63-0.88-2.65-2.43-2.65
		c-1.51,0-2.63,1.1-2.63,2.75v4.45c0,0.37-0.27,0.66-0.65,0.66c-0.37,0-0.66-0.29-0.66-0.66V19.25z"/>
	<path class="st1" d="M275.53,25.13v-5.3h-0.71c-0.31,0-0.58-0.27-0.58-0.58c0-0.32,0.27-0.58,0.58-0.58h0.71V16.6
		c0-0.36,0.27-0.66,0.65-0.66c0.36,0,0.66,0.31,0.66,0.66v2.07h2.28c0.32,0,0.59,0.27,0.59,0.58c0,0.32-0.27,0.58-0.59,0.58h-2.28
		v5.13c0,1.07,0.6,1.46,1.48,1.46c0.46,0,0.7-0.12,0.8-0.12c0.3,0,0.56,0.25,0.56,0.56c0,0.24-0.15,0.42-0.38,0.51
		c-0.37,0.15-0.78,0.24-1.29,0.24C276.6,27.61,275.53,26.92,275.53,25.13z"/>
	<path class="st1" d="M285.53,27.66c-2.41,0-4.38-1.85-4.38-4.57v-0.03c0-2.53,1.79-4.57,4.21-4.57c2.6,0,4.08,2.13,4.08,4.45
		c0,0.36-0.29,0.61-0.61,0.61h-6.36c0.19,1.9,1.53,2.97,3.09,2.97c1.09,0,1.89-0.42,2.53-1.02c0.1-0.09,0.22-0.15,0.38-0.15
		c0.32,0,0.58,0.25,0.58,0.56c0,0.15-0.07,0.31-0.21,0.42C288.01,27.14,287.02,27.66,285.53,27.66z M288.13,22.58
		c-0.14-1.6-1.05-2.99-2.8-2.99c-1.53,0-2.69,1.27-2.86,2.99H288.13z"/>
	<path class="st1" d="M69.83,46.43c-0.15-0.1-0.25-0.29-0.25-0.51c0-0.38,0.29-0.66,0.65-0.66c0.17,0,0.32,0.07,0.41,0.15
		c1.12,0.95,2.24,1.41,3.76,1.41c1.6,0,2.65-0.85,2.65-2.02v-0.03c0-1.11-0.59-1.73-3.09-2.26c-2.74-0.59-3.99-1.48-3.99-3.43v-0.03
		c0-1.87,1.65-3.25,3.91-3.25c1.56,0,2.7,0.39,3.79,1.17c0.14,0.1,0.29,0.29,0.29,0.54c0,0.36-0.29,0.65-0.65,0.65
		c-0.15,0-0.27-0.03-0.39-0.12c-1-0.73-1.97-1.04-3.08-1.04c-1.55,0-2.53,0.85-2.53,1.92v0.03c0,1.12,0.61,1.75,3.23,2.31
		c2.65,0.58,3.88,1.55,3.88,3.37v0.03c0,2.04-1.7,3.37-4.06,3.37C72.6,48.03,71.16,47.49,69.83,46.43z"/>
	<path class="st1" d="M80.25,45.31v-0.03c0-1.85,1.53-2.84,3.76-2.84c1.12,0,1.92,0.15,2.7,0.37V42.5c0-1.58-0.97-2.4-2.62-2.4
		c-0.88,0-1.63,0.21-2.28,0.49c-0.08,0.03-0.17,0.05-0.24,0.05c-0.31,0-0.58-0.26-0.58-0.56c0-0.27,0.19-0.48,0.36-0.54
		c0.87-0.37,1.75-0.59,2.87-0.59c1.24,0,2.19,0.32,2.84,0.97c0.59,0.59,0.9,1.44,0.9,2.57v4.81c0,0.37-0.27,0.65-0.63,0.65
		c-0.37,0-0.63-0.27-0.63-0.61v-0.8c-0.61,0.8-1.63,1.51-3.18,1.51C81.9,48.05,80.25,47.11,80.25,45.31z M86.73,44.63v-0.85
		c-0.65-0.19-1.51-0.37-2.58-0.37c-1.65,0-2.57,0.71-2.57,1.82v0.03c0,1.1,1.02,1.75,2.21,1.75C85.4,47.01,86.73,46.02,86.73,44.63z
		"/>
	<path class="st1" d="M90.88,36.03c0-0.36,0.29-0.66,0.65-0.66c0.37,0,0.66,0.31,0.66,0.66v11.25c0,0.37-0.27,0.66-0.65,0.66
		s-0.66-0.29-0.66-0.66V36.03z"/>
	<path class="st1" d="M102.76,47.28c0,0.36-0.27,0.66-0.65,0.66c-0.36,0-0.65-0.29-0.65-0.66v-0.95c-0.59,0.95-1.5,1.72-3.01,1.72
		c-2.13,0-3.37-1.43-3.37-3.52v-4.88c0-0.37,0.27-0.66,0.65-0.66c0.36,0,0.66,0.29,0.66,0.66v4.56c0,1.63,0.88,2.65,2.43,2.65
		c1.5,0,2.63-1.1,2.63-2.75v-4.45c0-0.37,0.27-0.66,0.65-0.66c0.36,0,0.65,0.29,0.65,0.66V47.28z"/>
	<path class="st1" d="M114.07,47.28c0,0.37-0.29,0.66-0.65,0.66c-0.37,0-0.66-0.29-0.66-0.66v-1.19c-0.71,1.05-1.75,1.96-3.37,1.96
		c-2.11,0-4.2-1.67-4.2-4.56v-0.03c0-2.87,2.09-4.57,4.2-4.57c1.63,0,2.69,0.88,3.37,1.87v-4.72c0-0.38,0.27-0.66,0.65-0.66
		s0.66,0.29,0.66,0.66V47.28z M106.54,43.44v0.03c0,2.07,1.44,3.4,3.09,3.4c1.63,0,3.18-1.38,3.18-3.4v-0.03
		c0-2.02-1.55-3.38-3.18-3.38C107.93,40.06,106.54,41.31,106.54,43.44z"/>
	<path class="st1" d="M116.33,45.31v-0.03c0-1.85,1.53-2.84,3.76-2.84c1.12,0,1.92,0.15,2.7,0.37V42.5c0-1.58-0.97-2.4-2.62-2.4
		c-0.88,0-1.63,0.21-2.28,0.49c-0.08,0.03-0.17,0.05-0.24,0.05c-0.31,0-0.58-0.26-0.58-0.56c0-0.27,0.19-0.48,0.36-0.54
		c0.87-0.37,1.75-0.59,2.87-0.59c1.24,0,2.19,0.32,2.84,0.97c0.59,0.59,0.9,1.44,0.9,2.57v4.81c0,0.37-0.27,0.65-0.63,0.65
		c-0.37,0-0.63-0.27-0.63-0.61v-0.8c-0.61,0.8-1.63,1.51-3.18,1.51C117.98,48.05,116.33,47.11,116.33,45.31z M122.8,44.63v-0.85
		c-0.65-0.19-1.51-0.37-2.58-0.37c-1.65,0-2.57,0.71-2.57,1.82v0.03c0,1.1,1.02,1.75,2.21,1.75
		C121.48,47.01,122.8,46.02,122.8,44.63z"/>
	<path class="st1" d="M126.83,36.03c0-0.38,0.29-0.66,0.65-0.66c0.37,0,0.66,0.29,0.66,0.66v4.81c0.71-1.05,1.75-1.95,3.37-1.95
		c2.11,0,4.2,1.67,4.2,4.55v0.03c0,2.87-2.07,4.57-4.2,4.57c-1.63,0-2.69-0.88-3.37-1.87v1.1c0,0.36-0.27,0.66-0.65,0.66
		s-0.66-0.31-0.66-0.66V36.03z M134.36,43.49v-0.03c0-2.07-1.43-3.4-3.09-3.4c-1.63,0-3.18,1.38-3.18,3.38v0.03
		c0,2.04,1.55,3.4,3.18,3.4C132.97,46.87,134.36,45.62,134.36,43.49z"/>
	<path class="st1" d="M138.24,36.03c0-0.36,0.29-0.66,0.65-0.66c0.37,0,0.66,0.31,0.66,0.66v11.25c0,0.37-0.27,0.66-0.65,0.66
		s-0.66-0.29-0.66-0.66V36.03z"/>
	<path class="st1" d="M146.43,48.06c-2.41,0-4.39-1.85-4.39-4.57v-0.03c0-2.53,1.79-4.57,4.22-4.57c2.6,0,4.08,2.13,4.08,4.45
		c0,0.36-0.29,0.61-0.61,0.61h-6.36c0.19,1.9,1.53,2.97,3.09,2.97c1.09,0,1.89-0.42,2.53-1.02c0.1-0.08,0.22-0.15,0.37-0.15
		c0.32,0,0.58,0.25,0.58,0.56c0,0.15-0.07,0.31-0.2,0.42C148.91,47.54,147.93,48.06,146.43,48.06z M149.03,42.98
		c-0.14-1.6-1.05-2.99-2.8-2.99c-1.53,0-2.69,1.27-2.86,2.99H149.03z"/>
	<path class="st1" d="M152.18,46.92c-0.12-0.08-0.24-0.25-0.24-0.47c0-0.31,0.26-0.56,0.58-0.56c0.12,0,0.24,0.03,0.32,0.1
		c0.9,0.61,1.84,0.93,2.79,0.93c1.05,0,1.82-0.54,1.82-1.39V45.5c0-0.88-1.04-1.22-2.19-1.55c-1.38-0.39-2.91-0.87-2.91-2.48v-0.04
		c0-1.51,1.26-2.52,2.99-2.52c0.93,0,1.96,0.29,2.8,0.75c0.17,0.1,0.32,0.29,0.32,0.54c0,0.31-0.25,0.56-0.58,0.56
		c-0.12,0-0.22-0.03-0.29-0.07c-0.75-0.42-1.55-0.68-2.29-0.68c-1.04,0-1.7,0.54-1.7,1.27v0.03c0,0.83,1.09,1.16,2.26,1.51
		c1.36,0.41,2.82,0.93,2.82,2.52v0.03c0,1.67-1.38,2.63-3.13,2.63C154.41,48.03,153.13,47.6,152.18,46.92z"/>
</g>
<g>
	<path id="XMLID_276_" class="st1" d="M35.9,2.8l0,1.63h0c0.61,0,1.24,0.02,1.85,0.06C52.86,5.5,64.34,18.61,63.33,33.72
		C62.38,48.1,50.35,59.37,35.95,59.37c-0.61,0-1.24-0.02-1.85-0.06C18.99,58.3,7.51,45.19,8.52,30.08
		C9.47,15.69,21.5,4.43,35.9,4.43L35.9,2.8 M35.9,2.8C20.71,2.8,7.91,14.59,6.89,29.97C5.82,46,17.96,59.87,33.99,60.93
		C34.65,60.98,35.3,61,35.95,61c15.19,0,27.98-11.79,29.01-27.17c1.07-16.04-11.07-29.9-27.1-30.97C37.2,2.82,36.55,2.8,35.9,2.8
		L35.9,2.8z"/>
	<g id="XMLID_98_">
		<path id="XMLID_201_" class="st1" d="M20.36,48.86c-2.61,0.83-4.13,1.57-4.27,1.64l-0.37,0.18v1.73c0,0,10.41,8.58,20.22,8.58
			c9.19,0,20.83-8.58,20.83-8.58v-1.73L56.4,50.5c-0.14-0.07-1.66-0.81-4.27-1.64v-4.85l0.1-0.15c0.92-1.44,1.81-2.52,2.77-3.39
			c1.12-1,1.76-2.44,1.76-3.94c0-1.3-0.47-2.53-1.32-3.5v-8.42h-1.32v-2.65h-5.3v-5.3H47.5v-2.65h-1.99v-2.65h-7.94v2.65h-1.99v2.65
			h-1.32v7.94h-1.32v-2.65h-1.32v-2.65h-2.65v-5.3h-1.32v-2.65h-9.27v2.65h-1.32v19.01c-0.85,0.97-1.32,2.19-1.32,3.5
			c0,1.5,0.64,2.94,1.76,3.94c0.97,0.87,1.85,1.94,2.77,3.39l0.1,0.15V48.86L20.36,48.86z M28.96,46.95
			c-2.85,0.38-5.3,0.95-7.28,1.51v-4.45l0.1-0.15c0.88-1.38,2.03-2.61,3.03-3.63c0.13-0.14,0.26-0.28,0.38-0.43
			c0.31,1.06,0.98,1.98,1.93,2.6c0.65,0.42,1.28,0.98,1.85,1.65V46.95L28.96,46.95z M42.86,35.21c0.76,0,1.5,0.26,2.09,0.74
			c0.78,0.63,1.22,1.57,1.22,2.57c0,1.13-0.57,2.16-1.51,2.78c-0.39,0.25-0.77,0.55-1.13,0.88v-1.92l2.28-1.14l-0.59-1.18
			l-1.69,0.84v-1.58H42.2v5c-0.44-0.38-0.88-0.72-1.27-0.99c-1.07-0.77-1.58-2.06-1.31-3.37c0.25-1.26,1.26-2.28,2.52-2.55
			C42.38,35.23,42.62,35.21,42.86,35.21L42.86,35.21z M32.6,34.97c0.63-1.46,2.09-2.44,3.71-2.41c1.54,0.03,2.94,1,3.56,2.42
			c-0.78,0.66-1.35,1.56-1.55,2.59c-0.16,0.82-0.1,1.63,0.14,2.38c-0.49,0.52-1.03,1.11-1.56,1.78v-6.52h-1.32v1.58l-1.69-0.84
			l-0.19,0.37C33.43,35.8,33.05,35.35,32.6,34.97L32.6,34.97z M28.96,42.17c-0.37-0.33-0.74-0.62-1.13-0.88
			c-0.95-0.61-1.51-1.65-1.51-2.78c0-1,0.45-1.94,1.22-2.57c0.59-0.48,1.33-0.74,2.09-0.74c0.24,0,0.48,0.02,0.71,0.07
			c1.26,0.26,2.27,1.29,2.52,2.55c0.26,1.31-0.24,2.61-1.31,3.37c-0.38,0.27-0.82,0.61-1.27,0.99v-5h-1.32v1.58l-1.69-0.85
			l-0.59,1.18l2.28,1.14V42.17z M35.58,41.68c-0.5-0.66-1.02-1.25-1.55-1.77c0.23-0.74,0.29-1.54,0.13-2.34c0-0.01,0-0.01-0.01-0.02
			l1.42,0.71V41.68z M42.2,46.79c-1.65-0.18-3.42-0.3-5.3-0.32v-2.46l0.1-0.15c0.64-0.99,1.39-1.88,2.1-2.65
			c0.29,0.4,0.64,0.77,1.07,1.07c0.66,0.47,1.41,1.05,2.04,1.78V46.79z M35.58,44v2.46c-1.87,0.02-3.64,0.14-5.3,0.32v-2.73
			c0.62-0.73,1.38-1.31,2.04-1.78c0.44-0.31,0.8-0.69,1.09-1.11c0.71,0.74,1.39,1.63,2.07,2.69L35.58,44L35.58,44z M18.37,39.48
			c-0.84-0.75-1.32-1.83-1.32-2.95c0-1.07,0.42-2.08,1.19-2.83c0.75-0.74,1.74-1.14,2.78-1.14c0.02,0,0.04,0,0.07,0
			c2.08,0.03,3.83,1.75,3.9,3.82c0.04,1.1-0.36,2.14-1.13,2.92c-0.7,0.71-1.46,1.52-2.18,2.42v-6.52h-1.32v1.58l-1.69-0.85
			l-0.59,1.18l2.28,1.14v3.41C19.71,40.82,19.05,40.09,18.37,39.48L18.37,39.48z M26.31,14.02h-6.62V12.7h6.62V14.02z M27.64,19.32
			h-1.32v2.65h-1.32v2.65h-2.65v6.8c-0.4-0.11-0.81-0.17-1.23-0.18c-0.98-0.01-1.92,0.24-2.74,0.71v-16.6h9.27V19.32z M30.29,21.97
			h-2.65v-1.32h2.65V21.97z M31.61,24.61h-5.3v-1.32h5.3V24.61z M34.26,25.94v5.7c-1.22,0.49-2.22,1.42-2.79,2.63
			c-0.27-0.12-0.55-0.22-0.85-0.28c-1.4-0.29-2.82,0.05-3.91,0.93c-0.19,0.15-0.36,0.32-0.51,0.5c-0.33-1.5-1.32-2.78-2.64-3.52
			h0.12v-5.96H34.26z M44.19,14.02h-5.3V12.7h5.3V14.02z M46.17,16.67h-9.27v-1.32h9.27V16.67z M47.5,21.97h-2.65v2.65h-1.32v9.32
			c-0.54-0.08-1.1-0.07-1.65,0.05c-0.3,0.06-0.58,0.17-0.86,0.29c-0.86-1.79-2.69-3-4.68-3.04c-0.25,0-0.5,0.02-0.75,0.05V17.99
			H47.5V21.97z M52.79,24.61h-6.62v-1.32h6.62V24.61z M54.12,25.94v6.01c-0.82-0.48-1.75-0.73-2.74-0.71
			c-2.45,0.04-4.56,1.84-5.08,4.18c-0.16-0.18-0.33-0.34-0.51-0.5c-0.29-0.24-0.6-0.43-0.93-0.59v-8.39H54.12z M54.12,39.48
			c-0.68,0.61-1.34,1.34-1.99,2.19v-3.41l2.28-1.14l-0.59-1.18l-1.69,0.84v-1.58h-1.33v6.52c-0.71-0.9-1.48-1.71-2.18-2.42
			c-0.77-0.78-1.17-1.82-1.13-2.92c0.08-2.07,1.83-3.79,3.9-3.82c0.02,0,0.05,0,0.07,0c1.05,0,2.04,0.4,2.78,1.14
			c0.77,0.75,1.19,1.76,1.19,2.83C55.44,37.65,54.96,38.73,54.12,39.48L54.12,39.48z M50.81,48.46c-1.98-0.57-4.43-1.13-7.28-1.51
			v-2.89c0.58-0.67,1.2-1.23,1.85-1.65c0.95-0.62,1.63-1.55,1.93-2.6c0.12,0.15,0.24,0.29,0.38,0.43c1,1.02,2.14,2.25,3.03,3.63
			L50.81,44V48.46z M54.44,51.09"/>
		<rect id="XMLID_198_" x="51.47" y="27.26" class="st1" width="1.32" height="1.32"/>
		<rect id="XMLID_55_" x="48.82" y="27.26" class="st1" width="1.32" height="1.32"/>
		<rect id="XMLID_46_" x="46.17" y="27.26" class="st1" width="1.32" height="1.32"/>
		<rect id="XMLID_43_" x="44.85" y="19.32" class="st1" width="1.32" height="1.32"/>
		<rect id="XMLID_42_" x="40.88" y="19.32" class="st1" width="1.32" height="1.32"/>
		<rect id="XMLID_183_" x="36.91" y="19.32" class="st1" width="1.32" height="1.32"/>
		<rect id="XMLID_180_" x="40.88" y="21.97" class="st1" width="1.32" height="1.32"/>
		<rect id="XMLID_177_" x="36.91" y="21.97" class="st1" width="1.32" height="1.32"/>
		<rect id="XMLID_41_" x="40.88" y="24.61" class="st1" width="1.32" height="1.32"/>
		<rect id="XMLID_39_" x="36.91" y="24.61" class="st1" width="1.32" height="1.32"/>
		<rect id="XMLID_38_" x="40.88" y="27.26" class="st1" width="1.32" height="1.32"/>
		<rect id="XMLID_37_" x="36.91" y="27.26" class="st1" width="1.32" height="1.32"/>
		<rect id="XMLID_36_" x="23.67" y="16.67" class="st1" width="1.32" height="1.32"/>
		<rect id="XMLID_35_" x="23.67" y="19.32" class="st1" width="1.32" height="1.32"/>
		<rect id="XMLID_156_" x="21.02" y="16.67" class="st1" width="1.32" height="1.32"/>
		<rect id="XMLID_34_" x="21.02" y="19.32" class="st1" width="1.32" height="1.32"/>
		<path id="XMLID_7_" class="st1" d="M32.93,31.23v-3.97h-7.94v3.97H32.93z M26.31,28.59h1.99v1.32h-1.99V28.59z M31.61,29.91h-1.99
			v-1.32h1.99V29.91z M31.61,28.59"/>
	</g>
</g>
</svg>
