<?xml version="1.0" encoding="utf-8"?>
<!-- Generator: Adobe Illustrator 24.0.0, SVG Export Plug-In . SVG Version: 6.00 Build 0)  -->
<svg version="1.1" id="Capa_1" xmlns="http://www.w3.org/2000/svg" xmlns:xlink="http://www.w3.org/1999/xlink" x="0px" y="0px"
	 viewBox="0 0 742.6 137" style="enable-background:new 0 0 742.6 137;" xml:space="preserve">
<style type="text/css">
	.st0{fill:#FFFFFF;}
	.st1{fill:#003E67;}
	.st2{opacity:0.2;}
	.st3{clip-path:url(#SVGID_2_);fill:#28B6DC;}
	.st4{clip-path:url(#SVGID_2_);fill:#29B6DC;}
	.st5{clip-path:url(#SVGID_2_);fill:#2AB7DC;}
	.st6{clip-path:url(#SVGID_2_);fill:#2BB7DC;}
	.st7{clip-path:url(#SVGID_2_);fill:#2CB7DD;}
	.st8{clip-path:url(#SVGID_2_);fill:#2DB8DD;}
	.st9{clip-path:url(#SVGID_2_);fill:#2EB8DD;}
	.st10{clip-path:url(#SVGID_2_);fill:#2FB8DD;}
	.st11{clip-path:url(#SVGID_2_);fill:#30B9DD;}
	.st12{clip-path:url(#SVGID_2_);fill:#31B9DD;}
	.st13{clip-path:url(#SVGID_2_);fill:#32B9DE;}
	.st14{clip-path:url(#SVGID_2_);fill:#33BADE;}
	.st15{clip-path:url(#SVGID_2_);fill:#34BADE;}
	.st16{clip-path:url(#SVGID_2_);fill:#35BADE;}
	.st17{clip-path:url(#SVGID_2_);fill:#36BBDE;}
	.st18{clip-path:url(#SVGID_2_);fill:#37BBDE;}
	.st19{clip-path:url(#SVGID_2_);fill:#38BCDF;}
	.st20{clip-path:url(#SVGID_2_);fill:#39BCDF;}
	.st21{clip-path:url(#SVGID_2_);fill:#3ABCDF;}
	.st22{clip-path:url(#SVGID_2_);fill:#3BBDDF;}
	.st23{clip-path:url(#SVGID_2_);fill:#3CBDDF;}
	.st24{clip-path:url(#SVGID_2_);fill:#3DBDDF;}
	.st25{clip-path:url(#SVGID_2_);fill:#3EBEDF;}
	.st26{clip-path:url(#SVGID_2_);fill:#3FBEE0;}
	.st27{clip-path:url(#SVGID_2_);fill:#40BEE0;}
	.st28{clip-path:url(#SVGID_2_);fill:#41BFE0;}
	.st29{clip-path:url(#SVGID_2_);fill:#42BFE0;}
	.st30{clip-path:url(#SVGID_2_);fill:#43BFE0;}
	.st31{clip-path:url(#SVGID_2_);fill:#44C0E0;}
	.st32{clip-path:url(#SVGID_2_);fill:#45C0E1;}
	.st33{clip-path:url(#SVGID_2_);fill:#46C0E1;}
	.st34{clip-path:url(#SVGID_2_);fill:#47C1E1;}
	.st35{clip-path:url(#SVGID_2_);fill:#49C1E1;}
	.st36{clip-path:url(#SVGID_2_);fill:#4AC1E1;}
	.st37{clip-path:url(#SVGID_2_);fill:#4BC2E1;}
	.st38{clip-path:url(#SVGID_2_);fill:#4CC2E1;}
	.st39{clip-path:url(#SVGID_2_);fill:#4DC2E2;}
	.st40{clip-path:url(#SVGID_2_);fill:#4EC3E2;}
	.st41{clip-path:url(#SVGID_2_);fill:#4FC3E2;}
	.st42{clip-path:url(#SVGID_2_);fill:#50C3E2;}
	.st43{clip-path:url(#SVGID_2_);fill:#51C4E2;}
	.st44{clip-path:url(#SVGID_2_);fill:#52C4E2;}
	.st45{clip-path:url(#SVGID_2_);fill:#53C4E3;}
	.st46{clip-path:url(#SVGID_2_);fill:#54C5E3;}
	.st47{clip-path:url(#SVGID_2_);fill:#55C5E3;}
	.st48{clip-path:url(#SVGID_2_);fill:#56C5E3;}
	.st49{clip-path:url(#SVGID_2_);fill:#57C6E3;}
	.st50{clip-path:url(#SVGID_2_);fill:#58C6E3;}
	.st51{clip-path:url(#SVGID_2_);fill:#59C7E4;}
	.st52{clip-path:url(#SVGID_2_);fill:#5AC7E4;}
	.st53{clip-path:url(#SVGID_2_);fill:#5BC7E4;}
	.st54{clip-path:url(#SVGID_2_);fill:#5CC8E4;}
	.st55{clip-path:url(#SVGID_2_);fill:#5DC8E4;}
	.st56{clip-path:url(#SVGID_2_);fill:#5EC8E4;}
	.st57{clip-path:url(#SVGID_2_);fill:#5FC9E4;}
	.st58{clip-path:url(#SVGID_2_);fill:#60C9E5;}
	.st59{clip-path:url(#SVGID_2_);fill:#61C9E5;}
	.st60{clip-path:url(#SVGID_2_);fill:#62CAE5;}
	.st61{clip-path:url(#SVGID_2_);fill:#63CAE5;}
	.st62{clip-path:url(#SVGID_2_);fill:#64CAE5;}
	.st63{clip-path:url(#SVGID_2_);fill:#65CBE5;}
	.st64{clip-path:url(#SVGID_2_);fill:#66CBE6;}
	.st65{clip-path:url(#SVGID_2_);fill:#67CBE6;}
	.st66{clip-path:url(#SVGID_2_);fill:#68CCE6;}
	.st67{clip-path:url(#SVGID_2_);fill:#69CCE6;}
	.st68{clip-path:url(#SVGID_4_);fill:#28B6DC;}
	.st69{clip-path:url(#SVGID_4_);fill:#29B6DC;}
	.st70{clip-path:url(#SVGID_4_);fill:#2AB7DC;}
	.st71{clip-path:url(#SVGID_4_);fill:#2BB7DC;}
	.st72{clip-path:url(#SVGID_4_);fill:#2CB7DD;}
	.st73{clip-path:url(#SVGID_4_);fill:#2DB8DD;}
	.st74{clip-path:url(#SVGID_4_);fill:#2EB8DD;}
	.st75{clip-path:url(#SVGID_4_);fill:#2FB8DD;}
	.st76{clip-path:url(#SVGID_4_);fill:#30B9DD;}
	.st77{clip-path:url(#SVGID_4_);fill:#31B9DD;}
	.st78{clip-path:url(#SVGID_4_);fill:#32B9DE;}
	.st79{clip-path:url(#SVGID_4_);fill:#33BADE;}
	.st80{clip-path:url(#SVGID_4_);fill:#34BADE;}
	.st81{clip-path:url(#SVGID_4_);fill:#35BADE;}
	.st82{clip-path:url(#SVGID_4_);fill:#36BBDE;}
	.st83{clip-path:url(#SVGID_4_);fill:#37BBDE;}
	.st84{clip-path:url(#SVGID_4_);fill:#38BCDF;}
	.st85{clip-path:url(#SVGID_4_);fill:#39BCDF;}
	.st86{clip-path:url(#SVGID_4_);fill:#3ABCDF;}
	.st87{clip-path:url(#SVGID_4_);fill:#3BBDDF;}
	.st88{clip-path:url(#SVGID_4_);fill:#3CBDDF;}
	.st89{clip-path:url(#SVGID_4_);fill:#3DBDDF;}
	.st90{clip-path:url(#SVGID_4_);fill:#3EBEDF;}
	.st91{clip-path:url(#SVGID_4_);fill:#3FBEE0;}
	.st92{clip-path:url(#SVGID_4_);fill:#40BEE0;}
	.st93{clip-path:url(#SVGID_4_);fill:#41BFE0;}
	.st94{clip-path:url(#SVGID_4_);fill:#42BFE0;}
	.st95{clip-path:url(#SVGID_4_);fill:#43BFE0;}
	.st96{clip-path:url(#SVGID_4_);fill:#44C0E0;}
	.st97{clip-path:url(#SVGID_4_);fill:#45C0E1;}
	.st98{clip-path:url(#SVGID_4_);fill:#46C0E1;}
	.st99{clip-path:url(#SVGID_4_);fill:#47C1E1;}
	.st100{clip-path:url(#SVGID_4_);fill:#49C1E1;}
	.st101{clip-path:url(#SVGID_4_);fill:#4AC1E1;}
	.st102{clip-path:url(#SVGID_4_);fill:#4BC2E1;}
	.st103{clip-path:url(#SVGID_4_);fill:#4CC2E1;}
	.st104{clip-path:url(#SVGID_4_);fill:#4DC2E2;}
	.st105{clip-path:url(#SVGID_4_);fill:#4EC3E2;}
	.st106{clip-path:url(#SVGID_4_);fill:#4FC3E2;}
	.st107{clip-path:url(#SVGID_4_);fill:#50C3E2;}
	.st108{clip-path:url(#SVGID_4_);fill:#51C4E2;}
	.st109{clip-path:url(#SVGID_4_);fill:#52C4E2;}
	.st110{clip-path:url(#SVGID_4_);fill:#53C4E3;}
	.st111{clip-path:url(#SVGID_4_);fill:#54C5E3;}
	.st112{clip-path:url(#SVGID_4_);fill:#55C5E3;}
	.st113{clip-path:url(#SVGID_4_);fill:#56C5E3;}
	.st114{clip-path:url(#SVGID_4_);fill:#57C6E3;}
	.st115{clip-path:url(#SVGID_4_);fill:#58C6E3;}
	.st116{clip-path:url(#SVGID_4_);fill:#59C7E4;}
	.st117{clip-path:url(#SVGID_4_);fill:#5AC7E4;}
	.st118{clip-path:url(#SVGID_4_);fill:#5BC7E4;}
	.st119{clip-path:url(#SVGID_4_);fill:#5CC8E4;}
	.st120{clip-path:url(#SVGID_4_);fill:#5DC8E4;}
	.st121{clip-path:url(#SVGID_4_);fill:#5EC8E4;}
	.st122{clip-path:url(#SVGID_4_);fill:#5FC9E4;}
	.st123{clip-path:url(#SVGID_4_);fill:#60C9E5;}
	.st124{clip-path:url(#SVGID_4_);fill:#61C9E5;}
	.st125{clip-path:url(#SVGID_4_);fill:#62CAE5;}
	.st126{clip-path:url(#SVGID_4_);fill:#63CAE5;}
	.st127{clip-path:url(#SVGID_4_);fill:#64CAE5;}
	.st128{clip-path:url(#SVGID_4_);fill:#65CBE5;}
	.st129{clip-path:url(#SVGID_4_);fill:#66CBE6;}
	.st130{clip-path:url(#SVGID_4_);fill:#67CBE6;}
	.st131{clip-path:url(#SVGID_4_);fill:#68CCE6;}
	.st132{clip-path:url(#SVGID_4_);fill:#69CCE6;}
	.st133{clip-path:url(#SVGID_6_);fill:#28B6DC;}
	.st134{clip-path:url(#SVGID_6_);fill:#29B6DC;}
	.st135{clip-path:url(#SVGID_6_);fill:#2AB7DC;}
	.st136{clip-path:url(#SVGID_6_);fill:#2BB7DC;}
	.st137{clip-path:url(#SVGID_6_);fill:#2CB7DD;}
	.st138{clip-path:url(#SVGID_6_);fill:#2DB8DD;}
	.st139{clip-path:url(#SVGID_6_);fill:#2EB8DD;}
	.st140{clip-path:url(#SVGID_6_);fill:#2FB8DD;}
	.st141{clip-path:url(#SVGID_6_);fill:#30B9DD;}
	.st142{clip-path:url(#SVGID_6_);fill:#31B9DD;}
	.st143{clip-path:url(#SVGID_6_);fill:#32B9DE;}
	.st144{clip-path:url(#SVGID_6_);fill:#33BADE;}
	.st145{clip-path:url(#SVGID_6_);fill:#34BADE;}
	.st146{clip-path:url(#SVGID_6_);fill:#35BADE;}
	.st147{clip-path:url(#SVGID_6_);fill:#36BBDE;}
	.st148{clip-path:url(#SVGID_6_);fill:#37BBDE;}
	.st149{clip-path:url(#SVGID_6_);fill:#38BCDF;}
	.st150{clip-path:url(#SVGID_6_);fill:#39BCDF;}
	.st151{clip-path:url(#SVGID_6_);fill:#3ABCDF;}
	.st152{clip-path:url(#SVGID_6_);fill:#3BBDDF;}
	.st153{clip-path:url(#SVGID_6_);fill:#3CBDDF;}
	.st154{clip-path:url(#SVGID_6_);fill:#3DBDDF;}
	.st155{clip-path:url(#SVGID_6_);fill:#3EBEDF;}
	.st156{clip-path:url(#SVGID_6_);fill:#3FBEE0;}
	.st157{clip-path:url(#SVGID_6_);fill:#40BEE0;}
	.st158{clip-path:url(#SVGID_6_);fill:#41BFE0;}
	.st159{clip-path:url(#SVGID_6_);fill:#42BFE0;}
	.st160{clip-path:url(#SVGID_6_);fill:#43BFE0;}
	.st161{clip-path:url(#SVGID_6_);fill:#44C0E0;}
	.st162{clip-path:url(#SVGID_6_);fill:#45C0E1;}
	.st163{clip-path:url(#SVGID_6_);fill:#46C0E1;}
	.st164{clip-path:url(#SVGID_6_);fill:#47C1E1;}
	.st165{clip-path:url(#SVGID_6_);fill:#49C1E1;}
	.st166{clip-path:url(#SVGID_6_);fill:#4AC1E1;}
	.st167{clip-path:url(#SVGID_6_);fill:#4BC2E1;}
	.st168{clip-path:url(#SVGID_6_);fill:#4CC2E1;}
	.st169{clip-path:url(#SVGID_6_);fill:#4DC2E2;}
	.st170{clip-path:url(#SVGID_6_);fill:#4EC3E2;}
	.st171{clip-path:url(#SVGID_6_);fill:#4FC3E2;}
	.st172{clip-path:url(#SVGID_6_);fill:#50C3E2;}
	.st173{clip-path:url(#SVGID_6_);fill:#51C4E2;}
	.st174{clip-path:url(#SVGID_6_);fill:#52C4E2;}
	.st175{clip-path:url(#SVGID_6_);fill:#53C4E3;}
	.st176{clip-path:url(#SVGID_6_);fill:#54C5E3;}
	.st177{clip-path:url(#SVGID_6_);fill:#55C5E3;}
	.st178{clip-path:url(#SVGID_6_);fill:#56C5E3;}
	.st179{clip-path:url(#SVGID_6_);fill:#57C6E3;}
	.st180{clip-path:url(#SVGID_6_);fill:#58C6E3;}
	.st181{clip-path:url(#SVGID_6_);fill:#59C7E4;}
	.st182{clip-path:url(#SVGID_6_);fill:#5AC7E4;}
	.st183{clip-path:url(#SVGID_6_);fill:#5BC7E4;}
	.st184{clip-path:url(#SVGID_6_);fill:#5CC8E4;}
	.st185{clip-path:url(#SVGID_6_);fill:#5DC8E4;}
	.st186{clip-path:url(#SVGID_6_);fill:#5EC8E4;}
	.st187{clip-path:url(#SVGID_6_);fill:#5FC9E4;}
	.st188{clip-path:url(#SVGID_6_);fill:#60C9E5;}
	.st189{clip-path:url(#SVGID_6_);fill:#61C9E5;}
	.st190{clip-path:url(#SVGID_6_);fill:#62CAE5;}
	.st191{clip-path:url(#SVGID_6_);fill:#63CAE5;}
	.st192{clip-path:url(#SVGID_6_);fill:#64CAE5;}
	.st193{clip-path:url(#SVGID_6_);fill:#65CBE5;}
	.st194{clip-path:url(#SVGID_6_);fill:#66CBE6;}
	.st195{clip-path:url(#SVGID_6_);fill:#67CBE6;}
	.st196{clip-path:url(#SVGID_6_);fill:#68CCE6;}
	.st197{clip-path:url(#SVGID_6_);fill:#69CCE6;}
	.st198{fill:#0F82BB;}
	.st199{fill:#0071BC;}
	.st200{clip-path:url(#SVGID_8_);}
	.st201{fill:#39A935;}
	.st202{fill:none;stroke:#1D1D1B;stroke-miterlimit:10;}
	.st203{fill:#29ABE2;}
	.st204{clip-path:url(#SVGID_10_);}
	.st205{fill-rule:evenodd;clip-rule:evenodd;fill:#003E67;}
	.st206{clip-path:url(#XMLID_13_);fill:#003E67;}
</style>
<g>
	<g>
		<path id="XMLID_276_" class="st1" d="M126.1,7.4v3.4h0c1.3,0,2.6,0,3.9,0.1c31.7,2.1,55.8,29.6,53.7,61.4
			c-2,30.2-27.3,53.9-57.5,53.9c-1.3,0-2.6,0-3.9-0.1c-31.7-2.1-55.8-29.6-53.7-61.4c2-30.2,27.3-53.9,57.5-53.9L126.1,7.4
			 M126.1,7.4c-31.9,0-58.8,24.8-60.9,57.1c-2.2,33.7,23.2,62.8,56.9,65c1.4,0.1,2.8,0.1,4.1,0.1c31.9,0,58.8-24.8,60.9-57.1
			c2.2-33.7-23.2-62.8-56.9-65C128.8,7.4,127.4,7.4,126.1,7.4L126.1,7.4z"/>
		<g id="XMLID_98_">
			<path id="XMLID_201_" class="st1" d="M93.4,104.1c-5.5,1.7-8.7,3.3-9,3.5l-0.8,0.4v3.6c0,0,21.9,18,42.5,18
				c19.3,0,43.7-18,43.7-18v-3.6l-0.8-0.4c-0.3-0.1-3.5-1.7-9-3.5V93.9l0.2-0.3c1.9-3,3.8-5.3,5.8-7.1c2.4-2.1,3.7-5.1,3.7-8.3
				c0-2.7-1-5.3-2.8-7.3V53.2h-2.8v-5.6h-11.1V36.5h-2.8V31h-4.2v-5.6h-16.7V31h-4.2v5.6h-2.8v16.7h-2.8v-5.6H117v-5.6h-5.6V31h-2.8
				v-5.6H89.2V31h-2.8v39.9c-1.8,2-2.8,4.6-2.8,7.3c0,3.2,1.3,6.2,3.7,8.3c2,1.8,3.9,4.1,5.8,7.1l0.2,0.3V104.1L93.4,104.1z
				 M111.5,100.1c-6,0.8-11.1,2-15.3,3.2v-9.3l0.2-0.3c1.9-2.9,4.3-5.5,6.4-7.6c0.3-0.3,0.5-0.6,0.8-0.9c0.6,2.2,2.1,4.2,4.1,5.5
				c1.4,0.9,2.7,2.1,3.9,3.5V100.1L111.5,100.1z M140.7,75.4c1.6,0,3.2,0.5,4.4,1.6c1.6,1.3,2.6,3.3,2.6,5.4c0,2.4-1.2,4.5-3.2,5.8
				c-0.8,0.5-1.6,1.2-2.4,1.8v-4l4.8-2.4l-1.2-2.5l-3.5,1.8v-3.3h-2.8v10.5c-0.9-0.8-1.9-1.5-2.7-2.1c-2.3-1.6-3.3-4.3-2.8-7.1
				c0.5-2.6,2.7-4.8,5.3-5.3C139.7,75.5,140.2,75.4,140.7,75.4L140.7,75.4z M119.1,75c1.3-3.1,4.4-5.1,7.8-5.1
				c3.2,0.1,6.2,2.1,7.5,5.1c-1.6,1.4-2.8,3.3-3.3,5.4c-0.3,1.7-0.2,3.4,0.3,5c-1,1.1-2.2,2.3-3.3,3.7V75.4h-2.8v3.3l-3.5-1.8
				l-0.4,0.8C120.9,76.7,120.1,75.7,119.1,75L119.1,75z M111.5,90.1c-0.8-0.7-1.6-1.3-2.4-1.8c-2-1.3-3.2-3.5-3.2-5.8
				c0-2.1,0.9-4.1,2.6-5.4c1.2-1,2.8-1.6,4.4-1.6c0.5,0,1,0.1,1.5,0.2c2.6,0.6,4.8,2.7,5.3,5.3c0.5,2.8-0.5,5.5-2.8,7.1
				c-0.8,0.6-1.7,1.3-2.7,2.1V79.6h-2.8v3.3l-3.5-1.8l-1.2,2.5l4.8,2.4V90.1z M125.4,89c-1.1-1.4-2.1-2.6-3.3-3.7
				c0.5-1.5,0.6-3.2,0.3-4.9c0,0,0,0,0,0l3,1.5V89z M139.3,99.8c-3.5-0.4-7.2-0.6-11.1-0.7v-5.2l0.2-0.3c1.3-2.1,2.9-3.9,4.4-5.6
				c0.6,0.8,1.3,1.6,2.2,2.3c1.4,1,3,2.2,4.3,3.7V99.8z M125.4,93.9v5.2c-3.9,0-7.7,0.3-11.1,0.7V94c1.3-1.5,2.9-2.7,4.3-3.7
				c0.9-0.7,1.7-1.5,2.3-2.3c1.5,1.6,2.9,3.4,4.3,5.6L125.4,93.9L125.4,93.9z M89.2,84.4c-1.8-1.6-2.8-3.8-2.8-6.2
				c0-2.3,0.9-4.4,2.5-5.9c1.6-1.5,3.6-2.4,5.8-2.4c0,0,0.1,0,0.1,0c4.4,0.1,8,3.7,8.2,8c0.1,2.3-0.8,4.5-2.4,6.1
				c-1.5,1.5-3.1,3.2-4.6,5.1V75.4h-2.8v3.3L89.9,77l-1.2,2.5l4.8,2.4V89C92.1,87.2,90.7,85.7,89.2,84.4L89.2,84.4z M105.9,31H92
				v-2.8h13.9V31z M108.7,42.1h-2.8v5.6h-2.8v5.6h-5.6v14.3c-0.8-0.2-1.7-0.4-2.6-0.4c-2.1,0-4,0.5-5.7,1.5V33.7h19.5V42.1z
				 M114.3,47.6h-5.6v-2.8h5.6V47.6z M117,53.2h-11.1v-2.8H117V53.2z M122.6,56v12c-2.6,1-4.7,3-5.9,5.5c-0.6-0.2-1.2-0.5-1.8-0.6
				c-2.9-0.6-5.9,0.1-8.2,2c-0.4,0.3-0.7,0.7-1.1,1c-0.7-3.2-2.8-5.8-5.5-7.4h0.3V56H122.6z M143.5,31h-11.1v-2.8h11.1V31z
				 M147.6,36.5h-19.5v-2.8h19.5V36.5z M150.4,47.6h-5.6v5.6h-2.8v19.6c-1.1-0.2-2.3-0.1-3.5,0.1c-0.6,0.1-1.2,0.3-1.8,0.6
				c-1.8-3.8-5.6-6.3-9.8-6.4c-0.5,0-1.1,0-1.6,0.1V39.3h25V47.6z M161.5,53.2h-13.9v-2.8h13.9V53.2z M164.3,56v12.6
				c-1.7-1-3.7-1.5-5.7-1.5c-5.2,0.1-9.6,3.9-10.7,8.8c-0.3-0.4-0.7-0.7-1.1-1c-0.6-0.5-1.3-0.9-2-1.2V56H164.3z M164.3,84.4
				c-1.4,1.3-2.8,2.8-4.2,4.6v-7.2l4.8-2.4l-1.2-2.5l-3.5,1.8v-3.3h-2.8v13.7c-1.5-1.9-3.1-3.6-4.6-5.1c-1.6-1.6-2.5-3.8-2.4-6.1
				c0.2-4.4,3.8-8,8.2-8c0,0,0.1,0,0.1,0c2.2,0,4.3,0.8,5.8,2.4c1.6,1.6,2.5,3.7,2.5,5.9C167.1,80.6,166.1,82.8,164.3,84.4
				L164.3,84.4z M157.4,103.3c-4.2-1.2-9.3-2.4-15.3-3.2V94c1.2-1.4,2.5-2.6,3.9-3.5c2-1.3,3.4-3.2,4.1-5.5c0.2,0.3,0.5,0.6,0.8,0.9
				c2.1,2.1,4.5,4.7,6.4,7.6l0.2,0.3V103.3z M165,108.8"/>
			<rect id="XMLID_198_" x="158.8" y="58.8" class="st1" width="2.8" height="2.8"/>
			<rect id="XMLID_55_" x="153.2" y="58.8" class="st1" width="2.8" height="2.8"/>
			<rect id="XMLID_46_" x="147.6" y="58.8" class="st1" width="2.8" height="2.8"/>
			<rect id="XMLID_43_" x="144.9" y="42.1" class="st1" width="2.8" height="2.8"/>
			<rect id="XMLID_42_" x="136.5" y="42.1" class="st1" width="2.8" height="2.8"/>
			<rect id="XMLID_183_" x="128.2" y="42.1" class="st1" width="2.8" height="2.8"/>
			<rect id="XMLID_180_" x="136.5" y="47.6" class="st1" width="2.8" height="2.8"/>
			<rect id="XMLID_177_" x="128.2" y="47.6" class="st1" width="2.8" height="2.8"/>
			<rect id="XMLID_41_" x="136.5" y="53.2" class="st1" width="2.8" height="2.8"/>
			<rect id="XMLID_39_" x="128.2" y="53.2" class="st1" width="2.8" height="2.8"/>
			<rect id="XMLID_38_" x="136.5" y="58.8" class="st1" width="2.8" height="2.8"/>
			<rect id="XMLID_37_" x="128.2" y="58.8" class="st1" width="2.8" height="2.8"/>
			<rect id="XMLID_36_" x="100.4" y="36.5" class="st1" width="2.8" height="2.8"/>
			<rect id="XMLID_35_" x="100.4" y="42.1" class="st1" width="2.8" height="2.8"/>
			<rect id="XMLID_156_" x="94.8" y="36.5" class="st1" width="2.8" height="2.8"/>
			<rect id="XMLID_34_" x="94.8" y="42.1" class="st1" width="2.8" height="2.8"/>
			<path id="XMLID_7_" class="st1" d="M119.8,67.1v-8.3h-16.7v8.3H119.8z M105.9,61.5h4.2v2.8h-4.2V61.5z M117,64.3h-4.2v-2.8h4.2
				V64.3z M117,61.5"/>
		</g>
	</g>
	<g>
		<g>
			<path class="st1" d="M217.6,51.4V14.2c0-1.3,1.1-2.4,2.3-2.4H246c1.2,0,2.2,1,2.2,2.2c0,1.2-1,2.2-2.2,2.2h-23.7v14.3h21
				c1.2,0,2.2,1,2.2,2.2c0,1.2-1,2.2-2.2,2.2h-21v14.7h24c1.2,0,2.2,1,2.2,2.2c0,1.2-1,2.2-2.2,2.2h-26.4
				C218.7,53.8,217.6,52.7,217.6,51.4z"/>
			<path class="st1" d="M254.7,24.8c0-1.3,1-2.3,2.3-2.3c1.3,0,2.3,1,2.3,2.3v3.4c2-3.4,5.3-6.1,10.6-6.1c7.5,0,11.9,5,11.9,12.4
				v17.2c0,1.3-1,2.3-2.3,2.3c-1.3,0-2.3-1-2.3-2.3V35.6c0-5.8-3.1-9.4-8.6-9.4c-5.3,0-9.3,3.9-9.3,9.7v15.7c0,1.3-1,2.3-2.3,2.3
				c-1.3,0-2.3-1-2.3-2.3V24.8z"/>
			<path class="st1" d="M291,45.5V26.8h-2.5c-1.1,0-2-1-2-2c0-1.1,1-2,2-2h2.5v-7.3c0-1.3,1-2.3,2.3-2.3c1.3,0,2.3,1.1,2.3,2.3v7.3
				h8c1.1,0,2.1,1,2.1,2c0,1.1-1,2-2.1,2h-8v18.1c0,3.8,2.1,5.2,5.2,5.2c1.6,0,2.5-0.4,2.8-0.4c1.1,0,2,0.9,2,2
				c0,0.8-0.5,1.5-1.3,1.8c-1.3,0.5-2.8,0.8-4.6,0.8C294.8,54.3,291,51.8,291,45.5z"/>
			<path class="st1" d="M308.6,38.4v-0.1c0-8.8,6.8-16.2,16.2-16.2c9.3,0,16.1,7.3,16.1,16.1v0.1c0,8.8-6.9,16.2-16.3,16.2
				C315.3,54.5,308.6,47.2,308.6,38.4z M336.2,38.4v-0.1c0-6.7-5-12.1-11.5-12.1c-6.7,0-11.3,5.5-11.3,12v0.1
				c0,6.7,4.9,12.1,11.5,12.1C331.5,50.3,336.2,44.9,336.2,38.4z"/>
			<path class="st1" d="M347,24.8c0-1.3,1-2.3,2.3-2.3c1.3,0,2.3,1,2.3,2.3v5.8c2.3-5.2,6.8-8.3,10.7-8.3c1.4,0,2.3,1,2.3,2.3
				c0,1.3-0.8,2.2-2,2.3c-6,0.7-10.9,5.2-10.9,14.2v10.6c0,1.3-1,2.3-2.3,2.3c-1.3,0-2.3-1-2.3-2.3V24.8z"/>
			<path class="st1" d="M369,24.8c0-1.3,1-2.3,2.3-2.3c1.3,0,2.3,1,2.3,2.3v3.4c2-3.4,5.3-6.1,10.6-6.1c7.5,0,11.9,5,11.9,12.4v17.2
				c0,1.3-1,2.3-2.3,2.3c-1.3,0-2.3-1-2.3-2.3V35.6c0-5.8-3.1-9.4-8.6-9.4c-5.3,0-9.3,3.9-9.3,9.7v15.7c0,1.3-1,2.3-2.3,2.3
				c-1.3,0-2.3-1-2.3-2.3V24.8z"/>
			<path class="st1" d="M401.7,38.4v-0.1c0-8.8,6.8-16.2,16.2-16.2c9.3,0,16.1,7.3,16.1,16.1v0.1c0,8.8-6.9,16.2-16.3,16.2
				C408.5,54.5,401.7,47.2,401.7,38.4z M429.3,38.4v-0.1c0-6.7-5-12.1-11.5-12.1c-6.7,0-11.3,5.5-11.3,12v0.1
				c0,6.7,4.9,12.1,11.5,12.1C424.7,50.3,429.3,44.9,429.3,38.4z"/>
			<path class="st1" d="M438.5,50.5c-0.4-0.3-0.8-0.9-0.8-1.7c0-1.1,0.9-2,2-2c0.4,0,0.8,0.1,1.1,0.4c3.2,2.2,6.5,3.3,9.8,3.3
				c3.7,0,6.4-1.9,6.4-4.9v-0.1c0-3.1-3.7-4.3-7.7-5.5c-4.9-1.4-10.3-3.1-10.3-8.8v-0.1c0-5.3,4.4-8.9,10.6-8.9c3.3,0,6.9,1,9.9,2.6
				c0.6,0.4,1.1,1,1.1,1.9c0,1.1-0.9,2-2,2c-0.4,0-0.8-0.1-1-0.2c-2.6-1.5-5.5-2.4-8.1-2.4c-3.7,0-6,1.9-6,4.5v0.1
				c0,2.9,3.8,4.1,8,5.3c4.8,1.4,10,3.3,10,8.9v0.1c0,5.9-4.9,9.3-11,9.3C446.3,54.4,441.8,52.9,438.5,50.5z"/>
			<path class="st1" d="M216.1,111.7c-0.5-0.4-0.9-1-0.9-1.8c0-1.3,1-2.3,2.3-2.3c0.6,0,1.1,0.2,1.4,0.5c4,3.4,7.9,5,13.3,5
				c5.6,0,9.4-3,9.4-7.1v-0.1c0-3.9-2.1-6.1-10.9-8c-9.7-2.1-14.1-5.2-14.1-12.1v-0.1c0-6.6,5.8-11.5,13.8-11.5
				c5.5,0,9.5,1.4,13.4,4.1c0.5,0.4,1,1,1,1.9c0,1.3-1,2.3-2.3,2.3c-0.5,0-1-0.1-1.4-0.4c-3.5-2.6-7-3.7-10.9-3.7
				c-5.5,0-8.9,3-8.9,6.8v0.1c0,4,2.2,6.2,11.4,8.2c9.4,2,13.7,5.5,13.7,11.9v0.1c0,7.2-6,11.9-14.3,11.9
				C225.9,117.4,220.8,115.4,216.1,111.7z"/>
			<path class="st1" d="M250.6,107.8v-0.1c0-6.5,5.4-10,13.3-10c4,0,6.8,0.5,9.5,1.3v-1.1c0-5.6-3.4-8.5-9.2-8.5
				c-3.1,0-5.8,0.7-8,1.7c-0.3,0.1-0.6,0.2-0.8,0.2c-1.1,0-2-0.9-2-2c0-1,0.7-1.7,1.3-1.9c3.1-1.3,6.2-2.1,10.1-2.1
				c4.4,0,7.7,1.1,10,3.4c2.1,2.1,3.2,5.1,3.2,9.1v17c0,1.3-1,2.3-2.2,2.3c-1.3,0-2.2-1-2.2-2.2v-2.8c-2.2,2.8-5.8,5.3-11.2,5.3
				C256.4,117.4,250.6,114.1,250.6,107.8z M273.5,105.4v-3c-2.3-0.7-5.3-1.3-9.1-1.3c-5.8,0-9.1,2.5-9.1,6.4v0.1
				c0,3.9,3.6,6.2,7.8,6.2C268.8,113.8,273.5,110.3,273.5,105.4z"/>
			<path class="st1" d="M285.8,75c0-1.3,1-2.3,2.3-2.3c1.3,0,2.3,1.1,2.3,2.3v39.7c0,1.3-1,2.3-2.3,2.3c-1.3,0-2.3-1-2.3-2.3V75z"/>
			<path class="st1" d="M325.5,114.7c0,1.3-1,2.3-2.3,2.3c-1.3,0-2.3-1-2.3-2.3v-3.4c-2.1,3.4-5.3,6.1-10.6,6.1
				c-7.5,0-11.9-5-11.9-12.4V87.8c0-1.3,1-2.3,2.3-2.3c1.3,0,2.3,1,2.3,2.3v16.1c0,5.8,3.1,9.4,8.6,9.4c5.3,0,9.3-3.9,9.3-9.7V87.8
				c0-1.3,1-2.3,2.3-2.3c1.3,0,2.3,1,2.3,2.3V114.7z"/>
			<path class="st1" d="M363.1,114.7c0,1.3-1,2.3-2.3,2.3c-1.3,0-2.3-1-2.3-2.3v-4.2c-2.5,3.7-6.2,6.9-11.9,6.9
				c-7.4,0-14.8-5.9-14.8-16.1v-0.1c0-10.1,7.4-16.1,14.8-16.1c5.8,0,9.5,3.1,11.9,6.6V75c0-1.3,1-2.3,2.3-2.3c1.3,0,2.3,1,2.3,2.3
				V114.7z M336.5,101.2v0.1c0,7.3,5.1,12,10.9,12c5.8,0,11.2-4.9,11.2-12v-0.1c0-7.1-5.5-11.9-11.2-11.9
				C341.4,89.2,336.5,93.7,336.5,101.2z"/>
			<path class="st1" d="M368.8,107.8v-0.1c0-6.5,5.4-10,13.3-10c4,0,6.8,0.5,9.5,1.3v-1.1c0-5.6-3.4-8.5-9.2-8.5
				c-3.1,0-5.8,0.7-8,1.7c-0.3,0.1-0.6,0.2-0.8,0.2c-1.1,0-2-0.9-2-2c0-1,0.7-1.7,1.3-1.9c3.1-1.3,6.2-2.1,10.1-2.1
				c4.4,0,7.7,1.1,10,3.4c2.1,2.1,3.2,5.1,3.2,9.1v17c0,1.3-1,2.3-2.2,2.3c-1.3,0-2.2-1-2.2-2.2v-2.8c-2.2,2.8-5.8,5.3-11.2,5.3
				C374.6,117.4,368.8,114.1,368.8,107.8z M391.7,105.4v-3c-2.3-0.7-5.3-1.3-9.1-1.3c-5.8,0-9.1,2.5-9.1,6.4v0.1
				c0,3.9,3.6,6.2,7.8,6.2C387,113.8,391.7,110.3,391.7,105.4z"/>
			<path class="st1" d="M403.6,75c0-1.3,1-2.3,2.3-2.3c1.3,0,2.3,1,2.3,2.3v17c2.5-3.7,6.2-6.9,11.9-6.9c7.4,0,14.8,5.9,14.8,16.1
				v0.1c0,10.1-7.3,16.1-14.8,16.1c-5.8,0-9.5-3.1-11.9-6.6v3.9c0,1.3-1,2.3-2.3,2.3c-1.3,0-2.3-1.1-2.3-2.3V75z M430.2,101.3v-0.1
				c0-7.3-5-12-10.9-12c-5.8,0-11.2,4.9-11.2,11.9v0.1c0,7.2,5.5,12,11.2,12C425.3,113.3,430.2,108.8,430.2,101.3z"/>
			<path class="st1" d="M441.6,75c0-1.3,1-2.3,2.3-2.3c1.3,0,2.3,1.1,2.3,2.3v39.7c0,1.3-1,2.3-2.3,2.3c-1.3,0-2.3-1-2.3-2.3V75z"/>
			<path class="st1" d="M468.2,117.5c-8.5,0-15.5-6.5-15.5-16.1v-0.1c0-8.9,6.3-16.1,14.9-16.1c9.2,0,14.4,7.5,14.4,15.7
				c0,1.3-1,2.2-2.2,2.2h-22.4c0.7,6.7,5.4,10.5,10.9,10.5c3.8,0,6.7-1.5,8.9-3.6c0.4-0.3,0.8-0.5,1.3-0.5c1.1,0,2,0.9,2,2
				c0,0.5-0.2,1.1-0.7,1.5C477,115.6,473.5,117.5,468.2,117.5z M477.4,99.5c-0.5-5.6-3.7-10.6-9.9-10.6c-5.4,0-9.5,4.5-10.1,10.6
				H477.4z"/>
			<path class="st1" d="M486.2,113.5c-0.4-0.3-0.8-0.9-0.8-1.7c0-1.1,0.9-2,2-2c0.4,0,0.8,0.1,1.1,0.4c3.2,2.2,6.5,3.3,9.8,3.3
				c3.7,0,6.4-1.9,6.4-4.9v-0.1c0-3.1-3.7-4.3-7.7-5.5c-4.9-1.4-10.3-3.1-10.3-8.8v-0.1c0-5.3,4.4-8.9,10.6-8.9c3.3,0,6.9,1,9.9,2.6
				c0.6,0.4,1.1,1,1.1,1.9c0,1.1-0.9,2-2,2c-0.4,0-0.8-0.1-1-0.2c-2.6-1.5-5.5-2.4-8.1-2.4c-3.7,0-6,1.9-6,4.5v0.1
				c0,2.9,3.8,4.1,8,5.3c4.8,1.4,10,3.3,10,8.9v0.1c0,5.9-4.9,9.3-11,9.3C494.1,117.4,489.6,115.9,486.2,113.5z"/>
		</g>
	</g>
</g>
</svg>
