<?xml version="1.0" encoding="utf-8"?>
<!-- Generator: Adobe Illustrator 22.0.0, SVG Export Plug-In . SVG Version: 6.00 Build 0)  -->
<svg version="1.1" id="Capa_1" xmlns="http://www.w3.org/2000/svg" xmlns:xlink="http://www.w3.org/1999/xlink" x="0px" y="0px"
	 viewBox="0 0 628 137" style="enable-background:new 0 0 628 137;" xml:space="preserve">
<style type="text/css">
	.st0{fill:#FFFFFF;}
	.st1{fill:#003E67;}
	.st2{fill:#0096DA;}
	.st3{fill:#6FCEEF;}
</style>
<path class="st0" d="M597.1,137h-565c-17.4,0-31.5-14.1-31.5-31.5v-74C0.6,14.1,14.7,0,32.1,0h565c17.4,0,31.5,14.1,31.5,31.5v74
	C628.6,122.9,614.5,137,597.1,137z"/>
<g>
	<path class="st1" d="M169.2,21.9c0-1.1,0.9-2.1,2-2.1h11.6c8.3,0,13.7,4.4,13.7,11.6v0.1c0,7.9-6.6,12-14.4,12h-8.9v11.1
		c0,1.1-0.9,2.1-2.1,2.1c-1.1,0-2-0.9-2-2.1V21.9z M182.4,39.7c6.1,0,10-3.2,10-8v-0.1c0-5.2-3.9-7.9-9.8-7.9h-9.2v16.1H182.4z"/>
	<path class="st1" d="M199.9,48.5v-0.1c0-5.7,4.7-8.7,11.5-8.7c3.4,0,5.9,0.5,8.3,1.1v-0.9c0-4.9-3-7.4-8-7.4c-2.7,0-5,0.6-7,1.5
		c-0.3,0.1-0.5,0.2-0.7,0.2c-0.9,0-1.8-0.8-1.8-1.7c0-0.8,0.6-1.5,1.1-1.7c2.7-1.1,5.4-1.8,8.8-1.8c3.8,0,6.7,1,8.7,3
		c1.8,1.8,2.8,4.4,2.8,7.9v14.8c0,1.1-0.8,2-1.9,2c-1.1,0-1.9-0.8-1.9-1.9v-2.5c-1.9,2.5-5,4.6-9.8,4.6
		C204.9,56.9,199.9,54.1,199.9,48.5z M219.8,46.4v-2.6c-2-0.6-4.6-1.1-7.9-1.1c-5.1,0-7.9,2.2-7.9,5.6v0.1c0,3.4,3.1,5.4,6.8,5.4
		C215.7,53.7,219.8,50.7,219.8,46.4z"/>
	<path class="st1" d="M231.1,31.1c0-1.1,0.9-2,2-2c1.2,0,2,0.9,2,2v5.1c2-4.5,5.9-7.2,9.3-7.2c1.2,0,2,0.9,2,2c0,1.1-0.7,1.9-1.8,2
		c-5.2,0.6-9.5,4.5-9.5,12.3v9.2c0,1.1-0.8,2-2,2s-2-0.9-2-2V31.1z"/>
	<path class="st1" d="M252.6,49.2V32.9h-2.2c-0.9,0-1.8-0.8-1.8-1.8c0-1,0.8-1.8,1.8-1.8h2.2V23c0-1.1,0.8-2,2-2c1.1,0,2,0.9,2,2
		v6.4h7c1,0,1.8,0.8,1.8,1.8c0,1-0.8,1.8-1.8,1.8h-7v15.8c0,3.3,1.8,4.5,4.5,4.5c1.4,0,2.1-0.4,2.5-0.4c0.9,0,1.7,0.8,1.7,1.7
		c0,0.7-0.5,1.3-1.2,1.6c-1.1,0.5-2.4,0.7-4,0.7C255.9,56.8,252.6,54.7,252.6,49.2z"/>
	<path class="st1" d="M271.3,20.9c0-1.3,1-2.1,2.3-2.1c1.4,0,2.4,0.8,2.4,2.1v0.7c0,1.3-1,2.1-2.4,2.1c-1.3,0-2.3-0.9-2.3-2.1V20.9z
		 M271.6,31.1c0-1.1,0.9-2,2-2c1.1,0,2,0.9,2,2v23.5c0,1.1-0.8,2-2,2c-1.2,0-2-0.9-2-2V31.1z"/>
	<path class="st1" d="M282.3,43v-0.1c0-7.6,6-14.1,13.8-14.1c4.5,0,7.5,1.7,9.9,3.9c0.3,0.3,0.6,0.8,0.6,1.4c0,1.1-0.9,1.9-1.9,1.9
		c-0.5,0-1-0.2-1.3-0.5c-1.9-1.8-4.1-3.2-7.4-3.2c-5.5,0-9.7,4.6-9.7,10.4v0.1c0,5.9,4.3,10.5,9.9,10.5c3.1,0,5.5-1.4,7.5-3.3
		c0.3-0.3,0.6-0.5,1.1-0.5c1,0,1.8,0.9,1.8,1.8c0,0.5-0.2,0.9-0.5,1.3c-2.6,2.6-5.6,4.3-10.2,4.3C288.2,57,282.3,50.6,282.3,43z"/>
	<path class="st1" d="M312.7,20.9c0-1.3,1-2.1,2.3-2.1c1.4,0,2.4,0.8,2.4,2.1v0.7c0,1.3-1,2.1-2.4,2.1c-1.3,0-2.3-0.9-2.3-2.1V20.9z
		 M313.1,31.1c0-1.1,0.9-2,2-2c1.1,0,2,0.9,2,2v23.5c0,1.1-0.8,2-2,2c-1.2,0-2-0.9-2-2V31.1z"/>
	<path class="st1" d="M325.4,31.1c0-1.1,0.9-2,2-2c1.2,0,2,0.9,2,2v3.7c2.2-3.2,5.4-6,10.3-6c6.5,0,12.9,5.1,12.9,14v0.1
		c0,8.8-6.4,14.1-12.9,14.1c-5,0-8.3-2.7-10.3-5.7v11.8c0,1.1-0.8,2-2,2s-2-0.9-2-2V31.1z M348.6,42.9v-0.1c0-6.4-4.4-10.4-9.5-10.4
		c-5,0-9.8,4.2-9.8,10.4v0.1c0,6.3,4.8,10.4,9.8,10.4C344.3,53.3,348.6,49.5,348.6,42.9z"/>
	<path class="st1" d="M357,48.5v-0.1c0-5.7,4.7-8.7,11.5-8.7c3.4,0,5.9,0.5,8.3,1.1v-0.9c0-4.9-3-7.4-8-7.4c-2.7,0-5,0.6-7,1.5
		c-0.3,0.1-0.5,0.2-0.7,0.2c-0.9,0-1.8-0.8-1.8-1.7c0-0.8,0.6-1.5,1.1-1.7c2.7-1.1,5.4-1.8,8.8-1.8c3.8,0,6.7,1,8.7,3
		c1.8,1.8,2.8,4.4,2.8,7.9v14.8c0,1.1-0.8,2-1.9,2c-1.1,0-1.9-0.8-1.9-1.9v-2.5c-1.9,2.5-5,4.6-9.8,4.6
		C362.1,56.9,357,54.1,357,48.5z M376.9,46.4v-2.6c-2-0.6-4.6-1.1-7.9-1.1c-5.1,0-7.9,2.2-7.9,5.6v0.1c0,3.4,3.1,5.4,6.8,5.4
		C372.9,53.7,376.9,50.7,376.9,46.4z"/>
	<path class="st1" d="M386.6,43v-0.1c0-7.6,6-14.1,13.8-14.1c4.5,0,7.5,1.7,9.9,3.9c0.3,0.3,0.6,0.8,0.6,1.4c0,1.1-0.9,1.9-1.9,1.9
		c-0.5,0-1-0.2-1.3-0.5c-1.9-1.8-4.1-3.2-7.4-3.2c-5.5,0-9.7,4.6-9.7,10.4v0.1c0,5.9,4.3,10.5,9.9,10.5c3.1,0,5.5-1.4,7.5-3.3
		c0.3-0.3,0.6-0.5,1.2-0.5c1,0,1.8,0.9,1.8,1.8c0,0.5-0.2,0.9-0.5,1.3c-2.6,2.6-5.6,4.3-10.2,4.3C392.6,57,386.6,50.6,386.6,43z"/>
	<path class="st1" d="M417.1,20.9c0-1.3,1-2.1,2.3-2.1c1.4,0,2.4,0.8,2.4,2.1v0.7c0,1.3-1,2.1-2.4,2.1c-1.3,0-2.3-0.9-2.3-2.1V20.9z
		 M417.4,31.1c0-1.1,0.9-2,2-2c1.2,0,2,0.9,2,2v23.5c0,1.1-0.8,2-2,2c-1.1,0-2-0.9-2-2V31.1z"/>
	<path class="st1" d="M428.1,43v-0.1c0-7.6,6-14.1,14.1-14.1c8.1,0,14.1,6.4,14.1,14v0.1c0,7.6-6,14.1-14.2,14.1
		C434,57,428.1,50.6,428.1,43z M452.1,43v-0.1c0-5.8-4.3-10.6-10-10.6c-5.8,0-9.9,4.8-9.9,10.4v0.1c0,5.8,4.3,10.5,10,10.5
		C448,53.4,452.1,48.7,452.1,43z M441,24.8c0-0.3,0.1-0.6,0.3-0.8l3.1-4.8c0.5-0.8,1.1-1.2,1.9-1.2c1.3,0,2.8,0.8,2.8,1.6
		c0,0.4-0.3,0.8-0.7,1.2l-3.9,3.7c-0.8,0.8-1.5,1-2.5,1C441.5,25.5,441,25.2,441,24.8z"/>
	<path class="st1" d="M462.5,31.1c0-1.1,0.9-2,2-2c1.2,0,2,0.9,2,2v2.9c1.8-2.9,4.6-5.3,9.2-5.3c6.5,0,10.3,4.4,10.3,10.8v15
		c0,1.1-0.9,2-2,2c-1.1,0-2-0.9-2-2v-14c0-5-2.7-8.1-7.5-8.1c-4.6,0-8.1,3.4-8.1,8.5v13.7c0,1.1-0.8,2-2,2s-2-0.9-2-2V31.1z"/>
	<path class="st1" d="M166.9,104v-0.1c0-7.6,6-14.1,13.8-14.1c4.5,0,7.5,1.7,9.9,3.9c0.3,0.3,0.6,0.8,0.6,1.4c0,1.1-0.9,1.9-1.9,1.9
		c-0.5,0-1-0.2-1.3-0.5c-1.9-1.8-4.1-3.2-7.4-3.2c-5.5,0-9.7,4.6-9.7,10.4v0.1c0,5.9,4.3,10.5,9.9,10.5c3.1,0,5.5-1.4,7.5-3.3
		c0.3-0.3,0.6-0.5,1.1-0.5c1,0,1.8,0.9,1.8,1.8c0,0.5-0.2,0.9-0.5,1.3c-2.6,2.6-5.6,4.3-10.2,4.3C172.9,118,166.9,111.6,166.9,104z"
		/>
	<path class="st1" d="M197.4,81.9c0-1.3,1-2.1,2.3-2.1c1.4,0,2.4,0.8,2.4,2.1v0.7c0,1.3-1,2.1-2.4,2.1c-1.3,0-2.3-0.9-2.3-2.1V81.9z
		 M197.7,92.1c0-1.1,0.9-2,2-2c1.1,0,2,0.9,2,2v23.5c0,1.1-0.8,2-2,2c-1.2,0-2-0.9-2-2V92.1z"/>
	<path class="st1" d="M233.2,115.6c0,1.1-0.8,2-2,2c-1.1,0-2-0.9-2-2v-2.9c-1.8,2.9-4.6,5.3-9.2,5.3c-6.5,0-10.3-4.4-10.3-10.8v-15
		c0-1.1,0.8-2,2-2c1.1,0,2,0.9,2,2v14c0,5,2.7,8.1,7.5,8.1c4.6,0,8.1-3.4,8.1-8.5V92.1c0-1.1,0.8-2,2-2c1.1,0,2,0.9,2,2V115.6z"/>
	<path class="st1" d="M266.9,115.6c0,1.1-0.9,2-2,2c-1.2,0-2-0.9-2-2v-3.7c-2.2,3.2-5.4,6-10.3,6c-6.5,0-12.9-5.1-12.9-14v-0.1
		c0-8.8,6.4-14.1,12.9-14.1c5,0,8.3,2.7,10.3,5.7V81c0-1.1,0.8-2,2-2c1.1,0,2,0.9,2,2V115.6z M243.7,103.8v0.1
		c0,6.4,4.4,10.4,9.5,10.4c5,0,9.8-4.2,9.8-10.4v-0.1c0-6.2-4.8-10.4-9.8-10.4C248,93.4,243.7,97.2,243.7,103.8z"/>
	<path class="st1" d="M272.8,109.5v-0.1c0-5.7,4.7-8.7,11.5-8.7c3.4,0,5.9,0.5,8.3,1.1v-0.9c0-4.9-3-7.4-8-7.4c-2.7,0-5,0.6-7,1.5
		c-0.3,0.1-0.5,0.2-0.7,0.2c-0.9,0-1.8-0.8-1.8-1.7c0-0.8,0.6-1.5,1.1-1.7c2.7-1.1,5.4-1.8,8.8-1.8c3.8,0,6.7,1,8.7,3
		c1.8,1.8,2.8,4.4,2.8,7.9v14.8c0,1.1-0.8,2-1.9,2c-1.2,0-1.9-0.8-1.9-1.9v-2.5c-1.9,2.5-5,4.6-9.8,4.6
		C277.8,117.9,272.8,115.1,272.8,109.5z M292.7,107.4v-2.6c-2-0.6-4.6-1.1-7.9-1.1c-5.1,0-7.9,2.2-7.9,5.6v0.1
		c0,3.4,3.1,5.4,6.8,5.4C288.6,114.7,292.7,111.7,292.7,107.4z"/>
	<path class="st1" d="M329.7,115.6c0,1.1-0.9,2-2,2c-1.2,0-2-0.9-2-2v-3.7c-2.2,3.2-5.4,6-10.3,6c-6.5,0-12.9-5.1-12.9-14v-0.1
		c0-8.8,6.4-14.1,12.9-14.1c5,0,8.3,2.7,10.3,5.7V81c0-1.1,0.8-2,2-2c1.1,0,2,0.9,2,2V115.6z M306.6,103.8v0.1
		c0,6.4,4.4,10.4,9.5,10.4c5,0,9.8-4.2,9.8-10.4v-0.1c0-6.2-4.8-10.4-9.8-10.4C310.9,93.4,306.6,97.2,306.6,103.8z"/>
	<path class="st1" d="M335.6,109.5v-0.1c0-5.7,4.7-8.7,11.5-8.7c3.4,0,5.9,0.5,8.3,1.1v-0.9c0-4.9-3-7.4-8-7.4c-2.7,0-5,0.6-7,1.5
		c-0.3,0.1-0.5,0.2-0.7,0.2c-0.9,0-1.8-0.8-1.8-1.7c0-0.8,0.6-1.5,1.1-1.7c2.7-1.1,5.4-1.8,8.8-1.8c3.8,0,6.7,1,8.7,3
		c1.8,1.8,2.8,4.4,2.8,7.9v14.8c0,1.1-0.8,2-1.9,2c-1.2,0-1.9-0.8-1.9-1.9v-2.5c-1.9,2.5-5,4.6-9.8,4.6
		C340.7,117.9,335.6,115.1,335.6,109.5z M355.5,107.4v-2.6c-2-0.6-4.6-1.1-7.9-1.1c-5.1,0-7.9,2.2-7.9,5.6v0.1
		c0,3.4,3.1,5.4,6.8,5.4C351.4,114.7,355.5,111.7,355.5,107.4z"/>
	<path class="st1" d="M366.9,92.1c0-1.1,0.9-2,2-2c1.1,0,2,0.9,2,2v2.9c1.8-2.9,4.6-5.3,9.2-5.3c6.5,0,10.3,4.4,10.3,10.8v15
		c0,1.1-0.9,2-2,2c-1.1,0-2-0.9-2-2v-14c0-5-2.7-8.1-7.5-8.1c-4.6,0-8.1,3.4-8.1,8.5v13.7c0,1.1-0.8,2-2,2c-1.2,0-2-0.9-2-2V92.1z"
		/>
	<path class="st1" d="M396,109.5v-0.1c0-5.7,4.7-8.7,11.5-8.7c3.4,0,5.9,0.5,8.3,1.1v-0.9c0-4.9-3-7.4-8-7.4c-2.7,0-5,0.6-7,1.5
		c-0.3,0.1-0.5,0.2-0.7,0.2c-0.9,0-1.8-0.8-1.8-1.7c0-0.8,0.6-1.5,1.1-1.7c2.7-1.1,5.4-1.8,8.8-1.8c3.8,0,6.7,1,8.7,3
		c1.8,1.8,2.8,4.4,2.8,7.9v14.8c0,1.1-0.8,2-1.9,2c-1.1,0-1.9-0.8-1.9-1.9v-2.5c-1.9,2.5-5,4.6-9.8,4.6
		C401,117.9,396,115.1,396,109.5z M415.9,107.4v-2.6c-2-0.6-4.6-1.1-7.9-1.1c-5.1,0-7.9,2.2-7.9,5.6v0.1c0,3.4,3.1,5.4,6.8,5.4
		C411.8,114.7,415.9,111.7,415.9,107.4z"/>
</g>
<g>
	<path class="st1" d="M111.6,90.6c-0.1,0-0.1,0-0.2,0l-14.1-2.2c-2.3-1.5-2.5-5.4-2.5-9.6c4.4-4.8,7.2-11.6,7.2-19.1v-0.6
		c3.5-3.2,5.4-7.8,5.4-12.7V35c0-9.4-7.2-17-16.1-17H67.8c-3.4,0-6.2,2.5-6.9,5.8c-6.2,0.8-11,6.4-11,13.1v9.5c0,4.9,2,9.5,5.4,12.7
		v0.6c0,7.5,2.8,14.3,7.2,19.1c0,4.2-0.2,8-2.5,9.6l-14.1,2.2c-0.1,0-0.1,0-0.2,0c-3.1,0.9-5.7,2.9-7.6,5.8c-1.7,2.7-2.7,5.9-2.7,9
		v7.4c0,3.1,2.6,5.6,5.8,5.6h74.9c3.2,0,5.8-2.5,5.8-5.6v-7.4c0-3.2-0.9-6.4-2.7-9C117.3,93.6,114.7,91.6,111.6,90.6L111.6,90.6z
		 M78.7,86.2c4.7,0,9.1-1.6,12.8-4.3c0.2,3.2,0.8,6.9,3.3,9c-1.4,7.3-8.1,12.6-16.1,12.6c-8,0-14.8-5.4-16.1-12.6
		c2.5-2.2,3.2-5.8,3.3-9C69.5,84.6,73.9,86.2,78.7,86.2L78.7,86.2z M58.7,58.4c0-0.1,0-0.2,0-0.3v-9.8c0-3.2,2.5-5.8,5.5-5.8h30.7
		c0.9,0,1.7-0.8,1.7-1.8c0-1-0.8-1.8-1.7-1.8H64.2c-4.9,0-8.9,4.2-8.9,9.4v5.4c-1.3-2.1-2-4.6-2-7.3v-9.5c0-5.3,4.1-9.6,9.1-9.6
		c0.9,0,1.7-0.8,1.7-1.8c0-2.2,1.7-3.9,3.7-3.9h23.5c7,0,12.8,6,12.8,13.4v11.4c0,2.6-0.7,5.1-2,7.3v-7.3c0-1-0.8-1.8-1.7-1.8
		c-0.9,0-1.7,0.8-1.7,1.8v13.3c0,12.6-9,22.9-20,22.9c-11,0-20-10.3-20-22.9V58.4z M118.5,112.9c0,1.1-1.1,2-2.4,2H41.2
		c-1.3,0-2.4-0.9-2.4-2v-7.4c0-4.5,2.7-9.9,7.7-11.4l12.8-2c1.9,8.6,9.9,15,19.3,15c9.4,0,17.4-6.3,19.3-15l12.8,2
		c5.1,1.6,7.7,6.9,7.7,11.4V112.9z M118.5,112.9"/>
	<path class="st1" d="M31.7,97.8h-6.4c-0.6,0-1-0.4-1-0.7v-4.8c0-2.7,1.6-5.8,4.5-6.8l9.2-1.5c0,0,0.1,0,0.1,0c0,0,0,0,0.1,0
		c0.1,0,0.1,0,0.2-0.1c0,0,0,0,0,0c0,0,0.1,0,0.1-0.1c0,0,0,0,0,0c0,0,0,0,0,0c0,0,0,0,0,0c2.1-1.2,2.8-3.5,3-5.6
		c2.2,1.4,4.8,2.2,7.6,2.2c2.3,0,4.5-0.6,6.6-1.6c0.8-0.4,1.2-1.5,0.8-2.4c-0.4-0.9-1.4-1.2-2.3-0.8c-1.6,0.8-3.3,1.3-5.1,1.3
		c-6.8,0-12.3-6.4-12.3-14.2v-7.6c0-1.7,1.3-3.1,3-3.1h4.4c0.9,0,1.7-0.8,1.7-1.8c0-1-0.8-1.8-1.7-1.8H40c-3.5,0-6.4,3-6.4,6.7v0.9
		c-0.1-0.6-0.2-1.3-0.2-1.9V48c0-3.1,2.4-5.6,5.3-5.6c0.9,0,1.7-0.8,1.7-1.8c0-1.1,0.8-1.9,1.8-1.9h2.1c0.9,0,1.7-0.8,1.7-1.8
		c0-1-0.8-1.8-1.7-1.8h-2.1c-2.3,0-4.3,1.6-5,3.8c-4.1,0.7-7.3,4.5-7.3,9v6.1c0,3.3,1.3,6.4,3.6,8.6v0c0,5,1.9,9.6,4.9,12.8
		c0,2.3-0.2,4.3-1.2,5.1l-9,1.4c-0.1,0-0.1,0-0.2,0c-4.7,1.4-7.1,6.2-7.1,10.2v4.8c0,2.3,2,4.2,4.4,4.2h6.4c0.9,0,1.7-0.8,1.7-1.8
		C33.4,98.6,32.7,97.8,31.7,97.8L31.7,97.8z M31.7,97.8"/>
	<path class="st1" d="M129.3,82.2c-0.1,0-0.1,0-0.2,0l-9-1.4c-1.1-0.8-1.2-2.9-1.2-5.1c3-3.2,4.9-7.8,4.9-12.8v0
		c2.3-2.2,3.6-5.3,3.6-8.6v-9.6c0-5.2-4-9.4-8.9-9.4H113c-0.9,0-1.7,0.8-1.7,1.8c0,1,0.8,1.8,1.7,1.8h5.4c3,0,5.5,2.6,5.5,5.8v9.6
		c0,0.7-0.1,1.3-0.2,1.9v-0.9c0-3.7-2.9-6.7-6.4-6.7H113c-0.9,0-1.7,0.8-1.7,1.8c0,1,0.8,1.8,1.7,1.8h4.4c1.6,0,3,1.4,3,3.1v7.6
		c0,7.8-5.5,14.2-12.3,14.2c-1.8,0-3.5-0.4-5.1-1.3c-0.8-0.4-1.9-0.1-2.3,0.8c-0.4,0.9-0.1,1.9,0.8,2.4c2.1,1.1,4.3,1.6,6.6,1.6
		c2.7,0,5.3-0.8,7.6-2.2c0.2,2.2,1,4.4,3,5.6c0,0,0,0,0,0c0,0,0,0,0,0c0,0,0,0,0,0c0,0,0.1,0,0.1,0.1c0,0,0,0,0,0
		c0.1,0,0.1,0,0.2,0.1c0,0,0,0,0.1,0c0,0,0.1,0,0.1,0l9.2,1.5c3,0.9,4.5,4.1,4.5,6.8v4.8c0,0.3-0.4,0.7-1,0.7h-6.4
		c-0.9,0-1.7,0.8-1.7,1.8c0,1,0.8,1.8,1.7,1.8h6.4c2.4,0,4.4-1.9,4.4-4.2v-4.8C136.4,88.3,133.9,83.5,129.3,82.2L129.3,82.2z
		 M129.3,82.2"/>
</g>
</svg>
