<?xml version="1.0" encoding="utf-8"?>
<!-- Generator: Adobe Illustrator 22.0.0, SVG Export Plug-In . SVG Version: 6.00 Build 0)  -->
<svg version="1.1" id="Capa_1" xmlns="http://www.w3.org/2000/svg" xmlns:xlink="http://www.w3.org/1999/xlink" x="0px" y="0px"
	 viewBox="0 0 628 137" style="enable-background:new 0 0 628 137;" xml:space="preserve">
<style type="text/css">
	.st0{fill:#FFFFFF;}
	.st1{fill:#003E67;}
	.st2{fill:#0096DA;}
	.st3{fill:#6FCEEF;}
</style>
<path class="st0" d="M597.1,137h-565c-17.4,0-31.5-14.1-31.5-31.5v-74C0.6,14.1,14.7,0,32.1,0h565c17.4,0,31.5,14.1,31.5,31.5v74
	C628.6,122.9,614.5,137,597.1,137z"/>
<g>
	<path class="st1" d="M155.3,22.3c0-1.1,0.9-2.1,2-2.1H169c8.3,0,13.7,4.4,13.7,11.6v0.1c0,7.9-6.6,12-14.4,12h-8.9v11.1
		c0,1.1-0.9,2.1-2.1,2.1c-1.1,0-2-0.9-2-2.1V22.3z M168.5,40.1c6.1,0,10-3.2,10-8V32c0-5.2-3.9-7.9-9.8-7.9h-9.2v16.1H168.5z"/>
	<path class="st1" d="M186.6,43.4v-0.1c0-7.6,6-14.1,14.1-14.1c8.1,0,14,6.4,14,14v0.1c0,7.6-6,14.1-14.2,14.1
		C192.5,57.4,186.6,51,186.6,43.4z M210.6,43.4v-0.1c0-5.8-4.3-10.6-10-10.6c-5.8,0-9.9,4.8-9.9,10.4v0.1c0,5.8,4.3,10.5,10,10.5
		C206.5,53.8,210.6,49.1,210.6,43.4z"/>
	<path class="st1" d="M221.3,20.4c0-1.1,0.9-2,2-2c1.1,0,2,0.9,2,2V55c0,1.1-0.8,2-2,2c-1.1,0-2-0.9-2-2V20.4z"/>
	<path class="st1" d="M234,31.5c0-1.1,0.9-2,2-2c1.1,0,2,0.9,2,2V55c0,1.1-0.8,2-2,2s-2-0.9-2-2V31.5z M235,25.2
		c0-0.3,0.1-0.6,0.3-0.8l3.1-4.8c0.5-0.8,1.1-1.2,1.9-1.2c1.3,0,2.8,0.8,2.8,1.6c0,0.4-0.3,0.8-0.7,1.2l-3.9,3.7
		c-0.8,0.8-1.5,1-2.5,1C235.4,25.9,235,25.6,235,25.2z"/>
	<path class="st1" d="M247.8,49.6V33.3h-2.2c-0.9,0-1.8-0.8-1.8-1.8c0-1,0.8-1.8,1.8-1.8h2.2v-6.4c0-1.1,0.8-2,2-2c1.1,0,2,0.9,2,2
		v6.4h7c1,0,1.8,0.8,1.8,1.8c0,1-0.8,1.8-1.8,1.8h-7v15.8c0,3.3,1.8,4.5,4.5,4.5c1.4,0,2.1-0.4,2.5-0.4c0.9,0,1.7,0.8,1.7,1.7
		c0,0.7-0.5,1.3-1.1,1.6c-1.1,0.5-2.4,0.7-4,0.7C251,57.2,247.8,55.1,247.8,49.6z"/>
	<path class="st1" d="M266.4,21.3c0-1.3,1-2.1,2.4-2.1c1.4,0,2.4,0.8,2.4,2.1V22c0,1.3-1,2.1-2.4,2.1c-1.3,0-2.4-0.9-2.4-2.1V21.3z
		 M266.8,31.5c0-1.1,0.9-2,2-2c1.1,0,2,0.9,2,2V55c0,1.1-0.8,2-2,2s-2-0.9-2-2V31.5z"/>
	<path class="st1" d="M277.4,43.4v-0.1c0-7.6,6-14.1,13.8-14.1c4.5,0,7.5,1.7,9.9,3.9c0.3,0.3,0.6,0.8,0.6,1.4
		c0,1.1-0.9,1.9-1.9,1.9c-0.5,0-1-0.2-1.3-0.5c-1.9-1.8-4.1-3.2-7.4-3.2c-5.5,0-9.7,4.6-9.7,10.4v0.1c0,5.9,4.3,10.5,9.9,10.5
		c3.1,0,5.5-1.4,7.5-3.3c0.3-0.3,0.6-0.5,1.1-0.5c1,0,1.8,0.9,1.8,1.8c0,0.5-0.2,0.9-0.5,1.3c-2.6,2.6-5.6,4.3-10.2,4.3
		C283.4,57.4,277.4,51,277.4,43.4z"/>
	<path class="st1" d="M305.8,48.9v-0.1c0-5.7,4.7-8.7,11.5-8.7c3.4,0,5.9,0.5,8.3,1.1v-0.9c0-4.9-3-7.4-8-7.4c-2.7,0-5,0.6-7,1.5
		c-0.3,0.1-0.5,0.2-0.7,0.2c-0.9,0-1.8-0.8-1.8-1.7c0-0.8,0.6-1.5,1.1-1.7c2.7-1.1,5.4-1.8,8.8-1.8c3.8,0,6.7,1,8.7,3
		c1.8,1.8,2.8,4.4,2.8,7.9V55c0,1.1-0.8,2-1.9,2c-1.1,0-1.9-0.8-1.9-1.9v-2.5c-1.9,2.5-5,4.6-9.8,4.6
		C310.9,57.3,305.8,54.5,305.8,48.9z M325.7,46.8v-2.6c-2-0.6-4.6-1.1-7.9-1.1c-5.1,0-7.9,2.2-7.9,5.6v0.1c0,3.4,3.1,5.4,6.8,5.4
		C321.7,54.2,325.7,51.1,325.7,46.8z"/>
	<path class="st1" d="M352.4,22.3c0-1.1,0.9-2.1,2-2.1h10.7c11.5,0,19.4,7.9,19.4,18.2v0.1c0,10.3-7.9,18.3-19.4,18.3h-10.7
		c-1.1,0-2-0.9-2-2.1V22.3z M365.1,53c9.2,0,15.1-6.3,15.1-14.4v-0.1c0-8.1-5.9-14.5-15.1-14.5h-8.6V53H365.1z"/>
	<path class="st1" d="M391.5,21.3c0-1.3,1-2.1,2.4-2.1c1.4,0,2.4,0.8,2.4,2.1V22c0,1.3-1,2.1-2.4,2.1c-1.3,0-2.4-0.9-2.4-2.1V21.3z
		 M391.9,31.5c0-1.1,0.9-2,2-2c1.1,0,2,0.9,2,2V55c0,1.1-0.8,2-2,2c-1.1,0-2-0.9-2-2V31.5z"/>
	<path class="st1" d="M402.7,53.9c-0.4-0.3-0.7-0.8-0.7-1.5c0-0.9,0.8-1.7,1.8-1.7c0.4,0,0.7,0.1,1,0.3c2.8,1.9,5.6,2.9,8.6,2.9
		c3.2,0,5.6-1.7,5.6-4.3v-0.1c0-2.7-3.2-3.8-6.7-4.8c-4.2-1.2-8.9-2.7-8.9-7.6V37c0-4.6,3.9-7.7,9.2-7.7c2.9,0,6,0.9,8.6,2.3
		c0.5,0.3,1,0.9,1,1.7c0,0.9-0.8,1.7-1.8,1.7c-0.4,0-0.7-0.1-0.9-0.2c-2.3-1.3-4.8-2.1-7.1-2.1c-3.2,0-5.2,1.7-5.2,3.9v0.1
		c0,2.6,3.3,3.6,6.9,4.6c4.2,1.3,8.7,2.9,8.7,7.7v0.1c0,5.1-4.2,8.1-9.6,8.1C409.6,57.3,405.7,56,402.7,53.9z"/>
	<path class="st1" d="M430.1,49.6V33.3h-2.2c-0.9,0-1.8-0.8-1.8-1.8c0-1,0.8-1.8,1.8-1.8h2.2v-6.4c0-1.1,0.8-2,2-2c1.1,0,2,0.9,2,2
		v6.4h7c1,0,1.8,0.8,1.8,1.8c0,1-0.8,1.8-1.8,1.8h-7v15.8c0,3.3,1.8,4.5,4.5,4.5c1.4,0,2.1-0.4,2.5-0.4c0.9,0,1.7,0.8,1.7,1.7
		c0,0.7-0.5,1.3-1.1,1.6c-1.2,0.5-2.4,0.7-4,0.7C433.4,57.2,430.1,55.1,430.1,49.6z"/>
	<path class="st1" d="M448.7,31.5c0-1.1,0.9-2,2-2c1.1,0,2,0.9,2,2v5.1c2-4.5,5.9-7.2,9.3-7.2c1.2,0,2,0.9,2,2c0,1.1-0.7,1.9-1.8,2
		c-5.2,0.6-9.5,4.5-9.5,12.3V55c0,1.1-0.8,2-2,2s-2-0.9-2-2V31.5z"/>
	<path class="st1" d="M468.8,21.3c0-1.3,1-2.1,2.3-2.1c1.4,0,2.4,0.8,2.4,2.1V22c0,1.3-1,2.1-2.4,2.1c-1.3,0-2.3-0.9-2.3-2.1V21.3z
		 M469.2,31.5c0-1.1,0.9-2,2-2c1.1,0,2,0.9,2,2V55c0,1.1-0.8,2-2,2s-2-0.9-2-2V31.5z"/>
	<path class="st1" d="M482.9,49.6V33.3h-2.2c-0.9,0-1.8-0.8-1.8-1.8c0-1,0.8-1.8,1.8-1.8h2.2v-6.4c0-1.1,0.8-2,2-2c1.1,0,2,0.9,2,2
		v6.4h7c1,0,1.8,0.8,1.8,1.8c0,1-0.8,1.8-1.8,1.8h-7v15.8c0,3.3,1.8,4.5,4.5,4.5c1.4,0,2.1-0.4,2.5-0.4c0.9,0,1.7,0.8,1.7,1.7
		c0,0.7-0.5,1.3-1.1,1.6c-1.2,0.5-2.4,0.7-4,0.7C486.2,57.2,482.9,55.1,482.9,49.6z"/>
	<path class="st1" d="M499.5,48.9v-0.1c0-5.7,4.7-8.7,11.5-8.7c3.4,0,5.9,0.5,8.3,1.1v-0.9c0-4.9-3-7.4-8-7.4c-2.7,0-5,0.6-7,1.5
		c-0.3,0.1-0.5,0.2-0.7,0.2c-0.9,0-1.8-0.8-1.8-1.7c0-0.8,0.6-1.5,1.1-1.7c2.7-1.1,5.4-1.8,8.8-1.8c3.8,0,6.7,1,8.7,3
		c1.8,1.8,2.8,4.4,2.8,7.9V55c0,1.1-0.8,2-1.9,2c-1.1,0-1.9-0.8-1.9-1.9v-2.5c-1.9,2.5-5,4.6-9.8,4.6
		C504.6,57.3,499.5,54.5,499.5,48.9z M519.4,46.8v-2.6c-2-0.6-4.6-1.1-7.9-1.1c-5.1,0-7.9,2.2-7.9,5.6v0.1c0,3.4,3.1,5.4,6.8,5.4
		C515.4,54.2,519.4,51.1,519.4,46.8z"/>
	<path class="st1" d="M531.1,20.4c0-1.1,0.9-2,2-2c1.1,0,2,0.9,2,2V55c0,1.1-0.8,2-2,2s-2-0.9-2-2V20.4z"/>
	<path class="st1" d="M583.8,55c0,1.1-0.9,2-2,2c-1.1,0-2-0.9-2-2v-3.7c-2.2,3.2-5.4,6-10.3,6c-6.5,0-12.9-5.1-12.9-14v-0.1
		c0-8.8,6.4-14,12.9-14c5,0,8.3,2.7,10.3,5.7V20.4c0-1.1,0.8-2,2-2c1.1,0,2,0.9,2,2V55z M560.6,43.2v0.1c0,6.4,4.4,10.4,9.5,10.4
		c5,0,9.8-4.2,9.8-10.4v-0.1c0-6.2-4.8-10.4-9.8-10.4C564.9,32.8,560.6,36.7,560.6,43.2z"/>
	<path class="st1" d="M603.5,57.4c-7.4,0-13.5-5.7-13.5-14.1v-0.1c0-7.8,5.5-14,13-14c8,0,12.5,6.5,12.5,13.7c0,1.1-0.9,1.9-1.9,1.9
		h-19.5c0.6,5.9,4.7,9.1,9.5,9.1c3.3,0,5.8-1.3,7.8-3.1c0.3-0.3,0.7-0.5,1.1-0.5c1,0,1.8,0.8,1.8,1.7c0,0.5-0.2,0.9-0.6,1.3
		C611.2,55.8,608.1,57.4,603.5,57.4z M611.5,41.8c-0.4-4.9-3.2-9.2-8.6-9.2c-4.7,0-8.3,3.9-8.8,9.2H611.5z"/>
	<path class="st1" d="M154,115.1c-0.5-0.3-0.8-0.9-0.8-1.6c0-1.1,0.9-2,2-2c0.5,0,1,0.2,1.3,0.5c3.4,2.9,6.9,4.3,11.5,4.3
		c4.9,0,8.1-2.6,8.1-6.2v-0.1c0-3.4-1.8-5.3-9.5-6.9c-8.4-1.8-12.3-4.5-12.3-10.6v-0.1c0-5.7,5.1-10,12-10c4.8,0,8.3,1.2,11.6,3.6
		c0.4,0.3,0.9,0.9,0.9,1.7c0,1.1-0.9,2-2,2c-0.5,0-0.8-0.1-1.2-0.4c-3.1-2.2-6.1-3.2-9.5-3.2c-4.8,0-7.8,2.6-7.8,5.9v0.1
		c0,3.4,1.9,5.4,9.9,7.1c8.1,1.8,11.9,4.8,11.9,10.3v0.1c0,6.3-5.2,10.3-12.5,10.3C162.6,120,158.1,118.3,154,115.1z"/>
	<path class="st1" d="M185,111.6v-0.1c0-5.7,4.7-8.7,11.5-8.7c3.4,0,5.9,0.5,8.3,1.1V103c0-4.9-3-7.4-8-7.4c-2.7,0-5,0.6-7,1.5
		c-0.3,0.1-0.5,0.2-0.7,0.2c-0.9,0-1.8-0.8-1.8-1.7c0-0.8,0.6-1.5,1.1-1.7c2.7-1.1,5.4-1.8,8.8-1.8c3.8,0,6.7,1,8.7,3
		c1.8,1.8,2.8,4.4,2.8,7.9v14.8c0,1.1-0.8,2-1.9,2c-1.1,0-1.9-0.8-1.9-1.9v-2.5c-1.9,2.5-5,4.6-9.8,4.6
		C190.1,120,185,117.2,185,111.6z M204.9,109.5v-2.6c-2-0.6-4.6-1.1-7.9-1.1c-5.1,0-7.9,2.2-7.9,5.6v0.1c0,3.4,3.1,5.4,6.8,5.4
		C200.8,116.8,204.9,113.8,204.9,109.5z"/>
	<path class="st1" d="M216.6,83.1c0-1.1,0.9-2,2-2c1.1,0,2,0.9,2,2v34.6c0,1.1-0.8,2-2,2c-1.1,0-2-0.9-2-2V83.1z"/>
	<path class="st1" d="M252.1,117.7c0,1.1-0.8,2-2,2c-1.1,0-2-0.9-2-2v-2.9c-1.8,2.9-4.6,5.3-9.2,5.3c-6.5,0-10.3-4.4-10.3-10.8v-15
		c0-1.1,0.8-2,2-2c1.1,0,2,0.9,2,2v14c0,5,2.7,8.1,7.5,8.1c4.6,0,8.1-3.4,8.1-8.5V94.2c0-1.1,0.8-2,2-2c1.1,0,2,0.9,2,2V117.7z"/>
	<path class="st1" d="M285.8,117.7c0,1.1-0.9,2-2,2c-1.1,0-2-0.9-2-2V114c-2.2,3.2-5.4,6-10.3,6c-6.5,0-12.9-5.1-12.9-14v-0.1
		c0-8.8,6.4-14,12.9-14c5,0,8.3,2.7,10.3,5.7V83.1c0-1.1,0.8-2,2-2s2,0.9,2,2V117.7z M262.6,105.9v0.1c0,6.4,4.4,10.4,9.5,10.4
		c5,0,9.8-4.2,9.8-10.4v-0.1c0-6.2-4.8-10.4-9.8-10.4C266.9,95.5,262.6,99.3,262.6,105.9z"/>
	<path class="st1" d="M306.8,116.7l14.8-32.4c0.5-1.1,1.3-1.8,2.6-1.8h0.2c1.3,0,2.1,0.7,2.6,1.8l14.8,32.4c0.2,0.4,0.3,0.7,0.3,1
		c0,1.1-0.9,2-2,2c-1,0-1.7-0.7-2-1.5l-3.8-8.4h-20.1l-3.8,8.5c-0.4,0.9-1,1.4-2,1.4c-1,0-1.9-0.8-1.9-1.9
		C306.5,117.5,306.6,117.2,306.8,116.7z M332.6,106l-8.4-18.7l-8.4,18.7H332.6z"/>
	<path class="st1" d="M348.3,94.2c0-1.1,0.9-2,2-2c1.1,0,2,0.9,2,2V97c1.8-2.7,4.2-5.1,8.7-5.1c4.4,0,7.2,2.4,8.7,5.4
		c1.9-3,4.8-5.4,9.5-5.4c6.2,0,10,4.2,10,10.9v14.9c0,1.1-0.9,2-2,2c-1.1,0-2-0.9-2-2v-14c0-5.2-2.6-8.1-7-8.1c-4.1,0-7.4,3-7.4,8.4
		v13.8c0,1.1-0.9,2-2,2c-1.1,0-2-0.9-2-2v-14.1c0-5.1-2.7-8-6.9-8c-4.3,0-7.5,3.6-7.5,8.5v13.6c0,1.1-0.8,2-2,2c-1.1,0-2-0.9-2-2
		V94.2z"/>
	<path class="st1" d="M396.9,83.1c0-1.1,0.9-2,2-2c1.1,0,2,0.9,2,2v14.8c2.2-3.2,5.4-6,10.3-6c6.5,0,12.9,5.1,12.9,14v0.1
		c0,8.8-6.4,14.1-12.9,14.1c-5,0-8.3-2.7-10.3-5.7v3.4c0,1.1-0.8,2-2,2c-1.1,0-2-0.9-2-2V83.1z M420,106v-0.1
		c0-6.4-4.4-10.4-9.5-10.4c-5,0-9.8,4.2-9.8,10.4v0.1c0,6.3,4.8,10.4,9.8,10.4C415.7,116.4,420,112.6,420,106z"/>
	<path class="st1" d="M430.5,84c0-1.3,1-2.1,2.4-2.1c1.4,0,2.4,0.8,2.4,2.1v0.7c0,1.3-1,2.1-2.4,2.1c-1.3,0-2.4-0.9-2.4-2.1V84z
		 M430.9,94.2c0-1.1,0.9-2,2-2c1.1,0,2,0.9,2,2v23.5c0,1.1-0.8,2-2,2s-2-0.9-2-2V94.2z"/>
	<path class="st1" d="M455,120.1c-7.4,0-13.5-5.7-13.5-14.1v-0.1c0-7.8,5.5-14,13-14c8,0,12.5,6.5,12.5,13.7c0,1.1-0.9,1.9-1.9,1.9
		h-19.5c0.6,5.9,4.7,9.1,9.5,9.1c3.3,0,5.8-1.3,7.8-3.1c0.3-0.3,0.7-0.5,1.1-0.5c1,0,1.8,0.8,1.8,1.7c0,0.5-0.2,0.9-0.6,1.3
		C462.7,118.5,459.6,120.1,455,120.1z M463,104.5c-0.4-4.9-3.2-9.2-8.6-9.2c-4.7,0-8.3,3.9-8.8,9.2H463z"/>
	<path class="st1" d="M473.1,94.2c0-1.1,0.9-2,2-2c1.1,0,2,0.9,2,2v2.9c1.8-2.9,4.6-5.3,9.2-5.3c6.5,0,10.3,4.4,10.3,10.8v15
		c0,1.1-0.9,2-2,2c-1.1,0-2-0.9-2-2v-14c0-5-2.7-8.1-7.5-8.1c-4.6,0-8.1,3.4-8.1,8.5v13.7c0,1.1-0.8,2-2,2s-2-0.9-2-2V94.2z"/>
	<path class="st1" d="M505.6,112.3V96h-2.2c-0.9,0-1.8-0.8-1.8-1.8c0-1,0.8-1.8,1.8-1.8h2.2v-6.4c0-1.1,0.8-2,2-2c1.1,0,2,0.9,2,2
		v6.4h7c1,0,1.8,0.8,1.8,1.8c0,1-0.8,1.8-1.8,1.8h-7v15.8c0,3.3,1.8,4.5,4.5,4.5c1.4,0,2.1-0.4,2.5-0.4c0.9,0,1.7,0.8,1.7,1.7
		c0,0.7-0.5,1.3-1.1,1.6c-1.1,0.5-2.4,0.7-4,0.7C508.9,119.9,505.6,117.8,505.6,112.3z"/>
	<path class="st1" d="M522.3,111.6v-0.1c0-5.7,4.7-8.7,11.5-8.7c3.4,0,5.9,0.5,8.3,1.1V103c0-4.9-3-7.4-8-7.4c-2.7,0-5,0.6-7,1.5
		c-0.3,0.1-0.5,0.2-0.7,0.2c-0.9,0-1.8-0.8-1.8-1.7c0-0.8,0.6-1.5,1.1-1.7c2.7-1.1,5.4-1.8,8.8-1.8c3.8,0,6.7,1,8.7,3
		c1.8,1.8,2.8,4.4,2.8,7.9v14.8c0,1.1-0.8,2-1.9,2c-1.1,0-1.9-0.8-1.9-1.9v-2.5c-1.9,2.5-5,4.6-9.8,4.6
		C527.3,120,522.3,117.2,522.3,111.6z M542.2,109.5v-2.6c-2-0.6-4.6-1.1-7.9-1.1c-5.1,0-7.9,2.2-7.9,5.6v0.1c0,3.4,3.1,5.4,6.8,5.4
		C538.1,116.8,542.2,113.8,542.2,109.5z"/>
	<path class="st1" d="M553.9,83.1c0-1.1,0.9-2,2-2c1.1,0,2,0.9,2,2v34.6c0,1.1-0.8,2-2,2s-2-0.9-2-2V83.1z"/>
</g>
<g>
	<path class="st1" d="M134.1,61.3c0.3-1.3,0.4-2.7,0.4-4.1c-0.1-9.9-3.1-19.5-8.7-27.7l-11.9-17.4l-5.7,8.8
		c-9.2-5.8-19.8-8.9-30.8-8.7c-3.8,0-7.5,0.5-11.2,1.2c-1.6-0.7-3.4-1.1-5.2-1.1c-6.5,0.1-11.8,5-12.5,11.3c-1,0.2-2,0.6-2.8,1.1
		c-1.4-0.8-3-1.2-4.6-1.2c-3.7,0-6.9,2.3-8.3,5.7c-3.5,0.6-6.2,3.6-6.1,7.3c0,1.9,0.8,3.6,2,4.9c-4.7,8.5-7.2,18.2-7.1,28
		c0.1,9.8,2.8,19.3,7.6,27.7l0,3.2c0,2,1.7,3.6,3.7,3.6l0.1,7.3l-3.7,0l0,3.7l15.9-0.2c9.8,7,21.4,10.7,33.6,10.6
		c31.2-0.4,56.3-26,55.9-57.2C134.5,65.9,134.4,63.6,134.1,61.3z M60.9,16.1c5-0.1,9.2,4,9.2,9c0,3.9-2.3,7.3-5.8,8.6
		c-0.9-2.5-3.1-4.4-5.9-4.7c-1.2-2.7-3.6-4.6-6.4-5.2C52.8,19.4,56.4,16.1,60.9,16.1z M33.6,32.8l1.8,0.1l0.3-1.4
		c0.6-2.4,2.7-4.2,5.2-4.2c1.2,0,2.4,0.4,3.4,1.2l1.2,0.9l1.1-0.9c1-0.8,2.2-1.3,3.4-1.3c2.5,0,4.7,1.6,5.3,4.1l0.4,1.4l1.5-0.1
		c0.1,0,0.2,0,0.2,0c2,0,3.7,1.6,3.7,3.6c0,2-1.6,3.7-3.6,3.7l-23.7,0.3c-2,0-3.7-1.6-3.7-3.6C30.1,34.5,31.7,32.9,33.6,32.8z
		 M32.3,99.9v-3.7h62.1v3.7H32.3z M36,92.6v-5.5c0-1,0.8-1.8,1.8-1.8s1.8,0.8,1.8,1.8v5.5H36z M39.6,74.3v-1.8c0-1,0.8-1.8,1.8-1.8
		h43.8c1,0,1.8,0.8,1.8,1.8v1.8H74.3V78h12.8v3.7H39.6V78h31v-3.7H39.6z M88.9,85.3c1,0,1.8,0.8,1.8,1.8v5.5h-3.7v-5.5
		C87.1,86.1,87.9,85.3,88.9,85.3z M43,85.3h40.8c-0.2,0.6-0.3,1.2-0.3,1.8v5.5H43.3v-5.5C43.3,86.4,43.2,85.8,43,85.3z M91.2,110.7
		l-3.7,0l-0.1-7.3l3.6,0L91.2,110.7z M39.6,110.8H36v-7.3h3.6V110.8z M43.8,111.2l-0.1-7.3l40.2-0.5l0.1,7.3L43.8,111.2z
		 M105.9,113.8l0-3.3l-3.7,0l0,3.7l3.1,0c-7.8,4.7-16.9,7.5-26.7,7.6c-9.5,0.1-18.7-2.3-26.9-7l46.9-0.5l0-3.7l-3.6,0l-0.1-7.3
		c2,0,3.6-1.7,3.6-3.7l0-3.7c0-2-1.7-3.6-3.7-3.6l-0.1-5.5c0-2.4-1.6-4.4-3.7-5.1l-0.1-9.5c0-3-2.5-5.4-5.5-5.4l-43.8,0.5
		c-3,0-5.4,2.5-5.4,5.5l0.1,9.5c-2.1,0.8-3.6,2.8-3.6,5.2l0.1,5.5c-0.5,0-1,0.1-1.5,0.4c-3.9-7.4-6-15.6-6.1-24
		c-0.1-9.1,2.2-18.1,6.5-26c0.7,0.2,1.5,0.4,2.3,0.4l23.7-0.3c3.6,0,6.5-2.7,7.1-6.1c5.4-1.6,9.2-6.6,9.1-12.4
		c0-3.3-1.4-6.4-3.5-8.6c2.3-0.3,4.7-0.5,7-0.6c10.3-0.1,20.2,2.7,28.8,8.1l-3.8,5.8c-5.4,8.3-8.2,17.9-8.1,27.9
		c0.1,10.5,8.3,19,18.5,19.8l0.4,30.9C110.9,110.4,108.5,112.2,105.9,113.8z M116.3,105.3V77.9c6-0.5,11.3-3.8,14.6-8.5
		C130.8,83.3,125.2,95.9,116.3,105.3z M116.3,74.2v-8.7l0.3-0.9c2-6.1,5.6-11.8,10.1-16.4l-2.6-2.6c-3.1,3.1-5.7,6.7-7.8,10.5V32.3
		h-3.7v19.8c-2.2-3.3-4.9-6.1-8-8.5l-2.2,2.9c4.5,3.4,8,7.9,10.1,13.2l0.1,0.3v14.1c-8.2-0.9-14.6-7.9-14.6-16.3
		c0-9.2,2.7-18.1,7.8-25.7l8.6-13l8.6,13c5.1,7.6,7.8,16.5,7.8,25.7C130.9,66.3,124.5,73.3,116.3,74.2z"/>
	<path class="st1" d="M83.5,46.9c-4,0-7.3,3.3-7.3,7.3h3.7c0-2,1.6-3.7,3.7-3.7c2,0,3.7,1.6,3.7,3.7c0,2-1.6,3.7-3.7,3.7H57.9v3.7
		h25.6c4,0,7.3-3.3,7.3-7.3C90.8,50.2,87.5,46.9,83.5,46.9L83.5,46.9z M83.5,46.9"/>
	<rect x="43.3" y="48.7" class="st1" width="21.9" height="3.7"/>
</g>
</svg>
