<?xml version="1.0" encoding="utf-8"?>
<!-- Generator: Adobe Illustrator 22.0.0, SVG Export Plug-In . SVG Version: 6.00 Build 0)  -->
<svg version="1.1" id="Capa_1" xmlns="http://www.w3.org/2000/svg" xmlns:xlink="http://www.w3.org/1999/xlink" x="0px" y="0px"
	 viewBox="0 0 628 137" style="enable-background:new 0 0 628 137;" xml:space="preserve">
<style type="text/css">
	.st0{fill:#FFFFFF;}
	.st1{fill:#003E67;}
	.st2{fill:#0096DA;}
	.st3{fill:#6FCEEF;}
</style>
<path class="st0" d="M597.1,137h-565c-17.4,0-31.5-14.1-31.5-31.5v-74C0.6,14.1,14.7,0,32.1,0h565c17.4,0,31.5,14.1,31.5,31.5v74
	C628.6,122.9,614.5,137,597.1,137z"/>
<g>
	<path class="st1" d="M162.5,54.5L148.4,22c-0.2-0.3-0.2-0.6-0.2-0.9c0-1,0.9-2,2.1-2c1,0,1.8,0.7,2.1,1.6l12.6,30.3l12.7-30.4
		c0.4-0.7,1.1-1.5,2-1.5c1.1,0,2,0.9,2,2c0,0.3-0.1,0.6-0.2,0.8l-14.2,32.7c-0.5,1-1.2,1.7-2.4,1.7h-0.2
		C163.7,56.3,163,55.6,162.5,54.5z"/>
	<path class="st1" d="M186.9,20.4c0-1.3,1-2.1,2.3-2.1c1.4,0,2.4,0.8,2.4,2.1v0.7c0,1.3-1,2.1-2.4,2.1c-1.3,0-2.3-0.9-2.3-2.1V20.4z
		 M187.2,30.6c0-1.1,0.9-2,2-2c1.2,0,2,0.9,2,2v23.5c0,1.1-0.8,2-2,2c-1.1,0-2-0.9-2-2V30.6z"/>
	<path class="st1" d="M200.3,61.1c-0.6-0.3-1-0.9-1-1.7c0-0.9,0.9-1.8,1.8-1.8c0.4,0,0.6,0.1,0.9,0.3c2.8,1.9,6.1,2.9,9.6,2.9
		c6,0,9.8-3.3,9.8-9.6v-3.2c-2.3,3.1-5.6,5.7-10.6,5.7c-6.5,0-12.7-4.9-12.7-12.6V41c0-7.9,6.3-12.7,12.7-12.7
		c5.1,0,8.4,2.5,10.6,5.4v-3.1c0-1.1,0.8-2,2-2c1.1,0,2,0.9,2,2v20.5c0,4.2-1.3,7.4-3.4,9.6c-2.4,2.4-6,3.6-10.3,3.6
		C207.4,64.3,203.6,63.2,200.3,61.1z M221.4,41.1V41c0-5.5-4.8-9.1-9.9-9.1s-9.3,3.6-9.3,9.1V41c0,5.4,4.3,9.2,9.3,9.2
		C216.6,50.2,221.4,46.5,221.4,41.1z"/>
	<path class="st1" d="M233.2,20.4c0-1.3,1-2.1,2.3-2.1c1.4,0,2.4,0.8,2.4,2.1v0.7c0,1.3-1,2.1-2.4,2.1c-1.3,0-2.3-0.9-2.3-2.1V20.4z
		 M233.6,30.6c0-1.1,0.9-2,2-2c1.1,0,2,0.9,2,2v23.5c0,1.1-0.8,2-2,2c-1.2,0-2-0.9-2-2V30.6z"/>
	<path class="st1" d="M246.3,19.5c0-1.1,0.9-2,2-2c1.2,0,2,0.9,2,2v34.6c0,1.1-0.8,2-2,2c-1.1,0-2-0.9-2-2V19.5z"/>
	<path class="st1" d="M256.6,48v-0.1c0-5.7,4.7-8.7,11.5-8.7c3.4,0,5.9,0.5,8.3,1.1v-0.9c0-4.9-3-7.4-8-7.4c-2.7,0-5,0.6-7,1.5
		c-0.3,0.1-0.5,0.2-0.7,0.2c-0.9,0-1.8-0.8-1.8-1.7c0-0.8,0.6-1.5,1.1-1.7c2.7-1.1,5.4-1.8,8.8-1.8c3.8,0,6.7,1,8.7,3
		c1.8,1.8,2.8,4.4,2.8,7.9v14.8c0,1.1-0.8,2-1.9,2c-1.1,0-1.9-0.8-1.9-1.9v-2.5c-1.9,2.5-5,4.6-9.8,4.6
		C261.6,56.4,256.6,53.6,256.6,48z M276.5,45.9v-2.6c-2-0.6-4.6-1.1-7.9-1.1c-5.1,0-7.9,2.2-7.9,5.6v0.1c0,3.4,3.1,5.4,6.8,5.4
		C272.4,53.2,276.5,50.2,276.5,45.9z"/>
	<path class="st1" d="M287.8,30.6c0-1.1,0.9-2,2-2c1.2,0,2,0.9,2,2v2.9c1.8-2.9,4.6-5.3,9.2-5.3c6.5,0,10.3,4.4,10.3,10.8v15
		c0,1.1-0.9,2-2,2c-1.1,0-2-0.9-2-2v-14c0-5-2.7-8.1-7.5-8.1c-4.6,0-8.1,3.4-8.1,8.5v13.7c0,1.1-0.8,2-2,2s-2-0.9-2-2V30.6z"/>
	<path class="st1" d="M317.3,42.5v-0.1c0-7.6,6-14.1,13.8-14.1c4.5,0,7.5,1.7,9.9,3.9c0.3,0.3,0.6,0.8,0.6,1.4
		c0,1.1-0.9,1.9-1.9,1.9c-0.5,0-1-0.2-1.3-0.5c-1.9-1.8-4.1-3.2-7.4-3.2c-5.5,0-9.7,4.6-9.7,10.4v0.1c0,5.9,4.3,10.5,9.9,10.5
		c3.1,0,5.5-1.4,7.5-3.3c0.3-0.3,0.6-0.5,1.1-0.5c1,0,1.8,0.9,1.8,1.8c0,0.5-0.2,0.9-0.5,1.3c-2.6,2.6-5.6,4.3-10.2,4.3
		C323.2,56.5,317.3,50.1,317.3,42.5z"/>
	<path class="st1" d="M347.7,20.4c0-1.3,1-2.1,2.3-2.1c1.4,0,2.4,0.8,2.4,2.1v0.7c0,1.3-1,2.1-2.4,2.1c-1.3,0-2.3-0.9-2.3-2.1V20.4z
		 M348.1,30.6c0-1.1,0.9-2,2-2c1.1,0,2,0.9,2,2v23.5c0,1.1-0.8,2-2,2c-1.2,0-2-0.9-2-2V30.6z"/>
	<path class="st1" d="M358.4,48v-0.1c0-5.7,4.7-8.7,11.5-8.7c3.4,0,5.9,0.5,8.3,1.1v-0.9c0-4.9-3-7.4-8-7.4c-2.7,0-5,0.6-7,1.5
		c-0.3,0.1-0.5,0.2-0.7,0.2c-0.9,0-1.8-0.8-1.8-1.7c0-0.8,0.6-1.5,1.1-1.7c2.7-1.1,5.4-1.8,8.8-1.8c3.8,0,6.7,1,8.7,3
		c1.8,1.8,2.8,4.4,2.8,7.9v14.8c0,1.1-0.8,2-1.9,2c-1.1,0-1.9-0.8-1.9-1.9v-2.5c-1.9,2.5-5,4.6-9.8,4.6
		C363.4,56.4,358.4,53.6,358.4,48z M378.3,45.9v-2.6c-2-0.6-4.6-1.1-7.9-1.1c-5.1,0-7.9,2.2-7.9,5.6v0.1c0,3.4,3.1,5.4,6.8,5.4
		C374.2,53.2,378.3,50.2,378.3,45.9z"/>
	<path class="st1" d="M429.9,54.1c0,1.1-0.9,2-2,2c-1.2,0-2-0.9-2-2v-3.7c-2.2,3.2-5.4,6-10.3,6c-6.5,0-12.9-5.1-12.9-14v-0.1
		c0-8.8,6.4-14.1,12.9-14.1c5,0,8.3,2.7,10.3,5.7V19.5c0-1.1,0.8-2,2-2c1.1,0,2,0.9,2,2V54.1z M406.8,42.3v0.1
		c0,6.4,4.4,10.4,9.5,10.4c5,0,9.8-4.2,9.8-10.4v-0.1c0-6.2-4.8-10.4-9.8-10.4C411.1,31.9,406.8,35.7,406.8,42.3z"/>
	<path class="st1" d="M449.7,56.5c-7.4,0-13.5-5.7-13.5-14.1v-0.1c0-7.8,5.5-14.1,13-14.1c8,0,12.5,6.5,12.5,13.7
		c0,1.1-0.9,1.9-1.9,1.9h-19.5c0.6,5.9,4.7,9.1,9.5,9.1c3.3,0,5.8-1.3,7.8-3.1c0.3-0.3,0.7-0.5,1.1-0.5c1,0,1.8,0.8,1.8,1.7
		c0,0.5-0.2,0.9-0.6,1.3C457.3,54.9,454.3,56.5,449.7,56.5z M457.7,40.9c-0.4-4.9-3.2-9.2-8.6-9.2c-4.7,0-8.3,3.9-8.8,9.2H457.7z"/>
	<path class="st1" d="M482.7,19.5c0-1.1,0.9-2,2-2c1.2,0,2,0.9,2,2v34.6c0,1.1-0.8,2-2,2c-1.1,0-2-0.9-2-2V19.5z"/>
	<path class="st1" d="M493,48v-0.1c0-5.7,4.7-8.7,11.5-8.7c3.4,0,5.9,0.5,8.3,1.1v-0.9c0-4.9-3-7.4-8-7.4c-2.7,0-5,0.6-7,1.5
		c-0.3,0.1-0.5,0.2-0.7,0.2c-0.9,0-1.8-0.8-1.8-1.7c0-0.8,0.6-1.5,1.1-1.7c2.7-1.1,5.4-1.8,8.8-1.8c3.8,0,6.7,1,8.7,3
		c1.8,1.8,2.8,4.4,2.8,7.9v14.8c0,1.1-0.8,2-1.9,2c-1.1,0-1.9-0.8-1.9-1.9v-2.5c-1.9,2.5-5,4.6-9.8,4.6C498.1,56.4,493,53.6,493,48z
		 M512.9,45.9v-2.6c-2-0.6-4.6-1.1-7.9-1.1c-5.1,0-7.9,2.2-7.9,5.6v0.1c0,3.4,3.1,5.4,6.8,5.4C508.9,53.2,512.9,50.2,512.9,45.9z"/>
	<path class="st1" d="M149.5,112.5c-0.5-0.3-0.8-0.9-0.8-1.6c0-1.1,0.9-2,2-2c0.5,0,1,0.2,1.3,0.5c3.4,2.9,6.9,4.3,11.5,4.3
		c4.9,0,8.1-2.6,8.1-6.2v-0.1c0-3.4-1.8-5.3-9.5-6.9c-8.4-1.8-12.3-4.5-12.3-10.6v-0.1c0-5.7,5.1-10,12-10c4.8,0,8.3,1.2,11.6,3.6
		c0.4,0.3,0.9,0.9,0.9,1.7c0,1.1-0.9,2-2,2c-0.5,0-0.8-0.1-1.2-0.4c-3.1-2.2-6.1-3.2-9.5-3.2c-4.8,0-7.8,2.6-7.8,5.9v0.1
		c0,3.4,1.9,5.4,9.9,7.1c8.1,1.8,11.9,4.8,11.9,10.3v0.1c0,6.3-5.2,10.3-12.5,10.3C158,117.4,153.6,115.7,149.5,112.5z"/>
	<path class="st1" d="M180.5,109v-0.1c0-5.7,4.7-8.7,11.5-8.7c3.4,0,5.9,0.5,8.3,1.1v-0.9c0-4.9-3-7.4-8-7.4c-2.7,0-5,0.6-7,1.5
		c-0.3,0.1-0.5,0.2-0.7,0.2c-0.9,0-1.8-0.8-1.8-1.7c0-0.8,0.6-1.5,1.1-1.7c2.7-1.1,5.4-1.8,8.8-1.8c3.8,0,6.7,1,8.7,3
		c1.8,1.8,2.8,4.4,2.8,7.9v14.8c0,1.1-0.8,2-1.9,2c-1.1,0-1.9-0.8-1.9-1.9v-2.5c-1.9,2.5-5,4.6-9.8,4.6
		C185.5,117.4,180.5,114.6,180.5,109z M200.4,106.9v-2.6c-2-0.6-4.6-1.1-7.9-1.1c-5.1,0-7.9,2.2-7.9,5.6v0.1c0,3.4,3.1,5.4,6.8,5.4
		C196.3,114.2,200.4,111.2,200.4,106.9z"/>
	<path class="st1" d="M212.1,80.5c0-1.1,0.9-2,2-2c1.2,0,2,0.9,2,2v34.6c0,1.1-0.8,2-2,2c-1.1,0-2-0.9-2-2V80.5z"/>
	<path class="st1" d="M247.5,115.1c0,1.1-0.8,2-2,2c-1.1,0-2-0.9-2-2v-2.9c-1.8,2.9-4.6,5.3-9.2,5.3c-6.5,0-10.3-4.4-10.3-10.8v-15
		c0-1.1,0.8-2,2-2c1.1,0,2,0.9,2,2v14c0,5,2.7,8.1,7.5,8.1c4.6,0,8.1-3.4,8.1-8.5V91.6c0-1.1,0.8-2,2-2c1.1,0,2,0.9,2,2V115.1z"/>
	<path class="st1" d="M281.2,115.1c0,1.1-0.9,2-2,2c-1.1,0-2-0.9-2-2v-3.7c-2.2,3.2-5.4,6-10.3,6c-6.5,0-12.9-5.1-12.9-14v-0.1
		c0-8.8,6.4-14.1,12.9-14.1c5,0,8.3,2.7,10.3,5.7V80.5c0-1.1,0.8-2,2-2c1.2,0,2,0.9,2,2V115.1z M258.1,103.3v0.1
		c0,6.4,4.4,10.4,9.5,10.4c5,0,9.8-4.2,9.8-10.4v-0.1c0-6.2-4.8-10.4-9.8-10.4C262.4,92.9,258.1,96.7,258.1,103.3z"/>
	<path class="st1" d="M302.2,114.1l14.8-32.4c0.5-1.1,1.3-1.8,2.6-1.8h0.2c1.3,0,2.1,0.7,2.6,1.8l14.8,32.4c0.2,0.4,0.3,0.7,0.3,1
		c0,1.1-0.9,2-2,2c-1,0-1.7-0.7-2-1.5l-3.8-8.4h-20.1l-3.8,8.5c-0.4,0.9-1,1.4-2,1.4c-1,0-1.9-0.8-1.9-1.9
		C302,114.9,302,114.6,302.2,114.1z M328.1,103.4l-8.4-18.7l-8.4,18.7H328.1z"/>
	<path class="st1" d="M343.7,91.6c0-1.1,0.9-2,2-2c1.1,0,2,0.9,2,2v2.8c1.8-2.7,4.2-5.1,8.7-5.1c4.4,0,7.2,2.4,8.7,5.4
		c1.9-3,4.8-5.4,9.5-5.4c6.2,0,10,4.2,10,10.9v14.9c0,1.1-0.9,2-2,2c-1.1,0-2-0.9-2-2v-14c0-5.2-2.6-8.1-7-8.1c-4.1,0-7.4,3-7.4,8.4
		v13.8c0,1.1-0.9,2-2,2c-1.1,0-2-0.9-2-2V101c0-5.1-2.7-8-6.9-8c-4.3,0-7.5,3.6-7.5,8.5v13.6c0,1.1-0.8,2-2,2c-1.2,0-2-0.9-2-2V91.6
		z"/>
	<path class="st1" d="M392.3,80.5c0-1.1,0.9-2,2-2c1.2,0,2,0.9,2,2v14.8c2.2-3.2,5.4-6,10.3-6c6.5,0,12.9,5.1,12.9,14v0.1
		c0,8.8-6.4,14.1-12.9,14.1c-5,0-8.3-2.7-10.3-5.7v3.4c0,1.1-0.8,2-2,2s-2-0.9-2-2V80.5z M415.5,103.4v-0.1c0-6.4-4.4-10.4-9.5-10.4
		c-5,0-9.8,4.2-9.8,10.4v0.1c0,6.3,4.8,10.4,9.8,10.4C411.2,113.8,415.5,110,415.5,103.4z"/>
	<path class="st1" d="M426,81.4c0-1.3,1-2.1,2.3-2.1c1.4,0,2.4,0.8,2.4,2.1v0.7c0,1.3-1,2.1-2.4,2.1c-1.3,0-2.3-0.9-2.3-2.1V81.4z
		 M426.3,91.6c0-1.1,0.9-2,2-2c1.2,0,2,0.9,2,2v23.5c0,1.1-0.8,2-2,2c-1.1,0-2-0.9-2-2V91.6z"/>
	<path class="st1" d="M450.5,117.5c-7.4,0-13.5-5.7-13.5-14.1v-0.1c0-7.8,5.5-14.1,13-14.1c8,0,12.5,6.5,12.5,13.7
		c0,1.1-0.9,1.9-1.9,1.9h-19.5c0.6,5.9,4.7,9.1,9.5,9.1c3.3,0,5.8-1.3,7.8-3.1c0.3-0.3,0.7-0.5,1.2-0.5c1,0,1.8,0.8,1.8,1.7
		c0,0.5-0.2,0.9-0.6,1.3C458.1,115.9,455.1,117.5,450.5,117.5z M458.5,101.9c-0.4-4.9-3.2-9.2-8.6-9.2c-4.7,0-8.3,3.9-8.8,9.2H458.5
		z"/>
	<path class="st1" d="M468.5,91.6c0-1.1,0.9-2,2-2c1.1,0,2,0.9,2,2v2.9c1.8-2.9,4.6-5.3,9.2-5.3c6.5,0,10.3,4.4,10.3,10.8v15
		c0,1.1-0.9,2-2,2c-1.1,0-2-0.9-2-2v-14c0-5-2.7-8.1-7.5-8.1c-4.6,0-8.1,3.4-8.1,8.5v13.7c0,1.1-0.8,2-2,2c-1.2,0-2-0.9-2-2V91.6z"
		/>
	<path class="st1" d="M501.1,109.7V93.4h-2.2c-0.9,0-1.8-0.8-1.8-1.8c0-1,0.8-1.8,1.8-1.8h2.2v-6.4c0-1.1,0.8-2,2-2c1.1,0,2,0.9,2,2
		v6.4h7c1,0,1.8,0.8,1.8,1.8c0,1-0.8,1.8-1.8,1.8h-7v15.8c0,3.3,1.8,4.5,4.5,4.5c1.4,0,2.1-0.4,2.5-0.4c0.9,0,1.7,0.8,1.7,1.7
		c0,0.7-0.5,1.3-1.2,1.6c-1.1,0.5-2.4,0.7-4,0.7C504.4,117.3,501.1,115.2,501.1,109.7z"/>
	<path class="st1" d="M517.7,109v-0.1c0-5.7,4.7-8.7,11.5-8.7c3.4,0,5.9,0.5,8.3,1.1v-0.9c0-4.9-3-7.4-8-7.4c-2.7,0-5,0.6-7,1.5
		c-0.3,0.1-0.5,0.2-0.7,0.2c-0.9,0-1.8-0.8-1.8-1.7c0-0.8,0.6-1.5,1.1-1.7c2.7-1.1,5.4-1.8,8.8-1.8c3.8,0,6.7,1,8.7,3
		c1.8,1.8,2.8,4.4,2.8,7.9v14.8c0,1.1-0.8,2-1.9,2c-1.1,0-1.9-0.8-1.9-1.9v-2.5c-1.9,2.5-5,4.6-9.8,4.6
		C522.8,117.4,517.7,114.6,517.7,109z M537.6,106.9v-2.6c-2-0.6-4.6-1.1-7.9-1.1c-5.1,0-7.9,2.2-7.9,5.6v0.1c0,3.4,3.1,5.4,6.8,5.4
		C533.5,114.2,537.6,111.2,537.6,106.9z"/>
	<path class="st1" d="M549.3,80.5c0-1.1,0.9-2,2-2c1.1,0,2,0.9,2,2v34.6c0,1.1-0.8,2-2,2c-1.2,0-2-0.9-2-2V80.5z"/>
</g>
<g>
	<path class="st1" d="M134.5,114.3L107,86.8c-4.1,6.4-5.2,7.4-11.5,11.5l27.5,27.5c4.4,4.4,8.3,5.5,12.7,1.1
		C140,122.6,138.9,118.7,134.5,114.3z"/>
	<path class="st1" d="M110,60.8c0-24.8-20.1-44.9-44.9-44.9c-24.8,0-44.9,20.1-44.9,44.9c0,24.8,20.1,44.9,44.9,44.9
		C89.9,105.7,110,85.6,110,60.8z M65,100.9c-22.2,0-40.2-18-40.2-40.2c0-22.2,18-40.2,40.2-40.2c22.2,0,40.2,18,40.2,40.2
		C105.2,82.9,87.2,100.9,65,100.9z"/>
	<path class="st1" d="M89.7,84.3l-0.9-5.7c8.8-5.4,11.7-16.9,6.3-25.7l3.4-4.6C106,60.7,102.1,76.8,89.7,84.3z"/>
	<path class="st1" d="M68.5,24.5C68,24,67.2,24,66.6,24.4c-0.9,0.6-22.1,14.6-23.9,34.6C41,77.3,56.2,93.7,59.3,96.8l-0.2,6.7
		c-0.1,0.8,0.5,1.6,1.4,1.7c0.8,0.1,1.6-0.5,1.7-1.4l0.2-6.7C66,94.6,84,81.3,85.7,62.9C87.5,42.9,69.3,25.3,68.5,24.5z M62.7,93
		l1.6-17.4l9.3-6.4c0.7-0.5,0.9-1.4,0.4-2.1c-0.5-0.7-1.4-0.9-2.1-0.4l-7.2,4.9l0.5-5.2l9.3-6.4c0.7-0.5,0.9-1.4,0.4-2.1
		c-0.5-0.7-1.4-0.9-2.1-0.4l-7.2,4.9l0.6-6.8l9.3-6.4c0.7-0.5,0.9-1.4,0.4-2.1c-0.5-0.7-1.4-0.9-2.1-0.4l-7.2,4.9l1.1-12.1
		c0.1-0.8-0.5-1.6-1.4-1.7c-0.8-0.1-1.6,0.5-1.7,1.4l-1.1,12.1l-6.2-6.2c-0.6-0.6-1.6-0.6-2.2,0c-0.6,0.6-0.6,1.6,0,2.2l8,8
		l-0.6,6.8l-6.2-6.2c-0.6-0.6-1.6-0.6-2.2,0c-0.6,0.6-0.6,1.6,0,2.2l8,8l-0.5,5.2l-6.2-6.2c-0.6-0.6-1.6-0.6-2.2,0
		c-0.6,0.6-0.6,1.6,0,2.2l8,8l-1.6,17.4c-4.8-5.4-15.3-19-13.9-33.5c1.5-16.1,17.3-28.5,21.5-31.6c3.6,3.8,16.8,18.9,15.3,35
		C81.3,77.1,68.4,88.6,62.7,93z"/>
</g>
</svg>
