<?xml version="1.0" encoding="utf-8"?>
<!-- Generator: Adobe Illustrator 24.0.0, SVG Export Plug-In . SVG Version: 6.00 Build 0)  -->
<svg version="1.1" id="Capa_1" xmlns="http://www.w3.org/2000/svg" xmlns:xlink="http://www.w3.org/1999/xlink" x="0px" y="0px"
	 viewBox="0 0 742.6 135" style="enable-background:new 0 0 742.6 135;" xml:space="preserve">
<style type="text/css">
	.st0{fill:#FFFFFF;}
	.st1{fill:#003E67;}
	.st2{opacity:0.2;}
	.st3{clip-path:url(#SVGID_2_);fill:#28B6DC;}
	.st4{clip-path:url(#SVGID_2_);fill:#29B6DC;}
	.st5{clip-path:url(#SVGID_2_);fill:#2AB7DC;}
	.st6{clip-path:url(#SVGID_2_);fill:#2BB7DC;}
	.st7{clip-path:url(#SVGID_2_);fill:#2CB7DD;}
	.st8{clip-path:url(#SVGID_2_);fill:#2DB8DD;}
	.st9{clip-path:url(#SVGID_2_);fill:#2EB8DD;}
	.st10{clip-path:url(#SVGID_2_);fill:#2FB8DD;}
	.st11{clip-path:url(#SVGID_2_);fill:#30B9DD;}
	.st12{clip-path:url(#SVGID_2_);fill:#31B9DD;}
	.st13{clip-path:url(#SVGID_2_);fill:#32B9DE;}
	.st14{clip-path:url(#SVGID_2_);fill:#33BADE;}
	.st15{clip-path:url(#SVGID_2_);fill:#34BADE;}
	.st16{clip-path:url(#SVGID_2_);fill:#35BADE;}
	.st17{clip-path:url(#SVGID_2_);fill:#36BBDE;}
	.st18{clip-path:url(#SVGID_2_);fill:#37BBDE;}
	.st19{clip-path:url(#SVGID_2_);fill:#38BCDF;}
	.st20{clip-path:url(#SVGID_2_);fill:#39BCDF;}
	.st21{clip-path:url(#SVGID_2_);fill:#3ABCDF;}
	.st22{clip-path:url(#SVGID_2_);fill:#3BBDDF;}
	.st23{clip-path:url(#SVGID_2_);fill:#3CBDDF;}
	.st24{clip-path:url(#SVGID_2_);fill:#3DBDDF;}
	.st25{clip-path:url(#SVGID_2_);fill:#3EBEDF;}
	.st26{clip-path:url(#SVGID_2_);fill:#3FBEE0;}
	.st27{clip-path:url(#SVGID_2_);fill:#40BEE0;}
	.st28{clip-path:url(#SVGID_2_);fill:#41BFE0;}
	.st29{clip-path:url(#SVGID_2_);fill:#42BFE0;}
	.st30{clip-path:url(#SVGID_2_);fill:#43BFE0;}
	.st31{clip-path:url(#SVGID_2_);fill:#44C0E0;}
	.st32{clip-path:url(#SVGID_2_);fill:#45C0E1;}
	.st33{clip-path:url(#SVGID_2_);fill:#46C0E1;}
	.st34{clip-path:url(#SVGID_2_);fill:#47C1E1;}
	.st35{clip-path:url(#SVGID_2_);fill:#49C1E1;}
	.st36{clip-path:url(#SVGID_2_);fill:#4AC1E1;}
	.st37{clip-path:url(#SVGID_2_);fill:#4BC2E1;}
	.st38{clip-path:url(#SVGID_2_);fill:#4CC2E1;}
	.st39{clip-path:url(#SVGID_2_);fill:#4DC2E2;}
	.st40{clip-path:url(#SVGID_2_);fill:#4EC3E2;}
	.st41{clip-path:url(#SVGID_2_);fill:#4FC3E2;}
	.st42{clip-path:url(#SVGID_2_);fill:#50C3E2;}
	.st43{clip-path:url(#SVGID_2_);fill:#51C4E2;}
	.st44{clip-path:url(#SVGID_2_);fill:#52C4E2;}
	.st45{clip-path:url(#SVGID_2_);fill:#53C4E3;}
	.st46{clip-path:url(#SVGID_2_);fill:#54C5E3;}
	.st47{clip-path:url(#SVGID_2_);fill:#55C5E3;}
	.st48{clip-path:url(#SVGID_2_);fill:#56C5E3;}
	.st49{clip-path:url(#SVGID_2_);fill:#57C6E3;}
	.st50{clip-path:url(#SVGID_2_);fill:#58C6E3;}
	.st51{clip-path:url(#SVGID_2_);fill:#59C7E4;}
	.st52{clip-path:url(#SVGID_2_);fill:#5AC7E4;}
	.st53{clip-path:url(#SVGID_2_);fill:#5BC7E4;}
	.st54{clip-path:url(#SVGID_2_);fill:#5CC8E4;}
	.st55{clip-path:url(#SVGID_2_);fill:#5DC8E4;}
	.st56{clip-path:url(#SVGID_2_);fill:#5EC8E4;}
	.st57{clip-path:url(#SVGID_2_);fill:#5FC9E4;}
	.st58{clip-path:url(#SVGID_2_);fill:#60C9E5;}
	.st59{clip-path:url(#SVGID_2_);fill:#61C9E5;}
	.st60{clip-path:url(#SVGID_2_);fill:#62CAE5;}
	.st61{clip-path:url(#SVGID_2_);fill:#63CAE5;}
	.st62{clip-path:url(#SVGID_2_);fill:#64CAE5;}
	.st63{clip-path:url(#SVGID_2_);fill:#65CBE5;}
	.st64{clip-path:url(#SVGID_2_);fill:#66CBE6;}
	.st65{clip-path:url(#SVGID_2_);fill:#67CBE6;}
	.st66{clip-path:url(#SVGID_2_);fill:#68CCE6;}
	.st67{clip-path:url(#SVGID_2_);fill:#69CCE6;}
	.st68{clip-path:url(#SVGID_4_);fill:#28B6DC;}
	.st69{clip-path:url(#SVGID_4_);fill:#29B6DC;}
	.st70{clip-path:url(#SVGID_4_);fill:#2AB7DC;}
	.st71{clip-path:url(#SVGID_4_);fill:#2BB7DC;}
	.st72{clip-path:url(#SVGID_4_);fill:#2CB7DD;}
	.st73{clip-path:url(#SVGID_4_);fill:#2DB8DD;}
	.st74{clip-path:url(#SVGID_4_);fill:#2EB8DD;}
	.st75{clip-path:url(#SVGID_4_);fill:#2FB8DD;}
	.st76{clip-path:url(#SVGID_4_);fill:#30B9DD;}
	.st77{clip-path:url(#SVGID_4_);fill:#31B9DD;}
	.st78{clip-path:url(#SVGID_4_);fill:#32B9DE;}
	.st79{clip-path:url(#SVGID_4_);fill:#33BADE;}
	.st80{clip-path:url(#SVGID_4_);fill:#34BADE;}
	.st81{clip-path:url(#SVGID_4_);fill:#35BADE;}
	.st82{clip-path:url(#SVGID_4_);fill:#36BBDE;}
	.st83{clip-path:url(#SVGID_4_);fill:#37BBDE;}
	.st84{clip-path:url(#SVGID_4_);fill:#38BCDF;}
	.st85{clip-path:url(#SVGID_4_);fill:#39BCDF;}
	.st86{clip-path:url(#SVGID_4_);fill:#3ABCDF;}
	.st87{clip-path:url(#SVGID_4_);fill:#3BBDDF;}
	.st88{clip-path:url(#SVGID_4_);fill:#3CBDDF;}
	.st89{clip-path:url(#SVGID_4_);fill:#3DBDDF;}
	.st90{clip-path:url(#SVGID_4_);fill:#3EBEDF;}
	.st91{clip-path:url(#SVGID_4_);fill:#3FBEE0;}
	.st92{clip-path:url(#SVGID_4_);fill:#40BEE0;}
	.st93{clip-path:url(#SVGID_4_);fill:#41BFE0;}
	.st94{clip-path:url(#SVGID_4_);fill:#42BFE0;}
	.st95{clip-path:url(#SVGID_4_);fill:#43BFE0;}
	.st96{clip-path:url(#SVGID_4_);fill:#44C0E0;}
	.st97{clip-path:url(#SVGID_4_);fill:#45C0E1;}
	.st98{clip-path:url(#SVGID_4_);fill:#46C0E1;}
	.st99{clip-path:url(#SVGID_4_);fill:#47C1E1;}
	.st100{clip-path:url(#SVGID_4_);fill:#49C1E1;}
	.st101{clip-path:url(#SVGID_4_);fill:#4AC1E1;}
	.st102{clip-path:url(#SVGID_4_);fill:#4BC2E1;}
	.st103{clip-path:url(#SVGID_4_);fill:#4CC2E1;}
	.st104{clip-path:url(#SVGID_4_);fill:#4DC2E2;}
	.st105{clip-path:url(#SVGID_4_);fill:#4EC3E2;}
	.st106{clip-path:url(#SVGID_4_);fill:#4FC3E2;}
	.st107{clip-path:url(#SVGID_4_);fill:#50C3E2;}
	.st108{clip-path:url(#SVGID_4_);fill:#51C4E2;}
	.st109{clip-path:url(#SVGID_4_);fill:#52C4E2;}
	.st110{clip-path:url(#SVGID_4_);fill:#53C4E3;}
	.st111{clip-path:url(#SVGID_4_);fill:#54C5E3;}
	.st112{clip-path:url(#SVGID_4_);fill:#55C5E3;}
	.st113{clip-path:url(#SVGID_4_);fill:#56C5E3;}
	.st114{clip-path:url(#SVGID_4_);fill:#57C6E3;}
	.st115{clip-path:url(#SVGID_4_);fill:#58C6E3;}
	.st116{clip-path:url(#SVGID_4_);fill:#59C7E4;}
	.st117{clip-path:url(#SVGID_4_);fill:#5AC7E4;}
	.st118{clip-path:url(#SVGID_4_);fill:#5BC7E4;}
	.st119{clip-path:url(#SVGID_4_);fill:#5CC8E4;}
	.st120{clip-path:url(#SVGID_4_);fill:#5DC8E4;}
	.st121{clip-path:url(#SVGID_4_);fill:#5EC8E4;}
	.st122{clip-path:url(#SVGID_4_);fill:#5FC9E4;}
	.st123{clip-path:url(#SVGID_4_);fill:#60C9E5;}
	.st124{clip-path:url(#SVGID_4_);fill:#61C9E5;}
	.st125{clip-path:url(#SVGID_4_);fill:#62CAE5;}
	.st126{clip-path:url(#SVGID_4_);fill:#63CAE5;}
	.st127{clip-path:url(#SVGID_4_);fill:#64CAE5;}
	.st128{clip-path:url(#SVGID_4_);fill:#65CBE5;}
	.st129{clip-path:url(#SVGID_4_);fill:#66CBE6;}
	.st130{clip-path:url(#SVGID_4_);fill:#67CBE6;}
	.st131{clip-path:url(#SVGID_4_);fill:#68CCE6;}
	.st132{clip-path:url(#SVGID_4_);fill:#69CCE6;}
	.st133{clip-path:url(#SVGID_6_);fill:#28B6DC;}
	.st134{clip-path:url(#SVGID_6_);fill:#29B6DC;}
	.st135{clip-path:url(#SVGID_6_);fill:#2AB7DC;}
	.st136{clip-path:url(#SVGID_6_);fill:#2BB7DC;}
	.st137{clip-path:url(#SVGID_6_);fill:#2CB7DD;}
	.st138{clip-path:url(#SVGID_6_);fill:#2DB8DD;}
	.st139{clip-path:url(#SVGID_6_);fill:#2EB8DD;}
	.st140{clip-path:url(#SVGID_6_);fill:#2FB8DD;}
	.st141{clip-path:url(#SVGID_6_);fill:#30B9DD;}
	.st142{clip-path:url(#SVGID_6_);fill:#31B9DD;}
	.st143{clip-path:url(#SVGID_6_);fill:#32B9DE;}
	.st144{clip-path:url(#SVGID_6_);fill:#33BADE;}
	.st145{clip-path:url(#SVGID_6_);fill:#34BADE;}
	.st146{clip-path:url(#SVGID_6_);fill:#35BADE;}
	.st147{clip-path:url(#SVGID_6_);fill:#36BBDE;}
	.st148{clip-path:url(#SVGID_6_);fill:#37BBDE;}
	.st149{clip-path:url(#SVGID_6_);fill:#38BCDF;}
	.st150{clip-path:url(#SVGID_6_);fill:#39BCDF;}
	.st151{clip-path:url(#SVGID_6_);fill:#3ABCDF;}
	.st152{clip-path:url(#SVGID_6_);fill:#3BBDDF;}
	.st153{clip-path:url(#SVGID_6_);fill:#3CBDDF;}
	.st154{clip-path:url(#SVGID_6_);fill:#3DBDDF;}
	.st155{clip-path:url(#SVGID_6_);fill:#3EBEDF;}
	.st156{clip-path:url(#SVGID_6_);fill:#3FBEE0;}
	.st157{clip-path:url(#SVGID_6_);fill:#40BEE0;}
	.st158{clip-path:url(#SVGID_6_);fill:#41BFE0;}
	.st159{clip-path:url(#SVGID_6_);fill:#42BFE0;}
	.st160{clip-path:url(#SVGID_6_);fill:#43BFE0;}
	.st161{clip-path:url(#SVGID_6_);fill:#44C0E0;}
	.st162{clip-path:url(#SVGID_6_);fill:#45C0E1;}
	.st163{clip-path:url(#SVGID_6_);fill:#46C0E1;}
	.st164{clip-path:url(#SVGID_6_);fill:#47C1E1;}
	.st165{clip-path:url(#SVGID_6_);fill:#49C1E1;}
	.st166{clip-path:url(#SVGID_6_);fill:#4AC1E1;}
	.st167{clip-path:url(#SVGID_6_);fill:#4BC2E1;}
	.st168{clip-path:url(#SVGID_6_);fill:#4CC2E1;}
	.st169{clip-path:url(#SVGID_6_);fill:#4DC2E2;}
	.st170{clip-path:url(#SVGID_6_);fill:#4EC3E2;}
	.st171{clip-path:url(#SVGID_6_);fill:#4FC3E2;}
	.st172{clip-path:url(#SVGID_6_);fill:#50C3E2;}
	.st173{clip-path:url(#SVGID_6_);fill:#51C4E2;}
	.st174{clip-path:url(#SVGID_6_);fill:#52C4E2;}
	.st175{clip-path:url(#SVGID_6_);fill:#53C4E3;}
	.st176{clip-path:url(#SVGID_6_);fill:#54C5E3;}
	.st177{clip-path:url(#SVGID_6_);fill:#55C5E3;}
	.st178{clip-path:url(#SVGID_6_);fill:#56C5E3;}
	.st179{clip-path:url(#SVGID_6_);fill:#57C6E3;}
	.st180{clip-path:url(#SVGID_6_);fill:#58C6E3;}
	.st181{clip-path:url(#SVGID_6_);fill:#59C7E4;}
	.st182{clip-path:url(#SVGID_6_);fill:#5AC7E4;}
	.st183{clip-path:url(#SVGID_6_);fill:#5BC7E4;}
	.st184{clip-path:url(#SVGID_6_);fill:#5CC8E4;}
	.st185{clip-path:url(#SVGID_6_);fill:#5DC8E4;}
	.st186{clip-path:url(#SVGID_6_);fill:#5EC8E4;}
	.st187{clip-path:url(#SVGID_6_);fill:#5FC9E4;}
	.st188{clip-path:url(#SVGID_6_);fill:#60C9E5;}
	.st189{clip-path:url(#SVGID_6_);fill:#61C9E5;}
	.st190{clip-path:url(#SVGID_6_);fill:#62CAE5;}
	.st191{clip-path:url(#SVGID_6_);fill:#63CAE5;}
	.st192{clip-path:url(#SVGID_6_);fill:#64CAE5;}
	.st193{clip-path:url(#SVGID_6_);fill:#65CBE5;}
	.st194{clip-path:url(#SVGID_6_);fill:#66CBE6;}
	.st195{clip-path:url(#SVGID_6_);fill:#67CBE6;}
	.st196{clip-path:url(#SVGID_6_);fill:#68CCE6;}
	.st197{clip-path:url(#SVGID_6_);fill:#69CCE6;}
	.st198{fill:#0F82BB;}
	.st199{fill:#0071BC;}
	.st200{clip-path:url(#SVGID_8_);}
	.st201{fill:#39A935;}
	.st202{fill:none;stroke:#1D1D1B;stroke-miterlimit:10;}
	.st203{fill:#29ABE2;}
	.st204{clip-path:url(#SVGID_10_);}
	.st205{fill-rule:evenodd;clip-rule:evenodd;fill:#003E67;}
	.st206{clip-path:url(#XMLID_13_);fill:#003E67;}
</style>
<g>
	<g>
		<g>
			<path class="st1" d="M217.7,14.6c0-1.3,1.1-2.4,2.3-2.4h13.4c9.5,0,15.7,5,15.7,13.3v0.1c0,9.1-7.6,13.7-16.5,13.7h-10.2v12.7
				c0,1.3-1.1,2.4-2.4,2.4c-1.3,0-2.3-1.1-2.3-2.4V14.6z M232.8,35.1c7,0,11.5-3.7,11.5-9.2v-0.1c0-6-4.5-9.1-11.3-9.1h-10.6v18.5
				H232.8z"/>
			<path class="st1" d="M251.8,45.2v-0.1c0-6.5,5.4-10,13.3-10c4,0,6.8,0.5,9.5,1.3v-1.1c0-5.6-3.4-8.5-9.2-8.5
				c-3.1,0-5.8,0.7-8,1.7c-0.3,0.1-0.6,0.2-0.8,0.2c-1.1,0-2-0.9-2-2c0-1,0.7-1.7,1.3-1.9c3.1-1.3,6.2-2.1,10.1-2.1
				c4.4,0,7.7,1.1,10,3.4c2.1,2.1,3.2,5.1,3.2,9.1v17c0,1.3-1,2.3-2.2,2.3c-1.3,0-2.2-1-2.2-2.2v-2.8c-2.2,2.8-5.8,5.3-11.2,5.3
				C257.6,54.9,251.8,51.6,251.8,45.2z M274.6,42.8v-3c-2.3-0.7-5.3-1.3-9.1-1.3c-5.8,0-9.1,2.5-9.1,6.4V45c0,3.9,3.6,6.2,7.8,6.2
				C270,51.2,274.6,47.7,274.6,42.8z"/>
			<path class="st1" d="M286.6,25.2c0-1.3,1-2.3,2.3-2.3c1.3,0,2.3,1,2.3,2.3v5.8c2.3-5.2,6.8-8.3,10.7-8.3c1.4,0,2.3,1,2.3,2.3
				c0,1.3-0.8,2.2-2,2.3c-6,0.7-10.9,5.2-10.9,14.2v10.6c0,1.3-1,2.3-2.3,2.3c-1.3,0-2.3-1-2.3-2.3V25.2z"/>
			<path class="st1" d="M310.2,46V27.3h-2.5c-1.1,0-2-1-2-2c0-1.1,1-2,2-2h2.5v-7.3c0-1.3,1-2.3,2.3-2.3c1.3,0,2.3,1.1,2.3,2.3v7.3
				h8c1.1,0,2.1,1,2.1,2c0,1.1-1,2-2.1,2h-8v18.1c0,3.8,2.1,5.2,5.2,5.2c1.6,0,2.5-0.4,2.8-0.4c1.1,0,2,0.9,2,2
				c0,0.8-0.5,1.5-1.3,1.8c-1.3,0.5-2.8,0.8-4.6,0.8C314,54.7,310.2,52.3,310.2,46z"/>
			<path class="st1" d="M330.6,13.5c0-1.5,1.2-2.5,2.7-2.5c1.6,0,2.8,1,2.8,2.5v0.8c0,1.4-1.2,2.5-2.8,2.5c-1.5,0-2.7-1-2.7-2.5
				V13.5z M331,25.2c0-1.3,1-2.3,2.3-2.3c1.3,0,2.3,1,2.3,2.3v26.9c0,1.3-1,2.3-2.3,2.3c-1.3,0-2.3-1-2.3-2.3V25.2z"/>
			<path class="st1" d="M342.1,38.9v-0.1c0-8.8,6.8-16.2,15.9-16.2c5.2,0,8.6,2,11.4,4.5c0.4,0.3,0.7,0.9,0.7,1.6
				c0,1.3-1,2.2-2.2,2.2c-0.6,0-1.1-0.2-1.5-0.5c-2.2-2-4.7-3.7-8.5-3.7c-6.3,0-11.1,5.3-11.1,12v0.1c0,6.7,4.9,12.1,11.4,12.1
				c3.5,0,6.4-1.6,8.6-3.8c0.3-0.3,0.7-0.6,1.3-0.6c1.1,0,2.1,1,2.1,2.1c0,0.5-0.2,1.1-0.6,1.4c-2.9,2.9-6.5,5-11.7,5
				C349,54.9,342.1,47.5,342.1,38.9z"/>
			<path class="st1" d="M376,13.5c0-1.5,1.2-2.5,2.7-2.5c1.6,0,2.8,1,2.8,2.5v0.8c0,1.4-1.2,2.5-2.8,2.5c-1.5,0-2.7-1-2.7-2.5V13.5z
				 M376.5,25.2c0-1.3,1-2.3,2.3-2.3c1.3,0,2.3,1,2.3,2.3v26.9c0,1.3-1,2.3-2.3,2.3c-1.3,0-2.3-1-2.3-2.3V25.2z"/>
			<path class="st1" d="M389.5,25.2c0-1.3,1-2.3,2.3-2.3c1.3,0,2.3,1,2.3,2.3v4.2c2.5-3.7,6.2-6.9,11.9-6.9
				c7.4,0,14.8,5.9,14.8,16.1v0.1c0,10.1-7.3,16.1-14.8,16.1c-5.8,0-9.5-3.1-11.9-6.6v13.5c0,1.3-1,2.3-2.3,2.3
				c-1.3,0-2.3-1-2.3-2.3V25.2z M416.1,38.8v-0.1c0-7.3-5-12-10.9-12c-5.8,0-11.2,4.9-11.2,11.9v0.1c0,7.2,5.5,12,11.2,12
				C411.2,50.7,416.1,46.3,416.1,38.8z"/>
			<path class="st1" d="M424.8,45.2v-0.1c0-6.5,5.4-10,13.3-10c4,0,6.8,0.5,9.5,1.3v-1.1c0-5.6-3.4-8.5-9.2-8.5
				c-3.1,0-5.8,0.7-8,1.7c-0.3,0.1-0.6,0.2-0.8,0.2c-1.1,0-2-0.9-2-2c0-1,0.7-1.7,1.3-1.9c3.1-1.3,6.2-2.1,10.1-2.1
				c4.4,0,7.7,1.1,10,3.4c2.1,2.1,3.2,5.1,3.2,9.1v17c0,1.3-1,2.3-2.2,2.3c-1.3,0-2.2-1-2.2-2.2v-2.8c-2.2,2.8-5.8,5.3-11.2,5.3
				C430.6,54.9,424.8,51.6,424.8,45.2z M447.6,42.8v-3c-2.3-0.7-5.3-1.3-9.1-1.3c-5.8,0-9.1,2.5-9.1,6.4V45c0,3.9,3.6,6.2,7.8,6.2
				C442.9,51.2,447.6,47.7,447.6,42.8z"/>
			<path class="st1" d="M457.6,38.9v-0.1c0-8.8,6.8-16.2,15.9-16.2c5.2,0,8.6,2,11.4,4.5c0.4,0.3,0.7,0.9,0.7,1.6
				c0,1.3-1,2.2-2.2,2.2c-0.6,0-1.1-0.2-1.5-0.5c-2.2-2-4.7-3.7-8.5-3.7c-6.3,0-11.1,5.3-11.1,12v0.1c0,6.7,4.9,12.1,11.4,12.1
				c3.5,0,6.4-1.6,8.6-3.8c0.3-0.3,0.7-0.6,1.3-0.6c1.1,0,2.1,1,2.1,2.1c0,0.5-0.2,1.1-0.6,1.4c-2.9,2.9-6.5,5-11.7,5
				C464.5,54.9,457.6,47.5,457.6,38.9z"/>
			<path class="st1" d="M491.5,13.5c0-1.5,1.2-2.5,2.7-2.5c1.6,0,2.8,1,2.8,2.5v0.8c0,1.4-1.2,2.5-2.8,2.5c-1.5,0-2.7-1-2.7-2.5
				V13.5z M492,25.2c0-1.3,1-2.3,2.3-2.3c1.3,0,2.3,1,2.3,2.3v26.9c0,1.3-1,2.3-2.3,2.3c-1.3,0-2.3-1-2.3-2.3V25.2z"/>
			<path class="st1" d="M503.1,38.9v-0.1c0-8.8,6.8-16.2,16.2-16.2c9.3,0,16.1,7.3,16.1,16.1v0.1c0,8.8-6.9,16.2-16.3,16.2
				C509.9,54.9,503.1,47.6,503.1,38.9z M530.7,38.9v-0.1c0-6.7-5-12.1-11.5-12.1c-6.7,0-11.3,5.5-11.3,12v0.1
				c0,6.7,4.9,12.1,11.5,12.1C526,50.8,530.7,45.4,530.7,38.9z M518,17.9c0-0.3,0.1-0.7,0.3-0.9l3.6-5.5c0.6-0.9,1.3-1.4,2.2-1.4
				c1.4,0,3.2,1,3.2,1.8c0,0.5-0.4,0.9-0.8,1.4l-4.5,4.3c-1,1-1.7,1.1-2.8,1.1C518.5,18.8,518,18.4,518,17.9z"/>
			<path class="st1" d="M541.5,25.2c0-1.3,1-2.3,2.3-2.3c1.3,0,2.3,1,2.3,2.3v3.4c2-3.4,5.3-6.1,10.6-6.1c7.5,0,11.9,5,11.9,12.4
				v17.2c0,1.3-1,2.3-2.3,2.3c-1.3,0-2.3-1-2.3-2.3V36.1c0-5.8-3.1-9.4-8.6-9.4c-5.3,0-9.3,3.9-9.3,9.7v15.7c0,1.3-1,2.3-2.3,2.3
				c-1.3,0-2.3-1-2.3-2.3V25.2z"/>
			<path class="st1" d="M215,101.9v-0.1c0-8.8,6.8-16.2,15.9-16.2c5.2,0,8.6,2,11.4,4.5c0.4,0.3,0.7,0.9,0.7,1.6
				c0,1.3-1,2.2-2.2,2.2c-0.6,0-1.1-0.2-1.5-0.5c-2.2-2-4.7-3.7-8.5-3.7c-6.3,0-11.1,5.3-11.1,12v0.1c0,6.7,4.9,12.1,11.4,12.1
				c3.5,0,6.4-1.6,8.6-3.8c0.3-0.3,0.7-0.6,1.3-0.6c1.1,0,2.1,1,2.1,2.1c0,0.5-0.2,1.1-0.6,1.4c-2.9,2.9-6.5,5-11.7,5
				C221.8,117.9,215,110.5,215,101.9z"/>
			<path class="st1" d="M248.9,76.5c0-1.5,1.2-2.5,2.7-2.5c1.6,0,2.8,1,2.8,2.5v0.8c0,1.4-1.2,2.5-2.8,2.5c-1.5,0-2.7-1-2.7-2.5
				V76.5z M249.3,88.2c0-1.3,1-2.3,2.3-2.3c1.3,0,2.3,1,2.3,2.3v26.9c0,1.3-1,2.3-2.3,2.3c-1.3,0-2.3-1-2.3-2.3V88.2z"/>
			<path class="st1" d="M289,115.2c0,1.3-1,2.3-2.3,2.3c-1.3,0-2.3-1-2.3-2.3v-3.4c-2.1,3.4-5.3,6.1-10.6,6.1
				c-7.5,0-11.9-5-11.9-12.4V88.2c0-1.3,1-2.3,2.3-2.3c1.3,0,2.3,1,2.3,2.3v16.1c0,5.8,3.1,9.4,8.6,9.4c5.3,0,9.3-3.9,9.3-9.7V88.2
				c0-1.3,1-2.3,2.3-2.3c1.3,0,2.3,1,2.3,2.3V115.2z"/>
			<path class="st1" d="M326.6,115.2c0,1.3-1,2.3-2.3,2.3c-1.3,0-2.3-1-2.3-2.3V111c-2.5,3.7-6.2,6.9-11.9,6.9
				c-7.4,0-14.8-5.9-14.8-16.1v-0.1c0-10.1,7.4-16.1,14.8-16.1c5.8,0,9.5,3.1,11.9,6.6V75.5c0-1.3,1-2.3,2.3-2.3
				c1.3,0,2.3,1,2.3,2.3V115.2z M300,101.6v0.1c0,7.3,5.1,12,10.9,12c5.8,0,11.2-4.9,11.2-12v-0.1c0-7.1-5.5-11.9-11.2-11.9
				C304.9,89.7,300,94.1,300,101.6z"/>
			<path class="st1" d="M332.3,108.2v-0.1c0-6.5,5.4-10,13.3-10c4,0,6.8,0.5,9.5,1.3v-1.1c0-5.6-3.4-8.5-9.2-8.5
				c-3.1,0-5.8,0.7-8,1.7c-0.3,0.1-0.6,0.2-0.8,0.2c-1.1,0-2-0.9-2-2c0-1,0.7-1.7,1.3-1.9c3.1-1.3,6.2-2.1,10.1-2.1
				c4.4,0,7.7,1.1,10,3.4c2.1,2.1,3.2,5.1,3.2,9.1v17c0,1.3-1,2.3-2.2,2.3c-1.3,0-2.2-1-2.2-2.2v-2.8c-2.2,2.8-5.8,5.3-11.2,5.3
				C338.1,117.9,332.3,114.6,332.3,108.2z M355.2,105.8v-3c-2.3-0.7-5.3-1.3-9.1-1.3c-5.8,0-9.1,2.5-9.1,6.4v0.1
				c0,3.9,3.6,6.2,7.8,6.2C350.5,114.2,355.2,110.7,355.2,105.8z"/>
			<path class="st1" d="M396.6,115.2c0,1.3-1,2.3-2.3,2.3c-1.3,0-2.3-1-2.3-2.3V111c-2.5,3.7-6.2,6.9-11.9,6.9
				c-7.4,0-14.8-5.9-14.8-16.1v-0.1c0-10.1,7.4-16.1,14.8-16.1c5.8,0,9.5,3.1,11.9,6.6V75.5c0-1.3,1-2.3,2.3-2.3
				c1.3,0,2.3,1,2.3,2.3V115.2z M370,101.6v0.1c0,7.3,5.1,12,10.9,12c5.8,0,11.2-4.9,11.2-12v-0.1c0-7.1-5.5-11.9-11.2-11.9
				C375,89.7,370,94.1,370,101.6z"/>
			<path class="st1" d="M402.3,108.2v-0.1c0-6.5,5.4-10,13.3-10c4,0,6.8,0.5,9.5,1.3v-1.1c0-5.6-3.4-8.5-9.2-8.5
				c-3.1,0-5.8,0.7-8,1.7c-0.3,0.1-0.6,0.2-0.8,0.2c-1.1,0-2-0.9-2-2c0-1,0.7-1.7,1.3-1.9c3.1-1.3,6.2-2.1,10.1-2.1
				c4.4,0,7.7,1.1,10,3.4c2.1,2.1,3.2,5.1,3.2,9.1v17c0,1.3-1,2.3-2.2,2.3c-1.3,0-2.2-1-2.2-2.2v-2.8c-2.2,2.8-5.8,5.3-11.2,5.3
				C408.1,117.9,402.3,114.6,402.3,108.2z M425.2,105.8v-3c-2.3-0.7-5.3-1.3-9.1-1.3c-5.8,0-9.1,2.5-9.1,6.4v0.1
				c0,3.9,3.6,6.2,7.8,6.2C420.5,114.2,425.2,110.7,425.2,105.8z"/>
			<path class="st1" d="M437.1,88.2c0-1.3,1-2.3,2.3-2.3c1.3,0,2.3,1,2.3,2.3v3.4c2-3.4,5.3-6.1,10.6-6.1c7.5,0,11.9,5,11.9,12.4
				v17.2c0,1.3-1,2.3-2.3,2.3c-1.3,0-2.3-1-2.3-2.3V99.1c0-5.8-3.1-9.4-8.6-9.4c-5.3,0-9.3,3.9-9.3,9.7v15.7c0,1.3-1,2.3-2.3,2.3
				c-1.3,0-2.3-1-2.3-2.3V88.2z"/>
			<path class="st1" d="M469.5,108.2v-0.1c0-6.5,5.4-10,13.3-10c4,0,6.8,0.5,9.5,1.3v-1.1c0-5.6-3.4-8.5-9.2-8.5
				c-3.1,0-5.8,0.7-8,1.7c-0.3,0.1-0.6,0.2-0.8,0.2c-1.1,0-2-0.9-2-2c0-1,0.7-1.7,1.3-1.9c3.1-1.3,6.2-2.1,10.1-2.1
				c4.4,0,7.7,1.1,10,3.4c2.1,2.1,3.2,5.1,3.2,9.1v17c0,1.3-1,2.3-2.2,2.3c-1.3,0-2.2-1-2.2-2.2v-2.8c-2.2,2.8-5.8,5.3-11.2,5.3
				C475.3,117.9,469.5,114.6,469.5,108.2z M492.3,105.8v-3c-2.3-0.7-5.3-1.3-9.1-1.3c-5.8,0-9.1,2.5-9.1,6.4v0.1
				c0,3.9,3.6,6.2,7.8,6.2C487.6,114.2,492.3,110.7,492.3,105.8z"/>
		</g>
	</g>
	<g>
		<g>
			<g>
				<path class="st1" d="M133.3,83.1c3.7-2.4,6.1-6.6,6.1-11.4c0-7.5-6.1-13.7-13.7-13.7s-13.7,6.1-13.7,13.7
					c0,4.8,2.4,8.9,6.1,11.4c-8.3,3.1-14.3,11.1-14.3,20.5h3.6c0-10,8.2-18.2,18.2-18.2s18.2,8.2,18.2,18.2h3.6
					C147.6,94.2,141.6,86.2,133.3,83.1z M125.7,81.7c-5.5,0-10-4.5-10-10c0-5.5,4.5-10,10-10c5.5,0,10,4.5,10,10
					C135.8,77.2,131.3,81.7,125.7,81.7z"/>
			</g>
			<g>
				<path class="st1" d="M151.5,74c3.7-2.4,6.1-6.6,6.1-11.4c0-7.5-6.1-13.7-13.7-13.7c-3.7,0-7,1.4-9.4,3.8
					c-0.9,0.9-1.7,1.9-2.3,2.9c1.1,0.5,2.2,1,3.2,1.7c0.6-1,1.5-2,2.4-2.7c1.7-1.3,3.8-2.1,6.1-2.1c5.5,0,10,4.5,10,10
					c0,4.6-3.1,8.5-7.3,9.6c-0.9,0.2-1.8,0.4-2.7,0.4c-0.3,0-0.6,0-1,0c-0.1,1.3-0.3,2.6-0.6,3.8c0.5,0,1-0.1,1.6-0.1
					c0.7,0,1.5,0.1,2.2,0.1c9,1.1,16,8.8,16,18.1h3.6C165.8,85.1,159.8,77.1,151.5,74z"/>
			</g>
			<g>
				<path class="st1" d="M107.5,76.3c0.5,0,1,0.1,1.6,0.1c-0.3-1.2-0.5-2.5-0.6-3.8c-0.3,0-0.6,0-1,0c-0.9,0-1.8-0.1-2.7-0.4
					c-4.2-1.2-7.3-5.1-7.3-9.6c0-5.5,4.5-10,10-10c2.3,0,4.4,0.8,6.1,2.1c1,0.7,1.8,1.7,2.4,2.7c1-0.7,2.1-1.2,3.2-1.7
					c-0.6-1.1-1.4-2.1-2.3-2.9c-2.5-2.3-5.8-3.8-9.4-3.8c-7.5,0-13.7,6.1-13.7,13.7c0,4.8,2.4,8.9,6.1,11.4
					c-8.3,3.1-14.3,11.1-14.3,20.5h3.6c0-9.3,7-17,16-18.1C106.1,76.3,106.8,76.3,107.5,76.3z"/>
			</g>
			<path class="st1" d="M178.1,77.1c-0.1-0.7-0.3-1.3-0.5-2c-0.2-0.5-0.3-1-0.5-1.4c-0.2-0.4-0.3-0.8-0.5-1.2
				c-0.2-0.3-0.3-0.7-0.5-1c-0.2-0.3-0.3-0.6-0.5-0.9c-0.2-0.3-0.3-0.5-0.5-0.8c-0.2-0.3-0.3-0.5-0.5-0.8c-0.2-0.2-0.3-0.4-0.5-0.7
				c-0.2-0.2-0.3-0.4-0.5-0.6c-0.2-0.2-0.3-0.4-0.5-0.6c-0.2-0.2-0.3-0.4-0.5-0.6c-0.2-0.2-0.3-0.3-0.5-0.5
				c-0.2-0.2-0.3-0.3-0.5-0.5c-0.2-0.2-0.3-0.3-0.5-0.4c-0.2-0.1-0.3-0.3-0.5-0.4c-0.2-0.1-0.3-0.3-0.5-0.4
				c-0.2-0.1-0.3-0.2-0.5-0.4c-0.2-0.1-0.3-0.3-0.5-0.4c-0.2-0.1-0.3-0.2-0.5-0.3c-0.2-0.1-0.3-0.2-0.5-0.3
				c-0.2-0.1-0.3-0.2-0.5-0.3c-0.2-0.1-0.3-0.2-0.5-0.3c-0.2-0.1-0.3-0.2-0.5-0.3c-0.2-0.1-0.3-0.2-0.5-0.2
				c-0.2-0.1-0.3-0.1-0.5-0.2c-0.2-0.1-0.3-0.1-0.5-0.2c-0.1,0-0.2-0.1-0.4-0.1c0.1-0.1,0.2-0.2,0.4-0.3c0.2-0.1,0.3-0.3,0.5-0.4
				c0.2-0.1,0.4-0.3,0.5-0.4c0.2-0.2,0.3-0.3,0.5-0.5c0.2-0.2,0.4-0.3,0.5-0.5c0.2-0.2,0.3-0.4,0.5-0.6c0.2-0.2,0.4-0.4,0.5-0.6
				c0.2-0.3,0.3-0.5,0.5-0.8c0.2-0.3,0.4-0.6,0.5-0.8c0.2-0.4,0.4-0.7,0.5-1.1c0.2-0.5,0.4-0.9,0.5-1.4c0.3-0.9,0.4-1.8,0.5-2.7
				c0-0.4,0.1-0.8,0.1-1.2c0-0.5,0-1-0.1-1.4c-0.1-0.9-0.3-1.7-0.5-2.5c-0.1-0.5-0.3-1-0.5-1.4c-0.2-0.4-0.3-0.7-0.5-1.1
				c-0.2-0.3-0.3-0.6-0.5-0.9c-0.2-0.3-0.3-0.5-0.5-0.8c-0.2-0.2-0.3-0.5-0.5-0.7c-0.2-0.2-0.3-0.4-0.5-0.6
				c-0.2-0.2-0.3-0.4-0.5-0.5c-0.2-0.2-0.3-0.3-0.5-0.5c-0.2-0.1-0.3-0.3-0.5-0.4c-0.2-0.1-0.3-0.3-0.5-0.4
				c-0.2-0.1-0.3-0.2-0.5-0.4c-0.2-0.1-0.3-0.2-0.5-0.3c-0.2-0.1-0.3-0.2-0.5-0.3c-0.2-0.1-0.3-0.2-0.5-0.2
				c-0.2-0.1-0.3-0.2-0.5-0.2c-0.2-0.1-0.3-0.1-0.5-0.2c-0.2-0.1-0.3-0.1-0.5-0.2c-0.2-0.1-0.3-0.1-0.5-0.2c-0.2,0-0.3-0.1-0.5-0.1
				c-0.2,0-0.3-0.1-0.5-0.1c-0.2,0-0.3-0.1-0.5-0.1c-0.2,0-0.3-0.1-0.5-0.1c-0.2,0-0.3,0-0.5-0.1c-0.2,0-0.3,0-0.5,0
				c-0.2,0-0.3,0-0.5,0c0,0-0.1,0-0.1,0c-0.1,0-0.2,0-0.4,0c-0.2,0-0.3,0-0.5,0c-0.2,0-0.3,0-0.5,0c-0.2,0-0.3,0.1-0.5,0.1
				c-0.2,0-0.3,0-0.5,0.1c-0.2,0-0.3,0.1-0.5,0.1c-0.2,0-0.3,0.1-0.5,0.1c-0.2,0-0.3,0.1-0.5,0.1c-0.2,0.1-0.3,0.1-0.5,0.2
				c-0.2,0.1-0.3,0.1-0.5,0.2c-0.2,0.1-0.3,0.2-0.5,0.2c-0.2,0.1-0.3,0.2-0.5,0.2c-0.2,0.1-0.3,0.2-0.5,0.3
				c-0.2,0.1-0.3,0.2-0.5,0.3c-0.2,0.1-0.3,0.2-0.5,0.3c-0.2,0.1-0.3,0.2-0.5,0.4c-0.2,0.1-0.3,0.3-0.5,0.4
				c-0.2,0.1-0.3,0.3-0.5,0.4c-0.1,0.1-0.2,0.1-0.2,0.2c-0.1,0.1-0.2,0.2-0.3,0.3c-0.2,0.2-0.3,0.4-0.5,0.6
				c-0.2,0.2-0.4,0.4-0.5,0.6c-0.2,0.2-0.3,0.5-0.5,0.8c-0.2,0.3-0.4,0.5-0.5,0.8c0.2,0.1,0.3,0.2,0.5,0.2c0.2,0.1,0.3,0.2,0.5,0.2
				c0.2,0.1,0.3,0.2,0.5,0.2c0.2,0.1,0.3,0.2,0.5,0.3c0.2,0.1,0.3,0.2,0.5,0.3c0.2,0.1,0.4,0.2,0.5,0.3c0,0,0.1,0,0.1,0.1
				c0.1-0.2,0.3-0.4,0.4-0.5c0.2-0.2,0.3-0.5,0.5-0.7c0.2-0.2,0.3-0.4,0.5-0.6c0.2-0.2,0.3-0.3,0.5-0.5c0.2-0.1,0.3-0.3,0.5-0.5
				c0,0,0,0,0,0c0.2-0.1,0.3-0.2,0.5-0.3c0.2-0.1,0.3-0.2,0.5-0.3c0.2-0.1,0.3-0.2,0.5-0.3c0.2-0.1,0.3-0.2,0.5-0.2
				c0.2-0.1,0.3-0.2,0.5-0.2c0.2-0.1,0.3-0.1,0.5-0.2c0.2-0.1,0.3-0.1,0.5-0.1c0.2,0,0.3-0.1,0.5-0.1c0.2,0,0.3-0.1,0.5-0.1
				c0.2,0,0.3,0,0.5,0c0.2,0,0.3,0,0.5,0c0.1,0,0.2,0,0.4,0c0,0,0.1,0,0.1,0c0.2,0,0.3,0,0.5,0.1c0.2,0,0.3,0,0.5,0.1
				c0.2,0,0.3,0,0.5,0.1c0.2,0,0.3,0.1,0.5,0.1c0.2,0,0.3,0.1,0.5,0.2c0.2,0,0.3,0.1,0.5,0.2c0.2,0.1,0.4,0.1,0.5,0.2
				c0.2,0.1,0.3,0.2,0.5,0.2c0.2,0.1,0.3,0.2,0.5,0.3c0.2,0.1,0.4,0.2,0.5,0.3c0.2,0.1,0.3,0.2,0.5,0.3c0.2,0.1,0.3,0.3,0.5,0.4
				c0.2,0.1,0.4,0.3,0.5,0.4c0.2,0.2,0.3,0.4,0.5,0.5c0.2,0.2,0.4,0.4,0.5,0.6c0.2,0.2,0.4,0.5,0.5,0.7c0.2,0.3,0.4,0.6,0.5,1
				c0.2,0.4,0.4,0.8,0.5,1.3c0.3,0.8,0.5,1.7,0.5,2.7c0,0.2,0.1,0.3,0.1,0.5c0,0.2,0,0.5-0.1,0.7c-0.1,0.9-0.2,1.7-0.5,2.6
				c-0.1,0.4-0.3,0.8-0.5,1.2c-0.2,0.3-0.3,0.6-0.5,0.9c-0.2,0.2-0.3,0.5-0.5,0.7c-0.2,0.2-0.3,0.4-0.5,0.6
				c-0.2,0.2-0.3,0.3-0.5,0.5c-0.2,0.2-0.3,0.3-0.5,0.5c-0.2,0.1-0.3,0.3-0.5,0.4c-0.2,0.1-0.3,0.3-0.5,0.4
				c-0.2,0.1-0.3,0.2-0.5,0.3c-0.2,0.1-0.3,0.2-0.5,0.3c0,0-0.1,0-0.1,0.1c0,0.3,0.1,0.5,0.1,0.8c0.1,0.6,0.1,1.2,0.1,1.8
				c0,0.6-0.1,1.2-0.1,1.8c0,0.2,0,0.4-0.1,0.6c0,0,0.1,0,0.1,0c0.2,0,0.3,0.1,0.5,0.1c0.2,0,0.3,0.1,0.5,0.1
				c0.2,0.1,0.3,0.1,0.5,0.2c0.2,0.1,0.3,0.1,0.5,0.2c0.2,0.1,0.3,0.1,0.5,0.2c0.2,0.1,0.3,0.1,0.5,0.2c0.2,0.1,0.3,0.2,0.5,0.2
				c0.2,0.1,0.3,0.2,0.5,0.2c0.2,0.1,0.3,0.2,0.5,0.3c0.2,0.1,0.3,0.2,0.5,0.3c0.2,0.1,0.3,0.2,0.5,0.3c0.2,0.1,0.3,0.2,0.5,0.4
				c0.2,0.1,0.4,0.2,0.5,0.4c0.2,0.1,0.3,0.3,0.5,0.4c0.2,0.1,0.3,0.3,0.5,0.4c0.2,0.2,0.3,0.3,0.5,0.5c0.2,0.2,0.3,0.3,0.5,0.5
				c0.2,0.2,0.3,0.4,0.5,0.6c0.2,0.2,0.4,0.4,0.5,0.6c0.2,0.2,0.3,0.4,0.5,0.7c0.2,0.2,0.4,0.5,0.5,0.7c0.2,0.3,0.3,0.6,0.5,0.8
				c0.2,0.3,0.4,0.6,0.5,0.9c0.2,0.4,0.4,0.7,0.5,1.1c0.2,0.4,0.4,0.9,0.5,1.3c0.2,0.6,0.4,1.2,0.5,1.8c0.3,1.3,0.5,2.7,0.5,4.2h0
				h0.5h0.5h0.5h0.5h0.5h0.5h0.5C178.6,80.1,178.4,78.6,178.1,77.1z"/>
			<path class="st1" d="M106,42.2c-0.2-0.3-0.3-0.5-0.5-0.8c-0.2-0.2-0.3-0.4-0.5-0.6c-0.2-0.2-0.3-0.4-0.5-0.6
				c-0.1-0.1-0.2-0.2-0.3-0.3c-0.1-0.1-0.2-0.1-0.2-0.2c-0.2-0.2-0.3-0.3-0.5-0.4c-0.2-0.1-0.3-0.3-0.5-0.4
				c-0.2-0.1-0.3-0.3-0.5-0.4c-0.2-0.1-0.3-0.2-0.5-0.3c-0.2-0.1-0.3-0.2-0.5-0.3c-0.2-0.1-0.3-0.2-0.5-0.3
				c-0.2-0.1-0.3-0.2-0.5-0.2c-0.2-0.1-0.3-0.2-0.5-0.2c-0.2-0.1-0.3-0.1-0.5-0.2c-0.2-0.1-0.3-0.1-0.5-0.2
				c-0.2-0.1-0.3-0.1-0.5-0.1c-0.2,0-0.3-0.1-0.5-0.1c-0.2,0-0.3-0.1-0.5-0.1c-0.2,0-0.3-0.1-0.5-0.1c-0.2,0-0.3-0.1-0.5-0.1
				c-0.2,0-0.3,0-0.5,0c-0.2,0-0.3,0-0.5,0c-0.1,0-0.2,0-0.4,0c0,0-0.1,0-0.1,0c-0.2,0-0.3,0-0.5,0c-0.2,0-0.3,0-0.5,0
				c-0.2,0-0.3,0-0.5,0.1c-0.2,0-0.3,0.1-0.5,0.1c-0.2,0-0.3,0-0.5,0.1c-0.2,0-0.3,0.1-0.5,0.1c-0.2,0-0.3,0.1-0.5,0.1
				c-0.2,0-0.3,0.1-0.5,0.2c-0.2,0.1-0.3,0.1-0.5,0.2c-0.2,0.1-0.3,0.1-0.5,0.2c-0.2,0.1-0.3,0.2-0.5,0.2c-0.2,0.1-0.3,0.2-0.5,0.2
				c-0.2,0.1-0.3,0.2-0.5,0.3c-0.2,0.1-0.3,0.2-0.5,0.3c-0.2,0.1-0.3,0.2-0.5,0.4c-0.2,0.1-0.3,0.3-0.5,0.4
				c-0.2,0.1-0.3,0.3-0.5,0.4c-0.2,0.2-0.3,0.3-0.5,0.5c-0.2,0.2-0.3,0.3-0.5,0.5c-0.2,0.2-0.4,0.4-0.5,0.6
				c-0.2,0.2-0.3,0.4-0.5,0.7c-0.2,0.2-0.4,0.5-0.5,0.8c-0.2,0.3-0.4,0.6-0.5,0.9c-0.2,0.3-0.4,0.7-0.5,1.1
				c-0.2,0.5-0.4,0.9-0.5,1.4c-0.2,0.8-0.4,1.7-0.5,2.5c0,0.5-0.1,0.9-0.1,1.4c0,0.4,0,0.8,0.1,1.2c0.1,0.9,0.3,1.8,0.5,2.7
				c0.1,0.5,0.3,1,0.5,1.4c0.2,0.4,0.3,0.7,0.5,1.1c0.2,0.3,0.3,0.6,0.5,0.8c0.2,0.3,0.3,0.5,0.5,0.8c0.2,0.2,0.3,0.4,0.5,0.6
				c0.2,0.2,0.3,0.4,0.5,0.6c0.2,0.2,0.3,0.3,0.5,0.5c0.2,0.2,0.3,0.3,0.5,0.5c0.2,0.1,0.3,0.3,0.5,0.4c0.2,0.1,0.3,0.3,0.5,0.4
				c0.1,0.1,0.2,0.2,0.4,0.3c-0.1,0-0.2,0.1-0.4,0.1c-0.2,0.1-0.3,0.1-0.5,0.2c-0.2,0.1-0.3,0.1-0.5,0.2c-0.2,0.1-0.3,0.2-0.5,0.2
				c-0.2,0.1-0.3,0.2-0.5,0.3c-0.2,0.1-0.3,0.2-0.5,0.3c-0.2,0.1-0.3,0.2-0.5,0.3c-0.2,0.1-0.3,0.2-0.5,0.3
				c-0.2,0.1-0.3,0.2-0.5,0.3c-0.2,0.1-0.3,0.2-0.5,0.4c-0.2,0.1-0.3,0.2-0.5,0.4c-0.2,0.1-0.3,0.3-0.5,0.4
				c-0.2,0.1-0.3,0.3-0.5,0.4c-0.2,0.1-0.3,0.3-0.5,0.4c-0.2,0.2-0.3,0.3-0.5,0.5c-0.2,0.2-0.4,0.3-0.5,0.5
				c-0.2,0.2-0.3,0.4-0.5,0.6c-0.2,0.2-0.4,0.4-0.5,0.6c-0.2,0.2-0.3,0.4-0.5,0.6c-0.2,0.2-0.4,0.4-0.5,0.7
				c-0.2,0.2-0.3,0.5-0.5,0.8c-0.2,0.3-0.4,0.5-0.5,0.8c-0.2,0.3-0.3,0.6-0.5,0.9c-0.2,0.3-0.4,0.7-0.5,1c-0.2,0.4-0.4,0.8-0.5,1.2
				c-0.2,0.5-0.4,0.9-0.5,1.4c-0.2,0.6-0.4,1.3-0.5,2c-0.3,1.5-0.5,3.1-0.5,4.7h0.5h0.5h0.5H75h0.5H76h0.5h0c0-1.4,0.2-2.8,0.5-4.2
				c0.1-0.6,0.3-1.2,0.5-1.8c0.2-0.4,0.3-0.9,0.5-1.3c0.2-0.4,0.3-0.7,0.5-1.1c0.2-0.3,0.3-0.6,0.5-0.9c0.2-0.3,0.3-0.6,0.5-0.8
				c0.2-0.2,0.3-0.5,0.5-0.7c0.2-0.2,0.3-0.5,0.5-0.7c0.2-0.2,0.3-0.4,0.5-0.6c0.2-0.2,0.3-0.4,0.5-0.6c0.2-0.2,0.3-0.3,0.5-0.5
				c0.2-0.2,0.3-0.3,0.5-0.5c0.2-0.1,0.3-0.3,0.5-0.4c0.2-0.1,0.3-0.3,0.5-0.4c0.2-0.1,0.3-0.2,0.5-0.4c0.2-0.1,0.3-0.2,0.5-0.4
				c0.2-0.1,0.3-0.2,0.5-0.3c0.2-0.1,0.3-0.2,0.5-0.3c0.2-0.1,0.3-0.2,0.5-0.3c0.2-0.1,0.3-0.2,0.5-0.2c0.2-0.1,0.3-0.2,0.5-0.2
				c0.2-0.1,0.3-0.2,0.5-0.2c0.2-0.1,0.3-0.1,0.5-0.2c0.2-0.1,0.3-0.1,0.5-0.2c0.2-0.1,0.3-0.1,0.5-0.2c0.2-0.1,0.3-0.1,0.5-0.1
				c0.2,0,0.3-0.1,0.5-0.1c0,0,0.1,0,0.1,0c0-0.2-0.1-0.4-0.1-0.6c-0.1-0.6-0.1-1.2-0.1-1.8c0-0.6,0.1-1.2,0.1-1.8
				c0-0.3,0.1-0.5,0.1-0.8c0,0-0.1,0-0.1-0.1c-0.2-0.1-0.3-0.2-0.5-0.3c-0.2-0.1-0.4-0.2-0.5-0.3c-0.2-0.1-0.3-0.2-0.5-0.4
				c-0.2-0.1-0.4-0.2-0.5-0.4c-0.2-0.1-0.3-0.3-0.5-0.5c-0.2-0.2-0.4-0.3-0.5-0.5c-0.2-0.2-0.3-0.4-0.5-0.6
				c-0.2-0.2-0.4-0.4-0.5-0.7c-0.2-0.3-0.4-0.6-0.5-0.9c-0.2-0.4-0.4-0.8-0.5-1.2c-0.3-0.8-0.5-1.7-0.5-2.6c0-0.2-0.1-0.5-0.1-0.7
				c0-0.2,0-0.3,0.1-0.5c0-0.9,0.2-1.8,0.5-2.7c0.1-0.4,0.3-0.8,0.5-1.3c0.2-0.3,0.3-0.6,0.5-1c0.2-0.2,0.3-0.5,0.5-0.7
				c0.2-0.2,0.3-0.4,0.5-0.6c0.2-0.2,0.3-0.4,0.5-0.5c0.2-0.2,0.3-0.3,0.5-0.4c0.2-0.1,0.3-0.3,0.5-0.4c0.2-0.1,0.3-0.2,0.5-0.3
				c0.2-0.1,0.3-0.2,0.5-0.3c0.2-0.1,0.3-0.2,0.5-0.3c0.2-0.1,0.3-0.2,0.5-0.2c0.2-0.1,0.3-0.1,0.5-0.2c0.2-0.1,0.3-0.1,0.5-0.2
				c0.2,0,0.3-0.1,0.5-0.2c0.2,0,0.3-0.1,0.5-0.1c0.2,0,0.3,0,0.5-0.1c0.2,0,0.3,0,0.5-0.1c0.2,0,0.3,0,0.5-0.1c0,0,0.1,0,0.1,0
				c0.1,0,0.2,0,0.4,0c0.2,0,0.3,0,0.5,0c0.2,0,0.3,0,0.5,0c0.2,0,0.3,0.1,0.5,0.1c0.2,0,0.3,0.1,0.5,0.1c0.2,0,0.3,0.1,0.5,0.1
				c0.2,0.1,0.3,0.1,0.5,0.2c0.2,0.1,0.3,0.2,0.5,0.2c0.2,0.1,0.3,0.1,0.5,0.2c0.2,0.1,0.3,0.2,0.5,0.3c0.2,0.1,0.3,0.2,0.5,0.3
				c0.2,0.1,0.4,0.2,0.5,0.3c0,0,0,0,0,0c0.2,0.1,0.3,0.3,0.5,0.5c0.2,0.2,0.4,0.3,0.5,0.5c0.2,0.2,0.4,0.4,0.5,0.6
				c0.2,0.2,0.4,0.5,0.5,0.7c0.1,0.2,0.3,0.3,0.4,0.5c0,0,0.1,0,0.1-0.1c0.2-0.1,0.3-0.2,0.5-0.3c0.2-0.1,0.3-0.2,0.5-0.3
				c0.2-0.1,0.3-0.2,0.5-0.3c0.2-0.1,0.3-0.2,0.5-0.2c0.2-0.1,0.3-0.2,0.5-0.2c0.2-0.1,0.3-0.2,0.5-0.2
				C106.4,42.7,106.2,42.4,106,42.2z"/>
			<path class="st1" d="M138.6,45.3c-0.1-0.4-0.2-0.7-0.4-1.1c-0.1-0.3-0.3-0.5-0.4-0.7c-0.1-0.3-0.3-0.5-0.4-0.7
				c-0.1-0.2-0.3-0.4-0.4-0.6c-0.1-0.2-0.3-0.3-0.4-0.5c-0.1-0.2-0.3-0.4-0.4-0.5c-0.1-0.2-0.3-0.3-0.4-0.5
				c-0.1-0.1-0.3-0.2-0.4-0.4c-0.1-0.1-0.3-0.3-0.4-0.4c-0.1-0.1-0.3-0.3-0.4-0.4c-0.1-0.1-0.3-0.2-0.4-0.4
				c-0.1-0.1-0.3-0.2-0.4-0.3c-0.1-0.1-0.3-0.2-0.4-0.3c-0.1-0.1-0.3-0.2-0.4-0.3c-0.1-0.1-0.3-0.2-0.4-0.3
				c-0.1-0.1-0.3-0.1-0.4-0.2c-0.1-0.1-0.3-0.1-0.4-0.2c-0.1-0.1-0.3-0.1-0.4-0.2c-0.1-0.1-0.3-0.1-0.4-0.2
				c-0.1-0.1-0.3-0.1-0.4-0.2c-0.1,0-0.3-0.1-0.4-0.1c-0.1,0-0.3-0.1-0.4-0.1c-0.1,0-0.3-0.1-0.4-0.1c-0.1,0-0.3-0.1-0.4-0.1
				c-0.1,0-0.3-0.1-0.4-0.1c-0.1,0-0.3-0.1-0.4-0.1c-0.1,0-0.3,0-0.4,0c-0.1,0-0.3,0-0.4,0c-0.1,0-0.3,0-0.4,0c-0.1,0-0.3,0-0.4,0
				c-0.1,0-0.3,0-0.4,0c-0.1,0-0.1,0-0.2,0c-0.1,0-0.1,0-0.2,0c-0.1,0-0.3,0-0.4,0s-0.3,0-0.4,0c-0.1,0-0.3,0-0.4,0
				c-0.1,0-0.3,0-0.4,0c-0.1,0-0.3,0-0.4,0c-0.1,0-0.3,0.1-0.4,0.1c-0.1,0-0.3,0.1-0.4,0.1c-0.1,0-0.3,0.1-0.4,0.1
				c-0.1,0-0.3,0.1-0.4,0.1c-0.1,0-0.3,0.1-0.4,0.1c-0.1,0-0.3,0.1-0.4,0.1c-0.1,0.1-0.3,0.1-0.4,0.2c-0.1,0.1-0.3,0.1-0.4,0.2
				c-0.1,0.1-0.3,0.1-0.4,0.2c-0.1,0.1-0.3,0.1-0.4,0.2c-0.1,0.1-0.3,0.1-0.4,0.2c-0.1,0.1-0.3,0.2-0.4,0.3
				c-0.1,0.1-0.3,0.2-0.4,0.3c-0.1,0.1-0.3,0.2-0.4,0.3c-0.1,0.1-0.3,0.2-0.4,0.3c-0.1,0.1-0.3,0.2-0.4,0.4
				c-0.1,0.1-0.3,0.3-0.4,0.4c-0.1,0.1-0.3,0.2-0.4,0.4c-0.1,0.1-0.3,0.2-0.4,0.4c-0.1,0.2-0.3,0.3-0.4,0.5
				c-0.1,0.2-0.3,0.3-0.4,0.5c-0.1,0.2-0.3,0.3-0.4,0.5c-0.1,0.2-0.3,0.4-0.4,0.6c-0.1,0.2-0.3,0.5-0.4,0.7
				c-0.1,0.3-0.3,0.5-0.4,0.7c-0.2,0.4-0.3,0.7-0.4,1.1c-0.1,0.4-0.3,0.8-0.4,1.2c0,0,0.2,0,0.4,0.1c0.1,0,0.2,0.1,0.4,0.1
				c0.1,0,0.3,0.1,0.4,0.1c0.1,0,0.3,0.1,0.4,0.2c0.1,0.1,0.3,0.1,0.4,0.2c0.1,0.1,0.3,0.1,0.4,0.2c0.1,0.1,0.3,0.1,0.4,0.2
				c0.1,0.1,0.3,0.1,0.4,0.2c0.1,0,0.1,0.1,0.2,0.1c0.1-0.3,0.2-0.5,0.2-0.8c0.1-0.4,0.2-0.8,0.4-1.2c0.1-0.3,0.3-0.6,0.4-0.8
				c0.1-0.2,0.3-0.5,0.4-0.7c0.1-0.2,0.3-0.4,0.4-0.6c0.1-0.2,0.3-0.4,0.4-0.5c0.1-0.1,0.3-0.3,0.4-0.4c0.1-0.1,0.3-0.3,0.4-0.4
				c0.1-0.1,0.3-0.3,0.4-0.4c0.1-0.1,0.3-0.2,0.4-0.3c0.1-0.1,0.3-0.2,0.4-0.3c0.1-0.1,0.3-0.2,0.4-0.3c0.1-0.1,0.3-0.1,0.4-0.2
				c0.1-0.1,0.3-0.1,0.4-0.2c0.1-0.1,0.3-0.1,0.4-0.2c0.1-0.1,0.3-0.1,0.4-0.2c0.1,0,0.3-0.1,0.4-0.1c0.1,0,0.3-0.1,0.4-0.1
				c0.1,0,0.3-0.1,0.4-0.1c0.1,0,0.3-0.1,0.4-0.1c0.1,0,0.3,0,0.4,0c0.1,0,0.3,0,0.4,0c0.1,0,0.3,0,0.4,0c0.1,0,0.3,0,0.4,0
				c0.1,0,0.1,0,0.2,0s0.1,0,0.2,0c0.1,0,0.3,0,0.4,0c0.1,0,0.3,0,0.4,0c0.1,0,0.3,0,0.4,0c0.1,0,0.3,0,0.4,0c0.1,0,0.3,0.1,0.4,0.1
				c0.1,0,0.3,0.1,0.4,0.1c0.1,0,0.3,0.1,0.4,0.1c0.1,0,0.3,0.1,0.4,0.1c0.1,0.1,0.3,0.1,0.4,0.2c0.1,0.1,0.3,0.1,0.4,0.2
				c0.1,0.1,0.3,0.1,0.4,0.2c0.1,0.1,0.3,0.1,0.4,0.2c0.1,0.1,0.3,0.2,0.4,0.3c0.1,0.1,0.3,0.2,0.4,0.3c0.1,0.1,0.3,0.2,0.4,0.3
				c0.1,0.1,0.3,0.3,0.4,0.4c0.1,0.1,0.3,0.3,0.4,0.4c0.1,0.1,0.3,0.3,0.4,0.4c0.1,0.2,0.3,0.4,0.4,0.5c0.1,0.2,0.3,0.4,0.4,0.6
				c0.1,0.2,0.3,0.5,0.4,0.7c0.1,0.3,0.3,0.6,0.4,0.8c0.2,0.4,0.3,0.8,0.4,1.2c0.1,0.3,0.2,0.5,0.2,0.8c0.1,0,0.1-0.1,0.2-0.1
				c0.1-0.1,0.3-0.2,0.4-0.2c0.1-0.1,0.3-0.1,0.4-0.2c0.1-0.1,0.3-0.1,0.4-0.2c0.1-0.1,0.3-0.1,0.4-0.2c0.1-0.1,0.3-0.1,0.4-0.2
				c0.1-0.1,0.3-0.1,0.4-0.1c0.2-0.1,0.3-0.1,0.4-0.1c0.3-0.1,0.4-0.1,0.4-0.1C138.9,46.1,138.7,45.7,138.6,45.3z"/>
		</g>
		<g>
			<path class="st1" d="M129.7,128.5c-1,0.1-2.1,0.1-3.1,0.1c-16.3,0.1-31.7-6.1-43.4-17.6C71.6,99.6,65.1,84.3,65,68
				c-0.1-16.3,6.1-31.7,17.6-43.4C94,13,109.3,6.5,125.7,6.4c16.3-0.1,31.7,6.1,43.4,17.6c11.6,11.5,18.1,26.8,18.2,43.1
				c0.1,16.3-6.1,31.7-17.6,43.4C159,121.3,144.9,127.7,129.7,128.5z M122.8,10.1C92.4,11.8,68.4,37.2,68.6,68
				c0.3,31.7,26.3,57.3,58,57.1c1,0,1.9,0,2.9-0.1c30.4-1.7,54.4-27.1,54.2-57.9c-0.3-31.7-26.3-57.3-58-57.1
				C124.7,10,123.8,10,122.8,10.1z"/>
		</g>
	</g>
</g>
</svg>
