<?xml version="1.0" encoding="utf-8"?>
<!-- Generator: Adobe Illustrator 24.0.0, SVG Export Plug-In . SVG Version: 6.00 Build 0)  -->
<svg version="1.1" id="Capa_1" xmlns="http://www.w3.org/2000/svg" xmlns:xlink="http://www.w3.org/1999/xlink" x="0px" y="0px"
	 viewBox="0 0 742.6 135" style="enable-background:new 0 0 742.6 135;" xml:space="preserve">
<style type="text/css">
	.st0{fill:#FFFFFF;}
	.st1{fill:#003E67;}
	.st2{opacity:0.2;}
	.st3{clip-path:url(#SVGID_2_);fill:#28B6DC;}
	.st4{clip-path:url(#SVGID_2_);fill:#29B6DC;}
	.st5{clip-path:url(#SVGID_2_);fill:#2AB7DC;}
	.st6{clip-path:url(#SVGID_2_);fill:#2BB7DC;}
	.st7{clip-path:url(#SVGID_2_);fill:#2CB7DD;}
	.st8{clip-path:url(#SVGID_2_);fill:#2DB8DD;}
	.st9{clip-path:url(#SVGID_2_);fill:#2EB8DD;}
	.st10{clip-path:url(#SVGID_2_);fill:#2FB8DD;}
	.st11{clip-path:url(#SVGID_2_);fill:#30B9DD;}
	.st12{clip-path:url(#SVGID_2_);fill:#31B9DD;}
	.st13{clip-path:url(#SVGID_2_);fill:#32B9DE;}
	.st14{clip-path:url(#SVGID_2_);fill:#33BADE;}
	.st15{clip-path:url(#SVGID_2_);fill:#34BADE;}
	.st16{clip-path:url(#SVGID_2_);fill:#35BADE;}
	.st17{clip-path:url(#SVGID_2_);fill:#36BBDE;}
	.st18{clip-path:url(#SVGID_2_);fill:#37BBDE;}
	.st19{clip-path:url(#SVGID_2_);fill:#38BCDF;}
	.st20{clip-path:url(#SVGID_2_);fill:#39BCDF;}
	.st21{clip-path:url(#SVGID_2_);fill:#3ABCDF;}
	.st22{clip-path:url(#SVGID_2_);fill:#3BBDDF;}
	.st23{clip-path:url(#SVGID_2_);fill:#3CBDDF;}
	.st24{clip-path:url(#SVGID_2_);fill:#3DBDDF;}
	.st25{clip-path:url(#SVGID_2_);fill:#3EBEDF;}
	.st26{clip-path:url(#SVGID_2_);fill:#3FBEE0;}
	.st27{clip-path:url(#SVGID_2_);fill:#40BEE0;}
	.st28{clip-path:url(#SVGID_2_);fill:#41BFE0;}
	.st29{clip-path:url(#SVGID_2_);fill:#42BFE0;}
	.st30{clip-path:url(#SVGID_2_);fill:#43BFE0;}
	.st31{clip-path:url(#SVGID_2_);fill:#44C0E0;}
	.st32{clip-path:url(#SVGID_2_);fill:#45C0E1;}
	.st33{clip-path:url(#SVGID_2_);fill:#46C0E1;}
	.st34{clip-path:url(#SVGID_2_);fill:#47C1E1;}
	.st35{clip-path:url(#SVGID_2_);fill:#49C1E1;}
	.st36{clip-path:url(#SVGID_2_);fill:#4AC1E1;}
	.st37{clip-path:url(#SVGID_2_);fill:#4BC2E1;}
	.st38{clip-path:url(#SVGID_2_);fill:#4CC2E1;}
	.st39{clip-path:url(#SVGID_2_);fill:#4DC2E2;}
	.st40{clip-path:url(#SVGID_2_);fill:#4EC3E2;}
	.st41{clip-path:url(#SVGID_2_);fill:#4FC3E2;}
	.st42{clip-path:url(#SVGID_2_);fill:#50C3E2;}
	.st43{clip-path:url(#SVGID_2_);fill:#51C4E2;}
	.st44{clip-path:url(#SVGID_2_);fill:#52C4E2;}
	.st45{clip-path:url(#SVGID_2_);fill:#53C4E3;}
	.st46{clip-path:url(#SVGID_2_);fill:#54C5E3;}
	.st47{clip-path:url(#SVGID_2_);fill:#55C5E3;}
	.st48{clip-path:url(#SVGID_2_);fill:#56C5E3;}
	.st49{clip-path:url(#SVGID_2_);fill:#57C6E3;}
	.st50{clip-path:url(#SVGID_2_);fill:#58C6E3;}
	.st51{clip-path:url(#SVGID_2_);fill:#59C7E4;}
	.st52{clip-path:url(#SVGID_2_);fill:#5AC7E4;}
	.st53{clip-path:url(#SVGID_2_);fill:#5BC7E4;}
	.st54{clip-path:url(#SVGID_2_);fill:#5CC8E4;}
	.st55{clip-path:url(#SVGID_2_);fill:#5DC8E4;}
	.st56{clip-path:url(#SVGID_2_);fill:#5EC8E4;}
	.st57{clip-path:url(#SVGID_2_);fill:#5FC9E4;}
	.st58{clip-path:url(#SVGID_2_);fill:#60C9E5;}
	.st59{clip-path:url(#SVGID_2_);fill:#61C9E5;}
	.st60{clip-path:url(#SVGID_2_);fill:#62CAE5;}
	.st61{clip-path:url(#SVGID_2_);fill:#63CAE5;}
	.st62{clip-path:url(#SVGID_2_);fill:#64CAE5;}
	.st63{clip-path:url(#SVGID_2_);fill:#65CBE5;}
	.st64{clip-path:url(#SVGID_2_);fill:#66CBE6;}
	.st65{clip-path:url(#SVGID_2_);fill:#67CBE6;}
	.st66{clip-path:url(#SVGID_2_);fill:#68CCE6;}
	.st67{clip-path:url(#SVGID_2_);fill:#69CCE6;}
	.st68{clip-path:url(#SVGID_4_);fill:#28B6DC;}
	.st69{clip-path:url(#SVGID_4_);fill:#29B6DC;}
	.st70{clip-path:url(#SVGID_4_);fill:#2AB7DC;}
	.st71{clip-path:url(#SVGID_4_);fill:#2BB7DC;}
	.st72{clip-path:url(#SVGID_4_);fill:#2CB7DD;}
	.st73{clip-path:url(#SVGID_4_);fill:#2DB8DD;}
	.st74{clip-path:url(#SVGID_4_);fill:#2EB8DD;}
	.st75{clip-path:url(#SVGID_4_);fill:#2FB8DD;}
	.st76{clip-path:url(#SVGID_4_);fill:#30B9DD;}
	.st77{clip-path:url(#SVGID_4_);fill:#31B9DD;}
	.st78{clip-path:url(#SVGID_4_);fill:#32B9DE;}
	.st79{clip-path:url(#SVGID_4_);fill:#33BADE;}
	.st80{clip-path:url(#SVGID_4_);fill:#34BADE;}
	.st81{clip-path:url(#SVGID_4_);fill:#35BADE;}
	.st82{clip-path:url(#SVGID_4_);fill:#36BBDE;}
	.st83{clip-path:url(#SVGID_4_);fill:#37BBDE;}
	.st84{clip-path:url(#SVGID_4_);fill:#38BCDF;}
	.st85{clip-path:url(#SVGID_4_);fill:#39BCDF;}
	.st86{clip-path:url(#SVGID_4_);fill:#3ABCDF;}
	.st87{clip-path:url(#SVGID_4_);fill:#3BBDDF;}
	.st88{clip-path:url(#SVGID_4_);fill:#3CBDDF;}
	.st89{clip-path:url(#SVGID_4_);fill:#3DBDDF;}
	.st90{clip-path:url(#SVGID_4_);fill:#3EBEDF;}
	.st91{clip-path:url(#SVGID_4_);fill:#3FBEE0;}
	.st92{clip-path:url(#SVGID_4_);fill:#40BEE0;}
	.st93{clip-path:url(#SVGID_4_);fill:#41BFE0;}
	.st94{clip-path:url(#SVGID_4_);fill:#42BFE0;}
	.st95{clip-path:url(#SVGID_4_);fill:#43BFE0;}
	.st96{clip-path:url(#SVGID_4_);fill:#44C0E0;}
	.st97{clip-path:url(#SVGID_4_);fill:#45C0E1;}
	.st98{clip-path:url(#SVGID_4_);fill:#46C0E1;}
	.st99{clip-path:url(#SVGID_4_);fill:#47C1E1;}
	.st100{clip-path:url(#SVGID_4_);fill:#49C1E1;}
	.st101{clip-path:url(#SVGID_4_);fill:#4AC1E1;}
	.st102{clip-path:url(#SVGID_4_);fill:#4BC2E1;}
	.st103{clip-path:url(#SVGID_4_);fill:#4CC2E1;}
	.st104{clip-path:url(#SVGID_4_);fill:#4DC2E2;}
	.st105{clip-path:url(#SVGID_4_);fill:#4EC3E2;}
	.st106{clip-path:url(#SVGID_4_);fill:#4FC3E2;}
	.st107{clip-path:url(#SVGID_4_);fill:#50C3E2;}
	.st108{clip-path:url(#SVGID_4_);fill:#51C4E2;}
	.st109{clip-path:url(#SVGID_4_);fill:#52C4E2;}
	.st110{clip-path:url(#SVGID_4_);fill:#53C4E3;}
	.st111{clip-path:url(#SVGID_4_);fill:#54C5E3;}
	.st112{clip-path:url(#SVGID_4_);fill:#55C5E3;}
	.st113{clip-path:url(#SVGID_4_);fill:#56C5E3;}
	.st114{clip-path:url(#SVGID_4_);fill:#57C6E3;}
	.st115{clip-path:url(#SVGID_4_);fill:#58C6E3;}
	.st116{clip-path:url(#SVGID_4_);fill:#59C7E4;}
	.st117{clip-path:url(#SVGID_4_);fill:#5AC7E4;}
	.st118{clip-path:url(#SVGID_4_);fill:#5BC7E4;}
	.st119{clip-path:url(#SVGID_4_);fill:#5CC8E4;}
	.st120{clip-path:url(#SVGID_4_);fill:#5DC8E4;}
	.st121{clip-path:url(#SVGID_4_);fill:#5EC8E4;}
	.st122{clip-path:url(#SVGID_4_);fill:#5FC9E4;}
	.st123{clip-path:url(#SVGID_4_);fill:#60C9E5;}
	.st124{clip-path:url(#SVGID_4_);fill:#61C9E5;}
	.st125{clip-path:url(#SVGID_4_);fill:#62CAE5;}
	.st126{clip-path:url(#SVGID_4_);fill:#63CAE5;}
	.st127{clip-path:url(#SVGID_4_);fill:#64CAE5;}
	.st128{clip-path:url(#SVGID_4_);fill:#65CBE5;}
	.st129{clip-path:url(#SVGID_4_);fill:#66CBE6;}
	.st130{clip-path:url(#SVGID_4_);fill:#67CBE6;}
	.st131{clip-path:url(#SVGID_4_);fill:#68CCE6;}
	.st132{clip-path:url(#SVGID_4_);fill:#69CCE6;}
	.st133{clip-path:url(#SVGID_6_);fill:#28B6DC;}
	.st134{clip-path:url(#SVGID_6_);fill:#29B6DC;}
	.st135{clip-path:url(#SVGID_6_);fill:#2AB7DC;}
	.st136{clip-path:url(#SVGID_6_);fill:#2BB7DC;}
	.st137{clip-path:url(#SVGID_6_);fill:#2CB7DD;}
	.st138{clip-path:url(#SVGID_6_);fill:#2DB8DD;}
	.st139{clip-path:url(#SVGID_6_);fill:#2EB8DD;}
	.st140{clip-path:url(#SVGID_6_);fill:#2FB8DD;}
	.st141{clip-path:url(#SVGID_6_);fill:#30B9DD;}
	.st142{clip-path:url(#SVGID_6_);fill:#31B9DD;}
	.st143{clip-path:url(#SVGID_6_);fill:#32B9DE;}
	.st144{clip-path:url(#SVGID_6_);fill:#33BADE;}
	.st145{clip-path:url(#SVGID_6_);fill:#34BADE;}
	.st146{clip-path:url(#SVGID_6_);fill:#35BADE;}
	.st147{clip-path:url(#SVGID_6_);fill:#36BBDE;}
	.st148{clip-path:url(#SVGID_6_);fill:#37BBDE;}
	.st149{clip-path:url(#SVGID_6_);fill:#38BCDF;}
	.st150{clip-path:url(#SVGID_6_);fill:#39BCDF;}
	.st151{clip-path:url(#SVGID_6_);fill:#3ABCDF;}
	.st152{clip-path:url(#SVGID_6_);fill:#3BBDDF;}
	.st153{clip-path:url(#SVGID_6_);fill:#3CBDDF;}
	.st154{clip-path:url(#SVGID_6_);fill:#3DBDDF;}
	.st155{clip-path:url(#SVGID_6_);fill:#3EBEDF;}
	.st156{clip-path:url(#SVGID_6_);fill:#3FBEE0;}
	.st157{clip-path:url(#SVGID_6_);fill:#40BEE0;}
	.st158{clip-path:url(#SVGID_6_);fill:#41BFE0;}
	.st159{clip-path:url(#SVGID_6_);fill:#42BFE0;}
	.st160{clip-path:url(#SVGID_6_);fill:#43BFE0;}
	.st161{clip-path:url(#SVGID_6_);fill:#44C0E0;}
	.st162{clip-path:url(#SVGID_6_);fill:#45C0E1;}
	.st163{clip-path:url(#SVGID_6_);fill:#46C0E1;}
	.st164{clip-path:url(#SVGID_6_);fill:#47C1E1;}
	.st165{clip-path:url(#SVGID_6_);fill:#49C1E1;}
	.st166{clip-path:url(#SVGID_6_);fill:#4AC1E1;}
	.st167{clip-path:url(#SVGID_6_);fill:#4BC2E1;}
	.st168{clip-path:url(#SVGID_6_);fill:#4CC2E1;}
	.st169{clip-path:url(#SVGID_6_);fill:#4DC2E2;}
	.st170{clip-path:url(#SVGID_6_);fill:#4EC3E2;}
	.st171{clip-path:url(#SVGID_6_);fill:#4FC3E2;}
	.st172{clip-path:url(#SVGID_6_);fill:#50C3E2;}
	.st173{clip-path:url(#SVGID_6_);fill:#51C4E2;}
	.st174{clip-path:url(#SVGID_6_);fill:#52C4E2;}
	.st175{clip-path:url(#SVGID_6_);fill:#53C4E3;}
	.st176{clip-path:url(#SVGID_6_);fill:#54C5E3;}
	.st177{clip-path:url(#SVGID_6_);fill:#55C5E3;}
	.st178{clip-path:url(#SVGID_6_);fill:#56C5E3;}
	.st179{clip-path:url(#SVGID_6_);fill:#57C6E3;}
	.st180{clip-path:url(#SVGID_6_);fill:#58C6E3;}
	.st181{clip-path:url(#SVGID_6_);fill:#59C7E4;}
	.st182{clip-path:url(#SVGID_6_);fill:#5AC7E4;}
	.st183{clip-path:url(#SVGID_6_);fill:#5BC7E4;}
	.st184{clip-path:url(#SVGID_6_);fill:#5CC8E4;}
	.st185{clip-path:url(#SVGID_6_);fill:#5DC8E4;}
	.st186{clip-path:url(#SVGID_6_);fill:#5EC8E4;}
	.st187{clip-path:url(#SVGID_6_);fill:#5FC9E4;}
	.st188{clip-path:url(#SVGID_6_);fill:#60C9E5;}
	.st189{clip-path:url(#SVGID_6_);fill:#61C9E5;}
	.st190{clip-path:url(#SVGID_6_);fill:#62CAE5;}
	.st191{clip-path:url(#SVGID_6_);fill:#63CAE5;}
	.st192{clip-path:url(#SVGID_6_);fill:#64CAE5;}
	.st193{clip-path:url(#SVGID_6_);fill:#65CBE5;}
	.st194{clip-path:url(#SVGID_6_);fill:#66CBE6;}
	.st195{clip-path:url(#SVGID_6_);fill:#67CBE6;}
	.st196{clip-path:url(#SVGID_6_);fill:#68CCE6;}
	.st197{clip-path:url(#SVGID_6_);fill:#69CCE6;}
	.st198{fill:#0F82BB;}
	.st199{fill:#0071BC;}
	.st200{clip-path:url(#SVGID_8_);}
	.st201{fill:#39A935;}
	.st202{fill:none;stroke:#1D1D1B;stroke-miterlimit:10;}
	.st203{fill:#29ABE2;}
	.st204{clip-path:url(#SVGID_10_);}
	.st205{fill-rule:evenodd;clip-rule:evenodd;fill:#003E67;}
	.st206{clip-path:url(#XMLID_13_);fill:#003E67;}
</style>
<g>
	<g>
		<path class="st1" d="M187.2,59.4c0.3-1.4,0.4-2.9,0.4-4.4c-0.1-10.7-3.4-21-9.4-29.9L165.3,6.3l-6.2,9.5
			c-10-6.3-21.4-9.6-33.3-9.4c-4.1,0-8.1,0.5-12.1,1.4c-1.7-0.7-3.6-1.2-5.6-1.1c-7,0.1-12.7,5.4-13.5,12.2
			c-1.1,0.2-2.1,0.6-3.1,1.2c-1.5-0.9-3.2-1.3-4.9-1.3c-4,0-7.5,2.5-9,6.1c-3.8,0.6-6.7,3.9-6.6,7.9c0,2,0.8,3.9,2.1,5.3
			c-5.1,9.2-7.8,19.7-7.7,30.3c0.1,10.5,3,20.9,8.2,29.9l0,3.5c0,2.2,1.8,3.9,4,3.9l0.1,7.9l-3.9,0l0,3.9l17.1-0.2
			c10.6,7.6,23.1,11.6,36.3,11.4c33.7-0.4,60.8-28.1,60.4-61.8C187.7,64.3,187.5,61.9,187.2,59.4z M108.2,10.5
			c5.4-0.1,9.9,4.3,10,9.7c0,4.2-2.5,7.8-6.3,9.3c-1-2.7-3.4-4.7-6.3-5.1c-1.3-2.9-3.9-5-7-5.7C99.3,14.2,103.3,10.6,108.2,10.5z
			 M78.7,28.6l1.9,0.1l0.4-1.6c0.6-2.6,3-4.5,5.7-4.5c1.3,0,2.6,0.4,3.7,1.3l1.3,1l1.2-1c1.1-0.9,2.3-1.4,3.7-1.4
			c2.7,0,5.1,1.8,5.8,4.4l0.4,1.5l1.6-0.1c0.1,0,0.2,0,0.2,0c2.2,0,4,1.7,4,3.9c0,2.2-1.7,4-3.9,4l-25.6,0.3c-2.2,0-4-1.7-4-3.9
			C74.9,30.5,76.6,28.7,78.7,28.6z M77.3,101.1v-3.9h67.1v3.9H77.3z M81.2,93.2v-5.9c0-1.1,0.9-2,2-2c1.1,0,2,0.9,2,2v5.9H81.2z
			 M85.2,73.4v-2c0-1.1,0.9-2,2-2h47.3c1.1,0,2,0.9,2,2v2h-13.8v3.9h13.8v3.9H85.2v-3.9h33.5v-3.9H85.2z M138.4,85.3
			c1.1,0,2,0.9,2,2v5.9h-3.9v-5.9C136.4,86.2,137.3,85.3,138.4,85.3z M88.7,85.3h44.1c-0.2,0.6-0.4,1.3-0.4,2v5.9H89.1v-5.9
			C89.1,86.6,89,85.9,88.7,85.3z M140.9,112.7l-3.9,0l-0.1-7.9l3.9,0L140.9,112.7z M85.2,112.9h-3.9V105h3.9V112.9z M89.6,113.3
			l-0.1-7.9l43.4-0.5l0.1,7.9L89.6,113.3z M156.7,116.1l0-3.6l-3.9,0l0,3.9l3.3,0c-8.4,5.1-18.3,8.1-28.8,8.2
			c-10.3,0.1-20.2-2.5-29-7.6l50.6-0.6l0-3.9l-3.9,0l-0.1-7.9c2.2,0,3.9-1.8,3.9-4l0-3.9c0-2.2-1.8-3.9-4-3.9l-0.1-5.9
			c0-2.6-1.7-4.7-4-5.5l-0.1-10.2c0-3.3-2.7-5.9-6-5.8L87.1,66c-3.3,0-5.9,2.7-5.8,6l0.1,10.2c-2.3,0.8-3.9,3-3.9,5.6l0.1,5.9
			c-0.6,0-1.1,0.1-1.6,0.4c-4.2-8-6.5-16.9-6.6-25.9c-0.1-9.9,2.3-19.5,7.1-28.1c0.8,0.3,1.6,0.4,2.5,0.4l25.6-0.3
			c3.9,0,7-2.9,7.7-6.5c5.9-1.7,9.9-7.1,9.9-13.4c0-3.6-1.5-6.9-3.8-9.3c2.5-0.4,5.1-0.6,7.6-0.6c11.1-0.1,21.8,2.9,31.1,8.8
			l-4.1,6.3c-5.8,9-8.9,19.4-8.7,30.1c0.1,11.3,8.9,20.5,20,21.4l0.4,33.4C162.1,112.4,159.5,114.4,156.7,116.1z M168,106.9V77.3
			c6.5-0.6,12.2-4.1,15.8-9.1C183.6,83.2,177.6,96.8,168,106.9z M168,73.3v-9.4l0.3-0.9c2.2-6.6,6-12.8,10.9-17.7l-2.8-2.8
			c-3.4,3.3-6.2,7.2-8.5,11.4V28.1h-3.9v21.4c-2.3-3.5-5.3-6.6-8.7-9.2l-2.4,3.2c4.9,3.7,8.6,8.6,10.9,14.2l0.1,0.4v15.3
			c-8.9-1-15.8-8.5-15.8-17.6c0-9.9,2.9-19.6,8.4-27.8l9.3-14l9.3,14c5.5,8.3,8.4,17.9,8.4,27.8C183.8,64.8,176.9,72.3,168,73.3z"/>
		<path class="st1" d="M132.5,43.9c-4.4,0-7.9,3.5-7.9,7.9h3.9c0-2.2,1.8-3.9,3.9-3.9s3.9,1.8,3.9,3.9c0,2.2-1.8,3.9-3.9,3.9h-27.6
			v3.9h27.6c4.4,0,7.9-3.5,7.9-7.9C140.4,47.4,136.8,43.9,132.5,43.9L132.5,43.9z M132.5,43.9"/>
		<rect x="89.1" y="45.8" class="st1" width="23.7" height="3.9"/>
	</g>
	<g>
		<g>
			<path class="st1" d="M218.7,14.1c0-1.3,1.1-2.4,2.3-2.4h13.4c9.5,0,15.7,5,15.7,13.3v0.1c0,9.1-7.6,13.7-16.5,13.7h-10.2v12.7
				c0,1.3-1.1,2.4-2.4,2.4c-1.3,0-2.3-1.1-2.3-2.4V14.1z M233.8,34.6c7,0,11.5-3.7,11.5-9.2v-0.1c0-6-4.5-9.1-11.3-9.1h-10.6v18.5
				H233.8z"/>
			<path class="st1" d="M253.5,38.4v-0.1c0-8.8,6.8-16.2,16.2-16.2c9.3,0,16.1,7.3,16.1,16.1v0.1c0,8.8-6.9,16.2-16.3,16.2
				C260.3,54.4,253.5,47.1,253.5,38.4z M281.1,38.4v-0.1c0-6.7-5-12.1-11.5-12.1c-6.7,0-11.3,5.5-11.3,12v0.1
				c0,6.7,4.9,12.1,11.5,12.1C276.4,50.3,281.1,44.9,281.1,38.4z"/>
			<path class="st1" d="M292.3,12c0-1.3,1-2.3,2.3-2.3c1.3,0,2.3,1.1,2.3,2.3v39.7c0,1.3-1,2.3-2.3,2.3c-1.3,0-2.3-1-2.3-2.3V12z"/>
			<path class="st1" d="M305.8,24.7c0-1.3,1-2.3,2.3-2.3c1.3,0,2.3,1,2.3,2.3v26.9c0,1.3-1,2.3-2.3,2.3c-1.3,0-2.3-1-2.3-2.3V24.7z
				 M306.9,17.4c0-0.3,0.1-0.7,0.3-0.9l3.6-5.5c0.6-0.9,1.3-1.4,2.2-1.4c1.4,0,3.2,1,3.2,1.8c0,0.5-0.4,0.9-0.8,1.4l-4.5,4.3
				c-1,1-1.7,1.1-2.8,1.1C307.4,18.3,306.9,17.9,306.9,17.4z"/>
			<path class="st1" d="M320.5,45.5V26.8H318c-1.1,0-2-1-2-2c0-1.1,1-2,2-2h2.5v-7.3c0-1.3,1-2.3,2.3-2.3c1.3,0,2.3,1.1,2.3,2.3v7.3
				h8c1.1,0,2.1,1,2.1,2c0,1.1-1,2-2.1,2h-8v18.1c0,3.8,2.1,5.2,5.2,5.2c1.6,0,2.5-0.4,2.8-0.4c1.1,0,2,0.9,2,2
				c0,0.8-0.5,1.5-1.3,1.8c-1.3,0.5-2.8,0.8-4.6,0.8C324.3,54.3,320.5,51.8,320.5,45.5z"/>
			<path class="st1" d="M340.8,13c0-1.5,1.2-2.5,2.7-2.5c1.6,0,2.8,1,2.8,2.5v0.8c0,1.4-1.2,2.5-2.8,2.5c-1.5,0-2.7-1-2.7-2.5V13z
				 M341.3,24.7c0-1.3,1-2.3,2.3-2.3c1.3,0,2.3,1,2.3,2.3v26.9c0,1.3-1,2.3-2.3,2.3c-1.3,0-2.3-1-2.3-2.3V24.7z"/>
			<path class="st1" d="M352.4,38.4v-0.1c0-8.8,6.8-16.2,15.9-16.2c5.2,0,8.6,2,11.4,4.5c0.4,0.3,0.7,0.9,0.7,1.6
				c0,1.3-1,2.2-2.2,2.2c-0.6,0-1.1-0.2-1.5-0.5c-2.2-2-4.7-3.7-8.5-3.7c-6.3,0-11.1,5.3-11.1,12v0.1c0,6.7,4.9,12.1,11.4,12.1
				c3.5,0,6.4-1.6,8.6-3.8c0.3-0.3,0.7-0.6,1.3-0.6c1.1,0,2.1,1,2.1,2.1c0,0.5-0.2,1.1-0.6,1.4c-2.9,2.9-6.5,5-11.7,5
				C359.3,54.4,352.4,47.1,352.4,38.4z"/>
			<path class="st1" d="M384,44.7v-0.1c0-6.5,5.4-10,13.3-10c4,0,6.8,0.5,9.5,1.3v-1.1c0-5.6-3.4-8.5-9.2-8.5c-3.1,0-5.8,0.7-8,1.7
				c-0.3,0.1-0.6,0.2-0.8,0.2c-1.1,0-2-0.9-2-2c0-1,0.7-1.7,1.3-1.9c3.1-1.3,6.2-2.1,10.1-2.1c4.4,0,7.7,1.1,10,3.4
				c2.1,2.1,3.2,5.1,3.2,9.1v17c0,1.3-1,2.3-2.2,2.3c-1.3,0-2.2-1-2.2-2.2V49c-2.2,2.8-5.8,5.3-11.2,5.3
				C389.8,54.4,384,51.1,384,44.7z M406.8,42.3v-3c-2.3-0.7-5.3-1.3-9.1-1.3c-5.8,0-9.1,2.5-9.1,6.4v0.1c0,3.9,3.6,6.2,7.8,6.2
				C402.2,50.7,406.8,47.2,406.8,42.3z"/>
			<path class="st1" d="M435.3,14.1c0-1.3,1.1-2.4,2.3-2.4h12.2c13.2,0,22.3,9.1,22.3,20.9v0.1c0,11.8-9.1,21-22.3,21h-12.2
				c-1.3,0-2.3-1.1-2.3-2.4V14.1z M449.9,49.3c10.6,0,17.4-7.2,17.4-16.5v-0.1c0-9.3-6.8-16.6-17.4-16.6H440v33.2H449.9z"/>
			<path class="st1" d="M479.1,13c0-1.5,1.2-2.5,2.7-2.5c1.6,0,2.8,1,2.8,2.5v0.8c0,1.4-1.2,2.5-2.8,2.5c-1.5,0-2.7-1-2.7-2.5V13z
				 M479.6,24.7c0-1.3,1-2.3,2.3-2.3c1.3,0,2.3,1,2.3,2.3v26.9c0,1.3-1,2.3-2.3,2.3c-1.3,0-2.3-1-2.3-2.3V24.7z"/>
			<path class="st1" d="M491,50.4c-0.4-0.3-0.8-0.9-0.8-1.7c0-1.1,0.9-2,2-2c0.4,0,0.8,0.1,1.1,0.4c3.2,2.2,6.5,3.3,9.8,3.3
				c3.7,0,6.4-1.9,6.4-4.9v-0.1c0-3.1-3.7-4.3-7.7-5.5c-4.9-1.4-10.3-3.1-10.3-8.8V31c0-5.3,4.4-8.9,10.6-8.9c3.3,0,6.9,1,9.9,2.6
				c0.6,0.4,1.1,1,1.1,1.9c0,1.1-0.9,2-2,2c-0.4,0-0.8-0.1-1-0.2c-2.6-1.5-5.5-2.4-8.1-2.4c-3.7,0-6,1.9-6,4.5v0.1
				c0,2.9,3.8,4.1,8,5.3c4.8,1.4,10,3.3,10,8.9V45c0,5.9-4.9,9.3-11,9.3C498.8,54.3,494.3,52.8,491,50.4z"/>
			<path class="st1" d="M521.3,45.5V26.8h-2.5c-1.1,0-2-1-2-2c0-1.1,1-2,2-2h2.5v-7.3c0-1.3,1-2.3,2.3-2.3c1.3,0,2.3,1.1,2.3,2.3
				v7.3h8c1.1,0,2.1,1,2.1,2c0,1.1-1,2-2.1,2h-8v18.1c0,3.8,2.1,5.2,5.2,5.2c1.6,0,2.5-0.4,2.8-0.4c1.1,0,2,0.9,2,2
				c0,0.8-0.5,1.5-1.3,1.8c-1.3,0.5-2.8,0.8-4.6,0.8C525,54.3,521.3,51.8,521.3,45.5z"/>
			<path class="st1" d="M541.6,24.7c0-1.3,1-2.3,2.3-2.3c1.3,0,2.3,1,2.3,2.3v5.8c2.3-5.2,6.8-8.3,10.7-8.3c1.4,0,2.3,1,2.3,2.3
				c0,1.3-0.8,2.2-2,2.3c-6,0.7-10.9,5.2-10.9,14.2v10.6c0,1.3-1,2.3-2.3,2.3c-1.3,0-2.3-1-2.3-2.3V24.7z"/>
			<path class="st1" d="M563.6,13c0-1.5,1.2-2.5,2.7-2.5c1.6,0,2.8,1,2.8,2.5v0.8c0,1.4-1.2,2.5-2.8,2.5c-1.5,0-2.7-1-2.7-2.5V13z
				 M564,24.7c0-1.3,1-2.3,2.3-2.3c1.3,0,2.3,1,2.3,2.3v26.9c0,1.3-1,2.3-2.3,2.3c-1.3,0-2.3-1-2.3-2.3V24.7z"/>
			<path class="st1" d="M578.7,45.5V26.8h-2.5c-1.1,0-2-1-2-2c0-1.1,1-2,2-2h2.5v-7.3c0-1.3,1-2.3,2.3-2.3c1.3,0,2.3,1.1,2.3,2.3
				v7.3h8c1.1,0,2.1,1,2.1,2c0,1.1-1,2-2.1,2h-8v18.1c0,3.8,2.1,5.2,5.2,5.2c1.6,0,2.5-0.4,2.8-0.4c1.1,0,2,0.9,2,2
				c0,0.8-0.5,1.5-1.3,1.8c-1.3,0.5-2.8,0.8-4.6,0.8C582.5,54.3,578.7,51.8,578.7,45.5z"/>
			<path class="st1" d="M596.7,44.7v-0.1c0-6.5,5.4-10,13.3-10c4,0,6.8,0.5,9.5,1.3v-1.1c0-5.6-3.4-8.5-9.2-8.5
				c-3.1,0-5.8,0.7-8,1.7c-0.3,0.1-0.6,0.2-0.8,0.2c-1.1,0-2-0.9-2-2c0-1,0.7-1.7,1.3-1.9c3.1-1.3,6.2-2.1,10.1-2.1
				c4.4,0,7.7,1.1,10,3.4c2.1,2.1,3.2,5.1,3.2,9.1v17c0,1.3-1,2.3-2.2,2.3c-1.3,0-2.2-1-2.2-2.2V49c-2.2,2.8-5.8,5.3-11.2,5.3
				C602.6,54.4,596.7,51.1,596.7,44.7z M619.6,42.3v-3c-2.3-0.7-5.3-1.3-9.1-1.3c-5.8,0-9.1,2.5-9.1,6.4v0.1c0,3.9,3.6,6.2,7.8,6.2
				C614.9,50.7,619.6,47.2,619.6,42.3z"/>
			<path class="st1" d="M632,12c0-1.3,1-2.3,2.3-2.3c1.3,0,2.3,1.1,2.3,2.3v39.7c0,1.3-1,2.3-2.3,2.3c-1.3,0-2.3-1-2.3-2.3V12z"/>
			<path class="st1" d="M690.3,51.7c0,1.3-1,2.3-2.3,2.3c-1.3,0-2.3-1-2.3-2.3v-4.2c-2.5,3.7-6.2,6.9-11.9,6.9
				c-7.4,0-14.8-5.9-14.8-16.1v-0.1C659,28,666.3,22,673.8,22c5.8,0,9.5,3.1,11.9,6.6V12c0-1.3,1-2.3,2.3-2.3c1.3,0,2.3,1,2.3,2.3
				V51.7z M663.7,38.1v0.1c0,7.3,5.1,12,10.9,12c5.8,0,11.2-4.9,11.2-12v-0.1c0-7.1-5.5-11.9-11.2-11.9
				C668.6,26.2,663.7,30.6,663.7,38.1z"/>
			<path class="st1" d="M711.9,54.4c-8.5,0-15.5-6.5-15.5-16.1v-0.1c0-8.9,6.3-16.1,14.9-16.1c9.2,0,14.4,7.5,14.4,15.7
				c0,1.3-1,2.2-2.2,2.2h-22.4c0.7,6.7,5.4,10.5,10.9,10.5c3.8,0,6.7-1.5,8.9-3.6c0.4-0.3,0.8-0.5,1.3-0.5c1.1,0,2,0.9,2,2
				c0,0.5-0.2,1.1-0.7,1.5C720.6,52.6,717.2,54.4,711.9,54.4z M721,36.5c-0.5-5.6-3.7-10.6-9.9-10.6c-5.4,0-9.5,4.5-10.1,10.6H721z"
				/>
			<path class="st1" d="M217.2,111.7c-0.5-0.4-0.9-1-0.9-1.8c0-1.3,1-2.3,2.3-2.3c0.6,0,1.1,0.2,1.4,0.5c4,3.4,7.9,5,13.3,5
				c5.6,0,9.4-3,9.4-7.1v-0.1c0-3.9-2.1-6.1-10.9-8c-9.7-2.1-14.1-5.2-14.1-12.1v-0.1c0-6.6,5.8-11.5,13.8-11.5
				c5.5,0,9.5,1.4,13.4,4.1c0.5,0.4,1,1,1,1.9c0,1.3-1,2.3-2.3,2.3c-0.5,0-1-0.1-1.4-0.4c-3.5-2.6-7-3.7-10.9-3.7
				c-5.5,0-8.9,3-8.9,6.8v0.1c0,4,2.2,6.2,11.4,8.2c9.4,2,13.7,5.5,13.7,11.9v0.1c0,7.2-6,11.9-14.3,11.9
				C227,117.3,221.9,115.4,217.2,111.7z"/>
			<path class="st1" d="M251.7,107.7v-0.1c0-6.5,5.4-10,13.3-10c4,0,6.8,0.5,9.5,1.3v-1.1c0-5.6-3.4-8.5-9.2-8.5
				c-3.1,0-5.8,0.7-8,1.7c-0.3,0.1-0.6,0.2-0.8,0.2c-1.1,0-2-0.9-2-2c0-1,0.7-1.7,1.3-1.9c3.1-1.3,6.2-2.1,10.1-2.1
				c4.4,0,7.7,1.1,10,3.4c2.1,2.1,3.2,5.1,3.2,9.1v17c0,1.3-1,2.3-2.2,2.3c-1.3,0-2.2-1-2.2-2.2V112c-2.2,2.8-5.8,5.3-11.2,5.3
				C257.5,117.4,251.7,114.1,251.7,107.7z M274.5,105.3v-3c-2.3-0.7-5.3-1.3-9.1-1.3c-5.8,0-9.1,2.5-9.1,6.4v0.1
				c0,3.9,3.6,6.2,7.8,6.2C269.9,113.7,274.5,110.2,274.5,105.3z"/>
			<path class="st1" d="M286.9,75c0-1.3,1-2.3,2.3-2.3c1.3,0,2.3,1.1,2.3,2.3v39.7c0,1.3-1,2.3-2.3,2.3c-1.3,0-2.3-1-2.3-2.3V75z"/>
			<path class="st1" d="M326.6,114.7c0,1.3-1,2.3-2.3,2.3c-1.3,0-2.3-1-2.3-2.3v-3.4c-2.1,3.4-5.3,6.1-10.6,6.1
				c-7.5,0-11.9-5-11.9-12.4V87.7c0-1.3,1-2.3,2.3-2.3c1.3,0,2.3,1,2.3,2.3v16.1c0,5.8,3.1,9.4,8.6,9.4c5.3,0,9.3-3.9,9.3-9.7V87.7
				c0-1.3,1-2.3,2.3-2.3c1.3,0,2.3,1,2.3,2.3V114.7z"/>
			<path class="st1" d="M364.2,114.7c0,1.3-1,2.3-2.3,2.3c-1.3,0-2.3-1-2.3-2.3v-4.2c-2.5,3.7-6.2,6.9-11.9,6.9
				c-7.4,0-14.8-5.9-14.8-16.1v-0.1c0-10.1,7.4-16.1,14.8-16.1c5.8,0,9.5,3.1,11.9,6.6V75c0-1.3,1-2.3,2.3-2.3c1.3,0,2.3,1,2.3,2.3
				V114.7z M337.6,101.1v0.1c0,7.3,5.1,12,10.9,12c5.8,0,11.2-4.9,11.2-12v-0.1c0-7.1-5.5-11.9-11.2-11.9
				C342.5,89.2,337.6,93.6,337.6,101.1z"/>
			<path class="st1" d="M386.1,113.6l17-37.3c0.6-1.3,1.5-2.1,3-2.1h0.2c1.4,0,2.4,0.8,2.9,2.1l17,37.2c0.2,0.4,0.3,0.8,0.3,1.2
				c0,1.3-1,2.3-2.3,2.3c-1.1,0-1.9-0.8-2.3-1.7l-4.4-9.7h-23l-4.4,9.8c-0.4,1-1.2,1.6-2.3,1.6c-1.2,0-2.2-1-2.2-2.2
				C385.8,114.5,385.9,114.1,386.1,113.6z M415.8,101.3l-9.7-21.5l-9.7,21.5H415.8z"/>
			<path class="st1" d="M432.7,87.7c0-1.3,1-2.3,2.3-2.3c1.3,0,2.3,1,2.3,2.3v3.2c2-3.1,4.8-5.9,10-5.9c5,0,8.3,2.7,10,6.2
				c2.2-3.4,5.5-6.2,10.9-6.2c7.1,0,11.5,4.8,11.5,12.5v17.2c0,1.3-1,2.3-2.3,2.3c-1.3,0-2.3-1-2.3-2.3V98.6c0-6-3-9.4-8-9.4
				c-4.7,0-8.5,3.5-8.5,9.6v15.8c0,1.3-1,2.3-2.3,2.3c-1.3,0-2.3-1-2.3-2.3V98.5c0-5.8-3.1-9.2-8-9.2s-8.6,4.1-8.6,9.8v15.7
				c0,1.3-1,2.3-2.3,2.3c-1.3,0-2.3-1-2.3-2.3V87.7z"/>
			<path class="st1" d="M487.5,75c0-1.3,1-2.3,2.3-2.3c1.3,0,2.3,1,2.3,2.3v17c2.5-3.7,6.2-6.9,11.9-6.9c7.4,0,14.8,5.9,14.8,16.1
				v0.1c0,10.1-7.3,16.1-14.8,16.1c-5.8,0-9.5-3.1-11.9-6.6v3.9c0,1.3-1,2.3-2.3,2.3c-1.3,0-2.3-1.1-2.3-2.3V75z M514.1,101.3v-0.1
				c0-7.3-5-12-10.9-12c-5.8,0-11.2,4.9-11.2,11.9v0.1c0,7.2,5.5,12,11.2,12C509.1,113.2,514.1,108.8,514.1,101.3z"/>
			<path class="st1" d="M525,76c0-1.5,1.2-2.5,2.7-2.5c1.6,0,2.8,1,2.8,2.5v0.8c0,1.4-1.2,2.5-2.8,2.5c-1.5,0-2.7-1-2.7-2.5V76z
				 M525.5,87.7c0-1.3,1-2.3,2.3-2.3c1.3,0,2.3,1,2.3,2.3v26.9c0,1.3-1,2.3-2.3,2.3c-1.3,0-2.3-1-2.3-2.3V87.7z"/>
			<path class="st1" d="M552.1,117.4c-8.5,0-15.5-6.5-15.5-16.1v-0.1c0-8.9,6.3-16.1,14.9-16.1c9.2,0,14.4,7.5,14.4,15.7
				c0,1.3-1,2.2-2.2,2.2h-22.4c0.7,6.7,5.4,10.5,10.9,10.5c3.8,0,6.7-1.5,8.9-3.6c0.4-0.3,0.8-0.5,1.3-0.5c1.1,0,2,0.9,2,2
				c0,0.5-0.2,1.1-0.7,1.5C560.9,115.6,557.4,117.4,552.1,117.4z M561.3,99.5c-0.5-5.6-3.7-10.6-9.9-10.6c-5.4,0-9.5,4.5-10.1,10.6
				H561.3z"/>
			<path class="st1" d="M571.8,87.7c0-1.3,1-2.3,2.3-2.3c1.3,0,2.3,1,2.3,2.3v3.4c2-3.4,5.3-6.1,10.6-6.1c7.5,0,11.9,5,11.9,12.4
				v17.2c0,1.3-1,2.3-2.3,2.3c-1.3,0-2.3-1-2.3-2.3V98.6c0-5.8-3.1-9.4-8.6-9.4c-5.3,0-9.3,3.9-9.3,9.7v15.7c0,1.3-1,2.3-2.3,2.3
				c-1.3,0-2.3-1-2.3-2.3V87.7z"/>
			<path class="st1" d="M608.1,108.5V89.8h-2.5c-1.1,0-2-1-2-2c0-1.1,1-2,2-2h2.5v-7.3c0-1.3,1-2.3,2.3-2.3c1.3,0,2.3,1.1,2.3,2.3
				v7.3h8c1.1,0,2.1,1,2.1,2c0,1.1-1,2-2.1,2h-8v18.1c0,3.8,2.1,5.2,5.2,5.2c1.6,0,2.5-0.4,2.8-0.4c1.1,0,2,0.9,2,2
				c0,0.8-0.5,1.5-1.3,1.8c-1.3,0.5-2.8,0.8-4.6,0.8C611.9,117.3,608.1,114.8,608.1,108.5z"/>
			<path class="st1" d="M626.1,107.7v-0.1c0-6.5,5.4-10,13.3-10c4,0,6.8,0.5,9.5,1.3v-1.1c0-5.6-3.4-8.5-9.2-8.5
				c-3.1,0-5.8,0.7-8,1.7c-0.3,0.1-0.6,0.2-0.8,0.2c-1.1,0-2-0.9-2-2c0-1,0.7-1.7,1.3-1.9c3.1-1.3,6.2-2.1,10.1-2.1
				c4.4,0,7.7,1.1,10,3.4c2.1,2.1,3.2,5.1,3.2,9.1v17c0,1.3-1,2.3-2.2,2.3c-1.3,0-2.2-1-2.2-2.2V112c-2.2,2.8-5.8,5.3-11.2,5.3
				C631.9,117.4,626.1,114.1,626.1,107.7z M648.9,105.3v-3c-2.3-0.7-5.3-1.3-9.1-1.3c-5.8,0-9.1,2.5-9.1,6.4v0.1
				c0,3.9,3.6,6.2,7.8,6.2C644.3,113.7,648.9,110.2,648.9,105.3z"/>
			<path class="st1" d="M661.3,75c0-1.3,1-2.3,2.3-2.3c1.3,0,2.3,1.1,2.3,2.3v39.7c0,1.3-1,2.3-2.3,2.3c-1.3,0-2.3-1-2.3-2.3V75z"/>
		</g>
	</g>
</g>
</svg>
