<?xml version="1.0" encoding="utf-8"?>
<!-- Generator: Adobe Illustrator 24.0.0, SVG Export Plug-In . SVG Version: 6.00 Build 0)  -->
<svg version="1.1" id="Capa_1" xmlns="http://www.w3.org/2000/svg" xmlns:xlink="http://www.w3.org/1999/xlink" x="0px" y="0px"
	 viewBox="0 0 742.6 159" style="enable-background:new 0 0 742.6 159;" xml:space="preserve">
<style type="text/css">
	.st0{fill:#FFFFFF;}
	.st1{fill:#003E67;}
	.st2{opacity:0.2;}
	.st3{clip-path:url(#SVGID_2_);fill:#28B6DC;}
	.st4{clip-path:url(#SVGID_2_);fill:#29B6DC;}
	.st5{clip-path:url(#SVGID_2_);fill:#2AB7DC;}
	.st6{clip-path:url(#SVGID_2_);fill:#2BB7DC;}
	.st7{clip-path:url(#SVGID_2_);fill:#2CB7DD;}
	.st8{clip-path:url(#SVGID_2_);fill:#2DB8DD;}
	.st9{clip-path:url(#SVGID_2_);fill:#2EB8DD;}
	.st10{clip-path:url(#SVGID_2_);fill:#2FB8DD;}
	.st11{clip-path:url(#SVGID_2_);fill:#30B9DD;}
	.st12{clip-path:url(#SVGID_2_);fill:#31B9DD;}
	.st13{clip-path:url(#SVGID_2_);fill:#32B9DE;}
	.st14{clip-path:url(#SVGID_2_);fill:#33BADE;}
	.st15{clip-path:url(#SVGID_2_);fill:#34BADE;}
	.st16{clip-path:url(#SVGID_2_);fill:#35BADE;}
	.st17{clip-path:url(#SVGID_2_);fill:#36BBDE;}
	.st18{clip-path:url(#SVGID_2_);fill:#37BBDE;}
	.st19{clip-path:url(#SVGID_2_);fill:#38BCDF;}
	.st20{clip-path:url(#SVGID_2_);fill:#39BCDF;}
	.st21{clip-path:url(#SVGID_2_);fill:#3ABCDF;}
	.st22{clip-path:url(#SVGID_2_);fill:#3BBDDF;}
	.st23{clip-path:url(#SVGID_2_);fill:#3CBDDF;}
	.st24{clip-path:url(#SVGID_2_);fill:#3DBDDF;}
	.st25{clip-path:url(#SVGID_2_);fill:#3EBEDF;}
	.st26{clip-path:url(#SVGID_2_);fill:#3FBEE0;}
	.st27{clip-path:url(#SVGID_2_);fill:#40BEE0;}
	.st28{clip-path:url(#SVGID_2_);fill:#41BFE0;}
	.st29{clip-path:url(#SVGID_2_);fill:#42BFE0;}
	.st30{clip-path:url(#SVGID_2_);fill:#43BFE0;}
	.st31{clip-path:url(#SVGID_2_);fill:#44C0E0;}
	.st32{clip-path:url(#SVGID_2_);fill:#45C0E1;}
	.st33{clip-path:url(#SVGID_2_);fill:#46C0E1;}
	.st34{clip-path:url(#SVGID_2_);fill:#47C1E1;}
	.st35{clip-path:url(#SVGID_2_);fill:#49C1E1;}
	.st36{clip-path:url(#SVGID_2_);fill:#4AC1E1;}
	.st37{clip-path:url(#SVGID_2_);fill:#4BC2E1;}
	.st38{clip-path:url(#SVGID_2_);fill:#4CC2E1;}
	.st39{clip-path:url(#SVGID_2_);fill:#4DC2E2;}
	.st40{clip-path:url(#SVGID_2_);fill:#4EC3E2;}
	.st41{clip-path:url(#SVGID_2_);fill:#4FC3E2;}
	.st42{clip-path:url(#SVGID_2_);fill:#50C3E2;}
	.st43{clip-path:url(#SVGID_2_);fill:#51C4E2;}
	.st44{clip-path:url(#SVGID_2_);fill:#52C4E2;}
	.st45{clip-path:url(#SVGID_2_);fill:#53C4E3;}
	.st46{clip-path:url(#SVGID_2_);fill:#54C5E3;}
	.st47{clip-path:url(#SVGID_2_);fill:#55C5E3;}
	.st48{clip-path:url(#SVGID_2_);fill:#56C5E3;}
	.st49{clip-path:url(#SVGID_2_);fill:#57C6E3;}
	.st50{clip-path:url(#SVGID_2_);fill:#58C6E3;}
	.st51{clip-path:url(#SVGID_2_);fill:#59C7E4;}
	.st52{clip-path:url(#SVGID_2_);fill:#5AC7E4;}
	.st53{clip-path:url(#SVGID_2_);fill:#5BC7E4;}
	.st54{clip-path:url(#SVGID_2_);fill:#5CC8E4;}
	.st55{clip-path:url(#SVGID_2_);fill:#5DC8E4;}
	.st56{clip-path:url(#SVGID_2_);fill:#5EC8E4;}
	.st57{clip-path:url(#SVGID_2_);fill:#5FC9E4;}
	.st58{clip-path:url(#SVGID_2_);fill:#60C9E5;}
	.st59{clip-path:url(#SVGID_2_);fill:#61C9E5;}
	.st60{clip-path:url(#SVGID_2_);fill:#62CAE5;}
	.st61{clip-path:url(#SVGID_2_);fill:#63CAE5;}
	.st62{clip-path:url(#SVGID_2_);fill:#64CAE5;}
	.st63{clip-path:url(#SVGID_2_);fill:#65CBE5;}
	.st64{clip-path:url(#SVGID_2_);fill:#66CBE6;}
	.st65{clip-path:url(#SVGID_2_);fill:#67CBE6;}
	.st66{clip-path:url(#SVGID_2_);fill:#68CCE6;}
	.st67{clip-path:url(#SVGID_2_);fill:#69CCE6;}
	.st68{clip-path:url(#SVGID_4_);fill:#28B6DC;}
	.st69{clip-path:url(#SVGID_4_);fill:#29B6DC;}
	.st70{clip-path:url(#SVGID_4_);fill:#2AB7DC;}
	.st71{clip-path:url(#SVGID_4_);fill:#2BB7DC;}
	.st72{clip-path:url(#SVGID_4_);fill:#2CB7DD;}
	.st73{clip-path:url(#SVGID_4_);fill:#2DB8DD;}
	.st74{clip-path:url(#SVGID_4_);fill:#2EB8DD;}
	.st75{clip-path:url(#SVGID_4_);fill:#2FB8DD;}
	.st76{clip-path:url(#SVGID_4_);fill:#30B9DD;}
	.st77{clip-path:url(#SVGID_4_);fill:#31B9DD;}
	.st78{clip-path:url(#SVGID_4_);fill:#32B9DE;}
	.st79{clip-path:url(#SVGID_4_);fill:#33BADE;}
	.st80{clip-path:url(#SVGID_4_);fill:#34BADE;}
	.st81{clip-path:url(#SVGID_4_);fill:#35BADE;}
	.st82{clip-path:url(#SVGID_4_);fill:#36BBDE;}
	.st83{clip-path:url(#SVGID_4_);fill:#37BBDE;}
	.st84{clip-path:url(#SVGID_4_);fill:#38BCDF;}
	.st85{clip-path:url(#SVGID_4_);fill:#39BCDF;}
	.st86{clip-path:url(#SVGID_4_);fill:#3ABCDF;}
	.st87{clip-path:url(#SVGID_4_);fill:#3BBDDF;}
	.st88{clip-path:url(#SVGID_4_);fill:#3CBDDF;}
	.st89{clip-path:url(#SVGID_4_);fill:#3DBDDF;}
	.st90{clip-path:url(#SVGID_4_);fill:#3EBEDF;}
	.st91{clip-path:url(#SVGID_4_);fill:#3FBEE0;}
	.st92{clip-path:url(#SVGID_4_);fill:#40BEE0;}
	.st93{clip-path:url(#SVGID_4_);fill:#41BFE0;}
	.st94{clip-path:url(#SVGID_4_);fill:#42BFE0;}
	.st95{clip-path:url(#SVGID_4_);fill:#43BFE0;}
	.st96{clip-path:url(#SVGID_4_);fill:#44C0E0;}
	.st97{clip-path:url(#SVGID_4_);fill:#45C0E1;}
	.st98{clip-path:url(#SVGID_4_);fill:#46C0E1;}
	.st99{clip-path:url(#SVGID_4_);fill:#47C1E1;}
	.st100{clip-path:url(#SVGID_4_);fill:#49C1E1;}
	.st101{clip-path:url(#SVGID_4_);fill:#4AC1E1;}
	.st102{clip-path:url(#SVGID_4_);fill:#4BC2E1;}
	.st103{clip-path:url(#SVGID_4_);fill:#4CC2E1;}
	.st104{clip-path:url(#SVGID_4_);fill:#4DC2E2;}
	.st105{clip-path:url(#SVGID_4_);fill:#4EC3E2;}
	.st106{clip-path:url(#SVGID_4_);fill:#4FC3E2;}
	.st107{clip-path:url(#SVGID_4_);fill:#50C3E2;}
	.st108{clip-path:url(#SVGID_4_);fill:#51C4E2;}
	.st109{clip-path:url(#SVGID_4_);fill:#52C4E2;}
	.st110{clip-path:url(#SVGID_4_);fill:#53C4E3;}
	.st111{clip-path:url(#SVGID_4_);fill:#54C5E3;}
	.st112{clip-path:url(#SVGID_4_);fill:#55C5E3;}
	.st113{clip-path:url(#SVGID_4_);fill:#56C5E3;}
	.st114{clip-path:url(#SVGID_4_);fill:#57C6E3;}
	.st115{clip-path:url(#SVGID_4_);fill:#58C6E3;}
	.st116{clip-path:url(#SVGID_4_);fill:#59C7E4;}
	.st117{clip-path:url(#SVGID_4_);fill:#5AC7E4;}
	.st118{clip-path:url(#SVGID_4_);fill:#5BC7E4;}
	.st119{clip-path:url(#SVGID_4_);fill:#5CC8E4;}
	.st120{clip-path:url(#SVGID_4_);fill:#5DC8E4;}
	.st121{clip-path:url(#SVGID_4_);fill:#5EC8E4;}
	.st122{clip-path:url(#SVGID_4_);fill:#5FC9E4;}
	.st123{clip-path:url(#SVGID_4_);fill:#60C9E5;}
	.st124{clip-path:url(#SVGID_4_);fill:#61C9E5;}
	.st125{clip-path:url(#SVGID_4_);fill:#62CAE5;}
	.st126{clip-path:url(#SVGID_4_);fill:#63CAE5;}
	.st127{clip-path:url(#SVGID_4_);fill:#64CAE5;}
	.st128{clip-path:url(#SVGID_4_);fill:#65CBE5;}
	.st129{clip-path:url(#SVGID_4_);fill:#66CBE6;}
	.st130{clip-path:url(#SVGID_4_);fill:#67CBE6;}
	.st131{clip-path:url(#SVGID_4_);fill:#68CCE6;}
	.st132{clip-path:url(#SVGID_4_);fill:#69CCE6;}
	.st133{clip-path:url(#SVGID_6_);fill:#28B6DC;}
	.st134{clip-path:url(#SVGID_6_);fill:#29B6DC;}
	.st135{clip-path:url(#SVGID_6_);fill:#2AB7DC;}
	.st136{clip-path:url(#SVGID_6_);fill:#2BB7DC;}
	.st137{clip-path:url(#SVGID_6_);fill:#2CB7DD;}
	.st138{clip-path:url(#SVGID_6_);fill:#2DB8DD;}
	.st139{clip-path:url(#SVGID_6_);fill:#2EB8DD;}
	.st140{clip-path:url(#SVGID_6_);fill:#2FB8DD;}
	.st141{clip-path:url(#SVGID_6_);fill:#30B9DD;}
	.st142{clip-path:url(#SVGID_6_);fill:#31B9DD;}
	.st143{clip-path:url(#SVGID_6_);fill:#32B9DE;}
	.st144{clip-path:url(#SVGID_6_);fill:#33BADE;}
	.st145{clip-path:url(#SVGID_6_);fill:#34BADE;}
	.st146{clip-path:url(#SVGID_6_);fill:#35BADE;}
	.st147{clip-path:url(#SVGID_6_);fill:#36BBDE;}
	.st148{clip-path:url(#SVGID_6_);fill:#37BBDE;}
	.st149{clip-path:url(#SVGID_6_);fill:#38BCDF;}
	.st150{clip-path:url(#SVGID_6_);fill:#39BCDF;}
	.st151{clip-path:url(#SVGID_6_);fill:#3ABCDF;}
	.st152{clip-path:url(#SVGID_6_);fill:#3BBDDF;}
	.st153{clip-path:url(#SVGID_6_);fill:#3CBDDF;}
	.st154{clip-path:url(#SVGID_6_);fill:#3DBDDF;}
	.st155{clip-path:url(#SVGID_6_);fill:#3EBEDF;}
	.st156{clip-path:url(#SVGID_6_);fill:#3FBEE0;}
	.st157{clip-path:url(#SVGID_6_);fill:#40BEE0;}
	.st158{clip-path:url(#SVGID_6_);fill:#41BFE0;}
	.st159{clip-path:url(#SVGID_6_);fill:#42BFE0;}
	.st160{clip-path:url(#SVGID_6_);fill:#43BFE0;}
	.st161{clip-path:url(#SVGID_6_);fill:#44C0E0;}
	.st162{clip-path:url(#SVGID_6_);fill:#45C0E1;}
	.st163{clip-path:url(#SVGID_6_);fill:#46C0E1;}
	.st164{clip-path:url(#SVGID_6_);fill:#47C1E1;}
	.st165{clip-path:url(#SVGID_6_);fill:#49C1E1;}
	.st166{clip-path:url(#SVGID_6_);fill:#4AC1E1;}
	.st167{clip-path:url(#SVGID_6_);fill:#4BC2E1;}
	.st168{clip-path:url(#SVGID_6_);fill:#4CC2E1;}
	.st169{clip-path:url(#SVGID_6_);fill:#4DC2E2;}
	.st170{clip-path:url(#SVGID_6_);fill:#4EC3E2;}
	.st171{clip-path:url(#SVGID_6_);fill:#4FC3E2;}
	.st172{clip-path:url(#SVGID_6_);fill:#50C3E2;}
	.st173{clip-path:url(#SVGID_6_);fill:#51C4E2;}
	.st174{clip-path:url(#SVGID_6_);fill:#52C4E2;}
	.st175{clip-path:url(#SVGID_6_);fill:#53C4E3;}
	.st176{clip-path:url(#SVGID_6_);fill:#54C5E3;}
	.st177{clip-path:url(#SVGID_6_);fill:#55C5E3;}
	.st178{clip-path:url(#SVGID_6_);fill:#56C5E3;}
	.st179{clip-path:url(#SVGID_6_);fill:#57C6E3;}
	.st180{clip-path:url(#SVGID_6_);fill:#58C6E3;}
	.st181{clip-path:url(#SVGID_6_);fill:#59C7E4;}
	.st182{clip-path:url(#SVGID_6_);fill:#5AC7E4;}
	.st183{clip-path:url(#SVGID_6_);fill:#5BC7E4;}
	.st184{clip-path:url(#SVGID_6_);fill:#5CC8E4;}
	.st185{clip-path:url(#SVGID_6_);fill:#5DC8E4;}
	.st186{clip-path:url(#SVGID_6_);fill:#5EC8E4;}
	.st187{clip-path:url(#SVGID_6_);fill:#5FC9E4;}
	.st188{clip-path:url(#SVGID_6_);fill:#60C9E5;}
	.st189{clip-path:url(#SVGID_6_);fill:#61C9E5;}
	.st190{clip-path:url(#SVGID_6_);fill:#62CAE5;}
	.st191{clip-path:url(#SVGID_6_);fill:#63CAE5;}
	.st192{clip-path:url(#SVGID_6_);fill:#64CAE5;}
	.st193{clip-path:url(#SVGID_6_);fill:#65CBE5;}
	.st194{clip-path:url(#SVGID_6_);fill:#66CBE6;}
	.st195{clip-path:url(#SVGID_6_);fill:#67CBE6;}
	.st196{clip-path:url(#SVGID_6_);fill:#68CCE6;}
	.st197{clip-path:url(#SVGID_6_);fill:#69CCE6;}
	.st198{fill:#0F82BB;}
	.st199{fill:#0071BC;}
	.st200{clip-path:url(#SVGID_8_);}
	.st201{fill:#39A935;}
	.st202{fill:none;stroke:#1D1D1B;stroke-miterlimit:10;}
	.st203{fill:#29ABE2;}
	.st204{clip-path:url(#SVGID_10_);}
	.st205{fill-rule:evenodd;clip-rule:evenodd;fill:#003E67;}
	.st206{clip-path:url(#XMLID_13_);fill:#003E67;}
</style>
<g>
	<g>
		<path id="XMLID_416_" class="st1" d="M126.2,6.3v3.4h0c1.3,0,2.6,0,3.9,0.1c31.8,2.1,55.9,29.7,53.8,61.4
			c-2,30.2-27.3,53.9-57.5,53.9c-1.3,0-2.6,0-3.9-0.1C90.6,123,66.5,95.4,68.6,63.7c2-30.2,27.3-53.9,57.5-53.9L126.2,6.3
			 M126.2,6.3c-31.9,0-58.8,24.8-61,57.1c-2.2,33.7,23.3,62.8,57,65.1c1.4,0.1,2.8,0.1,4.1,0.1c31.9,0,58.8-24.8,61-57.1
			c2.2-33.7-23.3-62.8-57-65.1C128.9,6.4,127.5,6.3,126.2,6.3L126.2,6.3z"/>
		<polygon id="XMLID_412_" class="st0" points="94.7,64.4 86.1,55.8 89.5,52.5 94.7,57.7 108.1,44.4 111.4,47.7 		"/>
		<g id="XMLID_332_">
			<g id="XMLID_385_">
				<g>
					<path id="XMLID_23_" class="st1" d="M137,66.8l-2-1.4c-0.2-0.1-0.3-0.4-0.1-0.7l0,0c0.1-0.2,0.4-0.3,0.7-0.1l2,1.4
						c0.2,0.1,0.3,0.4,0.1,0.7l0,0C137.5,66.9,137.2,66.9,137,66.8z"/>
				</g>
			</g>
			<g id="XMLID_378_">
				<g>
					<path id="XMLID_22_" class="st1" d="M123.1,84.5L123.1,84.5c-0.1-0.1-0.2-0.3-0.1-0.4l4.7-6.8c0.1-0.1,0.3-0.2,0.4-0.1l0,0
						c0.1,0.1,0.2,0.3,0.1,0.4l-4.7,6.8C123.4,84.5,123.3,84.6,123.1,84.5z"/>
				</g>
			</g>
			<g id="XMLID_371_">
				<g>
					<path id="XMLID_20_" class="st1" d="M137.8,63.8c-1.3,2.1-2.5,3.6-2.7,3.5c-0.2-0.1,0.7-1.9,2-3.9c1.3-2.1,2.5-3.6,2.7-3.5
						C140,60,139.1,61.8,137.8,63.8z"/>
				</g>
			</g>
			<g id="XMLID_363_">
				<g>
					<path id="XMLID_21_" class="st1" d="M126,86.2c-0.3,0.5-1.8,0-3.3-1.1c-1.5-1.1-2.5-2.3-2.2-2.7c0.3-0.5,1.8,0,3.3,1.1
						C125.3,84.5,126.3,85.7,126,86.2z"/>
				</g>
			</g>
			<path id="XMLID_362_" class="st0" d="M127.9,82.9l-4.7-3.3c-0.4-0.2-0.4-0.7-0.2-1.1l9.7-13.9c0.2-0.4,0.7-0.4,1.1-0.2l4.7,3.3
				c0.4,0.2,0.4,0.7,0.2,1.1L129,82.7C128.8,83,128.3,83.1,127.9,82.9z"/>
			<g id="XMLID_351_">
				<g>
					<path id="XMLID_60_" class="st1" d="M128.6,82.9C128.5,82.9,128.5,82.9,128.6,82.9c-0.7,0.1-1.3,0-1.8-0.4l-2.8-2
						c-0.5-0.3-0.8-0.9-0.9-1.5c-0.1-0.6,0-1.2,0.4-1.7l8.3-12c0.3-0.5,0.9-0.8,1.5-0.9c0.6-0.1,1.2,0,1.7,0.4l2.8,2
						c0.5,0.3,0.8,0.9,0.9,1.5c0.1,0.6,0,1.2-0.4,1.7l-8.3,12C129.6,82.4,129.1,82.7,128.6,82.9z M127.2,81.9
						c0.3,0.2,0.8,0.3,1.2,0.3c0.4-0.1,0.8-0.3,1-0.7l8.3-12c0.2-0.3,0.3-0.8,0.3-1.2c-0.1-0.4-0.3-0.8-0.7-1l-2.8-2
						c-0.3-0.2-0.8-0.3-1.2-0.3c-0.4,0.1-0.8,0.3-1,0.7l-8.3,12c-0.2,0.3-0.3,0.8-0.3,1.2c0.1,0.4,0.3,0.8,0.7,1L127.2,81.9z"/>
				</g>
			</g>
			<g id="XMLID_333_">
				<g>
					<path id="XMLID_157_" class="st1" d="M136.7,71.4l-2.1-1.4c-0.2-0.1-0.2-0.4-0.1-0.6l0,0c0.1-0.2,0.4-0.2,0.6-0.1l2.1,1.4
						c0.2,0.1,0.2,0.4,0.1,0.6l0,0C137.1,71.5,136.9,71.5,136.7,71.4z"/>
					<path id="XMLID_155_" class="st1" d="M135.7,72.9l-2.1-1.4c-0.2-0.1-0.2-0.4-0.1-0.6l0,0c0.1-0.2,0.4-0.2,0.6-0.1l2.1,1.4
						c0.2,0.1,0.2,0.4,0.1,0.6l0,0C136.1,72.9,135.8,73,135.7,72.9z"/>
					<path id="XMLID_154_" class="st1" d="M134.6,74.3l-2.1-1.4c-0.2-0.1-0.2-0.4-0.1-0.6l0,0c0.1-0.2,0.4-0.2,0.6-0.1l2.1,1.4
						c0.2,0.1,0.2,0.4,0.1,0.6l0,0C135.1,74.4,134.8,74.5,134.6,74.3z"/>
					<path id="XMLID_153_" class="st1" d="M133.6,75.8l-2.1-1.4c-0.2-0.1-0.2-0.4-0.1-0.6l0,0c0.1-0.2,0.4-0.2,0.6-0.1l2.1,1.4
						c0.2,0.1,0.2,0.4,0.1,0.6l0,0C134,75.9,133.8,76,133.6,75.8z"/>
					<path id="XMLID_152_" class="st1" d="M132.6,77.3l-2.1-1.4c-0.2-0.1-0.2-0.4-0.1-0.6l0,0c0.1-0.2,0.4-0.2,0.6-0.1l2.1,1.4
						c0.2,0.1,0.2,0.4,0.1,0.6l0,0C133,77.4,132.7,77.4,132.6,77.3z"/>
					<path id="XMLID_151_" class="st1" d="M131.5,78.8l-2.1-1.4c-0.2-0.1-0.2-0.4-0.1-0.6l0,0c0.1-0.2,0.4-0.2,0.6-0.1l2.1,1.4
						c0.2,0.1,0.2,0.4,0.1,0.6l0,0C132,78.9,131.7,78.9,131.5,78.8z"/>
					<path id="XMLID_150_" class="st1" d="M130.5,80.3l-2.1-1.4c-0.2-0.1-0.2-0.4-0.1-0.6l0,0c0.1-0.2,0.4-0.2,0.6-0.1l2.1,1.4
						c0.2,0.1,0.2,0.4,0.1,0.6l0,0C130.9,80.4,130.7,80.4,130.5,80.3z"/>
				</g>
			</g>
		</g>
		<g id="XMLID_326_">
			<g>
				<g id="XMLID_121_">
					<path class="st1" d="M115.1,53.9c0.9,0,1.8,0.7,2.3,1.6c0.7,1.3,0.3,2.8-0.7,3.3c-0.2,0.1-0.5,0.2-0.8,0.2
						c-0.9,0-1.8-0.7-2.3-1.6c-0.3-0.7-0.4-1.4-0.3-2c0.1-0.6,0.5-1.1,1-1.3C114.6,54,114.9,53.9,115.1,53.9 M115.1,53.4
						c-0.3,0-0.7,0.1-1,0.2c-1.3,0.7-1.7,2.5-1,4c0.6,1.2,1.7,1.9,2.8,1.9c0.3,0,0.7-0.1,1-0.2c1.3-0.7,1.7-2.5,1-4
						C117.3,54.1,116.2,53.4,115.1,53.4L115.1,53.4z"/>
				</g>
				<g id="XMLID_120_">
					<path class="st1" d="M120.8,51.8c0.9,0,1.8,0.7,2.3,1.6c0.3,0.7,0.4,1.4,0.3,2c-0.1,0.6-0.5,1.1-1,1.3
						c-0.2,0.1-0.5,0.2-0.8,0.2c-0.9,0-1.8-0.7-2.3-1.6c-0.7-1.3-0.3-2.8,0.7-3.3C120.2,51.8,120.5,51.8,120.8,51.8 M120.8,51.3
						c-0.3,0-0.7,0.1-1,0.2c-1.3,0.7-1.7,2.5-1,4c0.6,1.2,1.7,1.9,2.8,1.9c0.3,0,0.7-0.1,1-0.2c1.3-0.7,1.7-2.5,1-4
						C123,52,121.8,51.3,120.8,51.3L120.8,51.3z"/>
				</g>
				<g id="XMLID_119_">
					<path class="st1" d="M127.5,53.6c0.9,0,1.7,0.9,1.8,2.2c0.2,1.3-0.4,2.5-1.4,2.6c-0.1,0-0.1,0-0.2,0c-0.9,0-1.7-0.9-1.8-2.2
						c-0.1-0.7,0-1.3,0.3-1.8c0.3-0.5,0.6-0.7,1.1-0.8C127.3,53.6,127.4,53.6,127.5,53.6 M127.5,53.1c-0.1,0-0.2,0-0.2,0
						c-1.2,0.2-2,1.6-1.8,3.2c0.2,1.5,1.2,2.6,2.3,2.6c0.1,0,0.2,0,0.2,0c1.2-0.2,2-1.6,1.8-3.2C129.6,54.1,128.6,53.1,127.5,53.1
						L127.5,53.1z"/>
				</g>
				<g id="XMLID_118_">
					<path class="st1" d="M112.9,60.1c0.7,0,1.5,0.6,2,1.4c0.7,1.2,0.5,2.5-0.3,2.9c-0.2,0.1-0.4,0.2-0.6,0.2c-0.7,0-1.5-0.6-2-1.4
						c-0.3-0.6-0.5-1.2-0.4-1.8c0.1-0.5,0.3-0.9,0.7-1.1C112.5,60.1,112.7,60.1,112.9,60.1 M112.9,59.6c-0.3,0-0.6,0.1-0.9,0.2
						c-1.1,0.6-1.3,2.2-0.5,3.6c0.6,1,1.6,1.7,2.5,1.7c0.3,0,0.6-0.1,0.9-0.2c1.1-0.6,1.3-2.2,0.5-3.6
						C114.8,60.2,113.8,59.6,112.9,59.6L112.9,59.6z"/>
				</g>
				<g id="XMLID_117_">
					<path class="st1" d="M120.4,71.3c-1.4,0-2.7-0.7-3.5-2.1c-0.6-1.1-0.6-2.2-0.5-2.9c0.1-0.8,0.6-2.5,1.5-5
						c0.7-2.1,3.1-3.3,5.2-2.6c2.6,0.8,4.2,1.5,4.9,1.8c1,0.6,1.6,1.3,2,2.2c0.8,2,0.1,4.2-1.8,5.1c-1.1,0.5-2.3,0.3-3.1,0.1
						c-0.5-0.1-1,0.1-1.1,0.5c-0.3,0.8-0.9,1.9-1.9,2.4l0,0C121.6,71.1,121,71.3,120.4,71.3z M121.9,58.9c-1.5,0-3,1-3.5,2.5
						c-0.9,2.5-1.4,4.2-1.5,4.9c-0.1,1,0,1.8,0.5,2.6c0.9,1.6,2.9,2.3,4.5,1.5c0.9-0.4,1.4-1.4,1.7-2.1c0.3-0.7,1-1.1,1.7-0.9
						c0.7,0.2,1.8,0.4,2.7-0.1c1.6-0.8,2.3-2.8,1.6-4.5c-0.4-0.8-0.9-1.4-1.8-1.9c-0.6-0.4-2.3-1-4.8-1.8
						C122.6,59,122.3,58.9,121.9,58.9z"/>
				</g>
			</g>
		</g>
		<g id="XMLID_273_">
			<g>
				<g id="XMLID_353_">
					
						<rect id="XMLID_376_" x="112.4" y="39.7" transform="matrix(0.9997 -2.252636e-02 2.252636e-02 0.9997 -0.8743 2.6287)" class="st1" width="7.6" height="0.7"/>
					
						<rect id="XMLID_375_" x="121.6" y="39.6" transform="matrix(0.9997 -2.275398e-02 2.275398e-02 0.9997 -0.8957 2.7856)" class="st1" width="0.7" height="2.3"/>
					
						<rect id="XMLID_374_" x="123.9" y="39.6" transform="matrix(0.9997 -2.275397e-02 2.275397e-02 0.9997 -0.8939 2.8375)" class="st1" width="0.7" height="2.3"/>
					
						<rect id="XMLID_373_" x="126.1" y="39.5" transform="matrix(0.9997 -2.237971e-02 2.237971e-02 0.9997 -0.878 2.8417)" class="st1" width="0.7" height="2.3"/>
					
						<rect id="XMLID_370_" x="128.4" y="39.5" transform="matrix(0.9997 -2.238793e-02 2.238793e-02 0.9997 -0.8766 2.8938)" class="st1" width="0.7" height="2.3"/>
					
						<rect id="XMLID_369_" x="130.7" y="39.4" transform="matrix(0.9997 -2.274719e-02 2.274719e-02 0.9997 -0.8884 2.9922)" class="st1" width="0.7" height="2.3"/>
					<path id="XMLID_354_" class="st1" d="M133.8,43.9l-0.3-11.3l-5.3,2.8L127.2,22l-3.7,0.1L123,34.4l-2.3,1.2l-1-10l-3.7,0.1
						l-0.6,8.9l-5.3,2.8l0.2,7.1l-0.4,0l0,0.7l24.3-0.5l0-0.7L133.8,43.9z M124.2,22.8l2.3-0.1l0.1,0.8l-2.4,0.1L124.2,22.8z
						 M124.1,24.3l2.5-0.1l0.1,0.8l-2.6,0.1L124.1,24.3z M124.1,25.9l2.7-0.1l0.8,10l-1.5,0.8l-0.1-3.8l-2.2,1.2L124.1,25.9z
						 M116.7,26.4l2.4-0.1l0.1,0.8l-2.5,0.1L116.7,26.4z M116.6,27.9l2.6-0.1l0.1,0.8l-2.7,0.1L116.6,27.9z M116.5,29.5l2.8-0.1
						l0.6,6.6l-1.5,0.8l-0.1-3.8l-2.2,1.2L116.5,29.5z M112.5,44.4l-1.5,0l0-0.8l1.5,0L112.5,44.4z M119.4,44.2l-6.1,0.1l-0.1-2.7
						l6.1-0.1L119.4,44.2z M133.1,43.9l-12.9,0.3l0-0.8l12.9-0.3L133.1,43.9z M133,42.4l-12.9,0.3l0-1.9l-7.6,0.2l0,1.9l-1.5,0
						l-0.1-5.1l6.8-3.6l0.1,3.8l7.5-4l0.1,3.8l7.5-4L133,42.4z M133,42.4"/>
				</g>
			</g>
		</g>
		<g id="XMLID_263_">
			<g>
				<g id="XMLID_166_">
					<path class="st1" d="M96.6,100.6l5.3,3c1.7,0.9,3.8,0.4,4.7-1.2h7c1.2,0,2.2-1,2.2-2.1v-8.3c0-0.5-0.2-0.9-0.4-1.3l-2.2-2.9
						v-1.2c0.5-0.2,0.9-0.7,0.9-1.2v-2c0-0.7-0.6-1.3-1.3-1.3h-7.8c-0.7,0-1.3,0.6-1.3,1.3v2c0,0.6,0.4,1,0.9,1.2v1.2l-2.2,2.9
						c-0.3,0.4-0.4,0.8-0.4,1.3v3.7l-1.8-1c-1.7-0.9-3.8-0.4-4.8,1.3C94.4,97.6,95,99.7,96.6,100.6z M113.2,85.4
						c0,0.2-0.2,0.4-0.4,0.4h-7.8c-0.2,0-0.4-0.2-0.4-0.4v-2c0-0.2,0.2-0.4,0.4-0.4h7.8c0.2,0,0.4,0.2,0.4,0.4V85.4z M114.9,91.8
						h-12.2c0-0.2,0.1-0.4,0.3-0.6l2.1-2.8h4.1c0.2,0,0.4-0.2,0.4-0.4s-0.2-0.4-0.4-0.4h-3.9v-0.9h7v1.3c0,0.1,0,0.2,0.1,0.3l2.3,3
						C114.8,91.4,114.9,91.6,114.9,91.8z M107,101.5c0.2-0.6,0.2-1.2,0-1.7h7.9v0.4c0,0.7-0.6,1.3-1.3,1.3H107z M105.4,97.7
						l-2.6-1.5v-3.5h12.2V99h-8.3C106.4,98.4,105.9,98,105.4,97.7z M100,101.5l2.6-4.5l2.4,1.3c1.2,0.7,1.7,2.3,1,3.5
						c-0.7,1.2-2.3,1.7-3.6,0.9L100,101.5z M96.1,96.3c0.7-1.2,2.3-1.7,3.6-0.9l2.2,1.2l-2.6,4.5L97,99.8
						C95.8,99.1,95.4,97.6,96.1,96.3z"/>
				</g>
			</g>
		</g>
		<g id="XMLID_197_">
			<path id="XMLID_254_" class="st205" d="M146.7,32C146.7,32,146.7,32,146.7,32L146.7,32C146.7,32,146.7,32,146.7,32L146.7,32z
				 M146.3,32.2C146.3,32.2,146.3,32.2,146.3,32.2L146.3,32.2C146.3,32.2,146.3,32.2,146.3,32.2L146.3,32.2z M145.8,32.3
				C145.8,32.3,145.8,32.3,145.8,32.3L145.8,32.3C145.8,32.3,145.8,32.3,145.8,32.3L145.8,32.3z M145.3,32.5
				C145.3,32.5,145.3,32.5,145.3,32.5L145.3,32.5C145.3,32.5,145.3,32.5,145.3,32.5L145.3,32.5z M144.8,32.6
				C144.8,32.6,144.8,32.6,144.8,32.6L144.8,32.6C144.8,32.6,144.8,32.6,144.8,32.6L144.8,32.6z M144.3,32.7
				C144.3,32.7,144.3,32.8,144.3,32.7L144.3,32.7C144.3,32.8,144.3,32.7,144.3,32.7L144.3,32.7z M143.9,32.9
				C143.9,32.9,143.9,32.9,143.9,32.9L143.9,32.9C143.9,32.9,143.9,32.9,143.9,32.9L143.9,32.9z M143.4,33L143.4,33l-0.2-0.6
				c-0.1-0.2,0.1-0.4,0.3-0.5l1.1-0.3l0.9-0.3l1.1-0.3c0.2-0.1,0.4,0,0.5,0.2l0.2,0.6l0,0c0-0.1-0.2-0.2-0.3-0.2
				c-0.1,0-0.2,0.2-0.2,0.3c0-0.1-0.2-0.2-0.3-0.2c-0.1,0-0.2,0.2-0.2,0.3c0-0.1-0.2-0.2-0.3-0.2c-0.1,0-0.2,0.2-0.2,0.3
				c0-0.1-0.2-0.2-0.3-0.2c-0.1,0-0.2,0.2-0.2,0.3c0-0.1-0.2-0.2-0.3-0.2c-0.1,0-0.2,0.2-0.2,0.3c0-0.1-0.2-0.2-0.3-0.2
				c-0.1,0-0.2,0.2-0.2,0.3c0-0.1-0.2-0.2-0.3-0.2c-0.1,0-0.2,0.2-0.2,0.3c0-0.1-0.2-0.2-0.3-0.2C143.4,32.8,143.3,32.9,143.4,33
				L143.4,33z"/>
			<g id="XMLID_202_">
				<g id="XMLID_250_">
					<g>
						<path class="st1" d="M146.9,32.5c0.2,0.5,0.2,0.6,0.2,0.8c0,0.1,0,0.2,0,0.3c0.2,1.6,1.6,4.2,3.2,6.3l0.1,0.1
							c0.7,1,1.4,1.9,1.8,2.5c0.5,0.8,0.9,1.5,1.3,2.4c0.2,0.5,1.6,4.7,2.5,7.8c0.6,1.9,1.1,3.5,1.3,4.2c-1.2,0.5-6.6,2.7-8.8,3.4
							c-0.6-1.5-3.3-12-3.5-12.9c-0.1-0.9-0.2-1.8-0.2-2.7c0-0.8,0.1-1.9,0.2-3.2c0.2-2.7-0.1-5.5-0.8-7c-0.1-0.2-0.1-0.2-0.2-0.3
							c-0.1-0.1-0.1-0.2-0.3-0.7L146.9,32.5 M147.1,32.1L147.1,32.1l-3.6,1.1l-0.1,0l0,0.1c0.2,0.7,0.3,0.8,0.4,1
							c0,0.1,0.1,0.1,0.1,0.3c0.6,1.4,0.9,4.3,0.7,6.9c-0.1,1.3-0.2,2.4-0.2,3.2c0,0.9,0.1,1.8,0.2,2.7c0.1,0.9,3.3,13.2,3.6,13.2
							c0,0,0,0,0,0c2.4-0.7,9.3-3.6,9.3-3.6c-0.3-0.8-3.6-11.5-4-12.3c-0.4-0.8-0.8-1.6-1.3-2.4c-0.4-0.7-1.1-1.6-1.9-2.6
							c-1.6-2.1-2.9-4.6-3.1-6.2c0-0.1,0-0.2,0-0.3C147.3,33.1,147.3,33,147.1,32.1L147.1,32.1L147.1,32.1z"/>
					</g>
				</g>
				<g id="XMLID_248_">
					<g>
						<path class="st1" d="M157.4,57.2c0.2,0.6,0.3,1.1,0.2,1.8c0,0.2-0.1,0.3-0.2,0.5c-0.1,0.1-0.2,0.3-0.4,0.6l-6.7,2
							c-0.3-0.1-0.5-0.2-0.7-0.2c-0.2-0.1-0.3-0.2-0.5-0.3c-0.6-0.5-0.7-1.1-0.9-1.8c0,0,0-0.1,0-0.1
							C151.6,58.7,156.3,57.4,157.4,57.2 M157.6,56.9c-0.5,0-9.7,2.4-9.7,2.4c0,0.1,0.1,0.3,0.1,0.4c0.2,0.7,0.4,1.4,1,1.9
							c0.2,0.1,0.3,0.3,0.5,0.4c0.2,0.1,0.4,0.2,0.7,0.3l0,0l0,0l6.8-2l0,0l0,0c0.2-0.2,0.4-0.4,0.5-0.6c0.1-0.2,0.2-0.4,0.2-0.6
							C158,58.3,157.8,57.7,157.6,56.9C157.6,56.9,157.6,56.9,157.6,56.9L157.6,56.9z"/>
					</g>
				</g>
				<path id="XMLID_203_" class="st0" d="M157.5,57.5c0,0-3.2,2.4-4.5,2.8c-1.1,0.3-3.6,0.9-4.5,0.2l-0.6-2.1l9-2.5L157.5,57.5z"/>
			</g>
			<g id="XMLID_200_">
				<g>
					<path class="st1" d="M144.7,44.4c0.6,0.4,1.4,0.3,2.1,0.2c0.6,0,1.2-0.1,1.9-0.2c1.4-0.3,2.7-1.1,3.5-2.2
						c0.1-0.1-0.1-0.2-0.2-0.1c-0.8,1.1-2,1.9-3.4,2.1c-0.6,0.1-1.1,0.1-1.7,0.2c-0.7,0.1-1.5,0.2-2.1-0.2
						C144.7,44.2,144.6,44.4,144.7,44.4L144.7,44.4z"/>
				</g>
			</g>
			<g id="XMLID_199_">
				<g>
					<path class="st1" d="M144.6,44.4c2.3-0.9,4.7-1.7,7.2-2.3c0.1,0,0.1-0.2-0.1-0.2c-2.5,0.6-4.9,1.4-7.2,2.3
						C144.4,44.3,144.5,44.5,144.6,44.4L144.6,44.4z"/>
				</g>
			</g>
		</g>
		<g id="XMLID_138_">
			<path id="XMLID_146_" class="st1" d="M168.6,68.4c0.2-0.6,0.3-1.3,0.3-2c-0.1-2.3-1.4-4.4-3.5-5.4c-1.1-0.5-2.3-0.6-3.4-0.2
				c0,0-6.9,2.7-6.9,2.7c-3,1.2-5.5,3.6-6.6,6.7c-1.1,3-0.9,6.4,0.5,9.2c0.5,5.5,4.8,11.6,10,11.5c2.5-0.1,4.9-1.5,6.8-4.2
				c1.6-2.3,2.6-5.2,2.7-7.9C170.4,75.6,170.4,71.7,168.6,68.4L168.6,68.4z M167.2,77.6l-6.6-3.1l5-2.7c0.8-0.4,1.4-0.9,1.9-1.6
				C168.5,72.7,168.4,75.3,167.2,77.6L167.2,77.6z M150.2,70.8c1-2.6,3-4.7,5.6-5.7l6.9-2.7c0.7-0.2,1.4-0.2,2,0.1
				c1.5,0.7,2.4,2.1,2.5,3.8c0,0.6-0.1,1.2-0.3,1.7c0,0,0,0.1,0,0.1c-0.4,0.9-1.1,1.6-2,2.1L150.3,78
				C149.4,75.7,149.3,73.1,150.2,70.8L150.2,70.8z M165.2,86.2c-1.7,2.4-3.9,3.8-6.1,3.8c-2.2,0-4.4-1.2-6.3-3.5
				c-1.6-2-2.7-4.4-3-6.8l8.9-4.6l9.2,4.3C167.6,81.8,166.7,84.1,165.2,86.2L165.2,86.2z M164.4,85.7"/>
			<path id="XMLID_141_" class="st1" d="M161.6,86.5l-1.7-0.8c-0.1-0.1-0.3-0.1-0.4,0l-0.5,0.2l-0.5-0.2c-0.1,0-0.3,0-0.4,0
				l-1.7,0.9c0,0-0.1,0.1-0.1,0.1c0,0,0,0.1,0.1,0.1l1,0.6c0.5,0.3,1,0.4,1.6,0.4c0.6,0,1.1-0.2,1.6-0.5l1-0.7
				C161.6,86.7,161.6,86.7,161.6,86.5C161.6,86.6,161.6,86.5,161.6,86.5z M159.8,86.8c-0.3,0-0.5,0.1-0.7,0.2c0,0,0,0-0.1,0
				c0,0,0,0-0.1,0c-0.2-0.1-0.5-0.2-0.7-0.2c-0.7,0-1.8-0.1-1.8-0.1s1.1-0.1,1.7-0.1c0.3,0,0.6,0.1,0.8,0.2c0.2-0.1,0.5-0.2,0.8-0.2
				c0.7,0,1.8,0.1,1.8,0.1S160.4,86.8,159.8,86.8z"/>
			<g id="XMLID_140_">
				<g>
					<path class="st1" d="M153.8,81.4c1.2,0.7,2.8,0.7,4.1,0c0.3-0.2,0-0.7-0.3-0.5c-1.1,0.6-2.4,0.6-3.5,0
						C153.8,80.7,153.5,81.2,153.8,81.4L153.8,81.4z"/>
				</g>
			</g>
			<g id="XMLID_139_">
				<g>
					<path class="st1" d="M164,80.7c-1,0.7-2.4,0.8-3.5,0.2c-0.3-0.2-0.6,0.3-0.3,0.5c1.3,0.7,2.9,0.6,4.1-0.2
						C164.6,81,164.3,80.5,164,80.7L164,80.7z"/>
				</g>
			</g>
		</g>
		<g id="XMLID_104_">
			<defs>
				<path id="XMLID_106_" d="M144.9,14.3l30.2,20.9l12.6,14.6c0,0,1.7,12.4,1.7,13.3c0,0.9-4.8,20-4.8,20l-9.9,18.3l-13.1,13.6
					l-12.9,12.7l-20,7.4c0,0-19.7-6.1-20.5-6.2c-0.8-0.1-10.3-7.1-10.3-7.1l-1.6-6.9l-10.9-7.5l-23.7,35.6l-14.5,12.6L35.6,156
					l-19.3-3.3l-9.9-8.1l3.8-12.5l7.4-8.1l22.5-20.2l18.5-34.7l7.6-22.8l17.9-21.5l15.4-9.3l13.8-6.1l14-3.3L144.9,14.3z"/>
			</defs>
			<clipPath id="XMLID_13_">
				<use xlink:href="#XMLID_106_"  style="overflow:visible;"/>
			</clipPath>
			<path id="XMLID_107_" class="st206" d="M160.3,7.7l-8,11.6C133.8,9.6,111,11,94,23.4C70.3,40.6,64.3,73.6,79.8,98.1l-7.8,5.7
				c-4.9-4.5-12.8-4.7-17.8-0.8l-33.4,23.9c-5.1,3-8.5,12.9-3.1,20c5.3,6.7,13.3,7.3,20,3.1l33.1-24.1c6-4.3,7-11.2,4.8-16.9
				l7.8-5.7c1.8,2.4,3.8,4.5,6.2,6.6l-43.8,63.4l125.4,86.7L285.7,94.5L160.3,7.7z M67,121l-32.9,23.8c-3.6,2.5-8.5,1.8-11.4-1.8
				c-1.2-1.6-3.1-7.1,2-11.2l33.1-24.1c6.3-4.1,10.6,1.2,11.4,1.8C71.3,112,71.1,118.4,67,121z M86.7,97c-15.8-22-11-52.7,11-68.5
				c16.8-12.1,39.5-12.4,56.6-0.6c4.6,3.2,8.5,7.1,11.8,11.6c14.3,20.2,12.2,50.9-11,68.4C129.3,126.5,97.9,114,86.7,97z
				 M169.6,251.2l-115-79.6l40.1-57.9l0.3,0.2c19.1,13.2,44.8,13.1,63.8-0.6c25.1-18.6,29.7-52.9,12.6-77.3
				c-3.7-5.2-13.5-13.1-13.7-13.3l4.3-6.2L277,96L169.6,251.2z"/>
		</g>
		<g id="XMLID_91_">
			<g id="XMLID_103_">
				<path class="st0" d="M132.5,115.3c-0.1,0-0.3,0-0.4,0c-1.5-0.1-3.1-0.5-4.7-1.3c-2.7-1.2-4.9-3.2-6.5-5.7
					c-0.8-1.2-1.3-2.5-1.9-3.8l-0.1-0.3c-0.9-2-1.1-4-0.7-6.1c0.1-0.6,0.3-1.3,0.4-1.9c0.1-0.7,0.4-1.3,0.8-2c1-1.5,2.3-2.6,3.9-3.2
					c1.6-0.5,3.1-1.3,4.5-2c0.3-0.1,0.5-0.3,0.8-0.4c2.3-0.8,4-2.2,5-4l0.3-0.5c0.2-0.3,0.3-0.5,0.5-0.8c1.3-1.7,3.2-2.8,5.7-3.2
					c0.1,0,0.2,0,0.3,0c0.5,0,1.1,0.2,1.6,0.5c0.7,0.5,1.5,0.9,2.2,1.3c0.5,0.2,0.8,0.6,1.1,1c1.1,1.7,1.5,3.3,1.4,5
					c-0.1,1.5-0.5,3.1-1,4.9c-0.4,1.4-0.8,2.6-1.4,3.6c-0.9,1.5-1.5,3-1.8,4.6l-0.1,0.3c-0.3,1.2-0.6,2.4-0.8,3.7
					c-0.5,1.9-1,4.1-2.1,6c-0.8,1.4-1.7,2.4-2.8,3C135.4,114.7,134.1,115.3,132.5,115.3L132.5,115.3z"/>
				<path class="st1" d="M140.3,80.4c0.5,0,1,0.2,1.4,0.5c0.8,0.5,1.5,0.9,2.3,1.3c0.4,0.2,0.8,0.5,1,0.9c1,1.7,1.5,3.2,1.3,4.9
					c-0.1,1.5-0.4,3.1-1,4.8c-0.4,1.1-0.7,2.5-1.4,3.6c-0.9,1.5-1.5,3-1.9,4.7l-0.1,0.4c-0.3,1.2-0.5,2.3-0.8,3.5
					c-0.5,1.9-1,4.1-2.1,5.9c-0.8,1.4-1.7,2.3-2.7,3c-1.1,0.6-2.4,1.3-3.9,1.3c-0.1,0-0.3,0-0.4,0c-1.5-0.1-3-0.5-4.7-1.3
					c-2.7-1.2-4.8-3.1-6.4-5.6c-0.8-1.2-1.3-2.5-1.9-3.8l-0.1-0.3c-0.9-2-1.1-3.9-0.6-6c0.2-0.7,0.3-1.4,0.4-1.9
					c0.1-0.6,0.4-1.2,0.8-1.9c1-1.5,2.2-2.5,3.8-3.1c1.5-0.5,2.9-1.2,4.5-2c0.2-0.1,0.5-0.2,0.8-0.3c2.3-0.9,4.1-2.2,5-4.1
					c0.1-0.2,0.2-0.4,0.4-0.5c0.2-0.3,0.3-0.5,0.5-0.7c1.3-1.7,3.1-2.7,5.5-3.1C140.1,80.5,140.2,80.4,140.3,80.4 M140.3,80
					c-0.1,0-0.3,0-0.4,0c-2.3,0.4-4.3,1.3-5.8,3.2c-0.3,0.3-0.5,0.7-0.9,1.3c-1,1.9-2.7,3.1-4.8,3.9c-0.3,0.1-0.5,0.2-0.8,0.4
					c-1.4,0.7-2.9,1.4-4.4,2c-1.7,0.6-3,1.7-4.1,3.2c-0.4,0.6-0.7,1.3-0.9,2.1c-0.1,0.6-0.2,1.3-0.4,1.9c-0.5,2.1-0.3,4.1,0.7,6.2
					c0.6,1.4,1.2,2.8,2.1,4.1c1.7,2.7,3.9,4.5,6.6,5.8c1.6,0.7,3.2,1.2,4.8,1.3c0.2,0,0.3,0,0.5,0c1.6,0,2.9-0.6,4.2-1.4
					c1.2-0.7,2.1-1.8,2.9-3.1c1.1-1.8,1.6-3.9,2.1-6.1c0.3-1.3,0.6-2.6,0.9-3.9c0.4-1.6,1-3.1,1.8-4.5c0.7-1.1,1.1-2.4,1.4-3.7
					c0.5-1.6,0.9-3.2,1-4.9c0.2-1.9-0.4-3.5-1.4-5.2c-0.3-0.5-0.7-0.8-1.2-1.1c-0.8-0.4-1.5-0.8-2.2-1.3
					C141.5,80.2,140.9,80,140.3,80L140.3,80z"/>
			</g>
			<path id="XMLID_102_" class="st1" d="M125.9,109.4c0.2,0.2,0.6,0.6,0.9,0.9c1.6,1.3,3.3,1.9,5.1,1.4c1.6-0.4,2.9-1.1,4.2-2.1
				c0.3-0.2,0.5-0.5,0.7-0.8c1.1-1.8,1.7-3.8,2.1-5.9c0.2-1.2,0.4-2.5,0.7-3.7c0.4-1.7,1.1-3.2,2-4.5c0.4-0.7,0.9-1.3,1.4-1.9
				c0.8-1.1,1.2-2.5,1.4-3.9c0.1-1.1-0.2-2.1-0.9-3c-0.7-1-1.6-1.7-2.5-2.4c-0.9-0.7-1.8-0.8-2.8-0.5c-1.2,0.4-2.1,1.2-2.8,2.2
				c-0.5,0.7-0.9,1.4-1.3,2.2c-0.8,1.6-1.9,2.8-3.4,3.6c-1.4,0.8-2.9,1.7-4.3,2.5c-1.2,0.7-2.1,1.6-3,2.6c-0.5,0.6-0.7,1.3-0.9,2.1
				c-0.2,1-0.4,2.1-0.4,3.2c0,1.4,0.3,2.7,0.9,4c0.1,0.2,0.2,0.3,0.3,0.5C123.7,107.2,124.7,108.3,125.9,109.4z"/>
			<path id="XMLID_97_" class="st0" d="M138.5,85.8c-2,0-2.6,1.5-2.5,3.3c0,0.9,0.2,1.7,0.7,2.5c0.1,0.2,0.2,0.4,0.4,0.4
				c0.6,0.3,1.2,0.6,1.9,0.6c0.3,0,0.6-0.1,0.9-0.3c0.4-0.3,0.8-0.6,1.2-1c0.4-0.6,0.7-1.3,0.8-2c0.3-1.5-0.8-3.2-2.3-3.5
				c-0.2,0-0.4,0-0.5-0.1C138.8,85.8,138.6,85.8,138.5,85.8L138.5,85.8z M138.8,91.8c-0.2,0-0.4,0-0.6-0.1c-0.7-0.2-1.1-0.6-1.4-1.3
				c-0.1-0.3-0.1-0.7-0.2-1c-0.2-1.3,0.6-2.9,2-2.9c0.3,0,0.5,0,0.8,0.2c1.2,0.5,1.9,1.5,1.6,2.8c-0.1,0.5-0.3,1.1-0.7,1.4
				C140,91.5,139.4,91.8,138.8,91.8L138.8,91.8z"/>
			<path id="XMLID_96_" class="st0" d="M128.6,95.1c-0.2,2.3-0.1,4.3,0.9,6.3c0.2,0.4,0.3,0.7,0.6,1c0.9,1.3,1,2.6,0.8,4
				c0,0.1,0,0.3,0,0.4c0,0.1,0.1,0.1,0.2,0.2c0,0,0,0,0,0c0,0,0.1,0,0.1,0c0.1-0.1,0.2-0.2,0.3-0.4c0.2-0.5,0.2-1.1,0.2-1.7
				c-0.1-1.1-0.5-2.2-1.1-3.2c-0.8-1.2-1.2-2.6-1.4-4c-0.1-0.5-0.1-1-0.1-1.4C129,96,129,95.7,128.6,95.1L128.6,95.1z"/>
			<path id="XMLID_94_" class="st0" d="M130.6,94C130.6,94,130.6,94,130.6,94c-0.1,0-0.2,0.1-0.2,0.1c0,0,0,0.1,0,0.1
				c0.1,1.9,0.4,3.8,1.7,5.4c0.2,0.2,0.3,0.5,0.5,0.7c0.9,1.1,1.2,2.3,1.1,3.7c0,0.4,0,0.9,0,1.3c0,0.1,0.1,0.1,0.2,0.2c0,0,0,0,0,0
				c0,0,0.1,0,0.2,0c0-0.1,0.1-0.3,0.2-0.5c0-0.9,0-1.8,0-2.7c0-0.6-0.3-1.1-0.6-1.7c-0.1-0.2-0.3-0.4-0.4-0.6
				c-1.3-1.6-2.1-3.4-2.2-5.4C130.9,94.4,130.8,94.2,130.6,94C130.7,94,130.6,94,130.6,94L130.6,94z"/>
			<path id="XMLID_93_" class="st0" d="M133.3,92.3c-0.2,0.3-0.1,0.6-0.1,0.9c0.2,1.9,0.9,3.7,1.9,5.4c0.7,1.1,0.9,2.2,0.9,3.3
				c0,0.2-0.1,0.5-0.1,0.7c0,0.1,0.1,0.3,0.2,0.3c0,0,0,0,0,0c0.1,0,0.1,0,0.2-0.1c0.2-0.2,0.3-0.4,0.3-0.7c0-1.3-0.1-2.6-1-3.7
				c-1.3-1.6-1.9-3.6-2.2-5.6C133.5,92.7,133.5,92.5,133.3,92.3L133.3,92.3z"/>
		</g>
		<g id="XMLID_1_">
			<path id="XMLID_87_" class="st1" d="M89,83.3c-2,0-4.1-0.3-6.1-1c-9.5-3.4-14.6-13.9-11.2-23.5c2.6-7.3,9.5-12.3,17.4-12.3
				c2,0,4.1,0.3,6.1,1c9.5,3.4,14.6,13.9,11.2,23.5C103.8,78.4,96.8,83.3,89,83.3z"/>
			<polygon id="XMLID_85_" class="st0" points="83.5,76.3 74.3,67 77.9,63.3 83.5,69 98,54.6 101.6,58.2 			"/>
		</g>
	</g>
	<g>
		<g>
			<path class="st1" d="M233.8,65.4l-16.2-37.4c-0.2-0.4-0.2-0.7-0.2-1.1c0-1.2,1.1-2.3,2.4-2.3c1.2,0,2,0.8,2.5,1.8l14.5,34.8
				l14.6-34.9c0.4-0.8,1.3-1.7,2.3-1.7c1.3,0,2.3,1.1,2.3,2.3c0,0.4-0.1,0.7-0.2,1l-16.3,37.6c-0.5,1.2-1.4,2-2.8,2h-0.2
				C235.2,67.4,234.3,66.6,233.8,65.4z"/>
			<path class="st1" d="M260.7,26.2c0-1.5,1.2-2.5,2.7-2.5c1.6,0,2.8,1,2.8,2.5V27c0,1.4-1.2,2.5-2.8,2.5c-1.5,0-2.7-1-2.7-2.5V26.2
				z M261.1,38c0-1.3,1-2.3,2.3-2.3c1.3,0,2.3,1,2.3,2.3v26.9c0,1.3-1,2.3-2.3,2.3c-1.3,0-2.3-1-2.3-2.3V38z"/>
			<path class="st1" d="M275,73c-0.7-0.4-1.2-1.1-1.2-1.9c0-1,1-2,2.1-2c0.4,0,0.7,0.1,1,0.3c3.2,2.2,7,3.4,11,3.4
				c6.8,0,11.3-3.8,11.3-11V58c-2.7,3.6-6.5,6.5-12.2,6.5c-7.4,0-14.6-5.6-14.6-14.5v-0.1c0-9.1,7.2-14.6,14.6-14.6
				c5.8,0,9.6,2.9,12.1,6.2V38c0-1.3,1-2.3,2.3-2.3c1.3,0,2.3,1.1,2.3,2.3v23.6c0,4.8-1.4,8.5-4,11c-2.8,2.8-6.9,4.1-11.8,4.1
				C283.2,76.7,278.9,75.4,275,73z M299.3,50v-0.1c0-6.4-5.5-10.5-11.4-10.5c-5.9,0-10.7,4.1-10.7,10.4v0.1c0,6.2,5,10.6,10.7,10.6
				C293.8,60.5,299.3,56.2,299.3,50z"/>
			<path class="st1" d="M311.8,26.2c0-1.5,1.2-2.5,2.7-2.5c1.6,0,2.8,1,2.8,2.5V27c0,1.4-1.2,2.5-2.8,2.5c-1.5,0-2.7-1-2.7-2.5V26.2
				z M312.2,38c0-1.3,1-2.3,2.3-2.3c1.3,0,2.3,1,2.3,2.3v26.9c0,1.3-1,2.3-2.3,2.3c-1.3,0-2.3-1-2.3-2.3V38z"/>
			<path class="st1" d="M325.7,25.2c0-1.3,1-2.3,2.3-2.3c1.3,0,2.3,1.1,2.3,2.3v39.7c0,1.3-1,2.3-2.3,2.3c-1.3,0-2.3-1-2.3-2.3V25.2
				z"/>
			<path class="st1" d="M336.4,57.9v-0.1c0-6.5,5.4-10,13.3-10c4,0,6.8,0.5,9.5,1.3V48c0-5.6-3.4-8.5-9.2-8.5c-3.1,0-5.8,0.7-8,1.7
				c-0.3,0.1-0.6,0.2-0.8,0.2c-1.1,0-2-0.9-2-2c0-1,0.7-1.7,1.3-1.9c3.1-1.3,6.2-2.1,10.1-2.1c4.4,0,7.7,1.1,10,3.4
				c2.1,2.1,3.2,5.1,3.2,9.1v17c0,1.3-1,2.3-2.2,2.3c-1.3,0-2.2-1-2.2-2.2v-2.8c-2.2,2.8-5.8,5.3-11.2,5.3
				C342.3,67.6,336.4,64.3,336.4,57.9z M359.3,55.5v-3c-2.3-0.7-5.3-1.3-9.1-1.3c-5.8,0-9.1,2.5-9.1,6.4v0.1c0,3.9,3.6,6.2,7.8,6.2
				C354.6,63.9,359.3,60.5,359.3,55.5z"/>
			<path class="st1" d="M371.2,38c0-1.3,1-2.3,2.3-2.3c1.3,0,2.3,1,2.3,2.3v3.4c2-3.4,5.3-6.1,10.6-6.1c7.5,0,11.9,5,11.9,12.4v17.2
				c0,1.3-1,2.3-2.3,2.3c-1.3,0-2.3-1-2.3-2.3V48.8c0-5.8-3.1-9.4-8.6-9.4c-5.3,0-9.3,3.9-9.3,9.7v15.7c0,1.3-1,2.3-2.3,2.3
				c-1.3,0-2.3-1-2.3-2.3V38z"/>
			<path class="st1" d="M404,51.6v-0.1c0-8.8,6.8-16.2,15.9-16.2c5.2,0,8.6,2,11.4,4.5c0.4,0.3,0.7,0.9,0.7,1.6c0,1.3-1,2.2-2.2,2.2
				c-0.6,0-1.1-0.2-1.5-0.5c-2.2-2-4.7-3.7-8.5-3.7c-6.3,0-11.1,5.3-11.1,12v0.1c0,6.7,4.9,12.1,11.4,12.1c3.5,0,6.4-1.6,8.6-3.8
				c0.3-0.3,0.7-0.6,1.3-0.6c1.1,0,2.1,1,2.1,2.1c0,0.5-0.2,1.1-0.6,1.4c-2.9,2.9-6.5,5-11.7,5C410.8,67.7,404,60.3,404,51.6z"/>
			<path class="st1" d="M437.9,26.2c0-1.5,1.2-2.5,2.7-2.5c1.6,0,2.8,1,2.8,2.5V27c0,1.4-1.2,2.5-2.8,2.5c-1.5,0-2.7-1-2.7-2.5V26.2
				z M438.3,38c0-1.3,1-2.3,2.3-2.3c1.3,0,2.3,1,2.3,2.3v26.9c0,1.3-1,2.3-2.3,2.3c-1.3,0-2.3-1-2.3-2.3V38z"/>
			<path class="st1" d="M449.1,57.9v-0.1c0-6.5,5.4-10,13.3-10c4,0,6.8,0.5,9.5,1.3V48c0-5.6-3.4-8.5-9.2-8.5c-3.1,0-5.8,0.7-8,1.7
				c-0.3,0.1-0.6,0.2-0.8,0.2c-1.1,0-2-0.9-2-2c0-1,0.7-1.7,1.3-1.9c3.1-1.3,6.2-2.1,10.1-2.1c4.4,0,7.7,1.1,10,3.4
				c2.1,2.1,3.2,5.1,3.2,9.1v17c0,1.3-1,2.3-2.2,2.3c-1.3,0-2.2-1-2.2-2.2v-2.8c-2.2,2.8-5.8,5.3-11.2,5.3
				C454.9,67.6,449.1,64.3,449.1,57.9z M471.9,55.5v-3c-2.3-0.7-5.3-1.3-9.1-1.3c-5.8,0-9.1,2.5-9.1,6.4v0.1c0,3.9,3.6,6.2,7.8,6.2
				C467.2,63.9,471.9,60.5,471.9,55.5z"/>
			<path class="st1" d="M529.1,64.9c0,1.3-1,2.3-2.3,2.3c-1.3,0-2.3-1-2.3-2.3v-4.2c-2.5,3.7-6.2,6.9-11.9,6.9
				c-7.4,0-14.8-5.9-14.8-16.1v-0.1c0-10.1,7.4-16.1,14.8-16.1c5.8,0,9.5,3.1,11.9,6.6V25.2c0-1.3,1-2.3,2.3-2.3
				c1.3,0,2.3,1,2.3,2.3V64.9z M502.5,51.3v0.1c0,7.3,5.1,12,10.9,12c5.8,0,11.2-4.9,11.2-12v-0.1c0-7.1-5.5-11.9-11.2-11.9
				C507.4,39.4,502.5,43.8,502.5,51.3z"/>
			<path class="st1" d="M550.7,67.7c-8.5,0-15.5-6.5-15.5-16.1v-0.1c0-8.9,6.3-16.1,14.9-16.1c9.2,0,14.4,7.5,14.4,15.7
				c0,1.3-1,2.2-2.2,2.2h-22.4c0.7,6.7,5.4,10.5,10.9,10.5c3.8,0,6.7-1.5,8.9-3.6c0.4-0.3,0.8-0.5,1.3-0.5c1.1,0,2,0.9,2,2
				c0,0.5-0.2,1.1-0.7,1.5C559.5,65.8,556,67.7,550.7,67.7z M559.9,49.7c-0.5-5.6-3.7-10.6-9.9-10.6c-5.4,0-9.5,4.5-10.1,10.6H559.9
				z"/>
			<path class="st1" d="M586.5,25.2c0-1.3,1-2.3,2.3-2.3c1.3,0,2.3,1.1,2.3,2.3v39.7c0,1.3-1,2.3-2.3,2.3c-1.3,0-2.3-1-2.3-2.3V25.2
				z"/>
			<path class="st1" d="M597.3,57.9v-0.1c0-6.5,5.4-10,13.3-10c4,0,6.8,0.5,9.5,1.3V48c0-5.6-3.4-8.5-9.2-8.5c-3.1,0-5.8,0.7-8,1.7
				c-0.3,0.1-0.6,0.2-0.8,0.2c-1.1,0-2-0.9-2-2c0-1,0.7-1.7,1.3-1.9c3.1-1.3,6.2-2.1,10.1-2.1c4.4,0,7.7,1.1,10,3.4
				c2.1,2.1,3.2,5.1,3.2,9.1v17c0,1.3-1,2.3-2.2,2.3c-1.3,0-2.2-1-2.2-2.2v-2.8c-2.2,2.8-5.8,5.3-11.2,5.3
				C603.1,67.6,597.3,64.3,597.3,57.9z M620.1,55.5v-3c-2.3-0.7-5.3-1.3-9.1-1.3c-5.8,0-9.1,2.5-9.1,6.4v0.1c0,3.9,3.6,6.2,7.8,6.2
				C615.4,63.9,620.1,60.5,620.1,55.5z"/>
			<path class="st1" d="M218.8,124.9c-0.5-0.4-0.9-1-0.9-1.8c0-1.3,1-2.3,2.3-2.3c0.6,0,1.1,0.2,1.4,0.5c4,3.4,7.9,5,13.3,5
				c5.6,0,9.4-3,9.4-7.1V119c0-3.9-2.1-6.1-10.9-8c-9.7-2.1-14.1-5.2-14.1-12.1v-0.1c0-6.6,5.8-11.5,13.8-11.5
				c5.5,0,9.5,1.4,13.4,4.1c0.5,0.4,1,1,1,1.9c0,1.3-1,2.3-2.3,2.3c-0.5,0-1-0.1-1.4-0.4c-3.5-2.6-7-3.7-10.9-3.7
				c-5.5,0-8.9,3-8.9,6.8v0.1c0,4,2.2,6.2,11.4,8.2c9.4,2,13.7,5.5,13.7,11.9v0.1c0,7.2-6,11.9-14.3,11.9
				C228.6,130.5,223.5,128.6,218.8,124.9z"/>
			<path class="st1" d="M253.3,120.9v-0.1c0-6.5,5.4-10,13.3-10c4,0,6.8,0.5,9.5,1.3V111c0-5.6-3.4-8.5-9.2-8.5
				c-3.1,0-5.8,0.7-8,1.7c-0.3,0.1-0.6,0.2-0.8,0.2c-1.1,0-2-0.9-2-2c0-1,0.7-1.7,1.3-1.9c3.1-1.3,6.2-2.1,10.1-2.1
				c4.4,0,7.7,1.1,10,3.4c2.1,2.1,3.2,5.1,3.2,9.1v17c0,1.3-1,2.3-2.2,2.3c-1.3,0-2.2-1-2.2-2.2v-2.8c-2.2,2.8-5.8,5.3-11.2,5.3
				C259.2,130.6,253.3,127.3,253.3,120.9z M276.2,118.5v-3c-2.3-0.7-5.3-1.3-9.1-1.3c-5.8,0-9.1,2.5-9.1,6.4v0.1
				c0,3.9,3.6,6.2,7.8,6.2C271.5,126.9,276.2,123.5,276.2,118.5z"/>
			<path class="st1" d="M288.6,88.2c0-1.3,1-2.3,2.3-2.3c1.3,0,2.3,1.1,2.3,2.3v39.7c0,1.3-1,2.3-2.3,2.3c-1.3,0-2.3-1-2.3-2.3V88.2
				z"/>
			<path class="st1" d="M328.2,127.9c0,1.3-1,2.3-2.3,2.3c-1.3,0-2.3-1-2.3-2.3v-3.4c-2.1,3.4-5.3,6.1-10.6,6.1
				c-7.5,0-11.9-5-11.9-12.4V101c0-1.3,1-2.3,2.3-2.3c1.3,0,2.3,1,2.3,2.3V117c0,5.8,3.1,9.4,8.6,9.4c5.3,0,9.3-3.9,9.3-9.7V101
				c0-1.3,1-2.3,2.3-2.3c1.3,0,2.3,1,2.3,2.3V127.9z"/>
			<path class="st1" d="M365.8,127.9c0,1.3-1,2.3-2.3,2.3c-1.3,0-2.3-1-2.3-2.3v-4.2c-2.5,3.7-6.2,6.9-11.9,6.9
				c-7.4,0-14.8-5.9-14.8-16.1v-0.1c0-10.1,7.4-16.1,14.8-16.1c5.8,0,9.5,3.1,11.9,6.6V88.2c0-1.3,1-2.3,2.3-2.3
				c1.3,0,2.3,1,2.3,2.3V127.9z M339.3,114.3v0.1c0,7.3,5.1,12,10.9,12c5.8,0,11.2-4.9,11.2-12v-0.1c0-7.1-5.5-11.9-11.2-11.9
				C344.2,102.4,339.3,106.8,339.3,114.3z"/>
			<path class="st1" d="M387.8,126.8l17-37.3c0.6-1.3,1.5-2.1,3-2.1h0.2c1.4,0,2.4,0.8,2.9,2.1l17,37.2c0.2,0.4,0.3,0.8,0.3,1.2
				c0,1.3-1,2.3-2.3,2.3c-1.1,0-1.9-0.8-2.3-1.7l-4.4-9.7h-23l-4.4,9.8c-0.4,1-1.2,1.6-2.3,1.6c-1.2,0-2.2-1-2.2-2.2
				C387.5,127.7,387.6,127.3,387.8,126.8z M417.5,114.5L407.8,93l-9.7,21.5H417.5z"/>
			<path class="st1" d="M434.4,101c0-1.3,1-2.3,2.3-2.3c1.3,0,2.3,1,2.3,2.3v3.2c2-3.1,4.8-5.9,10-5.9c5,0,8.3,2.7,10,6.2
				c2.2-3.4,5.5-6.2,10.9-6.2c7.1,0,11.5,4.8,11.5,12.5v17.2c0,1.3-1,2.3-2.3,2.3c-1.3,0-2.3-1-2.3-2.3v-16.1c0-6-3-9.4-8-9.4
				c-4.7,0-8.5,3.5-8.5,9.6v15.8c0,1.3-1,2.3-2.3,2.3c-1.3,0-2.3-1-2.3-2.3v-16.2c0-5.8-3.1-9.2-8-9.2c-4.9,0-8.6,4.1-8.6,9.8v15.7
				c0,1.3-1,2.3-2.3,2.3c-1.3,0-2.3-1-2.3-2.3V101z"/>
			<path class="st1" d="M489.1,88.2c0-1.3,1-2.3,2.3-2.3c1.3,0,2.3,1,2.3,2.3v17c2.5-3.7,6.2-6.9,11.9-6.9c7.4,0,14.8,5.9,14.8,16.1
				v0.1c0,10.1-7.3,16.1-14.8,16.1c-5.8,0-9.5-3.1-11.9-6.6v3.9c0,1.3-1,2.3-2.3,2.3c-1.3,0-2.3-1.1-2.3-2.3V88.2z M515.7,114.5
				v-0.1c0-7.3-5-12-10.9-12c-5.8,0-11.2,4.9-11.2,11.9v0.1c0,7.2,5.5,12,11.2,12C510.8,126.5,515.7,122,515.7,114.5z"/>
			<path class="st1" d="M526.7,89.2c0-1.5,1.2-2.5,2.7-2.5c1.6,0,2.8,1,2.8,2.5V90c0,1.4-1.2,2.5-2.8,2.5c-1.5,0-2.7-1-2.7-2.5V89.2
				z M527.1,101c0-1.3,1-2.3,2.3-2.3c1.3,0,2.3,1,2.3,2.3v26.9c0,1.3-1,2.3-2.3,2.3c-1.3,0-2.3-1-2.3-2.3V101z"/>
			<path class="st1" d="M553.8,130.7c-8.5,0-15.5-6.5-15.5-16.1v-0.1c0-8.9,6.3-16.1,14.9-16.1c9.2,0,14.4,7.5,14.4,15.7
				c0,1.3-1,2.2-2.2,2.2H543c0.7,6.7,5.4,10.5,10.9,10.5c3.8,0,6.7-1.5,8.9-3.6c0.4-0.3,0.8-0.5,1.3-0.5c1.1,0,2,0.9,2,2
				c0,0.5-0.2,1.1-0.7,1.5C562.5,128.8,559,130.7,553.8,130.7z M562.9,112.7c-0.5-5.6-3.7-10.6-9.9-10.6c-5.4,0-9.5,4.5-10.1,10.6
				H562.9z"/>
			<path class="st1" d="M573.4,101c0-1.3,1-2.3,2.3-2.3c1.3,0,2.3,1,2.3,2.3v3.4c2-3.4,5.3-6.1,10.6-6.1c7.5,0,11.9,5,11.9,12.4
				v17.2c0,1.3-1,2.3-2.3,2.3c-1.3,0-2.3-1-2.3-2.3v-16.1c0-5.8-3.1-9.4-8.6-9.4c-5.3,0-9.3,3.9-9.3,9.7v15.7c0,1.3-1,2.3-2.3,2.3
				c-1.3,0-2.3-1-2.3-2.3V101z"/>
			<path class="st1" d="M609.7,121.7V103h-2.5c-1.1,0-2-1-2-2c0-1.1,1-2,2-2h2.5v-7.3c0-1.3,1-2.3,2.3-2.3c1.3,0,2.3,1.1,2.3,2.3
				v7.3h8c1.1,0,2.1,1,2.1,2c0,1.1-1,2-2.1,2h-8v18.1c0,3.8,2.1,5.2,5.2,5.2c1.6,0,2.5-0.4,2.8-0.4c1.1,0,2,0.9,2,2
				c0,0.8-0.5,1.5-1.3,1.8c-1.3,0.5-2.8,0.8-4.6,0.8C613.5,130.5,609.7,128,609.7,121.7z"/>
			<path class="st1" d="M627.7,120.9v-0.1c0-6.5,5.4-10,13.3-10c4,0,6.8,0.5,9.5,1.3V111c0-5.6-3.4-8.5-9.2-8.5
				c-3.1,0-5.8,0.7-8,1.7c-0.3,0.1-0.6,0.2-0.8,0.2c-1.1,0-2-0.9-2-2c0-1,0.7-1.7,1.3-1.9c3.1-1.3,6.2-2.1,10.1-2.1
				c4.4,0,7.7,1.1,10,3.4c2.1,2.1,3.2,5.1,3.2,9.1v17c0,1.3-1,2.3-2.2,2.3c-1.3,0-2.2-1-2.2-2.2v-2.8c-2.2,2.8-5.8,5.3-11.2,5.3
				C633.6,130.6,627.7,127.3,627.7,120.9z M650.6,118.5v-3c-2.3-0.7-5.3-1.3-9.1-1.3c-5.8,0-9.1,2.5-9.1,6.4v0.1
				c0,3.9,3.6,6.2,7.8,6.2C645.9,126.9,650.6,123.5,650.6,118.5z"/>
			<path class="st1" d="M663,88.2c0-1.3,1-2.3,2.3-2.3c1.3,0,2.3,1.1,2.3,2.3v39.7c0,1.3-1,2.3-2.3,2.3c-1.3,0-2.3-1-2.3-2.3V88.2z"
				/>
		</g>
	</g>
</g>
</svg>
