<svg xmlns="http://www.w3.org/2000/svg" viewBox="0 0 89 87"><defs><style>.cls-1{fill:#fff;}</style></defs><title>LogoClasicoAlcaldiaBogota</title><g id="TEXTOS"><path class="cls-1" d="M14.22,69.32H12.86l-.54-1.38H9.84l-.51,1.38H8l2.41-6.1h1.33ZM11.91,66.9l-.85-2.25-.83,2.25Z"/><polygon class="cls-1" points="14.56 69.33 14.56 63.27 15.81 63.27 15.81 68.29 18.92 68.29 18.92 69.33 14.56 69.33"/><path class="cls-1" d="M23.42,67.07l1.21.38a2.74,2.74,0,0,1-.93,1.49,2.63,2.63,0,0,1-1.65.49,2.71,2.71,0,0,1-2-.83,3.18,3.18,0,0,1-.79-2.28A3.28,3.28,0,0,1,20,64a2.76,2.76,0,0,1,2.1-.84,2.6,2.6,0,0,1,1.85.66,2.36,2.36,0,0,1,.63,1.13l-1.24.29a1.22,1.22,0,0,0-.46-.75,1.27,1.27,0,0,0-.84-.28,1.47,1.47,0,0,0-1.13.49,2.38,2.38,0,0,0-.43,1.57,2.53,2.53,0,0,0,.43,1.65,1.37,1.37,0,0,0,1.1.49,1.26,1.26,0,0,0,.86-.31,1.86,1.86,0,0,0,.52-1"/><path class="cls-1" d="M30.93,69.32H29.57L29,67.94H26.55L26,69.32H24.7l2.42-6.1h1.32ZM28.62,66.9l-.85-2.25-.84,2.25Z"/><polygon class="cls-1" points="31.26 69.33 31.26 63.27 32.51 63.27 32.51 68.29 35.62 68.29 35.62 69.33 31.26 69.33"/><path class="cls-1" d="M36.15,63.22h2.28a4.39,4.39,0,0,1,1.18.12,1.93,1.93,0,0,1,.93.56,2.65,2.65,0,0,1,.6,1,4.7,4.7,0,0,1,.2,1.45,3.87,3.87,0,0,1-.19,1.3,2.71,2.71,0,0,1-.66,1.08,2.25,2.25,0,0,1-.88.49,4.17,4.17,0,0,1-1.11.12H36.15Zm1.25,1v4h.94a3.32,3.32,0,0,0,.75-.06A1.11,1.11,0,0,0,39.6,68a1.3,1.3,0,0,0,.32-.59,4.06,4.06,0,0,0,.13-1.11,3.7,3.7,0,0,0-.13-1.09,1.36,1.36,0,0,0-.35-.59,1.23,1.23,0,0,0-.58-.29,7.28,7.28,0,0,0-1,0Z"/><path class="cls-1" d="M42.31,62.66l.59-1.25h1.33l-1.16,1.25Zm-.31.56h1.26v6.1H42Z"/><path class="cls-1" d="M49.67,69.32H48.31l-.54-1.38H45.29l-.51,1.38H43.45l2.42-6.1H47.2Zm-2.3-2.42-.86-2.25-.83,2.25Z"/><polygon class="cls-1" points="51.68 69.33 51.68 63.22 53.55 63.22 54.67 67.39 55.78 63.22 57.66 63.22 57.66 69.33 56.5 69.33 56.5 64.52 55.26 69.33 54.06 69.33 52.84 64.52 52.83 69.33 51.68 69.33"/><path class="cls-1" d="M64.13,69.32H62.77l-.54-1.38H59.75l-.51,1.38H57.91l2.41-6.1h1.34Zm-2.3-2.42L61,64.65l-.84,2.25Z"/><polygon class="cls-1" points="65.26 69.33 65.26 66.76 62.99 63.22 64.46 63.22 65.92 65.64 67.36 63.22 68.79 63.22 66.52 66.76 66.52 69.33 65.26 69.33"/><path class="cls-1" d="M68.79,66.31a4,4,0,0,1,.28-1.57,3,3,0,0,1,.58-.83,2.44,2.44,0,0,1,.8-.55,3.48,3.48,0,0,1,1.34-.24A2.92,2.92,0,0,1,74,64a3.71,3.71,0,0,1,0,4.64,2.92,2.92,0,0,1-2.18.84,3,3,0,0,1-2.21-.83,3.16,3.16,0,0,1-.81-2.29m1.3,0a2.29,2.29,0,0,0,.48,1.57,1.58,1.58,0,0,0,1.24.53A1.56,1.56,0,0,0,73,67.84a2.29,2.29,0,0,0,.48-1.59A2.21,2.21,0,0,0,73,64.69a1.56,1.56,0,0,0-1.23-.52,1.66,1.66,0,0,0-1.26.52A2.33,2.33,0,0,0,70.09,66.27Z"/><path class="cls-1" d="M75.42,69.32v-6.1h2.63a4.6,4.6,0,0,1,1.45.16,1.43,1.43,0,0,1,.72.59,1.75,1.75,0,0,1,.27,1,1.64,1.64,0,0,1-.41,1.13,1.92,1.92,0,0,1-1.22.56,3,3,0,0,1,.67.52,6.47,6.47,0,0,1,.71,1L81,69.32H79.5L78.6,68a8.8,8.8,0,0,0-.66-.9,1.09,1.09,0,0,0-.37-.26,2.55,2.55,0,0,0-.64-.06h-.25v2.54Zm1.26-3.52h.92a5.64,5.64,0,0,0,1.12-.07.63.63,0,0,0,.35-.26A.76.76,0,0,0,79.2,65a.68.68,0,0,0-.64-.73,8.21,8.21,0,0,0-.9,0h-1Z"/><rect class="cls-1" x="68.07" y="78.05" width="1.17" height="1.15"/><path class="cls-1" d="M12,73.18h2.25a4.81,4.81,0,0,1,1.16.11,2.14,2.14,0,0,1,.92.56,2.62,2.62,0,0,1,.58,1,4.41,4.41,0,0,1,.2,1.42,3.91,3.91,0,0,1-.19,1.27,2.61,2.61,0,0,1-.65,1.06,2.1,2.1,0,0,1-.86.48,3.65,3.65,0,0,1-1.09.13H12Zm1.23,1v4h.93a4.14,4.14,0,0,0,.74,0,1.18,1.18,0,0,0,.5-.25,1.47,1.47,0,0,0,.32-.58,4,4,0,0,0,.12-1.1,3.58,3.58,0,0,0-.12-1.06,1.36,1.36,0,0,0-.35-.58,1.1,1.1,0,0,0-.57-.28,5.47,5.47,0,0,0-1-.06Z"/><polygon class="cls-1" points="17.77 79.18 17.77 73.18 22.28 73.18 22.28 74.2 19 74.2 19 75.52 22.05 75.52 22.05 76.54 19 76.54 19 78.16 22.4 78.16 22.4 79.18 17.77 79.18"/><path class="cls-1" d="M25.09,73.18h2.44a7.23,7.23,0,0,1,1.08.06,1.6,1.6,0,0,1,1.1.74,1.41,1.41,0,0,1,.18.71,1.38,1.38,0,0,1-.22.77A1.48,1.48,0,0,1,29,76a1.61,1.61,0,0,1,.85.54,1.39,1.39,0,0,1,.3.91,1.77,1.77,0,0,1-.19.8,1.63,1.63,0,0,1-.52.61,1.68,1.68,0,0,1-.83.29c-.21,0-.7,0-1.48,0H25.09Zm1.24,1v1.38h.8c.48,0,.77,0,.89,0a.82.82,0,0,0,.5-.21.63.63,0,0,0,.18-.47.65.65,0,0,0-.16-.45.66.66,0,0,0-.46-.21c-.12,0-.47,0-1,0Zm0,2.38v1.6h1.13a7.11,7.11,0,0,0,.85,0,.9.9,0,0,0,.45-.24.77.77,0,0,0,.17-.51.83.83,0,0,0-.13-.46.81.81,0,0,0-.39-.27,4.06,4.06,0,0,0-1.09-.09Z"/><path class="cls-1" d="M30.62,76.22a3.89,3.89,0,0,1,.28-1.54,2.92,2.92,0,0,1,.57-.83,2.39,2.39,0,0,1,.79-.53,3.33,3.33,0,0,1,1.31-.24,2.85,2.85,0,0,1,2.15.82,3.12,3.12,0,0,1,.81,2.29,3.07,3.07,0,0,1-.8,2.27,2.84,2.84,0,0,1-2.14.82,2.89,2.89,0,0,1-2.16-.81,3.06,3.06,0,0,1-.81-2.25m1.27,0a2.2,2.2,0,0,0,.48,1.54,1.67,1.67,0,0,0,2.42,0,2.8,2.8,0,0,0,0-3.09,1.51,1.51,0,0,0-1.21-.51,1.58,1.58,0,0,0-1.23.51A2.24,2.24,0,0,0,31.89,76.18Z"/><path class="cls-1" d="M40,77V76h2.65v2.38A3.52,3.52,0,0,1,41.5,79a4.06,4.06,0,0,1-1.49.28,3.29,3.29,0,0,1-1.66-.4,2.47,2.47,0,0,1-1.07-1.12,3.72,3.72,0,0,1-.36-1.6,3.32,3.32,0,0,1,.41-1.66,2.62,2.62,0,0,1,1.16-1.12,3.19,3.19,0,0,1,1.46-.3,3,3,0,0,1,1.77.47,2.07,2.07,0,0,1,.82,1.29l-1.22.23a1.33,1.33,0,0,0-.48-.7,1.48,1.48,0,0,0-.89-.25,1.67,1.67,0,0,0-1.28.5,2.09,2.09,0,0,0-.48,1.49,2.27,2.27,0,0,0,.49,1.6,1.6,1.6,0,0,0,1.26.53,2.09,2.09,0,0,0,.77-.14,2.92,2.92,0,0,0,.66-.36V77Z"/><path class="cls-1" d="M43.15,76.22a3.9,3.9,0,0,1,.27-1.54,2.92,2.92,0,0,1,.57-.83,2.39,2.39,0,0,1,.79-.53,3.38,3.38,0,0,1,1.32-.24,2.89,2.89,0,0,1,2.15.82,3.67,3.67,0,0,1,0,4.56,3.26,3.26,0,0,1-4.31,0,3.09,3.09,0,0,1-.8-2.25m1.27,0a2.2,2.2,0,0,0,.47,1.54,1.68,1.68,0,0,0,2.43,0,2.25,2.25,0,0,0,.46-1.56,2.19,2.19,0,0,0-.45-1.53,1.55,1.55,0,0,0-1.23-.51,1.58,1.58,0,0,0-1.22.51A2.24,2.24,0,0,0,44.42,76.18Z"/><polygon class="cls-1" points="51.04 79.18 51.04 74.2 49.23 74.2 49.23 73.18 54.07 73.18 54.07 74.2 52.27 74.2 52.27 79.18 51.04 79.18"/><path class="cls-1" d="M60,79.18H58.66l-.53-1.37H55.69l-.5,1.37H53.88l2.37-6h1.31ZM57.73,76.8l-.84-2.22-.82,2.22Zm-1.27-4.17L57,71.41h1.3L57.2,72.63Z"/><path class="cls-1" d="M62.29,73.18h2.25a4.87,4.87,0,0,1,1.16.11,2.14,2.14,0,0,1,.92.56,2.62,2.62,0,0,1,.58,1,4.48,4.48,0,0,1,.19,1.42,3.67,3.67,0,0,1-.18,1.27,2.61,2.61,0,0,1-.65,1.06,2.1,2.1,0,0,1-.86.48,3.69,3.69,0,0,1-1.09.13H62.29Zm1.23,1v4h.92a4.06,4.06,0,0,0,.74,0,1.12,1.12,0,0,0,.5-.25,1.18,1.18,0,0,0,.32-.58,3.67,3.67,0,0,0,.12-1.1A3.27,3.27,0,0,0,66,75.12a1.19,1.19,0,0,0-.35-.58,1.1,1.1,0,0,0-.56-.28,5.56,5.56,0,0,0-1-.06Z"/><path class="cls-1" d="M74,77l1.19.38a2.79,2.79,0,0,1-.91,1.47,2.68,2.68,0,0,1-1.62.47,2.64,2.64,0,0,1-2-.81,3.08,3.08,0,0,1-.79-2.24,3.24,3.24,0,0,1,.79-2.32,2.71,2.71,0,0,1,2.06-.83,2.57,2.57,0,0,1,1.82.65,2.34,2.34,0,0,1,.63,1.11L74,75.13a1.28,1.28,0,0,0-.45-.74,1.31,1.31,0,0,0-.83-.27,1.4,1.4,0,0,0-1.11.48,2.32,2.32,0,0,0-.42,1.55,2.45,2.45,0,0,0,.42,1.61,1.34,1.34,0,0,0,1.08.48,1.24,1.24,0,0,0,.84-.3A1.76,1.76,0,0,0,74,77"/><rect class="cls-1" x="75.86" y="78.06" width="1.17" height="1.15"/><path class="cls-1" d="M32.43,36.5c.11.16.72-.21.67-.37s-.06-1,.5-1.05v-.21s-.83,0-1,.53c0,0-.66-.69-.83-.63s.17,1,.17,1c-.56-.1-.83.64-.83.64l.1.1A.81.81,0,0,1,32.43,36.5Z"/><path class="cls-1" d="M39.2,42.14A2.61,2.61,0,0,0,38.59,44a2.14,2.14,0,0,0,1.66-.79,2.2,2.2,0,0,0,.61-1.79A2.52,2.52,0,0,0,39.2,42.14Z"/><path class="cls-1" d="M56.77,35.76s.34-.89.16-1-.82.63-.82.63c-.17-.53-1-.53-1-.53v.21c.56.05.67.79.5,1.05s.56.53.67.37a.81.81,0,0,1,1.22,0l.11-.1S57.33,35.66,56.77,35.76Z"/><path class="cls-1" d="M49.51,42.14a2.55,2.55,0,0,0-1.66-.74A2.4,2.4,0,0,0,50.12,44,2.61,2.61,0,0,0,49.51,42.14Z"/><path class="cls-1" d="M55.77,36.45a2.44,2.44,0,0,0-3.32.37,2.18,2.18,0,0,0,1,2.93c-.82.07-1.88-1-1.88-1-.47.84.38,1.32,1,1.55l-.26.2c-.63-.16-.85.14-.85.14S50,39.1,49,38.05l.91-.18c-.67-1.51-2.46-1.84-3.67-2.76-.92-.69.11-1,.35-.77a3.71,3.71,0,0,0,4.33.59,4.57,4.57,0,0,1-2.39-2.33,5.21,5.21,0,0,0,5.88-.26c-2.21.37-3.94-1.68-3.94-1.68a6.71,6.71,0,0,0,5.82-1.48C55,29.29,51.82,28,51.82,28c5-.15,5.48-3.69,5.54-3.69-1.39.9-5.1.48-5.1.48,5.27-1.85,4.88-6.11,4.88-6.11-1.12,1.63-6.21,3.21-6.21,3.21a3.37,3.37,0,0,0-2.49,3.05A1.23,1.23,0,0,1,47.22,26c-1.36,0-1.34-1.93-1.34-2.85,0-1.37-.05-2.94-1.05-2.94h-2c-.36,0-1,0-1.24.26-.51.59-.43,2.15-.2,1.84a2.38,2.38,0,0,1,1.27,0c.65.18.17,2.15.17,2.58A1.2,1.2,0,0,1,41.62,26a1.22,1.22,0,0,1-1.22-1.06A3.38,3.38,0,0,0,38,21.86s-5.21-1.58-6.32-3.21c0,0-.39,4.32,4.93,6.21,0,0-3.76.32-5.15-.58,0,0,.72,3.69,5.77,3.85,0,0-3.33,1.11-4.55.95A6.49,6.49,0,0,0,38.57,31a5.65,5.65,0,0,1-4.16,1.37,5.21,5.21,0,0,0,5.88.37A4.35,4.35,0,0,1,38,34.93a3.78,3.78,0,0,0,4.38-.59c.29-.32,1.24,0,.29.77-1.26,1-3.07,1.18-3.84,2.76l.93.18c-1,1.05-2.45,2.53-2.59,2.56s-.21-.28-.79-.16l-.25-.18c.67-.23,1.52-.71,1.06-1.55,0,0-1.07,1.1-1.88,1a2.2,2.2,0,0,0,1-2.93,2.44,2.44,0,0,0-3.32-.37,2.3,2.3,0,0,0-1.12,3.06,2.36,2.36,0,0,0,3.16.42A3.57,3.57,0,0,1,33.1,41s.68,1.29,2.2-.43l.24.18c-.41.31-.58.86-.24,1.09,0,0-.16.84.83.79a.78.78,0,0,0,1,.24,11.86,11.86,0,0,1,.41,2.86l1.28.06a9.6,9.6,0,0,0-1.17-3.91.4.4,0,0,0,.09-.62,36.31,36.31,0,0,1,3.16-2l.17.85a3.66,3.66,0,0,1,1.93-1.26,5.15,5.15,0,0,0-1,4.21s.22-.68,1.33-.8c0,0-1.56,1.85.94,5.43,2.49-3.58,1-5.43,1-5.43a1.6,1.6,0,0,1,1.39.8,5.29,5.29,0,0,0-1.11-4.25,3.57,3.57,0,0,1,1.94,1.3l.18-.88c1.33.82,3.18,2,3.15,2-.21.22-.08.47.12.63a9.91,9.91,0,0,0-1.17,3.9l1.28-.06a12.69,12.69,0,0,1,.4-2.84.8.8,0,0,0,1-.26c1,0,.84-.79.84-.79.32-.23.18-.74-.24-1.06l.28-.21c1.51,1.72,2.19.43,2.19.43a3.55,3.55,0,0,1-1.87-1.11,2.34,2.34,0,0,0,3.15-.42A2.29,2.29,0,0,0,55.77,36.45ZM35,39.66c-.5.32-1.27.11-1.94-.84s-.61-2-.11-2.26,1.44.21,2,1.16S35.54,39.4,35,39.66Zm8.52-17.91a.51.51,0,0,1-.56-.47.52.52,0,0,1,.56-.53.49.49,0,0,1,.49.53A.47.47,0,0,1,43.56,21.75Zm12,17.07c-.66,1-1.44,1.16-1.94.84s-.66-1,0-1.94,1.56-1.43,2.05-1.16S56.21,37.87,55.6,38.82Z"/><polygon class="cls-1" points="45.55 19.7 46.66 18.02 44.95 18.65 44.33 17.13 43.67 18.65 41.89 18.02 43.06 19.7 45.55 19.7"/><path class="cls-1" d="M27.84,32.18c-.06-1.05-.67-1.84-1.22-1.79s-.89.9-.83,2,.61,1.53,1.1,1.48S27.89,33.19,27.84,32.18Z"/><path class="cls-1" d="M62.21,45.62c-.44-.26-1.33.16-1.94,1s-.49,1.59,0,1.85,1.17.05,1.77-.79S62.66,45.88,62.21,45.62Z"/><path class="cls-1" d="M51.15,13.55c0-.48-.55-1-1.61-1.06s-2,.53-2,1,.89.95,1.93,1S51.2,14.07,51.15,13.55Z"/><path class="cls-1" d="M28.7,46.62c-.61-.84-1.49-1.26-1.94-1s-.44,1.21.17,2.06,1.33,1,1.77.79S29.26,47.47,28.7,46.62Z"/><path class="cls-1" d="M42.09,51.78c-1.11-.15-2.05.11-2.16.59s.61,1.15,1.66,1.36,1.77-.15,1.88-.68S43.14,52,42.09,51.78Z"/><path class="cls-1" d="M44.35,7.77a23.87,23.87,0,0,1-21.78,0V46.19a8.6,8.6,0,0,0,8.81,8.44c4.72,0,8.92.65,13,3.2,4-2.51,8.21-3.2,12.92-3.2a8.65,8.65,0,0,0,8.86-8.44V7.72A23.9,23.9,0,0,1,44.35,7.77Zm17.52,6s.12-.84.28-.84.45.79.45.79c.32-.31,1,.05,1,.05l-.05.16a.67.67,0,0,0-.89.58c0,.16-.72.21-.72,0a.77.77,0,0,0-1-.52l-.06-.11S61.43,13.44,61.87,13.75Zm.44,1.11a2.27,2.27,0,0,1,2.61,1.63,2.13,2.13,0,0,1-2,2,3.57,3.57,0,0,0,2-.13s.16,1.22-1.75.82c.08,1-.55,1.71-.8,2.69a2.54,2.54,0,0,1,.56-.51A2.79,2.79,0,0,1,64.7,21a1.93,1.93,0,0,1-.88,1.32,2.55,2.55,0,0,1-1.59.4,4,4,0,0,0,.48,1.6l-.89.69a5.21,5.21,0,0,1,.11-4.16c.45-.94.53-1.3.48-1.65-.6.21-1.81.5-2-.52a3.6,3.6,0,0,0,2-.2A2.3,2.3,0,0,1,60,16.81,2.13,2.13,0,0,1,62.31,14.86Zm1.48,14.48-.07.16a.75.75,0,0,0-1,.53c0,.15-.72.1-.72-.06a.67.67,0,0,0-.89-.58l0-.15s.67-.37,1-.06c0,0,.29-.84.44-.79s.28.85.28.85C63.22,28.92,63.79,29.34,63.79,29.34ZM49.48,11.23a2,2,0,0,1,1.84,2.14,2.91,2.91,0,0,0,0-1.93s1.28,0,.79,1.7c1,0,1.68.66,2.65,1a2,2,0,0,1-.44-.56,2.1,2.1,0,0,1-.22-1.74,1.87,1.87,0,0,1,1.32.94,2.22,2.22,0,0,1,.28,1.52,4.78,4.78,0,0,0,1.72-.3l.66.89a6.2,6.2,0,0,1-4.37-.48,4,4,0,0,0-1.64-.6c.14.57.32,1.78-.69,1.82,0,0,.33-1.33-.12-1.94a2.11,2.11,0,0,1-2,2.15,2.05,2.05,0,0,1-1.82-2.32A2.12,2.12,0,0,1,49.48,11.23Zm-3.15,1.94c-.33-.36.11-.94.11-.94l.17,0c-.28.47.27.89.55.89s.16.64,0,.64a.77.77,0,0,0-.67.95h-.16s-.39-.59-.06-.95c0,0-.89-.16-.89-.32S46.33,13.17,46.33,13.17Zm-4.6,0c.28,0,.82-.42.55-.89l.17,0s.44.58.1.94c0,0,1,.16,1,.32s-.88.32-.88.32c.33.36-.07.95-.07.95h-.16a.76.76,0,0,0-.66-.95C41.56,13.81,41.56,13.17,41.73,13.17ZM31.42,14a4.75,4.75,0,0,0,1.72.3,2.21,2.21,0,0,1,.27-1.52,1.87,1.87,0,0,1,1.33-.94,2.1,2.1,0,0,1-.22,1.74,1.74,1.74,0,0,1-.45.56c1-.31,1.67-.93,2.67-1-.5-1.75.78-1.7.78-1.7a2.85,2.85,0,0,0,0,1.93,2,2,0,0,1,1.83-2.14,2.13,2.13,0,0,1,2,2.26,2.07,2.07,0,0,1-1.83,2.32,2.12,2.12,0,0,1-2-2.15c-.45.61-.11,1.94-.11,1.94-1,0-.84-1.25-.7-1.82a4,4,0,0,0-1.63.6,6.2,6.2,0,0,1-4.37.48Zm-5-.27s.28-.84.44-.79.28.84.28.84c.44-.31,1,.16,1,.16L28,14a.75.75,0,0,0-1,.52c-.06.16-.73.11-.73,0a.68.68,0,0,0-.88-.58l-.06-.16S26,13.39,26.38,13.7Zm.28,1.16a2.12,2.12,0,0,1,2.27,1.95,2.29,2.29,0,0,1-2.37,1.69,3.56,3.56,0,0,0,2,.2c-.16,1-1.37.73-2,.52,0,.35,0,.71.49,1.65A5.47,5.47,0,0,1,27.16,25l-.89-.69a4,4,0,0,0,.44-1.6,2.43,2.43,0,0,1-1.55-.4A1.75,1.75,0,0,1,24.28,21a2.77,2.77,0,0,1,1.82.32,2.42,2.42,0,0,1,.5.44c-.26-.94-.85-1.66-.76-2.62-1.88.39-1.73-.82-1.73-.82a3.58,3.58,0,0,0,2,.13,2.14,2.14,0,0,1-2-2A2.28,2.28,0,0,1,26.66,14.86Zm1.23,14.38-.05.15A.66.66,0,0,0,27,30c0,.16-.66.21-.72.06a.76.76,0,0,0-1-.53l-.05-.16s.55-.42,1-.1c0,0,.12-.85.28-.85s.44.79.44.79C27.23,28.87,27.89,29.24,27.89,29.24Zm-4.1,6.11a2.07,2.07,0,0,1,1.66.58,1.42,1.42,0,0,1,.58.93,2.85,2.85,0,0,1,.2-.51c.45-.94.54-1.3.49-1.65-.61.21-1.82.51-2-.51,0,0,1.46.23,2.05-.26a2.22,2.22,0,0,1-2.44-1.64,2.21,2.21,0,0,1,2.28-2A2.34,2.34,0,0,1,29.22,32a2.09,2.09,0,0,1-2.13,1.93,3.38,3.38,0,0,0,2.08-.09s.14,1.21-1.74.82c.16,1.65-1.7,2.57-.42,5.19l-.89.68a5.29,5.29,0,0,1-.23-3.16,2.29,2.29,0,0,1-1.6-.58A1.51,1.51,0,0,1,23.79,35.35ZM25.1,45.46l-.11-.1s.27-.69.83-.58c0,0-.39-.79-.22-.89s.77.52.77.52c.17-.47.89-.47.89-.47l.06.15a.71.71,0,0,0-.5,1c.11.1-.5.47-.56.36A.75.75,0,0,0,25.1,45.46Zm7.37,7.85a4,4,0,0,0-.64-1.52,2.82,2.82,0,0,1-1.46.58,2,2,0,0,1-1.61-.59,2.35,2.35,0,0,1,1.66-.73,2.44,2.44,0,0,1,.73.05c-.8-.6-1.74-.83-2.31-1.66-1.28,1.36-1.91.29-1.91.29a3,3,0,0,0,1.74-1.1,2.2,2.2,0,0,1-3-.32,2.1,2.1,0,0,1,1-2.79,2.27,2.27,0,0,1,3.05.26,2,2,0,0,1-.87,2.71c.77.07,1.81-.92,1.81-.92.5.87-.67,1.33-1.27,1.5.19.32.49.56,1.43,1a5.71,5.71,0,0,1,2.78,3.27Zm7-.73c-.33-.06-.94.26-.83.79h-.16s-.28-.63.16-.95c0,0-.88-.37-.83-.53s.94-.11.94-.11c-.27-.47.28-.94.28-.94l.17.1c-.34.43.11,1,.39,1S39.6,52.63,39.48,52.58ZM49.74,54a4.38,4.38,0,0,0-1.61-.64,2,2,0,0,1-.61,1.38,2.1,2.1,0,0,1-1.55.68,2.76,2.76,0,0,1,.61-1.69,2.27,2.27,0,0,1,.58-.39c-1,.11-1.86.57-2.87.38.11,1.8-1.15,1.44-1.15,1.44a3,3,0,0,0,.42-1.88A2.1,2.1,0,0,1,41.25,55a2.35,2.35,0,0,1,1-4.53A2.1,2.1,0,0,1,43.62,53c.56-.49.52-1.8.52-1.8,1,.28.58,1.36.29,1.88a3.37,3.37,0,0,0,1.76-.19,6.43,6.43,0,0,1,4.44.42Zm-5.43-4.1c-2.78-1.72-5.42-2.06-8.64-2.06A5.54,5.54,0,0,1,30,42.25l0-25.86c3.49,1.84,11.17.6,14.52-1.12C47.88,17,55.47,18.2,59,16.39l0,25.86a5.9,5.9,0,0,1-6.07,5.59A15.18,15.18,0,0,0,44.31,49.9Zm19-1.59a2.24,2.24,0,0,1-2.94.36A3.1,3.1,0,0,0,62,49.73s-.63,1.07-1.9-.29c-.58.83-1.51,1.06-2.32,1.67a2.23,2.23,0,0,1,.74-.06,2.45,2.45,0,0,1,1.66.73,2.1,2.1,0,0,1-1.61.59,2.67,2.67,0,0,1-1.47-.58,4.14,4.14,0,0,0-.63,1.52l-1.17.06a5.76,5.76,0,0,1,2.77-3.27c1-.47,1.25-.71,1.44-1-.61-.17-1.77-.63-1.27-1.5,0,0,1,1,1.76.92a2,2,0,0,1-.82-2.71,2.28,2.28,0,0,1,3.06-.26A2.1,2.1,0,0,1,63.27,48.31Zm.55-2.85c-.27-.47-.94-.26-1.11,0s-.67-.26-.61-.36a.69.69,0,0,0-.44-1l.05-.15s.72,0,.89.47c0,0,.61-.63.78-.52s-.23.89-.23.89c.56-.11.84.58.84.58Zm.85-8.69a2.23,2.23,0,0,1-1.58.58,5.19,5.19,0,0,1-.25,3.16L62,39.83c1.33-2.62-.53-3.54-.41-5.19-1.89.4-1.69-.82-1.69-.82a3.16,3.16,0,0,0,2,.09A2.1,2.1,0,0,1,59.73,32a2.36,2.36,0,0,1,2.62-1.69,2.19,2.19,0,0,1,2.26,2,2.21,2.21,0,0,1-2.44,1.64c.6.49,2,.26,2,.26-.17,1-1.37.72-2,.51-.05.35,0,.71.49,1.65a4.46,4.46,0,0,1,.22.5,1.55,1.55,0,0,1,.56-.92,2.12,2.12,0,0,1,1.71-.58A1.71,1.71,0,0,1,64.67,36.77Z"/><path class="cls-1" d="M26.38,18.34c.5.05,1.05-.47,1.11-1.48s-.33-1.89-.83-1.95-1.17.74-1.22,1.79S25.83,18.29,26.38,18.34Z"/><path class="cls-1" d="M62.6,18.34c.49-.05,1-.63.94-1.64s-.67-1.84-1.23-1.79-.93.9-.88,1.95S62,18.39,62.6,18.34Z"/><path class="cls-1" d="M39.4,14.49c1.05-.05,1.89-.47,1.94-1s-.89-1-2-1-1.6.58-1.6,1.06S38.29,14.55,39.4,14.49Z"/><path class="cls-1" d="M63.22,32.34c.06-1.05-.38-1.89-.87-2s-1.17.74-1.23,1.79.45,1.59.94,1.64S63.17,33.34,63.22,32.34Z"/></g></svg>