<?xml version="1.0" encoding="utf-8"?>
<!-- Generator: Adobe Illustrator 21.0.0, SVG Export Plug-In . SVG Version: 6.00 Build 0)  -->
<svg version="1.1" xmlns="http://www.w3.org/2000/svg" xmlns:xlink="http://www.w3.org/1999/xlink" x="0px" y="0px"
	 viewBox="0 0 127 127" style="enable-background:new 0 0 127 127;" xml:space="preserve">
<style type="text/css">
	.st0{fill:#009FE3;}
	.st1{fill:#FFFFFF;}
	.st2{fill:none;stroke:#474747;stroke-width:0.5;stroke-miterlimit:10;}
</style>
<g id="Capa_5">
</g>
<g id="Capa_1">
</g>
<g id="Capa_2">
</g>
<g id="Capa_3">
</g>
<g id="Capa_4">
	<g>
		<path class="st0" d="M118.8,59.3C118.8,28.8,94.1,4,63.5,4S8.2,28.8,8.2,59.3s24.8,55.3,55.3,55.3c7.5,0,14.7-1.5,21.3-4.2
			l34,14.6V59.8l0,0C118.8,59.7,118.8,59.5,118.8,59.3z"/>
		<g>
			<path class="st1" d="M28.9,81.2h3.9c0.4,0,0.7,0,1.1,0.1c0.4,0.1,0.7,0.2,1,0.4c0.3,0.2,0.5,0.5,0.7,0.8c0.2,0.3,0.3,0.7,0.3,1.1
				c0,0.6-0.2,1-0.5,1.4c-0.3,0.4-0.7,0.6-1.2,0.8v0c0.3,0,0.6,0.1,0.9,0.3c0.3,0.1,0.5,0.3,0.7,0.5c0.2,0.2,0.3,0.5,0.4,0.7
				c0.1,0.3,0.2,0.6,0.2,0.9c0,0.5-0.1,1-0.3,1.4c-0.2,0.4-0.5,0.6-0.8,0.9c-0.4,0.2-0.8,0.4-1.2,0.5c-0.5,0.1-0.9,0.1-1.4,0.1h-3.6
				V81.2z M30.7,85.2h1.6c0.6,0,1-0.1,1.3-0.3c0.3-0.2,0.4-0.5,0.4-0.9c0-0.4-0.2-0.7-0.5-1c-0.3-0.2-0.8-0.3-1.5-0.3h-1.5V85.2z
				 M30.7,89.6h1.6c0.2,0,0.5,0,0.7,0c0.3,0,0.5-0.1,0.7-0.2c0.2-0.1,0.4-0.2,0.5-0.4c0.1-0.2,0.2-0.5,0.2-0.8
				c0-0.5-0.2-0.9-0.5-1.1c-0.3-0.2-0.9-0.3-1.6-0.3h-1.7V89.6z"/>
			<path class="st1" d="M40.9,86.2c0-0.8,0.1-1.5,0.4-2.2c0.3-0.6,0.6-1.2,1.1-1.7c0.5-0.5,1-0.8,1.7-1.1c0.6-0.2,1.3-0.4,2.1-0.4
				c0.8,0,1.5,0.1,2.1,0.3c0.6,0.2,1.2,0.6,1.7,1c0.5,0.5,0.8,1,1.1,1.7s0.4,1.4,0.4,2.2c0,0.8-0.1,1.5-0.4,2.1
				c-0.3,0.6-0.6,1.2-1.1,1.6c-0.5,0.5-1,0.8-1.7,1.1c-0.6,0.3-1.4,0.4-2.1,0.4c-0.8,0-1.5-0.1-2.1-0.4c-0.6-0.2-1.2-0.6-1.7-1.1
				c-0.5-0.5-0.8-1-1.1-1.6C41,87.6,40.9,86.9,40.9,86.2z M42.8,86c0,0.5,0.1,1,0.2,1.5c0.2,0.4,0.4,0.8,0.7,1.2
				c0.3,0.3,0.7,0.6,1.1,0.8c0.4,0.2,0.9,0.3,1.4,0.3c0.5,0,1-0.1,1.4-0.3c0.4-0.2,0.8-0.4,1.1-0.8c0.3-0.3,0.5-0.7,0.7-1.2
				c0.2-0.4,0.2-0.9,0.2-1.5c0-0.5-0.1-1-0.2-1.4c-0.2-0.4-0.4-0.8-0.7-1.1c-0.3-0.3-0.7-0.6-1.1-0.8c-0.4-0.2-0.9-0.3-1.4-0.3
				c-0.5,0-1,0.1-1.4,0.3c-0.4,0.2-0.8,0.4-1.1,0.8c-0.3,0.3-0.5,0.7-0.7,1.1C42.8,85.1,42.8,85.5,42.8,86z"/>
			<path class="st1" d="M65.4,90.3c-1.2,0.7-2.6,1-4.1,1c-0.8,0-1.5-0.1-2.1-0.4c-0.6-0.2-1.2-0.6-1.7-1.1c-0.5-0.5-0.8-1-1.1-1.6
				c-0.3-0.6-0.4-1.3-0.4-2.1c0-0.8,0.1-1.5,0.4-2.2c0.3-0.6,0.6-1.2,1.1-1.7c0.5-0.5,1-0.8,1.7-1.1c0.6-0.2,1.3-0.4,2.1-0.4
				c0.8,0,1.5,0.1,2.1,0.3c0.7,0.2,1.3,0.5,1.8,1l-1.3,1.3c-0.3-0.3-0.7-0.5-1.2-0.7c-0.5-0.2-0.9-0.3-1.4-0.3c-0.5,0-1,0.1-1.4,0.3
				c-0.4,0.2-0.8,0.4-1.1,0.8c-0.3,0.3-0.5,0.7-0.7,1.1c-0.2,0.4-0.2,0.9-0.2,1.4c0,0.5,0.1,1,0.2,1.5c0.2,0.4,0.4,0.8,0.7,1.2
				c0.3,0.3,0.7,0.6,1.1,0.8c0.4,0.2,0.9,0.3,1.4,0.3c0.4,0,0.9,0,1.3-0.1c0.4-0.1,0.7-0.2,1.1-0.4v-2.3h-2v-1.6h3.8V90.3z"/>
			<path class="st1" d="M70.4,86.2c0-0.8,0.1-1.5,0.4-2.2c0.3-0.6,0.6-1.2,1.1-1.7c0.5-0.5,1-0.8,1.7-1.1s1.3-0.4,2.1-0.4
				c0.8,0,1.5,0.1,2.1,0.3c0.6,0.2,1.2,0.6,1.7,1c0.5,0.5,0.8,1,1.1,1.7c0.3,0.6,0.4,1.4,0.4,2.2c0,0.8-0.1,1.5-0.4,2.1
				c-0.3,0.6-0.6,1.2-1.1,1.6c-0.5,0.5-1,0.8-1.7,1.1c-0.6,0.3-1.4,0.4-2.1,0.4c-0.8,0-1.5-0.1-2.1-0.4s-1.2-0.6-1.7-1.1
				c-0.5-0.5-0.8-1-1.1-1.6C70.6,87.6,70.4,86.9,70.4,86.2z M72.3,86c0,0.5,0.1,1,0.2,1.5c0.2,0.4,0.4,0.8,0.7,1.2
				c0.3,0.3,0.7,0.6,1.1,0.8c0.4,0.2,0.9,0.3,1.4,0.3c0.5,0,1-0.1,1.4-0.3c0.4-0.2,0.8-0.4,1.1-0.8c0.3-0.3,0.5-0.7,0.7-1.2
				c0.2-0.4,0.2-0.9,0.2-1.5c0-0.5-0.1-1-0.2-1.4c-0.2-0.4-0.4-0.8-0.7-1.1c-0.3-0.3-0.7-0.6-1.1-0.8c-0.4-0.2-0.9-0.3-1.4-0.3
				c-0.5,0-1,0.1-1.4,0.3c-0.4,0.2-0.8,0.4-1.1,0.8s-0.5,0.7-0.7,1.1C72.4,85.1,72.3,85.5,72.3,86z"/>
			<path class="st1" d="M88.1,82.7h-3v-1.6h7.8v1.6h-3v8.3h-1.8V82.7z"/>
			<path class="st1" d="M99.5,81.2h1.5l4.3,9.9h-2l-0.9-2.3h-4.3l-0.9,2.3h-2L99.5,81.2z M101.8,87.3l-1.5-4l-1.6,4H101.8z
				 M101,78.5h1.9l-2,2h-1.3L101,78.5z"/>
		</g>
		<polygon class="st1" points="30.2,33 29.9,32.7 18.5,46.8 26.5,53.3 29.9,49.1 29.9,78.5 40.2,78.5 40.2,33 		"/>
		<path class="st1" d="M75.4,49.5C75.4,40.4,68,33,58.8,33s-16.5,7.4-16.5,16.5c0,8.6,6.6,15.7,15.1,16.5l-6.8,12.5h11.4l11.8-21.7
			h-0.1C74.8,54.6,75.4,52.1,75.4,49.5z M58.8,55.7c-3.4,0-6.2-2.8-6.2-6.2s2.8-6.2,6.2-6.2s6.2,2.8,6.2,6.2S62.3,55.7,58.8,55.7z"
			/>
		<path class="st1" d="M91.9,49.5h-4.1v-6.2h17.6V33H87.8H77.5v10.3v6.2v8.3h1.4c0,0,0,0,0,0h12.6c0.2,0,0.3,0,0.5,0
			c2.9,0,5.2,2.3,5.2,5.2s-2.3,5.2-5.2,5.2c-2.7,0-4.9-2-5.1-4.7h-9.3c0,0.2,0,0.3,0,0.5c0,8,6.5,14.5,14.5,14.5S106.4,72,106.4,64
			S99.9,49.5,91.9,49.5z"/>
	</g>
	<g>
		<path class="st0" d="M-55,59.6c0-22.9-18.6-41.5-41.5-41.5S-138,36.7-138,59.6s18.6,41.5,41.5,41.5c5.7,0,11-1.1,16-3.2l25.5,10.9
			V60l0,0C-55,59.9-55,59.8-55,59.6z"/>
		<g>
			<path class="st1" d="M-122.5,76h2.9c0.3,0,0.6,0,0.8,0.1c0.3,0.1,0.5,0.2,0.7,0.3c0.2,0.2,0.4,0.3,0.5,0.6
				c0.1,0.2,0.2,0.5,0.2,0.9c0,0.4-0.1,0.8-0.4,1c-0.2,0.3-0.5,0.5-0.9,0.6v0c0.2,0,0.4,0.1,0.6,0.2c0.2,0.1,0.4,0.2,0.5,0.4
				c0.1,0.2,0.3,0.3,0.3,0.5c0.1,0.2,0.1,0.4,0.1,0.7c0,0.4-0.1,0.7-0.2,1c-0.2,0.3-0.4,0.5-0.6,0.7c-0.3,0.2-0.6,0.3-0.9,0.4
				c-0.3,0.1-0.7,0.1-1,0.1h-2.7V76z M-121.1,79h1.2c0.4,0,0.8-0.1,1-0.3c0.2-0.2,0.3-0.4,0.3-0.7c0-0.3-0.1-0.6-0.3-0.7
				c-0.2-0.2-0.6-0.2-1.1-0.2h-1.1V79z M-121.1,82.3h1.2c0.2,0,0.3,0,0.5,0c0.2,0,0.4-0.1,0.5-0.1c0.2-0.1,0.3-0.2,0.4-0.3
				c0.1-0.1,0.2-0.3,0.2-0.6c0-0.4-0.1-0.7-0.4-0.8c-0.3-0.2-0.7-0.2-1.2-0.2h-1.3V82.3z"/>
			<path class="st1" d="M-113.4,79.7c0-0.6,0.1-1.1,0.3-1.6c0.2-0.5,0.5-0.9,0.8-1.2c0.3-0.3,0.8-0.6,1.2-0.8c0.5-0.2,1-0.3,1.6-0.3
				c0.6,0,1.1,0.1,1.6,0.3c0.5,0.2,0.9,0.4,1.3,0.8c0.3,0.3,0.6,0.8,0.8,1.2c0.2,0.5,0.3,1,0.3,1.6c0,0.6-0.1,1.1-0.3,1.6
				c-0.2,0.5-0.5,0.9-0.8,1.2c-0.4,0.3-0.8,0.6-1.3,0.8c-0.5,0.2-1,0.3-1.6,0.3c-0.6,0-1.1-0.1-1.6-0.3c-0.5-0.2-0.9-0.4-1.2-0.8
				c-0.3-0.3-0.6-0.7-0.8-1.2C-113.3,80.8-113.4,80.3-113.4,79.7z M-112.1,79.7c0,0.4,0.1,0.8,0.2,1.1c0.1,0.3,0.3,0.6,0.5,0.9
				c0.2,0.2,0.5,0.4,0.8,0.6c0.3,0.1,0.7,0.2,1,0.2c0.4,0,0.7-0.1,1.1-0.2c0.3-0.1,0.6-0.3,0.8-0.6c0.2-0.2,0.4-0.5,0.5-0.9
				c0.1-0.3,0.2-0.7,0.2-1.1c0-0.4-0.1-0.7-0.2-1c-0.1-0.3-0.3-0.6-0.5-0.8c-0.2-0.2-0.5-0.4-0.8-0.6c-0.3-0.1-0.7-0.2-1.1-0.2
				c-0.4,0-0.7,0.1-1,0.2c-0.3,0.1-0.6,0.3-0.8,0.6c-0.2,0.2-0.4,0.5-0.5,0.8C-112,78.9-112.1,79.3-112.1,79.7z"/>
			<path class="st1" d="M-95.1,82.9c-0.9,0.5-1.9,0.7-3.1,0.7c-0.6,0-1.1-0.1-1.6-0.3c-0.5-0.2-0.9-0.4-1.2-0.8
				c-0.3-0.3-0.6-0.7-0.8-1.2c-0.2-0.5-0.3-1-0.3-1.6c0-0.6,0.1-1.1,0.3-1.6c0.2-0.5,0.5-0.9,0.8-1.2c0.3-0.3,0.8-0.6,1.2-0.8
				c0.5-0.2,1-0.3,1.6-0.3c0.6,0,1.1,0.1,1.6,0.2c0.5,0.1,0.9,0.4,1.3,0.7l-1,1c-0.2-0.2-0.5-0.4-0.9-0.5c-0.3-0.1-0.7-0.2-1.1-0.2
				c-0.4,0-0.7,0.1-1,0.2c-0.3,0.1-0.6,0.3-0.8,0.6c-0.2,0.2-0.4,0.5-0.5,0.8c-0.1,0.3-0.2,0.7-0.2,1c0,0.4,0.1,0.8,0.2,1.1
				c0.1,0.3,0.3,0.6,0.5,0.9c0.2,0.2,0.5,0.4,0.8,0.6c0.3,0.1,0.7,0.2,1,0.2c0.3,0,0.7,0,1-0.1c0.3-0.1,0.6-0.2,0.8-0.3v-1.8h-1.5
				v-1.2h2.8V82.9z"/>
			<path class="st1" d="M-91.3,79.7c0-0.6,0.1-1.1,0.3-1.6c0.2-0.5,0.5-0.9,0.8-1.2c0.3-0.3,0.8-0.6,1.2-0.8c0.5-0.2,1-0.3,1.6-0.3
				c0.6,0,1.1,0.1,1.6,0.3c0.5,0.2,0.9,0.4,1.2,0.8c0.3,0.3,0.6,0.8,0.8,1.2c0.2,0.5,0.3,1,0.3,1.6c0,0.6-0.1,1.1-0.3,1.6
				c-0.2,0.5-0.5,0.9-0.8,1.2c-0.4,0.3-0.8,0.6-1.2,0.8c-0.5,0.2-1,0.3-1.6,0.3c-0.6,0-1.1-0.1-1.6-0.3s-0.9-0.4-1.2-0.8
				c-0.3-0.3-0.6-0.7-0.8-1.2C-91.2,80.8-91.3,80.3-91.3,79.7z M-89.9,79.7c0,0.4,0.1,0.8,0.2,1.1c0.1,0.3,0.3,0.6,0.5,0.9
				c0.2,0.2,0.5,0.4,0.8,0.6c0.3,0.1,0.7,0.2,1,0.2c0.4,0,0.7-0.1,1.1-0.2c0.3-0.1,0.6-0.3,0.8-0.6c0.2-0.2,0.4-0.5,0.5-0.9
				c0.1-0.3,0.2-0.7,0.2-1.1c0-0.4-0.1-0.7-0.2-1c-0.1-0.3-0.3-0.6-0.5-0.8c-0.2-0.2-0.5-0.4-0.8-0.6c-0.3-0.1-0.7-0.2-1.1-0.2
				c-0.4,0-0.7,0.1-1,0.2c-0.3,0.1-0.6,0.3-0.8,0.6c-0.2,0.2-0.4,0.5-0.5,0.8C-89.9,78.9-89.9,79.3-89.9,79.7z"/>
			<path class="st1" d="M-78,77.2h-2.3V76h5.9v1.2h-2.3v6.2H-78V77.2z"/>
			<path class="st1" d="M-69.5,76h1.1l3.2,7.4h-1.5l-0.7-1.7h-3.2l-0.7,1.7h-1.5L-69.5,76z M-67.8,80.6l-1.1-3l-1.2,3H-67.8z
				 M-68.4,74h1.4l-1.5,1.5h-1L-68.4,74z"/>
		</g>
		<polygon class="st1" points="-121.5,39.8 -121.7,39.7 -130.3,50.2 -124.3,55.1 -121.7,52 -121.7,74 -114,74 -114,39.8 		"/>
		<path class="st1" d="M-87.6,52.3c0-6.9-5.6-12.4-12.4-12.4s-12.4,5.6-12.4,12.4c0,6.5,5,11.8,11.3,12.4l-5.1,9.4h8.5l8.9-16.2
			h-0.1C-88,56.1-87.6,54.2-87.6,52.3z M-100,56.9c-2.6,0-4.7-2.1-4.7-4.7c0-2.6,2.1-4.7,4.7-4.7s4.7,2.1,4.7,4.7
			C-95.3,54.8-97.4,56.9-100,56.9z"/>
		<path class="st1" d="M-75.2,52.3h-3.1v-4.7h13.2v-7.8h-13.2H-86v7.8v4.7v6.2h1.1c0,0,0,0,0,0h9.4c0.1,0,0.2,0,0.4,0
			c2.1,0,3.9,1.7,3.9,3.9c0,2.1-1.7,3.9-3.9,3.9c-2,0-3.6-1.5-3.8-3.5h-7c0,0.1,0,0.3,0,0.4c0,6,4.9,10.9,10.9,10.9
			c6,0,10.9-4.9,10.9-10.9S-69.2,52.3-75.2,52.3z"/>
	</g>
	<circle class="st2" cx="-94.5" cy="63.5" r="63.5"/>
</g>
</svg>
