<?xml version="1.0" encoding="utf-8"?>
<!-- Generator: Adobe Illustrator 21.0.0, SVG Export Plug-In . SVG Version: 6.00 Build 0)  -->
<svg version="1.1" xmlns="http://www.w3.org/2000/svg" xmlns:xlink="http://www.w3.org/1999/xlink" x="0px" y="0px"
	 viewBox="0 0 336 336" style="enable-background:new 0 0 336 336;" xml:space="preserve">
<style type="text/css">
	.st0{fill:none;stroke:#93277F;stroke-width:0.8047;stroke-miterlimit:10;stroke-dasharray:8.0475;}
	.st1{fill:#93277F;}
	.st2{fill:none;stroke:#662C82;stroke-width:1.6095;stroke-linecap:round;stroke-linejoin:round;stroke-miterlimit:10;}
	.st3{fill:#662C82;}
	.st4{fill:#FFFFFF;}
	.st5{fill:none;}
	.st6{fill:#662C82;stroke:#FFFFFF;stroke-width:2.8309;stroke-linecap:round;stroke-linejoin:round;stroke-miterlimit:10;}
	.st7{fill:#662C82;stroke:#FFFFFF;stroke-width:3.6255;stroke-miterlimit:10;}
	.st8{fill:#662C82;stroke:#FFFFFF;stroke-width:3.2552;stroke-miterlimit:10;}
	.st9{fill:#B473A8;}
	.st10{fill:#93277F;stroke:#93277F;stroke-width:0.8047;stroke-miterlimit:10;}
	
		.st11{fill:none;stroke:#662C82;stroke-width:1.2071;stroke-linecap:round;stroke-linejoin:round;stroke-miterlimit:10;stroke-dasharray:8.0475;}
</style>
<g id="Capa_2">
	<g>
		<g>
			<path class="st0" d="M49.5,137.9c0,0-12.9,48.5,5.9,78.7"/>
			<path class="st0" d="M244.1,68.9c0,0,37.9,32.9,39.4,68.4"/>
			<g>
				<path class="st1" d="M206.3,265.8c-53.6,21-114.1-5.5-135.1-59.1l-34.6,13.5c28.5,72.7,110.5,108.6,183.2,80.2
					c72.7-28.5,108.6-110.5,80.2-183.2l-34.6,13.5C286.4,184.3,259.9,244.8,206.3,265.8z"/>
			</g>
			
				<ellipse transform="matrix(0.95 -0.3123 0.3123 0.95 -43.8711 60.7443)" class="st2" cx="167.7" cy="167.3" rx="141.4" ry="141.4"/>
			<g>
				<path class="st3" d="M79.3,147.2c-1.6-0.5-2.4-1.9-1.9-3.3c0.5-1.4,1.9-2,3.5-1.5c1.6,0.5,2.3,1.9,1.9,3.3
					C82.3,147.1,80.8,147.8,79.3,147.2z"/>
				<path class="st3" d="M89.9,136.4c-0.8,1.7-2,1.8-3.7,1l-7.9-3.7c-0.8-0.4-1.1-1-0.8-1.7c0.3-0.6,1-0.8,1.8-0.5l7.7,3.6
					c0.5,0.2,0.8,0.2,1-0.1c0.4-0.6,0.9-0.6,1.4-0.4C90,135,90.3,135.5,89.9,136.4L89.9,136.4z"/>
				<path class="st3" d="M82.6,128.1c-0.2,0.4-0.7,0.6-1.2,0.3c-0.2-0.1-0.4-0.3-0.6-0.6l-0.7-1.2c-0.2-0.3-0.2-0.6,0-0.9
					c0.2-0.4,0.8-0.6,1.3-0.3c0.3,0.1,0.4,0.3,0.6,0.5l0.6,1.2C82.7,127.5,82.7,127.9,82.6,128.1z M89.8,133.5l-5.8-3.1
					c-0.8-0.4-1-1.1-0.7-1.7c0.3-0.6,1-0.8,1.8-0.4l5.8,3.1c0.8,0.4,1,1.1,0.7,1.7C91.3,133.7,90.6,133.9,89.8,133.5z"/>
				<path class="st3" d="M94.5,125.5l-3.5-2.2c-0.8-0.5-1.6-0.5-2.1,0.2c-0.4,0.7-0.1,1.4,0.7,2l3.5,2.2c0.7,0.5,0.9,1.2,0.5,1.7
					c-0.4,0.6-1.1,0.7-1.8,0.2l-5.5-3.5c-0.7-0.5-0.9-1.2-0.5-1.7c0.3-0.5,0.8-0.6,1.4-0.4l0,0c-0.3-0.7-0.3-1.5,0.3-2.4
					c1-1.5,2.7-1.6,4.4-0.5l3.9,2.5c0.7,0.5,0.9,1.2,0.5,1.7C95.9,125.8,95.2,126,94.5,125.5z"/>
				<path class="st3" d="M95.9,121.4c-0.5-0.2-1.1-0.5-1.9-1.1c-0.8-0.6-1.2-1.1-1.6-1.5c-1-1.4-0.9-3,0.1-4.4
					c1.1-1.4,2.6-1.8,4.2-1.2c0.6,0.3,1.2,0.6,1.8,1.1c0.4,0.3,0.5,0.8,0.2,1.1l-2.7,3.4c0,0.1,0,0.1,0,0.2c0.2,0.1,0.3,0.2,0.5,0.3
					c0.7,0.3,1.5,0.1,2-0.6c0.3-0.4,0.5-1,0.6-1.5c0-0.3,0.1-0.6,0.3-0.8c0.3-0.4,0.9-0.4,1.3-0.1c0.3,0.2,0.5,0.6,0.5,1
					c0,1-0.3,1.9-1,2.9C99,121.6,97.5,122,95.9,121.4z M96.4,115.7c0-0.1,0-0.1,0-0.1c-0.2-0.2-0.4-0.3-0.6-0.4
					c-0.6-0.3-1.2-0.1-1.6,0.5c-0.4,0.5-0.4,1.1,0,1.7c0.1,0.2,0.2,0.3,0.5,0.5c0.1,0,0.1,0,0.2,0L96.4,115.7z"/>
				<path class="st3" d="M107.5,110c0.5,0.5,0.5,1.2,0.1,1.7c-0.3,0.3-0.6,0.4-1,0.3l-0.4-0.1l0,0c0.1,0.7-0.2,1.6-0.9,2.3
					c-1.4,1.5-2.9,1.5-4.1,0.3c-1.5-1.4-1.2-3,0.2-4.5l1-1.1c0,0,0-0.1,0-0.2l-0.1-0.1c-0.6-0.6-1.4-0.5-2.1,0.3
					c-0.3,0.4-0.6,0.8-0.7,1.1c-0.1,0.2-0.2,0.4-0.3,0.5c-0.4,0.4-0.9,0.4-1.4,0c-0.3-0.3-0.5-0.7-0.3-1.2c0.2-0.6,0.6-1.3,1.3-2.2
					c1.7-1.8,3.5-1.7,5.2-0.1l1.8,1.7c0.3,0.3,0.5,0.4,0.7,0.5l0.4,0.1C107.1,109.7,107.3,109.8,107.5,110z M104.2,110.7l-0.5-0.4
					c-0.1-0.1-0.1-0.1-0.2,0l-0.8,0.8c-0.7,0.7-0.7,1.3-0.2,1.8c0.5,0.4,1,0.4,1.5-0.2C104.7,111.9,104.8,111.3,104.2,110.7z"/>
				<path class="st3" d="M111.3,106.2l-6.3-8.1c-0.5-0.6-0.4-1.2,0.1-1.6l2.8-2.2c2-1.5,4.2-1.1,5.7,0.8c1.5,1.9,1.4,4.2-0.6,5.7
					l-1.6,1.3c-0.1,0-0.1,0.1,0,0.2l1.9,2.4c0.5,0.7,0.5,1.5-0.1,1.9C112.6,107.1,111.8,106.9,111.3,106.2z M111.5,96.7
					c-0.6-0.8-1.6-1-2.4-0.3l-1.5,1.2c-0.1,0-0.1,0.1,0,0.2l2,2.5c0,0.1,0.1,0.1,0.1,0l1.5-1.2C112.1,98.4,112.2,97.5,111.5,96.7z"
					/>
				<path class="st3" d="M123.5,98.1L123.5,98.1c0,0.7-0.4,1.5-1.3,2c-1.5,1-3.1,0.2-4.1-1.4l-2.5-3.9c-0.5-0.7-0.3-1.4,0.3-1.8
					c0.6-0.4,1.3-0.2,1.7,0.6l2.2,3.5c0.5,0.8,1.2,1.2,1.9,0.7c0.7-0.4,0.7-1.2,0.2-2.1l-2.2-3.5c-0.5-0.7-0.3-1.4,0.3-1.8
					c0.6-0.4,1.3-0.2,1.7,0.6l3.5,5.6c0.5,0.7,0.3,1.4-0.3,1.8C124.5,98.6,123.9,98.5,123.5,98.1z M117.5,90.8
					c-0.4,0.3-0.9,0.2-1.2-0.3c-0.1-0.2-0.2-0.4-0.2-0.8l0-1.4c0-0.4,0.2-0.6,0.4-0.8c0.4-0.2,1-0.1,1.3,0.3
					c0.2,0.3,0.2,0.4,0.2,0.8l0,1.3C117.9,90.4,117.7,90.7,117.5,90.8z"/>
				<path class="st3" d="M127,95.5l-3-5.8c-0.4-0.8-0.2-1.5,0.4-1.8c0.5-0.3,1.1-0.1,1.5,0.4l0,0l0,0c0.1-0.7,0.5-1.5,1.3-1.9
					c0.3-0.2,0.6-0.2,0.8-0.2c0.5,0,0.8,0.3,1,0.7c0.4,0.7,0.2,1.4-0.4,1.7c-0.2,0.1-0.3,0.1-0.5,0.1c-0.2,0-0.4,0.1-0.6,0.2
					c-0.8,0.4-0.8,1.2-0.2,2.3l1.7,3.3c0.4,0.8,0.2,1.5-0.4,1.8C128,96.5,127.4,96.3,127,95.5z"/>
				<path class="st3" d="M134.6,95.5l-3.7-9.2c-0.3-0.8-0.1-1.5,0.6-1.7c0.6-0.2,1.1,0.1,1.4,0.5l0,0c0.1-0.7,0.6-1.4,1.6-1.8
					c1.2-0.5,2.6-0.1,3.5,1.1c0.4,0.6,0.8,1.2,1.2,2.2c0.4,0.9,0.6,1.7,0.6,2.4c0.1,1.5-0.5,2.7-1.7,3.2c-1,0.4-1.8,0.2-2.3-0.1l0,0
					l1.1,2.7c0.3,0.8,0.1,1.5-0.6,1.7C135.5,96.6,134.9,96.3,134.6,95.5z M137.3,88.8c0-0.4-0.2-0.8-0.4-1.4c-0.2-0.6-0.5-1-0.7-1.3
					c-0.4-0.6-1-0.7-1.6-0.5c-0.6,0.2-0.8,0.7-0.8,1.4c0,0.4,0.2,0.8,0.4,1.4c0.2,0.6,0.5,1,0.7,1.3c0.4,0.6,1,0.7,1.5,0.5
					C137.1,90,137.3,89.6,137.3,88.8z"/>
				<path class="st3" d="M146.5,88.1L146.5,88.1c-0.2,0.7-0.8,1.3-1.8,1.6c-1.7,0.5-3-0.6-3.6-2.5l-1.3-4.5
					c-0.2-0.8,0.1-1.5,0.8-1.7c0.6-0.2,1.3,0.2,1.5,1l1.2,4c0.3,1,0.8,1.5,1.7,1.2c0.8-0.2,1-1,0.7-1.9l-1.2-4
					c-0.2-0.8,0.1-1.5,0.7-1.7c0.6-0.2,1.3,0.2,1.5,1l1.8,6.3c0.2,0.8-0.1,1.5-0.7,1.7C147.3,88.9,146.8,88.7,146.5,88.1z"/>
				<path class="st3" d="M150.5,86.7l-1.3-6.4c-0.2-0.9,0.2-1.5,0.9-1.6c0.5-0.1,1.1,0.2,1.3,0.8l0,0l0,0c0.2-0.7,0.9-1.3,1.8-1.5
					c0.4-0.1,0.6,0,0.9,0c0.5,0.1,0.7,0.5,0.8,0.9c0.1,0.8-0.2,1.4-0.9,1.5c-0.2,0-0.3,0-0.5,0c-0.2,0-0.4,0-0.6,0
					c-0.9,0.2-1.1,0.9-0.8,2.1l0.7,3.6c0.2,0.9-0.2,1.5-0.9,1.6C151.3,87.9,150.7,87.5,150.5,86.7z"/>
				<path class="st3" d="M164.5,84.8c0.1,0.7-0.4,1.3-1,1.3c-0.4,0-0.8-0.1-1-0.4l-0.2-0.3l0,0c-0.4,0.6-1.2,1.1-2.2,1.2
					c-2.1,0.2-3.2-0.7-3.4-2.4c-0.2-2,1-3.1,3-3.3l1.4-0.2c0.1,0,0.1-0.1,0.1-0.1l0-0.1c-0.1-0.8-0.7-1.3-1.8-1.2
					c-0.5,0.1-1,0.2-1.3,0.4c-0.2,0.1-0.4,0.2-0.5,0.2c-0.6,0.1-1-0.3-1-0.9c0-0.4,0.1-0.8,0.5-1.1c0.5-0.4,1.3-0.7,2.4-0.8
					c2.4-0.3,3.8,1,4,3.3l0.3,2.5c0,0.4,0.1,0.6,0.2,0.8l0.3,0.4C164.4,84.2,164.5,84.5,164.5,84.8z M161.5,83.1l-0.1-0.6
					c0-0.1,0-0.1-0.1-0.1l-1.1,0.1c-1,0.1-1.4,0.5-1.3,1.2c0.1,0.6,0.5,0.9,1.3,0.8C161.1,84.5,161.6,84,161.5,83.1z"/>
				<path class="st3" d="M170.2,74.1c0-0.7,0.4-1.2,1.1-1.2L174,73c2.4,0.1,3.9,1,4.4,3.1c0.2,0.7,0.3,1.6,0.2,3.5
					c-0.1,1.8-0.2,2.7-0.5,3.4c-0.7,2.1-2.2,2.9-4.6,2.8l-2.7-0.1c-0.7,0-1.1-0.5-1-1.2L170.2,74.1z M172.4,83.3l1.1,0
					c1.1,0,2-0.4,2.3-1.4c0.1-0.4,0.2-1.2,0.3-2.5c0-1.3,0-2.1-0.1-2.5c-0.2-1-1.1-1.5-2.2-1.5l-1.1,0c-0.1,0-0.1,0-0.1,0.1
					l-0.3,7.7C172.3,83.2,172.3,83.3,172.4,83.3z"/>
				<path class="st3" d="M180.2,85l0.8-6.5c0.1-0.9,0.6-1.3,1.3-1.2c0.7,0.1,1.1,0.7,1,1.5l-0.8,6.5c-0.1,0.9-0.7,1.3-1.3,1.2
					C180.5,86.4,180.1,85.8,180.2,85z M181.2,74.8c0.1-0.8,0.8-1.4,1.5-1.3c0.7,0.1,1.2,0.8,1.1,1.6c-0.1,0.8-0.8,1.4-1.5,1.3
					C181.6,76.3,181.1,75.6,181.2,74.8z"/>
				<path class="st3" d="M184.6,86.1c-0.3-0.4-0.4-0.7-0.4-1.1c0.1-0.6,0.6-1,1.2-0.9c0.2,0,0.4,0.2,0.6,0.4c0.5,0.5,1.1,0.9,1.8,1
					c0.8,0.2,1.3-0.1,1.4-0.6c0.1-0.4-0.1-0.7-1-1l-0.9-0.3c-1.7-0.5-2.4-1.7-2.1-3.2c0.3-1.8,1.8-2.7,3.8-2.3
					c0.9,0.2,1.7,0.5,2.3,1.1c0.4,0.3,0.6,0.7,0.5,1.1c-0.1,0.6-0.6,1-1.1,0.8c-0.2,0-0.3-0.1-0.6-0.3c-0.4-0.4-1-0.6-1.5-0.7
					c-0.7-0.1-1.1,0.1-1.1,0.5c-0.1,0.4,0.1,0.7,1,1l0.9,0.3c1.8,0.6,2.4,1.7,2.1,3.2c-0.3,1.8-1.9,2.8-4.1,2.4
					C186.1,87.3,185.1,86.7,184.6,86.1z"/>
				<path class="st3" d="M195,89.3c-1.8-0.5-2.3-1.6-1.7-3.6l1.1-4c0-0.1,0-0.1-0.1-0.1l-0.1,0c-0.6-0.2-0.8-0.6-0.7-1.2
					c0.2-0.6,0.6-0.9,1.2-0.7l0.1,0c0.1,0,0.1,0,0.1-0.1l0.4-1.3c0.2-0.8,0.8-1.2,1.5-1c0.6,0.2,1,0.8,0.8,1.6l-0.4,1.3
					c0,0.1,0,0.1,0.1,0.1l0.6,0.2c0.6,0.2,0.8,0.6,0.6,1.2c-0.2,0.6-0.6,0.9-1.2,0.7l-0.6-0.2c-0.1,0-0.1,0-0.1,0.1l-1.1,3.9
					c-0.1,0.5,0,0.8,0.4,1c0.7,0.3,0.8,0.9,0.7,1.4C196.5,89.1,196,89.5,195,89.3L195,89.3z"/>
				<path class="st3" d="M198,88.7l2.1-6.2c0.3-0.8,0.9-1.2,1.6-0.9c0.5,0.2,0.8,0.7,0.7,1.3l0,0l0,0c0.5-0.4,1.4-0.7,2.3-0.4
					c0.3,0.1,0.6,0.3,0.7,0.5c0.3,0.4,0.4,0.8,0.2,1.2c-0.3,0.7-0.9,1.1-1.5,0.9c-0.2-0.1-0.3-0.1-0.4-0.3c-0.1-0.1-0.4-0.2-0.5-0.3
					c-0.8-0.3-1.4,0.3-1.8,1.4l-1.2,3.5c-0.3,0.8-0.9,1.2-1.6,0.9C198,90.1,197.7,89.5,198,88.7z"/>
				<path class="st3" d="M204.6,91.1l2.5-6.1c0.3-0.8,1-1.1,1.6-0.8c0.6,0.3,0.9,0.9,0.5,1.7l-2.5,6.1c-0.3,0.8-1,1.1-1.6,0.8
					C204.5,92.5,204.3,91.9,204.6,91.1z M208.5,81.5c0.3-0.8,1.1-1.1,1.8-0.9c0.7,0.3,1,1.1,0.6,1.9c-0.3,0.8-1.1,1.1-1.8,0.9
					C208.4,83.1,208.1,82.3,208.5,81.5z"/>
				<path class="st3" d="M210.6,95.3c-1.7-0.8-1.9-2-1-3.9l1.8-3.7c0-0.1,0-0.1-0.1-0.2l-0.1,0c-0.5-0.3-0.7-0.8-0.4-1.3
					c0.3-0.5,0.7-0.7,1.3-0.5l0.1,0c0.1,0,0.1,0,0.2-0.1l0.6-1.2c0.4-0.8,1-1,1.7-0.7c0.6,0.3,0.8,1,0.4,1.8l-0.6,1.2
					c0,0.1,0,0.1,0,0.1l0.6,0.3c0.5,0.3,0.7,0.8,0.4,1.3c-0.3,0.5-0.7,0.7-1.3,0.5l-0.6-0.3c-0.1,0-0.1,0-0.1,0.1l-1.8,3.6
					c-0.2,0.5-0.2,0.8,0.2,1c0.6,0.4,0.7,1,0.4,1.5C212,95.4,211.4,95.7,210.6,95.3L210.6,95.3z"/>
				<path class="st3" d="M219.8,99.1c-0.4,0.6-1.1,0.8-1.6,0.5c-0.3-0.2-0.6-0.5-0.6-0.9l0-0.4l0,0c-0.7,0.3-1.6,0.1-2.4-0.4
					c-1.8-1.1-2.1-2.5-1.3-4c1-1.7,2.6-1.9,4.4-0.8l1.3,0.7c0.1,0,0.1,0,0.1,0l0-0.1c0.4-0.7,0.2-1.4-0.7-2
					c-0.4-0.3-0.9-0.4-1.3-0.4c-0.2,0-0.4-0.1-0.5-0.2c-0.5-0.3-0.6-0.8-0.3-1.4c0.2-0.3,0.6-0.6,1.1-0.6c0.6,0,1.4,0.2,2.4,0.8
					c2.1,1.2,2.4,3,1.3,5l-1.3,2.1c-0.2,0.4-0.3,0.6-0.3,0.8l0,0.5C220.1,98.6,220,98.8,219.8,99.1z M218.4,96l0.3-0.5
					c0-0.1,0-0.1,0-0.1l-1-0.6c-0.9-0.5-1.4-0.4-1.8,0.2c-0.3,0.6-0.1,1,0.5,1.4C217.3,96.8,218,96.7,218.4,96z"/>
				<path class="st3" d="M222.3,102.3c-1.5-1.1-1.5-2.3-0.4-3.8l5-7.2c0.5-0.7,1.2-0.9,1.8-0.5c0.6,0.4,0.7,1.1,0.2,1.8l-4.9,7
					c-0.3,0.4-0.3,0.7,0,1c0.5,0.5,0.4,1,0.1,1.5C223.7,102.6,223.1,102.8,222.3,102.3L222.3,102.3z"/>
				<path class="st3" d="M228.3,99.3c1-1.3,2.6-1.6,3.7-0.6c1.1,0.9,1.2,2.5,0.2,3.8c-1,1.3-2.6,1.5-3.7,0.6
					C227.4,102.2,227.3,100.6,228.3,99.3z"/>
			</g>
			<g>
				<g>
					<path class="st4" d="M56.9,222.7c1.5-0.8,3-0.5,3.8,0.8c0.7,1.3,0.2,2.8-1.3,3.6c-1.5,0.8-3,0.4-3.8-0.9
						C54.9,225.1,55.4,223.5,56.9,222.7z"/>
					<path class="st4" d="M69.4,228.7c1-0.7,2-0.7,2.6,0.1c0.5,0.7,0.4,1.5-0.3,2.6l-4.3,6.9l0,0.1l7.8-2.1c1.2-0.3,2-0.3,2.5,0.4
						c0.6,0.8,0.3,1.8-0.7,2.5l-9.9,7.3c-0.8,0.6-1.7,0.5-2.1-0.1c-0.5-0.7-0.3-1.5,0.5-2.1l6.1-4.5l-0.1-0.1l-5.8,1.6
						c-1.2,0.3-1.6,0.2-2-0.3c-0.4-0.6-0.4-1,0.3-2l3.3-5.1l-0.1-0.1l-6.1,4.5c-0.8,0.6-1.7,0.5-2.1-0.1c-0.5-0.7-0.3-1.5,0.5-2.1
						L69.4,228.7z"/>
					<path class="st4" d="M72.6,246.2l6-5.7c0.8-0.7,1.8-0.8,2.4-0.1c0.6,0.6,0.5,1.6-0.3,2.3l-6.1,5.7c-1.4,1.3-1.5,2.7-0.5,3.7
						c1,1,2.4,1,3.7-0.3l6.1-5.7c0.8-0.7,1.8-0.8,2.3-0.1c0.6,0.6,0.5,1.6-0.3,2.3l-6,5.7c-2.9,2.7-5.9,2.5-8.1,0.3
						C69.6,251.9,69.7,248.9,72.6,246.2z"/>
					<path class="st4" d="M79.1,258.1c0.5-0.6,1.4-0.7,2-0.2c0.3,0.2,0.4,0.6,0.5,1.1c0.1,0.4,0.3,0.8,0.7,1.1
						c0.9,0.8,1.9,0.7,3.2-0.7l5.7-6.5c0.7-0.8,1.7-0.9,2.3-0.4c0.7,0.6,0.7,1.5,0,2.4l-5.6,6.3c-2.6,2.9-5.3,3.2-7.7,1.1
						c-1-0.9-1.6-2.2-1.6-3.1C78.7,258.8,78.8,258.4,79.1,258.1z"/>
					<path class="st4" d="M95.1,256.1c0.5-0.7,1.3-0.9,2-0.4l5.5,4c0.7,0.5,0.8,1.3,0.3,2c-0.5,0.7-1.3,0.9-2,0.4l-4-2.9
						c-0.1,0-0.1,0-0.2,0l-1.8,2.5c-0.1,0.1-0.1,0.1,0,0.2l3.2,2.3c0.7,0.5,0.8,1.3,0.3,2c-0.5,0.7-1.3,0.9-2,0.4l-3.2-2.3
						c-0.1,0-0.1,0-0.2,0l-1.9,2.6c-0.1,0.1-0.1,0.1,0,0.2l4,2.9c0.7,0.5,0.8,1.3,0.3,2c-0.5,0.7-1.3,0.9-2,0.4l-5.5-4
						c-0.7-0.5-0.7-1.3-0.2-2L95.1,256.1z"/>
					<path class="st4" d="M103.9,277.8l0.5-5.6l-1.8-1c-0.1,0-0.1,0-0.2,0.1l-2.1,3.6c-0.5,0.9-1.4,1.3-2.2,0.8
						c-0.8-0.4-1-1.4-0.4-2.3l6.3-10.9c0.5-0.8,1.2-1.1,1.9-0.6l3.8,2.2c2.5,1.4,3.1,4.1,1.7,6.6c-1,1.7-2.5,2.6-4.1,2.5l-0.3,4.6
						c0,0.3-0.1,0.6-0.3,0.9c-0.4,0.8-1.3,1.1-2.1,0.7C104.2,279.2,103.9,278.6,103.9,277.8z M108.9,269.2c0.6-1,0.3-2.1-0.6-2.7
						l-2.1-1.2c-0.1,0-0.1,0-0.2,0.1l-1.8,3.1c0,0.1,0,0.1,0,0.2l2.1,1.2C107.3,270.5,108.3,270.2,108.9,269.2z"/>
					<path class="st4" d="M114.7,268.5c0.4-0.8,1.1-1.2,1.8-0.8l6.2,2.8c0.8,0.3,1,1.1,0.7,1.9c-0.3,0.8-1.1,1.1-1.9,0.8l-4.5-2
						c-0.1,0-0.1,0-0.2,0.1l-1.3,2.9c0,0.1,0,0.1,0.1,0.2l3.6,1.6c0.8,0.3,1,1.1,0.7,1.9c-0.4,0.8-1.1,1.1-1.9,0.8l-3.6-1.6
						c-0.1,0-0.1,0-0.2,0.1l-1.3,3c0,0.1,0,0.1,0.1,0.2l4.5,2c0.8,0.3,1,1.1,0.7,1.9c-0.4,0.8-1.1,1.1-1.9,0.8l-6.2-2.8
						c-0.8-0.3-1-1.1-0.6-1.9L114.7,268.5z"/>
					<path class="st4" d="M120.9,285.5c-0.3-0.5-0.4-1.1-0.2-1.6c0.3-0.8,1-1.2,1.8-1c0.3,0.1,0.6,0.3,0.7,0.5
						c0.9,1,1.5,1.6,2.5,1.9c1.4,0.5,2.4,0,2.8-1c0.3-0.9,0-1.6-1.5-2.4l-0.7-0.3c-2.6-1.3-3.6-3.3-2.7-5.9c0.9-2.7,3.4-4,6.2-3
						c1.5,0.5,2.8,1.4,3.4,2.2c0.4,0.5,0.4,1,0.2,1.5c-0.3,0.8-1,1.2-1.7,1c-0.3-0.1-0.5-0.3-0.8-0.5c-0.5-0.6-1.3-1.1-2.1-1.4
						c-1.2-0.4-2,0.1-2.3,1c-0.3,0.8,0.1,1.6,1.5,2.3l0.7,0.3c2.6,1.4,3.6,3.2,2.7,5.9c-0.9,2.7-3.3,4.1-6.8,2.9
						C122.7,287.6,121.5,286.4,120.9,285.5z"/>
					<path class="st4" d="M148.9,293c-0.2,0.8-0.9,1.4-1.7,1.3c-0.4-0.1-0.7-0.3-0.9-0.7l-0.5-0.9c-0.9,0.4-1.9,0.4-3,0.2
						c-2.4-0.4-4.1-2-4.3-4.7c-0.1-1.1,0-2,0.4-4.3c0.4-2.3,0.6-3.1,1.1-4.2c1.2-2.4,3.3-3.3,5.7-2.9c2.4,0.4,4.1,2,4.3,4.7
						c0.1,1.1,0,2-0.4,4.3c-0.4,2.3-0.6,3.1-1.1,4.2c-0.1,0.3-0.3,0.5-0.4,0.7l0.6,1C148.9,292.1,149,292.6,148.9,293z M144.1,290
						l-0.4-0.7c-0.2-0.4-0.3-0.8-0.2-1.2c0.1-0.8,0.9-1.4,1.6-1.3c0.4,0.1,0.7,0.3,0.9,0.7l0.1,0.2c0.1-0.5,0.3-1.2,0.5-2.3
						c0.4-2,0.4-2.8,0.4-3.4c-0.1-1.1-0.7-1.9-1.9-2.1c-1.2-0.2-2,0.3-2.5,1.3c-0.3,0.5-0.5,1.3-0.8,3.3c-0.4,2-0.4,2.8-0.4,3.4
						c0.1,1.1,0.7,1.9,1.9,2.1C143.6,290,143.9,290,144.1,290z"/>
					<path class="st4" d="M151.8,288.3l0.6-8.2c0.1-1.1,0.8-1.8,1.7-1.7c0.9,0.1,1.4,0.8,1.4,1.9l-0.6,8.4c-0.1,1.9,0.8,3,2.1,3.1
						c1.4,0.1,2.4-0.9,2.5-2.8l0.6-8.4c0.1-1.1,0.8-1.8,1.6-1.7c0.9,0.1,1.5,0.8,1.4,1.9l-0.6,8.2c-0.3,3.9-2.7,5.9-5.8,5.7
						C153.4,294.5,151.5,292.2,151.8,288.3z"/>
					<path class="st4" d="M165.1,280.7c0-0.9,0.5-1.5,1.3-1.5l6.8-0.2c0.8,0,1.4,0.6,1.4,1.4c0,0.8-0.5,1.5-1.4,1.5l-5,0.1
						c-0.1,0-0.1,0.1-0.1,0.1l0.1,3.1c0,0.1,0,0.1,0.1,0.1l4-0.1c0.8,0,1.4,0.6,1.4,1.4c0,0.9-0.5,1.5-1.3,1.5l-4,0.1
						c-0.1,0-0.1,0.1-0.1,0.1l0.1,3.3c0,0.1,0,0.1,0.1,0.1l5-0.1c0.8,0,1.4,0.6,1.4,1.4c0,0.9-0.5,1.5-1.4,1.5l-6.8,0.2
						c-0.8,0-1.3-0.6-1.4-1.5L165.1,280.7z"/>
					<path class="st4" d="M180.7,279.8c-0.1-0.9,0.2-1.6,1.1-1.7l6.7-1.1c0.8-0.1,1.5,0.4,1.6,1.2c0.1,0.8-0.3,1.5-1.1,1.7l-4.9,0.8
						c-0.1,0-0.1,0.1-0.1,0.2l0.5,3.1c0,0.1,0.1,0.1,0.1,0.1l3.9-0.7c0.8-0.1,1.5,0.4,1.6,1.2c0.1,0.8-0.3,1.5-1.1,1.7l-3.9,0.7
						c-0.1,0-0.1,0.1-0.1,0.2l0.5,3.2c0,0.1,0.1,0.1,0.1,0.1l4.9-0.8c0.8-0.1,1.5,0.4,1.6,1.2c0.1,0.8-0.3,1.6-1.1,1.7l-6.7,1.1
						c-0.8,0.1-1.4-0.4-1.5-1.3L180.7,279.8z"/>
					<path class="st4" d="M195.3,290.5c-0.5-0.2-0.9-0.7-1.1-1.2c-0.2-0.8,0.2-1.6,0.9-1.8c0.3-0.1,0.6-0.1,0.9,0
						c1.3,0.4,2.2,0.5,3.2,0.2c1.4-0.4,2-1.3,1.7-2.4c-0.2-0.9-0.9-1.3-2.5-1.1l-0.7,0.1c-2.9,0.3-4.8-0.7-5.5-3.4
						c-0.8-2.8,0.6-5.2,3.5-5.9c1.5-0.4,3.1-0.4,4,0c0.6,0.2,0.9,0.6,1.1,1.1c0.2,0.8-0.2,1.6-0.9,1.8c-0.3,0.1-0.6,0.1-0.9,0
						c-0.8-0.2-1.7-0.2-2.5,0c-1.2,0.3-1.6,1.2-1.4,2.1c0.2,0.9,0.9,1.3,2.6,1.1l0.7-0.1c2.9-0.3,4.8,0.7,5.5,3.5
						c0.7,2.8-0.5,5.3-4,6.2C198,291.2,196.3,290.9,195.3,290.5z"/>
					<path class="st4" d="M204.7,280.8c-0.9-2.3-1.1-3-1.2-4.1c-0.2-2.7,1-4.5,3.3-5.4c2-0.7,3.8-0.3,4.9,0.8
						c0.3,0.2,0.5,0.5,0.6,0.9c0.3,0.8,0,1.6-0.7,1.9c-0.5,0.2-0.9,0.1-1.6-0.3c-0.8-0.6-1.4-0.7-2.2-0.4c-1.1,0.4-1.4,1.3-1.3,2.4
						c0.1,0.6,0.2,1.1,1,3.2c0.8,2.1,1.1,2.6,1.4,3.1c0.7,0.9,1.5,1.3,2.6,0.9c0.8-0.3,1.2-0.8,1.4-1.8c0.2-0.8,0.5-1.1,0.9-1.3
						c0.7-0.3,1.5,0.1,1.8,0.9c0.1,0.3,0.2,0.7,0.1,1c-0.2,1.6-1.2,3.1-3.2,3.9c-2.3,0.9-4.4,0.3-6.1-1.8
						C206,283.8,205.6,283,204.7,280.8z"/>
					<path class="st4" d="M217,278.2l-3.7-7.4c-0.5-1-0.2-1.9,0.5-2.3c0.8-0.4,1.7,0,2.2,0.9l3.8,7.5c0.9,1.7,2.2,2.2,3.4,1.6
						c1.2-0.6,1.6-2,0.7-3.7l-3.8-7.5c-0.5-1-0.2-1.9,0.5-2.3c0.8-0.4,1.7,0,2.2,0.9l3.7,7.4c1.8,3.5,0.8,6.4-2,7.8
						C221.6,282.7,218.8,281.7,217,278.2z"/>
					<path class="st4" d="M227.6,270.4c-1.3-2-1.7-2.8-2-3.8c-0.8-2.6,0.1-4.6,2.1-6c1.8-1.1,3.7-1.1,5-0.2c0.3,0.2,0.6,0.4,0.8,0.7
						c0.5,0.8,0.3,1.6-0.3,2c-0.4,0.3-0.9,0.3-1.6,0c-0.9-0.4-1.5-0.4-2.2,0c-1,0.6-1.1,1.5-0.8,2.6c0.2,0.6,0.4,1.1,1.6,3
						c1.2,1.9,1.6,2.3,2,2.7c0.8,0.7,1.8,0.9,2.7,0.3c0.7-0.5,1-1.1,1-2c0-0.8,0.2-1.2,0.6-1.5c0.6-0.4,1.5-0.2,2,0.5
						c0.2,0.3,0.3,0.6,0.3,1c0.2,1.6-0.5,3.3-2.3,4.5c-2.1,1.3-4.3,1.2-6.3-0.6C229.4,273,228.9,272.4,227.6,270.4z"/>
					<path class="st4" d="M234,258.8c-0.7-0.9-0.6-1.8,0.1-2.4c0.7-0.5,1.6-0.4,2.3,0.5l2.8,3.5c0.1,0.1,0.1,0.1,0.2,0l3.6-2.9
						c0.1-0.1,0.1-0.1,0-0.2l-2.8-3.5c-0.7-0.9-0.6-1.8,0-2.4c0.7-0.6,1.6-0.4,2.3,0.5l7.8,9.7c0.7,0.9,0.6,1.8-0.1,2.4
						c-0.7,0.5-1.6,0.4-2.3-0.5L245,260c-0.1-0.1-0.1-0.1-0.2,0l-3.6,2.9c-0.1,0.1-0.1,0.1,0,0.2l2.9,3.6c0.7,0.9,0.6,1.8-0.1,2.4
						c-0.7,0.6-1.6,0.4-2.3-0.5L234,258.8z"/>
					<path class="st4" d="M252,259.6l-5.6-11c-0.6-1.2-0.7-2.1,0.1-2.9c0.8-0.8,1.7-0.7,2.9-0.1l11,5.7c0.2,0.1,0.4,0.2,0.5,0.4
						c0.7,0.7,0.6,1.6,0.1,2.2c-0.5,0.5-1.2,0.5-1.9,0.2l-1.8-1l-3.5,3.5l1,1.8c0.4,0.7,0.3,1.4-0.2,1.9c-0.5,0.5-1.5,0.6-2.2-0.1
						C252.3,259.9,252.1,259.7,252,259.6z M254.7,251.6l-5-2.8l0,0l2.7,5.1L254.7,251.6z"/>
					<path class="st4" d="M253,241.9c-1-0.8-1.2-1.8-0.5-2.6c0.5-0.7,1.4-0.8,2.6-0.5l9.4,2l0.1-0.1l-6.7-5.4
						c-0.8-0.7-0.9-1.5-0.4-2.1c0.5-0.6,1.3-0.7,2.1-0.1l9.6,7.7c1,0.8,1.2,1.8,0.5,2.6c-0.5,0.7-1.4,0.8-2.6,0.5l-9.4-2l-0.1,0.1
						l6.7,5.4c0.8,0.7,0.9,1.5,0.4,2.1c-0.5,0.6-1.3,0.7-2.1,0L253,241.9z"/>
					<path class="st4" d="M263.6,228c-1.1-0.6-1.5-1.6-1-2.5c0.4-0.8,1.2-0.9,2.5-0.8l8.1,1.1l0-0.1l-5.2-6.3
						c-0.8-1-1.1-1.7-0.6-2.5c0.5-0.9,1.5-1,2.6-0.4l10.8,6.1c0.9,0.5,1.2,1.3,0.8,2c-0.4,0.7-1.2,0.9-2.1,0.4l-6.6-3.7l-0.1,0.1
						l3.9,4.7c0.8,0.9,0.9,1.4,0.5,2c-0.3,0.6-0.8,0.8-2,0.6l-6-0.9l-0.1,0.1l6.6,3.7c0.9,0.5,1.2,1.3,0.8,2
						c-0.4,0.7-1.2,0.9-2.1,0.4L263.6,228z"/>
					<path class="st4" d="M278.2,218l-7.6-3.2c-1-0.4-1.4-1.3-1.1-2.1c0.3-0.8,1.2-1.1,2.2-0.7l7.7,3.2c1.8,0.7,3.1,0.2,3.6-1
						c0.5-1.3-0.1-2.6-1.8-3.3l-7.7-3.2c-1-0.4-1.4-1.3-1.1-2.1c0.3-0.8,1.2-1.1,2.3-0.7l7.6,3.2c3.6,1.5,4.8,4.4,3.6,7.3
						C284.6,218.3,281.8,219.5,278.2,218z"/>
					<path class="st4" d="M286.4,207.1c-0.8-0.2-1.2-1-1-1.7c0.1-0.4,0.4-0.6,0.8-1c0.3-0.2,0.6-0.6,0.8-1.1c0.3-1.1-0.1-2-2-2.6
						l-8.3-2.5c-1.1-0.3-1.5-1.1-1.3-2c0.3-0.8,1.1-1.3,2.2-0.9l8.1,2.5c3.7,1.1,5.1,3.5,4.2,6.5c-0.4,1.2-1.3,2.4-2.2,2.7
						C287.2,207.2,286.8,207.3,286.4,207.1z"/>
					<path class="st4" d="M277.9,193.3c-0.9-0.2-1.4-0.8-1.2-1.6l1.4-6.6c0.2-0.8,0.9-1.2,1.7-1.1c0.8,0.2,1.3,0.8,1.1,1.7l-1,4.9
						c0,0.1,0,0.1,0.1,0.1l3.1,0.7c0.1,0,0.1,0,0.2-0.1l0.8-3.9c0.2-0.8,0.9-1.2,1.7-1c0.8,0.2,1.3,0.8,1.1,1.7l-0.8,3.9
						c0,0.1,0,0.1,0.1,0.2l3.2,0.7c0.1,0,0.1,0,0.2-0.1l1-4.9c0.2-0.8,0.9-1.2,1.7-1.1c0.8,0.2,1.3,0.9,1.2,1.7l-1.4,6.6
						c-0.2,0.8-0.9,1.2-1.7,1L277.9,193.3z"/>
					<path class="st4" d="M294.2,176.4l-5.3,1.8l-0.2,2c0,0.1,0,0.1,0.1,0.1l4.2,0.4c1.1,0.1,1.7,0.8,1.6,1.7
						c-0.1,0.9-0.9,1.4-2,1.3l-12.5-1.3c-0.9-0.1-1.4-0.7-1.4-1.5l0.5-4.4c0.3-2.9,2.5-4.5,5.4-4.2c1.9,0.2,3.3,1.2,4,2.7l4.4-1.6
						c0.3-0.1,0.6-0.1,1-0.1c0.9,0.1,1.6,0.7,1.5,1.6C295.3,175.7,294.9,176.1,294.2,176.4z M284.3,175.4c-1.2-0.1-2,0.5-2.2,1.7
						l-0.3,2.5c0,0.1,0,0.1,0.1,0.1l3.6,0.4c0.1,0,0.1,0,0.2-0.1l0.3-2.5C286.2,176.3,285.5,175.5,284.3,175.4z"/>
					<path class="st4" d="M281.3,170.3c-0.9,0-1.5-0.5-1.5-1.3l0-6.8c0-0.8,0.6-1.4,1.5-1.4c0.8,0,1.5,0.6,1.5,1.4l0,5
						c0,0.1,0,0.1,0.1,0.1l3.1,0c0.1,0,0.1,0,0.1-0.1l0-4c0-0.8,0.6-1.4,1.5-1.4c0.9,0,1.5,0.5,1.5,1.4l0,4c0,0.1,0,0.1,0.1,0.1
						l3.3,0c0.1,0,0.1,0,0.1-0.1l0-5c0-0.8,0.6-1.4,1.5-1.4c0.9,0,1.5,0.6,1.5,1.4l0,6.8c0,0.8-0.6,1.3-1.5,1.3L281.3,170.3z"/>
					<path class="st4" d="M294.3,157.8c-0.3,0.5-0.8,0.8-1.4,0.9c-0.8,0.1-1.6-0.4-1.6-1.2c0-0.3,0.1-0.6,0.2-0.9
						c0.6-1.2,0.8-2.1,0.7-3.1c-0.1-1.5-1-2.2-2.1-2.1c-0.9,0.1-1.5,0.6-1.5,2.3l0,0.7c-0.2,2.9-1.5,4.6-4.3,4.9
						c-2.9,0.3-5-1.5-5.3-4.5c-0.1-1.5,0.2-3.1,0.7-4c0.3-0.5,0.7-0.8,1.3-0.8c0.9-0.1,1.5,0.4,1.6,1.2c0,0.3,0,0.6-0.2,0.9
						c-0.3,0.7-0.5,1.6-0.4,2.5c0.1,1.2,0.9,1.8,1.9,1.7c0.9-0.1,1.4-0.7,1.5-2.3l0-0.7c0.2-2.9,1.5-4.6,4.3-4.8
						c2.8-0.3,5.1,1.4,5.5,5C295.4,155.3,294.9,156.8,294.3,157.8z"/>
					<path class="st4" d="M287.3,141.1c-1.6,0.4-3.1-0.4-3.4-1.9c-0.3-1.5,0.6-2.8,2.3-3.1c1.6-0.4,3,0.4,3.4,1.9
						C289.8,139.5,288.9,140.8,287.3,141.1z"/>
				</g>
			</g>
			<path class="st5" d="M173.9,182.2l-1.4,0.5c0.2-0.1,0.5-0.2,0.7-0.3C173.5,182.4,173.7,182.3,173.9,182.2z"/>
			<path class="st6" d="M245.4,217.4"/>
			<path class="st6" d="M135.9,247.9"/>
			<g>
				<path class="st3" d="M249.6,215.2l-20.7-44.9c-10.8,1.6-25.9,0.5-33.4-5.3c-4.2-3.2-6.3-7.8-5.8-12.7c0-0.3,0.1-0.7,0.1-1
					c-0.4-0.8-0.7-2.1-0.7-3.9c0-0.1,0-0.1,0-0.2l-16.6,6.5l3.9,10.1l-17.6,6.9l-4-10.1l-16.7,6.5c0.1,0.1,0.1,0.1,0.1,0.1
					c1.9,1.3,3.5,2.5,4.4,3.4c3.7,3.2,5.3,8.1,4.3,13.3c-1.6,9.3-11.9,20.4-20.9,26.6l15.2,47c0.6,1.8,1.5,3.2,2.7,4.4l106.4-41.6
					C250.7,218.7,250.4,216.9,249.6,215.2z"/>
				<path class="st3" d="M117,132.1c-26.4,12.9-36.1,41.4-23.2,60.5c0.5,0.9,0.9,1.8,1.6,2.6c4.1,4.3,9.8,7,14.5,10.6
					c6.1,4.5,33.1-21,25.8-27.4c-2.7-2.4-12-8.2-13.7-11.3c-1.6-2.8,1.4-6.6,4.9-8.3c9.2-4.5,21.6-8.5,31.7-12.4
					c0.3-0.1,0.6-0.2,0.8-0.3c0.3-0.1,0.6-0.2,0.8-0.3c10.1-4,21.9-9.5,31.7-12.4c3.7-1.1,8.5-0.3,9.3,2.8c0.8,3.5-2,14.1-2.4,17.7
					c-1,9.6,36.1,10.1,37.5,2.6c1.1-5.9,3.4-11.7,3.5-17.6c0-1-0.4-2-0.5-3c-3.5-22.8-30-37.1-58.1-28.7
					c-10.8,3.2-21.4,6.8-31.9,10.8l0-0.1c-0.3,0.1-0.6,0.2-0.8,0.3c-0.3,0.1-0.6,0.2-0.9,0.3l0,0.1
					C137.4,122.6,127.1,127.2,117,132.1z"/>
				<line class="st7" x1="126.9" y1="171.7" x2="100.4" y2="199.3"/>
				<line class="st8" x1="199" y1="143.7" x2="241.6" y2="143.7"/>
				<g>
					<g>
						
							<ellipse transform="matrix(0.9312 -0.3644 0.3644 0.9312 -61.6788 80.5901)" class="st3" cx="182.7" cy="203.7" rx="24" ry="24"/>
						<path class="st4" d="M192.4,228.5c-13.6,5.3-29.1-1.4-34.4-15c-5.3-13.6,1.4-29.1,15-34.4c13.6-5.3,29.1,1.4,34.4,15
							C212.8,207.7,206,223.1,192.4,228.5z M174.9,183.8c-11,4.3-16.4,16.7-12.1,27.7c4.3,11,16.8,16.4,27.7,12.1
							c11-4.3,16.4-16.8,12.1-27.8C198.4,184.9,185.9,179.5,174.9,183.8z"/>
					</g>
				</g>
				<path class="st4" d="M213.6,218l2.2-4.2c0.7-1.3,0.2-2.9-1.1-3.6c-1.3-0.7-2.9-0.2-3.6,1.1l-2.2,4.2l-4.3-2.2
					c-1.3-0.7-2.9-0.1-3.6,1.2c-0.7,1.3-0.1,2.9,1.2,3.6l4.2,2.1l-2.2,4.2c-0.7,1.3-0.2,2.9,1.1,3.6c1.3,0.7,2.9,0.2,3.6-1.1
					l2.2-4.2l4.3,2.2c1.3,0.7,2.9,0.1,3.6-1.2c0.7-1.3,0.1-2.9-1.2-3.6L213.6,218z"/>
			</g>
			<g>
				<path class="st9" d="M56.2,124.6c-4.4-1.7-5.3-2.2-6.1-2.8c-2.3-1.7-3.1-4.1-2.1-6.8c1.1-2.7,3.3-3.9,6.1-3.7
					c1,0.1,1.9,0.3,6.4,2c4.4,1.7,5.3,2.2,6.1,2.8c2.3,1.7,3.1,4.1,2.1,6.8c-1,2.7-3.3,3.9-6.1,3.7
					C61.6,126.6,60.6,126.4,56.2,124.6z M65.2,121.7c0.3-0.9,0.1-1.7-0.7-2.3c-0.5-0.4-1-0.6-5.4-2.3c-4.4-1.7-5-1.9-5.6-1.9
					c-1-0.1-1.7,0.3-2,1.2c-0.4,0.9-0.1,1.7,0.7,2.3c0.5,0.4,1,0.6,5.4,2.3c4.4,1.7,5,1.9,5.6,1.9C64.2,123,64.9,122.6,65.2,121.7z"
					/>
				<path class="st9" d="M60.8,100.7L60.8,100.7l0.5,3.8c0,0.2-0.1,0.3-0.3,0.2l-3.4-2c-0.2-0.1-0.2-0.2-0.3-0.4l-0.7-4
					c0-0.2,0-0.4,0.1-0.5l1.5-2.6c0.1-0.1,0.2-0.2,0.4-0.1l17.9,10.4c0.2,0.1,0.2,0.3,0.1,0.4l-1.6,2.8c-0.1,0.1-0.2,0.2-0.4,0.1
					L60.8,100.7z"/>
				<path class="st9" d="M73.6,90.8L73.6,90.8c-1.2,0.2-2.9-0.1-4.5-1.4c-2.5-2.1-3.5-5.6-1.1-8.5c2.4-2.9,6-2.7,8.5-0.6
					c1.5,1.3,2.1,3,2.1,4.1l0,0c1.4-0.3,3.4,0,5.3,1.5c3,2.5,3.3,6.2,1,9c-2.3,2.8-6,3.2-9,0.7C74.2,94.2,73.6,92.3,73.6,90.8z
					 M74.2,83.3c-1.1-0.9-2.5-0.9-3.3,0c-0.8,1-0.5,2.4,0.6,3.2c1,0.9,2.5,0.9,3.3-0.1C75.6,85.5,75.2,84.1,74.2,83.3z M82.2,92.6
					c1-1.2,0.7-2.7-0.7-3.8c-1.3-1.1-2.9-1.1-3.9,0.1c-1,1.2-0.7,2.7,0.7,3.8C79.7,93.8,81.2,93.8,82.2,92.6z"/>
				<path class="st9" d="M84.6,79c-3.1-3.6-3.7-4.4-4.1-5.3c-1.2-2.6-0.9-5,1.3-7c2.2-1.9,4.7-2,7.1-0.4c0.8,0.5,1.6,1.2,4.7,4.7
					c3.1,3.6,3.7,4.4,4.1,5.3c1.2,2.6,0.9,5-1.3,7c-2.2,1.9-4.7,2-7.1,0.4C88.5,83.1,87.7,82.5,84.6,79z M93.9,80.5
					c0.7-0.6,0.9-1.4,0.5-2.3c-0.3-0.5-0.6-1-3.7-4.5c-3.1-3.5-3.6-3.9-4.1-4.3c-0.8-0.5-1.7-0.5-2.4,0.2c-0.7,0.7-0.9,1.4-0.5,2.3
					c0.3,0.5,0.6,1,3.7,4.5c3.1,3.5,3.6,3.9,4.1,4.3C92.4,81.2,93.2,81.1,93.9,80.5z"/>
				<path class="st9" d="M98.4,67.4c-2.5-4-3-4.9-3.2-5.8c-0.8-2.7-0.1-5.1,2.4-6.7c2.5-1.6,5-1.2,7.1,0.7c0.7,0.6,1.4,1.4,3.9,5.4
					c2.5,4,3,4.9,3.2,5.8c0.8,2.7,0.1,5.1-2.4,6.7c-2.5,1.6-5,1.2-7.1-0.7C101.6,72.1,101,71.3,98.4,67.4z M107.4,70.3
					c0.8-0.5,1.1-1.3,0.8-2.2c-0.2-0.6-0.5-1.1-3-5.1c-2.5-3.9-2.9-4.4-3.3-4.8c-0.8-0.7-1.6-0.7-2.4-0.2c-0.8,0.5-1.1,1.3-0.8,2.2
					c0.2,0.6,0.5,1.1,3,5.1c2.5,3.9,2.9,4.4,3.3,4.8C105.8,70.8,106.6,70.8,107.4,70.3z"/>
				<path class="st9" d="M113.9,58c-1.9-4.3-2.2-5.3-2.3-6.3c-0.4-2.8,0.7-5.1,3.4-6.2c2.7-1.2,5.1-0.4,6.9,1.7
					c0.6,0.8,1.1,1.6,3,5.9c1.9,4.3,2.2,5.3,2.3,6.3c0.4,2.8-0.7,5.1-3.4,6.2c-2.7,1.2-5.1,0.4-6.9-1.7
					C116.3,63.2,115.8,62.4,113.9,58z M122.3,62.3c0.9-0.4,1.3-1.1,1.1-2.1c-0.1-0.6-0.3-1.2-2.2-5.5c-1.9-4.3-2.2-4.8-2.6-5.3
					c-0.6-0.8-1.4-0.9-2.3-0.6c-0.9,0.4-1.3,1.1-1.1,2.1c0.1,0.6,0.3,1.2,2.2,5.5c1.9,4.3,2.2,4.8,2.6,5.3
					C120.7,62.6,121.4,62.7,122.3,62.3z"/>
				<path class="st10" d="M134,44.4L134,44.4l-2.3,3c-0.1,0.2-0.3,0.1-0.3-0.1l-1-3.8c0-0.2,0-0.3,0.1-0.5l2.3-3.3
					c0.1-0.2,0.2-0.3,0.4-0.3l3-0.8c0.2,0,0.3,0.1,0.3,0.2l5.3,20c0,0.2,0,0.3-0.2,0.4l-3.2,0.8c-0.2,0-0.3-0.1-0.3-0.2L134,44.4z"
					/>
				<path class="st10" d="M152.6,40.8L152.6,40.8l-2.7,2.6c-0.1,0.1-0.3,0.1-0.3-0.2l-0.4-3.9c0-0.2,0-0.3,0.1-0.5l2.8-2.9
					c0.1-0.1,0.3-0.2,0.5-0.2l3-0.3c0.2,0,0.3,0.1,0.3,0.3l2.2,20.6c0,0.2-0.1,0.3-0.2,0.3l-3.3,0.3c-0.2,0-0.3-0.1-0.3-0.3
					L152.6,40.8z"/>
				<path class="st10" d="M166,53c0-0.2,0-0.3,0.2-0.4l6.9-8.6c0.8-0.9,1.2-1.8,1.2-2.9c0.1-1.4-0.6-2.5-1.9-2.5
					c-1.3-0.1-2.1,0.8-2.3,2.4c0,0.2-0.1,0.3-0.3,0.2l-3-0.7c-0.2,0-0.2-0.2-0.2-0.4c0.3-2.9,2.5-5.4,6.1-5.2
					c3.5,0.2,5.6,2.9,5.4,6.3c-0.1,2-0.9,3.6-2.1,5.1l-5.2,6.4l0,0.1l6.5,0.3c0.2,0,0.3,0.1,0.3,0.3l-0.1,3.1c0,0.2-0.1,0.3-0.3,0.3
					l-11-0.5c-0.2,0-0.3-0.1-0.3-0.3L166,53z"/>
				<path class="st10" d="M190.2,42.2L190.2,42.2l-3.4,1.7c-0.2,0.1-0.3,0-0.3-0.2l0.8-3.8c0-0.2,0.1-0.3,0.3-0.4l3.6-1.9
					c0.2-0.1,0.3-0.1,0.5-0.1l3,0.6c0.2,0,0.2,0.2,0.2,0.4l-4,20.3c0,0.2-0.2,0.3-0.3,0.3l-3.2-0.6c-0.2,0-0.2-0.2-0.2-0.4
					L190.2,42.2z"/>
				<path class="st10" d="M200,56.3l3,0.4c0.2,0,0.2,0.1,0.2,0.3c-0.1,1.2,0.4,2.3,1.6,2.7c1.3,0.5,2.6-0.3,3.1-1.8
					c0.6-1.8,0.1-3.2-1.4-3.7l-0.7-0.3c-0.2-0.1-0.2-0.2-0.1-0.4l1-2.9c0.1-0.2,0.2-0.3,0.4-0.2l0.7,0.3c1.3,0.5,2.5-0.2,3.1-1.7
					c0.5-1.4,0.1-2.6-1.1-3.1c-1.1-0.4-2,0.1-2.6,1.1c-0.1,0.2-0.2,0.2-0.4,0.1l-2.6-1.6c-0.1-0.1-0.2-0.2-0.1-0.4
					c1.4-2.5,4-3.7,7.1-2.6c3.4,1.2,4.6,4.3,3.4,7.5c-0.6,1.7-1.8,2.9-3.4,3.4l0,0.1c0.8,1,1.5,3,0.5,5.7c-1.3,3.7-4.6,5.2-7.9,4.1
					c-3-1.1-4.6-3.6-4-6.7C199.7,56.4,199.8,56.3,200,56.3z"/>
				<path class="st10" d="M228.8,55.3L228.8,55.3l-3.4-1.9c-0.1-0.1-0.2,0-0.2,0.1l-1.1,2c-0.1,0.2-0.2,0.2-0.4,0.1L221,54
					c-0.1-0.1-0.2-0.2-0.1-0.4l2.8-5.2c0.1-0.2,0.2-0.2,0.4-0.1l9.8,5.3c0.1,0.1,0.2,0.2,0.1,0.4l-1.6,2.9c-0.1,0.1-0.2,0.2-0.2,0.3
					l-13.4,12.2c-0.2,0.2-0.3,0.2-0.5,0.1l-3-1.6c-0.1-0.1-0.2-0.2,0-0.4L228.8,55.3z"/>
			</g>
			
				<ellipse transform="matrix(0.9313 -0.3643 0.3643 0.9313 -49.7459 72.9855)" class="st11" cx="168.6" cy="168.3" rx="104.7" ry="104.7"/>
		</g>
	</g>
</g>
<g id="Capa_1">
</g>
</svg>
