<?xml version="1.0" encoding="utf-8"?>
<!-- Generator: Adobe Illustrator 25.4.1, SVG Export Plug-In . SVG Version: 6.00 Build 0)  -->
<svg version="1.1" id="Capa_1" xmlns="http://www.w3.org/2000/svg" xmlns:xlink="http://www.w3.org/1999/xlink" x="0px" y="0px"
	 viewBox="0 0 140 140" style="enable-background:new 0 0 140 140;" xml:space="preserve">
<style type="text/css">
	.st0{fill:none;stroke:#0C3F66;stroke-width:0.5;stroke-miterlimit:10;}
	.st1{fill:none;stroke:#0C3F66;stroke-width:0.5;stroke-miterlimit:10;stroke-dasharray:11.1644,11.1644;}
	.st2{fill:none;stroke:#0C3F66;stroke-width:0.5;stroke-miterlimit:10;stroke-dasharray:11.9842,11.9842;}
	.st3{fill:#0C3F66;}
	.st4{fill:none;stroke:#0C3F66;stroke-width:1.5;stroke-linecap:round;stroke-linejoin:round;stroke-miterlimit:10;}
	.st5{fill:#E0E0E0;}
	.st6{fill:#5DBDB0;}
	.st7{fill:#FFFFFF;}
	.st8{stroke:#000000;stroke-width:0.5;stroke-miterlimit:10;}
	.st9{opacity:0.8;fill:#FFFFFF;}
	.st10{fill:#455A64;}
	.st11{fill:#20AFE3;}
	.st12{opacity:0.2;fill:#263239;}
	.st13{fill:#FFFFFF;stroke:#000000;stroke-width:0.5;stroke-linecap:round;stroke-linejoin:round;stroke-miterlimit:10;}
	.st14{opacity:0.6;fill:#FFFFFF;}
	.st15{opacity:0.3;}
	.st16{fill:#010202;}
	.st17{fill:#EBEBEB;}
	.st18{stroke:#000000;stroke-width:0.5;stroke-linecap:round;stroke-linejoin:round;stroke-miterlimit:10;}
	.st19{fill:none;stroke:#EDEDED;stroke-linecap:round;stroke-linejoin:round;stroke-miterlimit:10;}
	.st20{fill:#1D71B8;}
	.st21{fill:#223554;}
	.st22{fill:#3F9CD5;}
	.st23{fill:#FECC57;}
</style>
<g>
	<path class="st20" d="M34.27,139.84c-4.34,0-7.13-0.92-7.41-1.01c-0.58-0.2-0.99-0.73-1.02-1.35
		c-0.95-16.43-13.92-41.63-14.05-41.89c-0.21-0.41-0.23-0.88-0.05-1.3c0.18-0.42,0.54-0.73,0.98-0.86
		c0.14-0.04,14.42-4.15,18.65-10.46c0.47-0.7,1.41-0.88,2.11-0.42c0.7,0.47,0.88,1.41,0.41,2.11c-3.93,5.85-14.41,9.77-18.6,11.14
		c2.87,5.8,12.24,25.69,13.49,40.4c3.49,0.82,15.94,2.6,29.06-9.72c6.56-6.16,13.54-13.89,20.29-21.37
		c9.65-10.69,18.76-20.78,25.13-24.47c10.28-5.95,18.04-7.21,26.24-3.92c-4.53-6.91-15.86-20.49-37.61-26.1l0,0
		c-0.09,0-15.84-1.86-31.2,13.13c-0.6,0.58-1.56,0.58-2.15-0.03c-0.59-0.6-0.57-1.56,0.03-2.15c16.53-16.13,33.21-14.03,33.91-13.93
		c31.27,8.06,41.78,31.06,42.21,32.03c0.27,0.6,0.12,1.31-0.38,1.75c-0.49,0.44-1.21,0.52-1.78,0.18
		c-9.03-5.27-16.55-4.82-27.75,1.67c-5.96,3.45-14.92,13.37-24.4,23.88c-6.79,7.52-13.81,15.3-20.47,21.55
		C50.13,137.9,40.57,139.84,34.27,139.84z"/>
	<path class="st20" d="M125.58,97.46c-3.16,0-5.78-1.42-7.16-2.67c-0.28-0.25-0.45-0.59-0.49-0.97c-1.1-10.59-8.92-12.43-9.25-12.5
		c-0.82-0.18-1.34-0.99-1.16-1.8c0.18-0.82,0.97-1.33,1.79-1.17c0.1,0.02,9.96,2.23,11.57,14.51c1.34,0.96,5.67,3.39,10.63-0.92
		c5.06-4.4,0.77-10.5,0.58-10.76c-0.49-0.68-0.34-1.63,0.34-2.12c0.68-0.49,1.62-0.34,2.12,0.33c2.15,2.95,4.69,9.85-1.05,14.84
		C130.74,96.63,128,97.46,125.58,97.46z"/>
	<path class="st20" d="M53.63,102.58c-0.72,0-1.35-0.51-1.49-1.24c-0.1-0.53-10.08-52.98-30.85-71.35
		c-0.63-0.56-0.69-1.51-0.13-2.14c0.55-0.63,1.51-0.69,2.14-0.13c21.56,19.06,31.42,70.87,31.82,73.07
		c0.15,0.82-0.39,1.62-1.21,1.77C53.81,102.57,53.72,102.58,53.63,102.58z"/>
	<path class="st20" d="M50.66,86.71c-0.2,0-0.4-0.04-0.59-0.12c-0.77-0.33-1.13-1.22-0.81-1.99c0.06-0.15,5.92-14.17,4.25-24.35
		c-2.47,0.5-5.1,0.21-6.02-1.99c-1.09-2.63,1.74-6.4,3.31-8.2c-1.25-3.85-6.82-20.25-13-25.88c-3.22,1.86-3.92,1.77-4.31,1.71
		c-0.44-0.06-0.92-0.38-1.15-0.75c-0.31-0.5-0.74-1.17,0.92-6.59c-1.49-1.41-5.85-5.06-13.28-7.71C14.16,8.75,9.08,6.46,6.07,4.78
		c0.19,7.73,1.59,29.46,11.16,38.53c3.23-0.58,6.99-0.76,8.17,1.12c1.07,1.71-0.39,3.32-1.55,4.61c-0.88,0.97-1.87,2.07-2.02,3.08
		c1.51,2.7,11.66,20.01,26.71,26.88c0.76,0.35,1.1,1.25,0.75,2.01c-0.35,0.76-1.25,1.1-2.01,0.75C30.07,73.91,19.4,54.04,18.96,53.2
		c-0.11-0.2-0.17-0.43-0.17-0.66c-0.07-2.32,1.6-4.17,2.82-5.52c0.28-0.31,0.65-0.72,0.9-1.04c-0.92-0.1-3.29,0.04-5.43,0.46
		c-0.46,0.09-0.94-0.04-1.29-0.34C2.47,34.49,2.99,3.25,3.01,1.92C3.03,1.26,3.47,0.68,4.11,0.5c0.58-0.17,1.2,0.03,1.59,0.48
		C6.42,1.6,11.56,4.6,21,7.97c10.14,3.61,14.92,8.91,15.12,9.14c0.35,0.4,0.47,0.96,0.31,1.47c-0.35,1.12-0.72,2.39-0.98,3.44
		c0.54-0.29,1.14-0.64,1.71-0.98c0.53-0.32,1.21-0.29,1.7,0.09c8.07,6.1,14.81,27.95,15.09,28.87c0.16,0.52,0.03,1.09-0.34,1.48
		c-1.98,2.11-3.63,4.9-3.33,5.62c0.22,0.53,2.37,0.36,3.88-0.17c0.4-0.14,0.84-0.1,1.22,0.1s0.65,0.55,0.75,0.96
		c2.83,11.24-3.8,27.13-4.09,27.8C51.81,86.36,51.25,86.71,50.66,86.71z"/>
	<path class="st20" d="M38.79,54.95c-0.82,0-1.49-0.65-1.52-1.47c-0.17-5.2,3.05-11.61,3.19-11.88c0.38-0.75,1.3-1.05,2.04-0.66
		c0.75,0.38,1.04,1.29,0.67,2.04c-0.03,0.06-3.01,5.98-2.86,10.4c0.03,0.84-0.63,1.54-1.47,1.57
		C38.82,54.95,38.81,54.95,38.79,54.95z"/>
	<path class="st20" d="M43.77,69.32c-0.04,0-0.08,0-0.12,0c-3.63-0.28-6.25-1.53-6.36-1.58c-0.75-0.36-1.07-1.27-0.71-2.02
		s1.27-1.07,2.02-0.71c0.02,0.01,2.24,1.05,5.27,1.29c0.84,0.07,1.46,0.79,1.4,1.63C45.22,68.71,44.56,69.32,43.77,69.32z"/>
</g>
</svg>
