<?xml version="1.0" encoding="utf-8"?>
<!-- Generator: Adobe Illustrator 24.0.0, SVG Export Plug-In . SVG Version: 6.00 Build 0)  -->
<svg version="1.1" id="Capa_1" xmlns="http://www.w3.org/2000/svg" xmlns:xlink="http://www.w3.org/1999/xlink" x="0px" y="0px"
	 viewBox="0 0 306.1 318.6" style="enable-background:new 0 0 306.1 318.6;" xml:space="preserve">
<style type="text/css">
	.st0{fill:#006837;}
	.st1{fill:#0000FF;}
	.st2{fill:#F7931E;}
	.st3{fill:#662D91;}
	.st4{fill:#FFFFFF;}
</style>
<path class="st3" d="M282.6,203.1c6.4-1.4,9.9-4.8,11.3-10.7c0.3-1.3,0.5-2.7,0.6-4c1.4-15.9,2.8-31.7,4.2-47.6
	c0.4-4.7,0.9-9.5,1.2-14.2c0.3-6.6-1.5-12.1-8.2-15c-0.5-0.2-0.9-1.4-0.9-2.1c0-2.6,0.5-5.2,0.4-7.8c-0.3-7.6-4.9-12.3-12.5-12.9
	c-0.6-0.1-1.3-0.2-1.9-0.2c-2,0-2.7-0.9-3.3-2.8c-2.3-6.7-4.3-13.7-7.5-20c-10.7-20.9-27.6-35.6-48.3-46
	C192.2,7.1,165.2,2.9,137,5.9c-24,2.6-46,10.4-65.5,24.7C53,44.3,39.7,61.6,33.7,84c-1.2,4.5-1.2,4.5-5.8,4.9
	c-6.5,0.5-10.4,3.8-11.7,10.2c-0.5,2.4-0.3,4.9-0.3,7.3c0,1.3,0.3,2.5,0.3,3.8c0,0.5-0.4,1.2-0.8,1.4c-6.6,2.8-8.5,8.2-8.2,14.7
	c0.1,3.7,0.6,7.4,0.9,11.1c1.5,17.1,2.9,34.3,4.5,51.4c0.7,7.3,3.7,12.9,11.8,14.3c0.3,2.7,0.5,5.4,0.9,8.1c0.8,4.5,2.8,8.2,7,10.5
	c3.9,2.1,16.6,0.8,19.9-2.2c4.2-3.8,5.3-8.6,4.8-14c-1.7-19.3-3.4-38.5-5.1-57.8c-1.4-15.7-2.8-31.4-4.2-47.1
	c-0.3-3.5-1.7-6.6-4.2-9.1c-1-1-1.2-1.9-0.8-3.1c1.9-5.5,3.3-11.3,5.8-16.6C57.7,52.1,72.9,38,92,27.9
	c26.2-13.9,54.2-17.7,83.4-13.1c22.1,3.5,42,11.9,59.1,26.4c14.9,12.6,25.3,28.1,29.7,47.3c0.3,1.3,0.2,2.2-0.8,3.2
	c-2.5,2.5-3.8,5.7-4.1,9.2c-0.8,8.4-1.5,16.9-2.3,25.3c-2.2,25.2-4.5,50.3-6.6,75.5c-0.3,3.8-0.3,7.8,0.4,11.5
	c0.9,4.4,3.8,7.7,8.6,8.6c3.4,0.6,6.8,0.8,10.2,1.1c2.9,0.3,5.3-0.8,7.4-2.7c2.6-2.3,4.1-5.3,4.6-8.6
	C282.1,208.7,282.3,206,282.6,203.1z"/>
<path class="st3" d="M282.6,203.1c-0.3,2.9-0.5,5.6-1,8.4c-0.5,3.4-2.1,6.3-4.6,8.6c-2.1,1.9-4.5,3-7.4,2.7
	c-3.4-0.3-6.8-0.5-10.2-1.1c-4.7-0.8-7.7-4.2-8.6-8.6c-0.8-3.7-0.8-7.7-0.4-11.5c2.1-25.2,4.4-50.4,6.6-75.5
	c0.7-8.4,1.5-16.9,2.3-25.3c0.3-3.5,1.6-6.6,4.1-9.2c1-1,1.1-1.9,0.8-3.2c-4.4-19.2-14.8-34.7-29.7-47.3
	c-17.1-14.5-37.1-22.9-59.1-26.4c-29.2-4.6-57.1-0.7-83.4,13.1C72.9,38,57.7,52.1,48.5,71.8c-2.5,5.3-3.9,11-5.8,16.6
	c-0.4,1.3-0.2,2.2,0.8,3.1c2.5,2.5,3.9,5.6,4.2,9.1c1.4,15.7,2.8,31.4,4.2,47.1c1.7,19.3,3.4,38.5,5.1,57.8c0.5,5.4-0.6,10.3-4.8,14
	c-3.3,2.9-16,4.3-19.9,2.2c-4.1-2.3-6.2-6-7-10.5c-0.4-2.6-0.6-5.3-0.9-8.1c-8.1-1.4-11.2-7-11.8-14.3c-1.6-17.1-3-34.3-4.5-51.4
	c-0.3-3.7-0.8-7.4-0.9-11.1c-0.2-6.5,1.7-11.9,8.2-14.7c0.4-0.2,0.8-0.9,0.8-1.4c0-1.3-0.3-2.5-0.3-3.8c0-2.4-0.2-4.9,0.3-7.3
	c1.3-6.4,5.2-9.7,11.7-10.2c4.6-0.4,4.6-0.4,5.8-4.9c6-22.4,19.3-39.7,37.8-53.3C90.9,16.4,113,8.5,137,5.9
	c28.2-3,55.2,1.2,80.7,13.9c20.8,10.4,37.7,25.1,48.3,46c3.2,6.3,5.2,13.2,7.5,20c0.6,1.9,1.3,2.8,3.3,2.8c0.6,0,1.3,0.1,1.9,0.2
	c7.6,0.6,12.2,5.2,12.5,12.9c0.1,2.6-0.3,5.2-0.4,7.8c0,0.7,0.4,1.8,0.9,2.1c6.6,2.9,8.5,8.4,8.2,15c-0.2,4.7-0.7,9.5-1.2,14.2
	c-1.4,15.9-2.8,31.7-4.2,47.6c-0.1,1.3-0.3,2.7-0.6,4C292.5,198.3,289,201.7,282.6,203.1z"/>
<g>
	<path class="st3" d="M170,263.5c3.6-1.1,6.8-1.9,9.8-3.1c26.2-9.9,43.6-34.7,44.1-62.7c0-0.2,0-0.4,0-0.6c0.1-3.7,1.8-5.8,4.9-5.7
		c3.1,0,5,2.2,4.9,6.1c-0.2,9.2-1.7,18.2-5.1,26.8c-10.3,25.5-28.7,41.7-55.4,48.3c-2.6,0.6-3.5,1.6-3.2,4.2c0.2,2.5,0,5,0,7.8
		c2.9,0,5.5-0.1,8.2,0c5.5,0.1,11.1-0.2,16.6,0.7c11.1,1.9,19.3,12.2,19.3,23.2c0,3.6-1.8,5.5-5.4,5.5c-35.6,0-71.3,0-106.9,0
		c-3.4,0-5.2-2-5.3-5.4c-0.1-12.4,10.5-23.5,23-23.9c5.9-0.2,11.8-0.1,17.7-0.1c1,0,2,0,3.3,0c0-3.6,0.1-6.9-0.1-10.1
		c0-0.6-1.3-1.3-2.1-1.5c-17.1-4-31.5-12.4-42.9-25.8c-12.2-14.3-18.2-31-18.6-49.8c-0.1-3.7,1.7-5.8,4.7-5.9c3.2-0.1,5,2,5.1,5.8
		c0.7,31.2,20.8,57,50.8,65.2c0.9,0.2,1.8,0.4,3.1,0.7c0-4.8,0.1-9.4-0.1-14c0-0.6-1.5-1.4-2.4-1.7c-11.8-3.7-21.5-10.4-29.1-20.2
		c-8-10.2-12.3-21.8-12.3-34.8c-0.1-25.4-0.2-50.8,0-76.2c0.2-28.7,22.5-54.3,52.9-57.2c32.5-3.2,59,19.6,63.9,48.8
		c0.6,3.5,0.8,7.2,0.8,10.7c0.1,23.9,0.1,47.8,0,71.7c-0.1,27-16.1,49-41.9,57.2c-1.5,0.5-2.3,1.1-2.2,2.8
		C170.1,254.7,170,258.8,170,263.5z M106.7,196.3c1.4,21.9,21.5,45,50.2,44.1c28.1-0.9,45.9-24.2,47-44.1c-1,0-2,0-3,0
		c-6.8,0-13.7,0-20.5,0c-3.3,0-5.5-2.1-5.4-5c0.1-2.8,2.2-4.7,5.4-4.7c6-0.1,12,0,18,0c1.9,0,3.8,0,5.8,0c0-5.1,0-9.9,0-14.8
		c-8,0-15.9,0-23.7,0c-3.3,0-5.3-1.8-5.5-4.6c-0.1-2.9,2-5,5.3-5.1c4.8-0.1,9.6,0,14.4,0c3.1,0,6.2,0,9.5,0c0-5,0-9.8,0-14.7
		c-1.3,0-2.4,0-3.5,0c-6.8,0-13.7,0.1-20.5,0c-3.1,0-5.2-2.2-5.2-5c0-2.7,2.1-4.6,5-4.9c1-0.1,2,0,3,0c7,0,14,0,21.1,0
		c0-5,0-9.7,0-14.7c-1.2,0-2.2,0-3.2,0c-6.6,0-13.1,0-19.7,0c-4,0-6.3-1.9-6.3-5c0.1-3,2.3-4.8,6.2-4.8c6.7,0,13.5,0,20.2,0
		c0.9,0,1.7,0,2.6,0c-1.9-22.6-21.6-44.9-50-44.1c-29.2,0.8-46.2,24.7-47.3,44.1c1,0,2,0,3,0c6.8,0,13.7,0,20.5,0
		c3.3,0,5.3,1.9,5.4,4.7c0.1,2.9-2,5-5.3,5.1c-4.6,0.1-9.2,0-13.8,0c-3.3,0-6.6,0-10,0c0,5,0,9.8,0,14.4c0.4,0.1,0.6,0.2,0.8,0.2
		c7,0,14,0,21,0c5,0,7.4,1.6,7.4,5c-0.1,3.3-2.4,4.9-7.3,4.9c-7.3,0-14.5,0-21.9,0c0,5,0,9.7,0,14.7c1.5,0,2.8,0,4.1,0
		c6.6,0,13.3-0.1,19.9,0.1c3.2,0.1,5.2,2.2,5.2,5c0,2.7-2,4.7-5.1,4.8c-2.1,0.1-4.2,0-6.4,0c-5.9,0-11.8,0-17.8,0c0,5,0,9.8,0,14.8
		c7.5,0,14.7,0,22,0c4.9,0,7.2,1.5,7.2,4.8c0,3.3-2.3,4.9-7.2,4.9C121.3,196.3,114.1,196.3,106.7,196.3z M203.1,304.1
		c0-0.4,0-0.7-0.1-0.9c-0.3-0.6-0.5-1.2-0.9-1.7c-3-4.6-7.2-6.9-12.8-6.9c-7.7,0-15.3,0-23,0c-4.5,0-6.1-1.7-6.2-6.2
		c0-11.6,0-23.2,0-34.9c0-1,0-2,0-3c-3.4,0-6.5,0-9.9,0c0,1.1,0,2.1,0,3.1c0,11.6,0,23.2,0,34.9c0,4.3-1.7,6-6,6.1
		c-0.7,0-1.5,0-2.2,0c-7.2,0-14.4-0.1-21.6,0c-6.3,0.1-12,4.4-12.9,9.5C139.4,304.1,171.2,304.1,203.1,304.1z"/>
</g>
</svg>
