<svg xmlns="http://www.w3.org/2000/svg" xmlns:xlink="http://www.w3.org/1999/xlink" viewBox="0 0 27.61 22.47"><defs><style>.cls-1{fill:none;}.cls-2{isolation:isolate;}.cls-3{clip-path:url(#clip-path);}.cls-4{fill:#00c6ff;fill-rule:evenodd;mix-blend-mode:multiply;}</style><clipPath id="clip-path"><rect class="cls-1" x="-1401.85" y="-52.03" width="1300" height="357"/></clipPath></defs><title>Twitter</title><g class="cls-2"><g id="TEXTOS"><path class="cls-4" d="M8.37,17.58a5.69,5.69,0,0,1-5.28-3.94,5.58,5.58,0,0,0,2.44-.07l.08,0a5.66,5.66,0,0,1-3.69-2.6,5.48,5.48,0,0,1-.83-3,5.51,5.51,0,0,0,2.53.69A5.71,5.71,0,0,1,1.89,1.05,16.24,16.24,0,0,0,13.59,7c0-.22-.07-.42-.09-.62a5.5,5.5,0,0,1,.83-3.71A5.4,5.4,0,0,1,18.17.09a5.51,5.51,0,0,1,5,1.58.28.28,0,0,0,.3.09A11.7,11.7,0,0,0,26.74.49l.08,0h0a5.79,5.79,0,0,1-2.42,3.08,10.82,10.82,0,0,0,3.15-.85l0,0c-.22.28-.43.57-.66.85a11.26,11.26,0,0,1-2.06,2,.2.2,0,0,0-.09.18,15.19,15.19,0,0,1-.11,2.52,16.83,16.83,0,0,1-1.46,5,16.67,16.67,0,0,1-3.06,4.47,15.2,15.2,0,0,1-7.8,4.34,16.74,16.74,0,0,1-3.16.38A16.09,16.09,0,0,1,.13,20L0,19.94a11.51,11.51,0,0,0,5.67-.79A10.94,10.94,0,0,0,8.37,17.58Z"/></g></g></svg>