<svg xmlns="http://www.w3.org/2000/svg" xmlns:xlink="http://www.w3.org/1999/xlink" viewBox="0 0 24.93 28.29"><defs><style>.cls-1{fill:none;}.cls-2{clip-path:url(#clip-path);}.cls-3{fill:#fff;}</style><clipPath id="clip-path"><rect class="cls-1" x="-1400.79" y="14.82" width="1300" height="357"/></clipPath></defs><title>IconoMenuEspacioyMovilidad</title><g id="TEXTOS"><path class="cls-3" d="M14.53,2.7A2.7,2.7,0,1,1,11.83,0a2.7,2.7,0,0,1,2.7,2.7Zm0,0"/><path class="cls-3" d="M19.26,12.26a18.64,18.64,0,0,1-5.58-4.9c-1-1.31-3.52-1.24-4.56,0a29.1,29.1,0,0,0-4,4.53,1.33,1.33,0,0,0,.39,1.89,1.4,1.4,0,0,0,.78.24,1.44,1.44,0,0,0,1.18-.61,23.1,23.1,0,0,1,1.58-2c0,1.42,0,4,.09,5.12a2.23,2.23,0,0,1-.26,1.1A42.65,42.65,0,0,0,5.56,25.9a1.43,1.43,0,0,0,1,1.78,1.57,1.57,0,0,0,.53.06,1.48,1.48,0,0,0,1.31-1,39.89,39.89,0,0,1,3-7.64h.2l2.52,7.26c.61,1.76,3.44.84,2.83-.92q-1.38-4-2.75-7.93a8,8,0,0,1-.2-.93,46.94,46.94,0,0,1-.19-4.88,22.56,22.56,0,0,0,4.31,3.11c1.58.89,2.67-1.65,1.1-2.52Zm0,0"/><rect class="cls-3" x="11.78" y="14.94" width="1.36" height="24.91" transform="translate(-15.15 39.35) rotate(-88.96)"/></g></svg>