<svg xmlns="http://www.w3.org/2000/svg" xmlns:xlink="http://www.w3.org/1999/xlink" viewBox="0 0 43.47 29.03"><defs><style>.cls-1{fill:none;}.cls-2{clip-path:url(#clip-path);}.cls-3{fill:#fff;}</style><clipPath id="clip-path"><rect class="cls-1" x="-1605.91" y="109.19" width="1300" height="357"/></clipPath></defs><title>IconoMenuCambioClimatico</title><g id="TEXTOS"><path class="cls-3" d="M4.54,15.93a8.11,8.11,0,0,1-.61-1.32,12.77,12.77,0,0,0-2.38,3,12.74,12.74,0,0,0,3.82-.52A8.68,8.68,0,0,1,4.54,15.93Z"/><path class="cls-3" d="M3.49,12.75a9.46,9.46,0,0,1-.05-1,8,8,0,0,1,.12-1.46A12.69,12.69,0,0,0,0,11.74,12.15,12.15,0,0,0,3.56,13.2S3.53,13,3.49,12.75Z"/><path class="cls-3" d="M5.12,6.75a2.25,2.25,0,0,1,.29-.35A12.34,12.34,0,0,0,1.6,5.86,11.91,11.91,0,0,0,4,8.9,8.16,8.16,0,0,1,5.12,6.75Z"/><path class="cls-3" d="M9,3.93a12.92,12.92,0,0,0-3-2.38,12.74,12.74,0,0,0,.52,3.82A8.4,8.4,0,0,1,9,3.93Z"/><path class="cls-3" d="M13.26,3.56A12.71,12.71,0,0,0,11.82,0a12.24,12.24,0,0,0-1.46,3.56s.18,0,.45-.07A8.74,8.74,0,0,1,13.26,3.56Z"/><path class="cls-3" d="M17.7,1.6a12.21,12.21,0,0,0-3,2.35,8.36,8.36,0,0,1,2.5,1.46A12.37,12.37,0,0,0,17.7,1.6Z"/><path class="cls-3" d="M19.63,9a12.77,12.77,0,0,0,2.38-3,12.74,12.74,0,0,0-3.82.52A8.68,8.68,0,0,1,19,7.63,8.11,8.11,0,0,1,19.63,9Z"/><path class="cls-3" d="M36.9,15.86h0a6.53,6.53,0,0,0-1.17.11c0-.11,0-.22,0-.33A8.78,8.78,0,0,0,27,6.84h0l0,.78a8,8,0,0,1,8,8s0,.11,0,.16v.13l0,1,1-.18a6.29,6.29,0,0,1,1-.09,5.8,5.8,0,0,1,5.79,5.81,5.82,5.82,0,0,1-5.82,5.79L9.32,28.19a4.94,4.94,0,1,1,0-9.88,4.76,4.76,0,0,1,2.4.64l1.84,1-.71-2a2.82,2.82,0,0,1-.17-.93,2.7,2.7,0,0,1,4.87-1.61l1.26,1.7L19,15.05a8,8,0,0,1,7.46-7.41l.5,0V6.84l-.57,0a8.74,8.74,0,0,0-7.06,4.46A7.54,7.54,0,0,0,11.8,4.23h0A7.53,7.53,0,0,0,7.37,17.88,5.72,5.72,0,0,0,9.31,29L36.87,29h0a6.59,6.59,0,0,0,4.65-1.92,6.52,6.52,0,0,0,1.94-4.65A6.59,6.59,0,0,0,36.9,15.86ZM11.79,5.06a6.72,6.72,0,0,1,6.71,6.73h-.86a5.87,5.87,0,0,0-5.85-5.88V5.06Z"/></g></svg>