<svg xmlns="http://www.w3.org/2000/svg" xmlns:xlink="http://www.w3.org/1999/xlink" viewBox="0 0 26.5 23.06"><defs><style>.cls-1{fill:none;}.cls-2{clip-path:url(#clip-path);}.cls-3{fill:#009de1;}</style><clipPath id="clip-path"><rect class="cls-1" x="-1400.86" y="84.66" width="1300" height="357"/></clipPath></defs><title>IconoParticipacionCiudadana</title><g id="TEXTOS"><path class="cls-3" d="M20.82,16.67h-.05l-3.24-.51C17,15.8,17,14.91,17,14a6.49,6.49,0,0,0,1.66-4.39V9.43a4,4,0,0,0,1.24-2.91V3.9A3.81,3.81,0,0,0,16.16,0h-5.4A1.66,1.66,0,0,0,9.17,1.33a3,3,0,0,0-2.53,3V6.52A4,4,0,0,0,7.88,9.43v.14A6.49,6.49,0,0,0,9.54,14c0,.95,0,1.84-.57,2.19l-3.24.51h0A3.16,3.16,0,0,0,3.93,18a3.88,3.88,0,0,0-.61,2.07v1.69a1.31,1.31,0,0,0,1.33,1.28h17.2a1.31,1.31,0,0,0,1.33-1.28V20.09A3.8,3.8,0,0,0,22.57,18a3.18,3.18,0,0,0-1.75-1.35Zm-7.57-1a4.88,4.88,0,0,0,2.94-1A2.87,2.87,0,0,0,17,16.72a3.71,3.71,0,0,1-3.71,2.91,3.69,3.69,0,0,1-3.7-2.91,2.9,2.9,0,0,0,.76-2.07,4.9,4.9,0,0,0,2.94,1ZM8.66,9.28V7A1.3,1.3,0,0,1,9.93,5.62H17a.4.4,0,0,0,.38-.41A.39.39,0,0,0,17,4.8H9.93A2.1,2.1,0,0,0,7.88,7V8.18a3.17,3.17,0,0,1-.46-1.67V4.33a2.15,2.15,0,0,1,2.1-2.2.41.41,0,0,0,.39-.41.87.87,0,0,1,.85-.9h5.4A3,3,0,0,1,19.09,3.9V6.51a3.18,3.18,0,0,1-.47,1.67V6.51a.39.39,0,0,0-.39-.4.4.4,0,0,0-.39.4V9.57c0,2.9-2.06,5.26-4.59,5.26S8.66,12.47,8.66,9.57Zm13.75,12.5a.53.53,0,0,1-.56.46H4.65a.52.52,0,0,1-.55-.46V20.09a2.73,2.73,0,0,1,1.77-2.62L8.81,17a4.48,4.48,0,0,0,4.44,3.43A4.48,4.48,0,0,0,17.69,17l2.94.46a2.73,2.73,0,0,1,1.78,2.62Zm0,0"/><path class="cls-3" d="M2.46,18.32H1c-.13,0-.22-.08-.22-.16V17.07a1.62,1.62,0,0,1,1-1.55l2.12-.34H4l0,0h0a1.6,1.6,0,0,0,.69-1.3,3.31,3.31,0,0,0,1.74.51A3.26,3.26,0,0,0,8,14a.43.43,0,0,0,.18-.55.39.39,0,0,0-.53-.18,2.5,2.5,0,0,1-1.17.29,3.07,3.07,0,0,1-2.83-3.26V8.52a.7.7,0,0,1,.69-.72h1a.41.41,0,0,0,.39-.41A.4.4,0,0,0,5.37,7h-1A1.51,1.51,0,0,0,2.9,8.52v.21a2.14,2.14,0,0,1,0-.45V6.87A1.26,1.26,0,0,1,4.07,5.59a.4.4,0,0,0,.39-.41.43.43,0,0,1,.42-.44h.49a.41.41,0,0,0,0-.81H4.88a1.2,1.2,0,0,0-1.14.87A2.08,2.08,0,0,0,2.07,6.87V8.28a2.77,2.77,0,0,0,.83,2h0a4.33,4.33,0,0,0,1.13,3c0,.52-.05,1-.29,1.18l-2.06.32H1.63A2.45,2.45,0,0,0,0,17.07v1.09a1,1,0,0,0,1,1H2.46a.4.4,0,0,0,.39-.41.4.4,0,0,0-.39-.41Zm0,0"/><path class="cls-3" d="M24.87,14.72h-.05l-2.06-.32c-.24-.19-.28-.66-.28-1.18a4.32,4.32,0,0,0,1.12-3h0a2.73,2.73,0,0,0,.83-2V6.08a2.1,2.1,0,0,0-2.05-2.15H21.13a.41.41,0,0,0,0,.81h1.25a1.31,1.31,0,0,1,1.27,1.34v2.2a2.14,2.14,0,0,1,0,.45V8.52A1.51,1.51,0,0,0,22.14,7h-1a.39.39,0,0,0-.38.41.4.4,0,0,0,.38.41h1a.7.7,0,0,1,.68.72v1.74A3.07,3.07,0,0,1,20,13.52a2.53,2.53,0,0,1-1.17-.29.38.38,0,0,0-.52.18.41.41,0,0,0,.17.55,3.26,3.26,0,0,0,1.52.38,3.31,3.31,0,0,0,1.74-.51,1.63,1.63,0,0,0,.69,1.3h0l0,0h.09l2.11.34a1.61,1.61,0,0,1,1,1.55v1.09c0,.08-.09.16-.22.16H24a.4.4,0,0,0-.39.41.4.4,0,0,0,.39.41H25.5a1,1,0,0,0,1-1V17.07a2.45,2.45,0,0,0-1.63-2.35Zm0,0"/></g></svg>