<svg xmlns="http://www.w3.org/2000/svg" xmlns:xlink="http://www.w3.org/1999/xlink" viewBox="0 0 44.09 18.95"><defs><style>.cls-1{fill:none;}.cls-2{clip-path:url(#clip-path);}.cls-3{fill:#fff;}</style><clipPath id="clip-path"><rect class="cls-1" x="-1457.41" y="4.15" width="1300" height="357"/></clipPath></defs><title>IconoMenuAireRuidoyREM</title><g id="TEXTOS"><path class="cls-3" d="M39.13,9.3a7.38,7.38,0,0,0-4.39-5.07C29.62,2.15,24,5.12,19.36,7.85,16.19,9.73,13,11.78,9.44,12a7.18,7.18,0,0,1-3.81-.89A5.63,5.63,0,0,1,3,8.09a2.79,2.79,0,0,1-.21-1,4.72,4.72,0,0,1,.27-1.65c-1.68,2.79.66,6.09,3,7.28,4.29,2.18,9.14-.89,13-3.17,4.43-2.61,9.44-5.38,14.36-4.07l.41.16c2.82,1.26,5.37,5.14,2.55,8.46l-.24.24a12,12,0,0,1-1.11.84,4.75,4.75,0,0,1-2.89.47,3.14,3.14,0,0,1-2.54-2.27,3.83,3.83,0,0,1,1.1-3.52,2.09,2.09,0,0,1,1-.27c.78.3,1.48,1,1.09,1.91a2,2,0,0,0,.4-2.13A2.16,2.16,0,0,0,31.75,8.1c-2.15-.27-4.24,2.31-4.24,5.18,0,3.62,2.37,5.88,5,5.66A7.06,7.06,0,0,0,37.2,16.7a7.58,7.58,0,0,0,2.15-4.57A8.93,8.93,0,0,0,39.13,9.3Z"/><path class="cls-3" d="M11.77,16.79C9,17.27,5.56,17.12,3.18,15A8.19,8.19,0,0,1,.67,7.5,6.57,6.57,0,0,1,1,5.66a8.8,8.8,0,0,0-.5,6.89,7.69,7.69,0,0,0,6.3,5.37A13.87,13.87,0,0,0,16,16.38,43,43,0,0,0,21,12.67l.79-.58c.14-.12.27-.26.4-.38.66-.58,1.36-1.24,2.09-1.8C20,12,16.44,16,11.77,16.79Z"/><path class="cls-3" d="M36,.24c-5.16-1-10.77,1.05-15.28,4.27-.09.06-.07.26,0,.2A23,23,0,0,1,34.19,1,12.09,12.09,0,0,1,39.9,2.85c2.18,1.36,3.2,3.2,3.76,6.18.07.35.4.07.41-.18C44.37,3.31,39.45.88,36,.24Z"/></g></svg>