<svg xmlns="http://www.w3.org/2000/svg" xmlns:xlink="http://www.w3.org/1999/xlink" viewBox="0 0 32.65 32.65"><defs><style>.cls-1{fill:none;}.cls-2{clip-path:url(#clip-path);}.cls-3{fill:#fff;fill-rule:evenodd;}</style><clipPath id="clip-path"><rect class="cls-1" x="-1532.49" y="63.38" width="1300" height="357"/></clipPath></defs><title>IconoHomeMenu</title><g id="TEXTOS"><path class="cls-3" d="M27.25,16a.89.89,0,0,0-.93,1V30.56H19.63v-5.5a1,1,0,0,0-.85-1H14a1,1,0,0,0-1,1v5.5H6.32V17.48a.94.94,0,0,0-.93-1,.89.89,0,0,0-.93,1V31.66a1,1,0,0,0,.93,1H14a1,1,0,0,0,.83-1V26h3v5.62a1.05,1.05,0,0,0,1,1h8.47a1,1,0,0,0,.93-1V17a.94.94,0,0,0-.93-1Zm5.11.73h0C26.22,10.14,22.41,6.11,16.93.36A.76.76,0,0,0,16.37,0a.92.92,0,0,0-.74.36L.28,16.63a1.16,1.16,0,0,0-.28.73.68.68,0,0,0,.28.6.76.76,0,0,0,1.3,0L16.37,2.44,31.06,18.21a.94.94,0,0,0,.66.24,1.11,1.11,0,0,0,.64-.24,1.09,1.09,0,0,0,0-1.47Z"/></g></svg>