<svg xmlns="http://www.w3.org/2000/svg" xmlns:xlink="http://www.w3.org/1999/xlink" viewBox="0 0 31.39 30.08"><defs><style>.cls-1{fill:none;}.cls-2{clip-path:url(#clip-path);}.cls-3{fill:#fff;}</style><clipPath id="clip-path"><rect class="cls-1" x="-1584.1" y="-36.28" width="1300" height="357"/></clipPath></defs><title>IconoMenuZoonosisyVectores</title><g id="TEXTOS"><path class="cls-3" d="M10.38,0V1.32C11.93,1.32,13.2,3,13.22,5S12,8.64,10.4,8.66,7.57,7,7.55,5a4.16,4.16,0,0,1,.89-2.68,2.56,2.56,0,0,1,1.92-1l0-1.32m0,0h0C8.05,0,6.21,2.27,6.23,5s1.89,5,4.17,5h0c2.29,0,4.14-2.28,4.11-5S12.65,0,10.38,0Z"/><path class="cls-3" d="M19.81.83V2.15c1.55,0,2.82,1.64,2.84,3.65a4.11,4.11,0,0,1-.89,2.68,2.53,2.53,0,0,1-1.93,1C18.28,9.49,17,7.85,17,5.84s1.24-3.67,2.81-3.69l0-1.32m0,0h0c-2.29,0-4.13,2.27-4.11,5s1.89,5,4.17,5h0c2.29,0,4.14-2.28,4.11-5S22.08.83,19.81.83Z"/><path class="cls-3" d="M28.37,9.35a1.33,1.33,0,0,1,.45.07c1.11.37,1.56,2.05,1,3.74-.48,1.44-1.56,2.48-2.58,2.48a1.63,1.63,0,0,1-.45-.07,1.79,1.79,0,0,1-1.07-1.2,4,4,0,0,1,.07-2.54c.48-1.44,1.56-2.48,2.58-2.48m0-1.32c-1.58,0-3.15,1.33-3.83,3.38-.81,2.43,0,4.8,1.83,5.41a2.64,2.64,0,0,0,.87.14c1.58,0,3.16-1.33,3.83-3.38.81-2.43,0-4.81-1.83-5.41A2.64,2.64,0,0,0,28.37,8Z"/><path class="cls-3" d="M3.33,8.58c1.14,0,2.12,1.36,2.24,3.09S4.83,15,3.66,15H3.57C2.43,15,1.45,13.68,1.33,12A4.1,4.1,0,0,1,1.9,9.46a1.77,1.77,0,0,1,1.34-.88h.09m0-1.33H3.15C1.22,7.39-.15,9.48,0,12s1.71,4.32,3.56,4.32h.18c1.92-.13,3.3-2.23,3.14-4.78S5.18,7.25,3.33,7.25Z"/><path class="cls-3" d="M9.78,30.08a6.49,6.49,0,0,1-6.39-6.17,7.42,7.42,0,0,1,1.32-4.65,51.1,51.1,0,0,1,5.59-6.12,6.88,6.88,0,0,1,9.54-.09,52,52,0,0,1,5.71,6A7.22,7.22,0,0,1,27,23.71,6.47,6.47,0,0,1,20.61,30,6.89,6.89,0,0,1,16,27.91a1.16,1.16,0,0,0-1.6,0,7,7,0,0,1-4.55,2.17H9.78Zm5.34-17.59a5.48,5.48,0,0,0-3.89,1.59A47.14,47.14,0,0,0,5.82,20a6,6,0,0,0-1.11,3.85,5.22,5.22,0,0,0,5.08,4.92h0A5.7,5.7,0,0,0,13.48,27a2.48,2.48,0,0,1,3.41,0,5.65,5.65,0,0,0,3.68,1.72h0a5.22,5.22,0,0,0,5-5,6.07,6.07,0,0,0-1.17-3.83A51.25,51.25,0,0,0,18.93,14,5.48,5.48,0,0,0,15.12,12.49Z"/></g></svg>