<svg xmlns="http://www.w3.org/2000/svg" xmlns:xlink="http://www.w3.org/1999/xlink" viewBox="0 0 21.06 31.59"><defs><style>.cls-1{fill:none;}.cls-2{clip-path:url(#clip-path);}.cls-3{fill:#fff;}</style><clipPath id="clip-path"><rect class="cls-1" x="-1460.04" y="-34.53" width="1300" height="357"/></clipPath></defs><title>IconoMenuSeguridadQuimica</title><g id="TEXTOS"><rect class="cls-3" x="12.38" y="17.33" width="1.4" height="7.85" transform="translate(-9.06 9.75) rotate(-30.94)"/><path class="cls-3" d="M0,28.66a2.94,2.94,0,0,0,2.93,2.93h15.2a2.94,2.94,0,0,0,2.93-2.93,3,3,0,0,0-.37-1.43L14,15.26V9.13h1.4V4.91h-1.7a3.45,3.45,0,0,0,.3-1.4A3.51,3.51,0,0,0,10.53,0,3.46,3.46,0,0,0,8,1.12,3.5,3.5,0,0,0,2.81,4.21V15.44a2.11,2.11,0,1,0,4.21,0V13.92a2.06,2.06,0,0,0,.7.12,2.12,2.12,0,0,0,2.11-2.11V9.13h2.81v6.5l6.82,12.28a1.52,1.52,0,0,1-1.33,2.27H2.93A1.52,1.52,0,0,1,1.6,27.91l4.63-8.34L5,18.89.37,27.23A3,3,0,0,0,0,28.66ZM14,7.72H9.83V6.32H8.42v5.61a.7.7,0,1,1-1.4,0V9.13H5.62v6.31a.71.71,0,1,1-1.41,0V4.21a2.11,2.11,0,0,1,2.11-2.1,2,2,0,0,1,1.35.51l.63.53.43-.71a2.08,2.08,0,0,1,1.8-1,2.11,2.11,0,1,1,0,4.22V7a3.47,3.47,0,0,0,2.11-.72v0H14Z"/><rect class="cls-3" x="15.8" y="26.08" width="1.4" height="1.57" transform="translate(-10.27 10.21) rotate(-26.57)"/><rect class="cls-3" x="9.83" y="2.81" width="1.4" height="1.4"/><rect class="cls-3" x="5.62" y="6.32" width="1.4" height="1.4"/></g></svg>