<svg xmlns="http://www.w3.org/2000/svg" xmlns:xlink="http://www.w3.org/1999/xlink" viewBox="0 0 18.87 26.08"><defs><style>.cls-1{fill:none;}.cls-2{clip-path:url(#clip-path);}.cls-3{fill:#fff;}</style><clipPath id="clip-path"><rect class="cls-1" x="-1504.09" y="105.72" width="1300" height="357"/></clipPath></defs><title>IconoMenuAguaySaneamiento</title><g id="TEXTOS"><path class="cls-3" d="M15.4,6.14C14.59,4.7,11.78,0,9.92,0a1.13,1.13,0,0,0-1,.58A41.36,41.36,0,0,1,5.85,4.76C3.11,8.17,0,12,0,15.91c0,5.61,4.23,10.17,9.43,10.17s9.44-4.56,9.44-10.17c0-3.39-2.65-8.34-3.47-9.77Zm-6,18.67c-4.55,0-8.26-4-8.26-8.9,0-3.4,3-7.08,5.56-10.32a42.84,42.84,0,0,0,3.2-4.32h0c.2,0,.78.33,1.76,1.5a27.74,27.74,0,0,1,2.71,4c2,3.58,3.3,7.07,3.3,9.11,0,4.91-3.71,8.9-8.27,8.9Zm0,0"/><path class="cls-3" d="M13.44,19.78A6,6,0,0,1,9.5,21.29a5.92,5.92,0,0,1-3.77-1.36.56.56,0,0,0-.82.13.66.66,0,0,0,.12.88A7,7,0,0,0,9.5,22.55a7.09,7.09,0,0,0,4.68-1.79.67.67,0,0,0,.09-.89.56.56,0,0,0-.83-.09Zm0,0"/></g></svg>