<svg xmlns="http://www.w3.org/2000/svg" xmlns:xlink="http://www.w3.org/1999/xlink" viewBox="0 0 24.65 15.1"><defs><style>.cls-1{fill:none;}.cls-2{clip-path:url(#clip-path);}.cls-3{clip-path:url(#clip-path-2);}.cls-4{fill:#fff;}</style><clipPath id="clip-path"><rect class="cls-1" x="-1384.74" y="135" width="1300" height="357"/></clipPath><clipPath id="clip-path-2"><rect class="cls-1" width="24.65" height="15.1"/></clipPath></defs><title>IconoAccesibilidadOido</title><g id="TEXTOS"><g class="cls-3"><path class="cls-4" d="M11.68,14.65C5.05,14.65.27,7.79.07,7.49A.39.39,0,0,1,.09,7c.22-.29,5.6-7,12-7C19.37,0,24,6.75,24.2,7a.43.43,0,0,1,0,.46c-.2.27-4.77,6.77-12,7.13l-.47,0ZM.91,7.28c.94,1.25,5.46,6.84,11.2,6.55,6.14-.31,10.38-5.42,11.26-6.57C22.49,6.09,18.21.81,12.13.81,6.73.81,1.92,6.1.91,7.28Zm0,0"/></g><path class="cls-4" d="M12.13,10.14A2.82,2.82,0,1,1,15,7.32a2.82,2.82,0,0,1-2.82,2.82Zm0,0"/><path class="cls-4" d="M12.13,12.35a5,5,0,1,1,5-5,5,5,0,0,1-5,5Zm0-9.25a4.23,4.23,0,1,0,4.23,4.22A4.23,4.23,0,0,0,12.13,3.1Zm0,0"/></g></svg>