<svg xmlns="http://www.w3.org/2000/svg" xmlns:xlink="http://www.w3.org/1999/xlink" viewBox="0 0 27.18 26.18"><defs><style>.cls-1{fill:none;}.cls-2{clip-path:url(#clip-path);}.cls-3{fill:#009de1;}</style><clipPath id="clip-path"><rect class="cls-1" x="-1411.82" y="49.18" width="1300" height="357"/></clipPath></defs><title>IconoVigilanciaSaludAmbiental</title><g id="TEXTOS"><path class="cls-3" d="M26.28,22.63,20,16.31A6.44,6.44,0,0,1,17.31,19l6.32,6.32c1,1,1.9,1.27,2.91.26S27.29,23.64,26.28,22.63Z"/><path class="cls-3" d="M20.65,10.33A10.33,10.33,0,1,0,10.33,20.65,10.32,10.32,0,0,0,20.65,10.33ZM10.32,19.55a9.23,9.23,0,1,1,9.23-9.23A9.24,9.24,0,0,1,10.32,19.55Z"/><path class="cls-3" d="M16,15.74l-.21-1.31a4.31,4.31,0,0,0,1.45-5.91L18,7.46A6,6,0,0,1,16,15.74Z"/><path class="cls-3" d="M11.13,2a.36.36,0,0,0-.44,0c-.21.14-5.07,3.35-5.5,8-.39,4.21,3.1,8,3.81,8.7l0,1.53a.36.36,0,1,0,.71.07l0-1.54c.83-.58,5-3.63,5.35-7.84C15.49,6.23,11.3,2.17,11.13,2ZM9.79,17.72l.38-4,2.14-1.47a.35.35,0,1,0-.4-.58l-1.66,1.14.11-1.2,2.15-1.47a.36.36,0,0,0-.4-.59L10.45,10.7l.14-1.55,2.15-1.47a.35.35,0,1,0-.4-.58L10.68,8.23l.26-2.77a.36.36,0,0,0-.71-.06L10,8.17,8.56,6.75a.35.35,0,0,0-.5,0,.36.36,0,0,0,0,.5L9.89,9.09l-.15,1.55L8.33,9.21a.36.36,0,0,0-.51.5l1.84,1.84-.11,1.2L8.13,11.33a.35.35,0,0,0-.5.5l1.83,1.84-.37,4C8,16.42,5.58,13.29,5.89,10c.35-3.7,4-6.55,5-7.25.82.87,3.86,4.34,3.51,8C14,14.08,11.1,16.71,9.79,17.72Z"/></g></svg>