<svg xmlns="http://www.w3.org/2000/svg" xmlns:xlink="http://www.w3.org/1999/xlink" viewBox="0 0 274.86 31.19"><defs><style>.cls-1{fill:none;}.cls-2{clip-path:url(#clip-path);}.cls-3{fill:#fff;}.cls-4{fill:#1b9ad6;}</style><clipPath id="clip-path"><rect class="cls-1" x="-1375.09" y="201.19" width="1300" height="357"/></clipPath></defs><title>LogoAlcaldia</title><g id="TEXTOS"><polygon class="cls-3" points="267.28 31.19 0 31.19 6.43 0 274.86 0 267.28 31.19"/><path class="cls-4" d="M22.36,23.28,29.84,6.93A1.35,1.35,0,0,1,31.15,6h.11a1.33,1.33,0,0,1,1.29.92L40,23.25a1.4,1.4,0,0,1,.14.53,1,1,0,0,1-1,1,1.13,1.13,0,0,1-1-.77l-1.92-4.23H26.1l-1.92,4.29a1.06,1.06,0,0,1-1,.71.94.94,0,0,1-.95-1A1.25,1.25,0,0,1,22.36,23.28Zm13-5.4L31.15,8.46l-4.23,9.42Z"/><path class="cls-4" d="M42.66,6.33a1,1,0,1,1,2,0V23.75a1,1,0,0,1-1,1,1,1,0,0,1-1-1Z"/><path class="cls-4" d="M47.24,17.91v-.06a7.07,7.07,0,0,1,12-5.13,1,1,0,0,1,.32.71,1,1,0,0,1-1,1,1.06,1.06,0,0,1-.66-.24,5.28,5.28,0,0,0-3.71-1.63,5,5,0,0,0-4.87,5.26v.05a5.08,5.08,0,0,0,5,5.29,5.47,5.47,0,0,0,3.79-1.65.8.8,0,0,1,.58-.27,1,1,0,0,1,.92.92,1,1,0,0,1-.26.64A6.86,6.86,0,0,1,54.21,25,7,7,0,0,1,47.24,17.91Z"/><path class="cls-4" d="M60.77,20.7v-.06c0-2.87,2.37-4.39,5.82-4.39a14.18,14.18,0,0,1,4.18.58v-.48c0-2.44-1.5-3.71-4-3.71a8.46,8.46,0,0,0-3.53.77,1.07,1.07,0,0,1-.37.08.9.9,0,0,1-.89-.87.92.92,0,0,1,.55-.84,10.55,10.55,0,0,1,4.45-.93,6,6,0,0,1,4.39,1.5,5.4,5.4,0,0,1,1.4,4v7.45a1,1,0,0,1-1,1,.93.93,0,0,1-1-1V22.59a6,6,0,0,1-4.92,2.35C63.32,24.94,60.77,23.49,60.77,20.7Zm10-1.05V18.33a14.21,14.21,0,0,0-4-.58c-2.56,0-4,1.11-4,2.82v.05c0,1.71,1.58,2.71,3.42,2.71C68.74,23.33,70.8,21.8,70.8,19.65Z"/><path class="cls-4" d="M75.9,6.33a1,1,0,1,1,2,0V23.75a1,1,0,0,1-1,1,1,1,0,0,1-1-1Z"/><path class="cls-4" d="M94.28,23.75a1,1,0,1,1-2,0V21.91a6.12,6.12,0,0,1-5.21,3c-3.27,0-6.5-2.59-6.5-7.06v-.05c0-4.45,3.23-7.08,6.5-7.08a6.15,6.15,0,0,1,5.21,2.89V6.33a1,1,0,0,1,1-1,1,1,0,0,1,1,1ZM82.61,17.8v.05c0,3.22,2.24,5.27,4.8,5.27a5.08,5.08,0,0,0,4.92-5.27V17.8a5.06,5.06,0,0,0-4.92-5.24C84.77,12.56,82.61,14.51,82.61,17.8Z"/><path class="cls-4" d="M97.67,11.93a1,1,0,0,1,1-1,1,1,0,0,1,1,1V23.75a1,1,0,0,1-1,1,1,1,0,0,1-1-1Zm.48-3.21a.68.68,0,0,1,.13-.39l1.58-2.4a1.12,1.12,0,0,1,1-.61c.63,0,1.42.43,1.42.79s-.16.4-.37.61l-2,1.87a1.48,1.48,0,0,1-1.23.5C98.36,9.09,98.15,8.93,98.15,8.72Z"/><path class="cls-4" d="M102.07,20.7v-.06c0-2.87,2.37-4.39,5.82-4.39a14.18,14.18,0,0,1,4.18.58v-.48c0-2.44-1.5-3.71-4-3.71a8.46,8.46,0,0,0-3.53.77,1.07,1.07,0,0,1-.37.08.9.9,0,0,1-.89-.87.92.92,0,0,1,.55-.84,10.55,10.55,0,0,1,4.45-.93,6,6,0,0,1,4.39,1.5,5.4,5.4,0,0,1,1.4,4v7.45a1,1,0,0,1-1,1,.94.94,0,0,1-1-1V22.59a6,6,0,0,1-4.92,2.35C104.62,24.94,102.07,23.49,102.07,20.7Zm10-1.05V18.33a14.21,14.21,0,0,0-4-.58c-2.56,0-4,1.11-4,2.82v.05c0,1.71,1.58,2.71,3.42,2.71C110,23.33,112.1,21.8,112.1,19.65Z"/><path class="cls-4" d="M136.55,23.75a1,1,0,1,1-2,0V21.91a6.12,6.12,0,0,1-5.21,3c-3.26,0-6.5-2.59-6.5-7.06v-.05c0-4.45,3.24-7.08,6.5-7.08a6.14,6.14,0,0,1,5.21,2.89V6.33a1,1,0,0,1,1-1,1,1,0,0,1,1,1ZM124.89,17.8v.05c0,3.22,2.24,5.27,4.79,5.27a5.08,5.08,0,0,0,4.92-5.27V17.8a5.06,5.06,0,0,0-4.92-5.24C127.05,12.56,124.89,14.51,124.89,17.8Z"/><path class="cls-4" d="M145.71,25a6.76,6.76,0,0,1-6.79-7.08v-.05c0-3.92,2.76-7.08,6.53-7.08,4,0,6.32,3.29,6.32,6.89a.94.94,0,0,1-1,.95H141a4.76,4.76,0,0,0,4.8,4.61,5.57,5.57,0,0,0,3.92-1.58.87.87,0,1,1,1.16,1.29A6.93,6.93,0,0,1,145.71,25Zm4-7.87c-.21-2.47-1.63-4.63-4.34-4.63-2.37,0-4.16,2-4.43,4.63Z"/><path class="cls-4" d="M161,7.27a1.05,1.05,0,0,1,1-1h6.82a6.81,6.81,0,0,1,4.82,1.63,4.11,4.11,0,0,1,1.18,3v0a4.44,4.44,0,0,1-2.92,4.27c2.18.65,4,1.92,4,4.45v.05c0,3.16-2.66,5-6.69,5H162a1.06,1.06,0,0,1-1-1.06Zm7.51,7.16c2.5,0,4.23-1.13,4.23-3.29v-.05c0-1.82-1.44-3-4.08-3H163v6.34Zm.73,8.35c2.79,0,4.53-1.24,4.53-3.29v-.06c0-2-1.68-3.16-4.89-3.16H163v6.51Z"/><path class="cls-4" d="M177.46,17.91v-.06a7.1,7.1,0,0,1,14.19-.05v.05A7.07,7.07,0,0,1,184.51,25,7,7,0,0,1,177.46,17.91Zm12.11,0v-.06a5.15,5.15,0,0,0-5.06-5.31,5,5,0,0,0-5,5.26v.05a5.11,5.11,0,0,0,5,5.29A5,5,0,0,0,189.57,17.91Z"/><path class="cls-4" d="M194.33,27.3a.93.93,0,0,1-.52-.84,1,1,0,0,1,.92-.89.85.85,0,0,1,.45.13A8.55,8.55,0,0,0,200,27.17c3,0,4.95-1.66,4.95-4.84V20.72a6.44,6.44,0,0,1-5.34,2.87,6.29,6.29,0,0,1-6.4-6.37v0a6.45,6.45,0,0,1,11.72-3.68V11.93a1,1,0,0,1,1-1,1,1,0,0,1,1,1V22.28a6.52,6.52,0,0,1-1.74,4.81A7.1,7.1,0,0,1,200,28.91,10.61,10.61,0,0,1,194.33,27.3ZM205,17.2v-.06a4.76,4.76,0,0,0-5-4.6,4.5,4.5,0,0,0-4.71,4.58v.05A4.61,4.61,0,0,0,200,21.8,4.8,4.8,0,0,0,205,17.2Z"/><path class="cls-4" d="M209.31,17.91v-.06a7.1,7.1,0,0,1,14.19-.05v.05A7.07,7.07,0,0,1,216.37,25,7,7,0,0,1,209.31,17.91Zm12.11,0v-.06a5.15,5.15,0,0,0-5-5.31,5,5,0,0,0-5,5.26v.05a5.11,5.11,0,0,0,5,5.29A5,5,0,0,0,221.42,17.91Z"/><path class="cls-4" d="M226.55,21V12.83h-1.1a.92.92,0,0,1-.9-.9.9.9,0,0,1,.9-.89h1.1V7.83a1,1,0,0,1,1-1,1,1,0,0,1,1,1V11h3.53a.93.93,0,0,1,.92.89.91.91,0,0,1-.92.9h-3.53v7.94A2,2,0,0,0,230.87,23a5.94,5.94,0,0,0,1.24-.18.88.88,0,0,1,.87.86.85.85,0,0,1-.58.79,5.06,5.06,0,0,1-2,.37C228.21,24.88,226.55,23.8,226.55,21Z"/><path class="cls-4" d="M234.13,20.7v-.06c0-2.87,2.37-4.39,5.82-4.39a14.2,14.2,0,0,1,4.19.58v-.48c0-2.44-1.5-3.71-4.06-3.71a8.5,8.5,0,0,0-3.53.77,1.07,1.07,0,0,1-.36.08.9.9,0,0,1-.9-.87.92.92,0,0,1,.55-.84,10.62,10.62,0,0,1,4.45-.93,6,6,0,0,1,4.4,1.5,5.4,5.4,0,0,1,1.39,4v7.45a1,1,0,0,1-1,1,.93.93,0,0,1-1-1V22.59a6,6,0,0,1-4.93,2.35C236.69,24.94,234.13,23.49,234.13,20.7Zm10-1.05V18.33a14.16,14.16,0,0,0-4-.58c-2.55,0-4,1.11-4,2.82v.05c0,1.71,1.58,2.71,3.42,2.71C242.11,23.33,244.16,21.8,244.16,19.65ZM240,8.72a.68.68,0,0,1,.13-.39l1.58-2.4a1.15,1.15,0,0,1,1-.61c.63,0,1.42.43,1.42.79s-.16.4-.37.61l-2,1.87a1.5,1.5,0,0,1-1.24.5C240.16,9.09,240,8.93,240,8.72Z"/></g></svg>