<svg id="Capa_1" data-name="Capa 1" xmlns="http://www.w3.org/2000/svg" viewBox="0 0 16.48 16.48"><defs><style>.cls-1{fill:#fff;}</style></defs><title>LupaBuscador</title><path class="cls-1" d="M16,13.84l-3.78-3.78a7.31,7.31,0,0,1-2.18,2.18L13.84,16A1.54,1.54,0,0,0,16,13.84Z"/><path class="cls-1" d="M12.36,6.18a6.18,6.18,0,1,0-6.18,6.18A6.18,6.18,0,0,0,12.36,6.18ZM6.18,10.81a4.64,4.64,0,1,1,4.63-4.63A4.64,4.64,0,0,1,6.18,10.81Z"/><path class="cls-1" d="M2.57,6.18h1A2.59,2.59,0,0,1,6.18,3.6v-1A3.61,3.61,0,0,0,2.57,6.18Z"/></svg>